<?xml version="1.0" encoding="iso-8859-1"?>
<!DOCTYPE svg PUBLIC "-//W3C//DTD SVG 1.1//EN" "http://www.w3.org/Graphics/SVG/1.1/DTD/svg11.dtd" [
    <!ENTITY ns_flows "http://ns.adobe.com/Flows/1.0/">
    <!ENTITY ns_extend "http://ns.adobe.com/Extensibility/1.0/">
    <!ENTITY ns_ai "http://ns.adobe.com/AdobeIllustrator/10.0/">
    <!ENTITY ns_graphs "http://ns.adobe.com/Graphs/1.0/">
]>
<!-- Generator: Adobe Illustrator 19.0.0, SVG Export Plug-In . SVG Version: 6.00 Build 0)  -->
<svg version="1.1" id="Layer_1" xmlns:x="&ns_extend;" xmlns:i="&ns_ai;" xmlns:graph="&ns_graphs;"
	 xmlns="http://www.w3.org/2000/svg" xmlns:xlink="http://www.w3.org/1999/xlink" xmlns:a="http://ns.adobe.com/AdobeSVGViewerExtensions/3.0/"
	 x="0px" y="0px" viewBox="0 0 1500 1500" style="enable-background:new 0 0 1500 1500;" xml:space="preserve">
<g id="XMLID_5514_">
	<path id="XMLID_6633_" style="fill:#27262E;" d="M1176.236,893.539c4.324,1.254,8.708,2.071,13.229,2.014
		c2.12-0.027,4.227-0.191,6.308-0.61c0.717-0.147,1.183-0.597,1.331-1.321c0.141-0.701-0.302-1.091-0.833-1.414
		c-1.554-0.949-3.072-1.947-4.693-2.789c-2.428-1.264-4.919-2.363-7.51-3.233c-6.446-2.164-13.032-2.931-19.794-2.033
		c-0.731,0.097-1.418,0.446-2.224,0.194c-0.374-0.117-0.714-0.174-1.019-0.456c-2.37-2.182-4.773-4.326-7.273-6.358
		c-0.758-0.617-1.507-1.244-2.281-1.884c0.231-0.114,0.39-0.013,0.551,0.022c4.921,1.111,9.888,1.29,14.896,0.803
		c2.185-0.214,4.341-0.583,6.482-1.036c1.299-0.275,2.578-0.647,3.858-0.995c0.612-0.164,1.059-0.526,1.161-1.197
		c0.099-0.662-0.126-1.21-0.63-1.642c-0.092-0.08-0.196-0.151-0.196-0.151c-2.373-1.311-4.726-2.36-7.186-3.171
		c-7.31-2.413-14.708-2.75-22.186-0.887c-1.624,0.404-3.214,0.928-4.763,1.574c-0.389,0.161-0.714,0.189-1.096-0.084
		c-1.379-0.984-2.765-1.968-4.19-2.883c-3.139-2.016-6.298-3.999-9.523-5.876c0.194-0.067,0.385,0.017,0.572,0.054
		c3.122,0.588,6.271,0.962,9.444,1.14c6.922,0.389,13.769-0.171,20.553-1.537c3.767-0.759,7.471-1.766,11.104-3.018
		c1.255-0.432,2.502-0.892,3.737-1.381c1.138-0.449,1.471-1.414,0.928-2.524c-0.064-0.132-0.119-0.27-0.178-0.404
		c-0.251-0.156-0.501-0.313-0.753-0.468c-0.91-0.243-1.706-0.751-2.552-1.14c-4.32-1.994-8.839-3.3-13.548-3.958
		c-4.491-0.63-8.983-0.613-13.464,0.054c-7.609,1.131-14.555,3.918-20.803,8.423c-0.401,0.288-0.816,0.558-1.034,1.027
		c-0.131,0.278-0.325,0.236-0.55,0.122c-0.918-0.469-1.844-0.928-2.762-1.401c-2.668-1.373-5.373-2.665-8.11-3.891
		c-0.783-0.352-1.56-0.711-2.368-1.079c0.131-0.211,0.315-0.147,0.463-0.151c6.62-0.102,12.754-1.937,18.502-5.165
		c3.258-1.83,6.204-4.076,8.907-6.647c0.126-0.121,0.246-0.241,0.364-0.367c0.466-0.498,0.573-1.088,0.362-1.714
		c-0.221-0.659-0.68-1.066-1.399-1.14c-1.225-0.127-2.455-0.179-3.685-0.186c-3.657-0.018-7.277,0.364-10.833,1.212
		c-4.361,1.039-8.494,2.661-12.281,5.095c-2.437,1.565-4.649,3.394-6.558,5.577c-0.561,0.64-0.568,0.65-1.366,0.33
		c-4.25-1.699-8.547-3.266-12.884-4.721c-0.065-0.022-0.121-0.072-0.174-0.106c0.007-0.144,0.117-0.158,0.204-0.176
		c3.59-0.796,7.019-2.107,10.5-3.251c3.062-1.009,6.119-2.031,9.102-3.258c3.952-1.622,7.743-3.539,11.182-6.1
		c1.88-1.401,3.585-2.995,5.058-4.827c0.263-0.328,0.501-0.669,0.607-1.086c0.295-1.171-0.332-2.075-1.525-2.177
		c-1.547-0.131-3.097-0.166-4.647-0.151c-4.525,0.045-8.983,0.635-13.359,1.77c-5.148,1.334-10.039,3.317-14.657,5.963
		s-8.815,5.837-12.586,9.59c-0.312,0.31-0.593,0.444-1.039,0.313c-4.227-1.237-8.499-2.306-12.774-3.364
		c-0.114-0.028-0.248-0.03-0.305-0.166c0.022-0.124,0.129-0.131,0.129-0.131c5.343-1.113,10.223-3.166,14.895-5.758
		c2.157-1.197,4.181-2.589,6.162-4.052c0.198-0.144,0.399-0.288,0.583-0.451c0.984-0.866,0.905-2.154-0.193-2.867
		c-0.766-0.496-1.614-0.845-2.467-1.156c-3.958-1.445-7.946-1.435-11.954-0.204c-4.465,1.368-8.071,4.012-11.155,7.443
		c-0.871,0.97-1.726,1.952-2.427,3.062c-0.382,0.605-0.711,1.233-0.959,1.907c-0.223,0.613-0.251,0.623-0.922,0.491
		c-2.561-0.501-5.116-1.017-7.679-1.5c-1.934-0.364-3.876-0.685-5.815-1.027c-0.233-0.042-0.479-0.049-0.778-0.22
		c0.419-0.191,0.784-0.221,1.138-0.285c3.156-0.568,6.115-1.684,8.911-3.234c4.56-2.531,8.373-5.933,11.547-10.062
		c1.006-1.307,1.981-2.638,2.814-4.061c2.175-3.716,3.824-7.644,4.807-11.854c0.313-1.337-0.421-2.5-1.939-2.556
		c-1.83-0.065-3.633,0.146-5.4,0.652c-3.397,0.977-6.333,2.789-9.065,4.974c-2.636,2.108-5.019,4.496-7.417,6.865
		c-1.996,1.971-3.952,3.984-5.69,6.191c-1.984,2.521-3.778,5.16-4.716,8.281c-0.359,1.188-0.533,2.402-0.503,3.642
		c0.017,0.702,0.017,0.707-0.664,0.613c-2.17-0.292-4.337-0.593-6.509-0.878c-2.879-0.375-5.763-0.711-8.653-0.999
		c-0.258-0.027-0.53-0.007-0.783-0.127c0.107-0.268,0.339-0.325,0.52-0.434c4.066-2.465,7.515-5.609,10.441-9.352
		c3.531-4.518,6.02-9.554,7.615-15.048c0.392-1.344-0.409-2.356-1.815-2.303c-0.243,0.01-0.484,0.074-0.727,0.117
		c-1.959,0.365-3.917,0.732-5.876,1.096c-2.036,0.379-4.037,0.871-5.976,1.616c-2.162,0.826-3.922,2.172-5.207,4.076
		c-1.818,2.695-3.499,5.474-4.656,8.534c-0.639,1.688-1.083,3.421-1.207,5.23c-0.121,1.795,0.075,3.538,0.791,5.204
		c0.086,0.198,0.21,0.392,0.161,0.734c-1.403-0.101-2.812-0.201-4.22-0.302c-1.448-0.104-2.896-0.218-4.344-0.307
		c-1.425-0.089-2.851-0.154-4.277-0.228c-1.411-0.072-2.826-0.142-4.267-0.213c0.084-0.325,0.308-0.407,0.473-0.538
		c1.869-1.471,3.464-3.206,4.93-5.066c1.934-2.457,3.642-5.071,5.293-7.726c4.562-7.342,7.83-15.204,9.566-23.687
		c0.399-1.952,0.719-3.918,0.984-5.896c0.109-0.821-0.082-1.545-0.789-2.011c-0.697-0.463-1.428-0.379-2.16,0.034
		c-4.088,2.301-7.684,5.22-10.912,8.607c-2.278,2.393-4.304,4.981-6.1,7.761c-2.805,4.336-4.927,8.954-6.097,13.992
		c-1.056,4.545-1.225,9.107-0.235,13.689c0.137,0.642,0.099,0.687-0.546,0.67c-5.735-0.148-11.467-0.069-17.198,0.169
		c-0.835,0.035-1.669,0.087-2.507,0.116c-0.178,0.007-0.439,0.112-0.503-0.146c-0.057-0.23,0.194-0.313,0.352-0.421
		c0.548-0.374,1.115-0.722,1.652-1.113c2.628-1.904,4.89-4.183,6.891-6.734c1.307-1.668,2.512-3.405,3.56-5.247
		c2.368-4.168,4.19-8.567,5.474-13.188c0.607-2.184,1.086-4.394,1.455-6.63c0.114-0.689,0.044-1.317-0.444-1.864
		c-0.545-0.613-1.161-0.758-1.919-0.389c-1.927,0.945-3.744,2.075-5.479,3.337c-2.965,2.157-5.572,4.688-7.795,7.599
		c-4.237,5.546-6.802,11.768-7.426,18.748c-0.163,1.817-0.166,3.637-0.015,5.457c0.01,0.124,0.02,0.245,0.032,0.369
		c0.035,0.328-0.089,0.516-0.441,0.528c-0.295,0.01-0.59,0.039-0.885,0.062c-6.11,0.483-12.191,1.22-18.241,2.204
		c-0.117,0.018-0.241,0.074-0.399-0.065c0.587-0.657,1.17-1.311,1.75-1.969c1.468-1.661,2.807-3.419,4.109-5.21
		c1.25-1.716,2.37-3.509,3.432-5.336c2.182-3.751,3.985-7.682,5.435-11.775c1.624-4.582,2.797-9.276,3.533-14.081
		c0.03-0.194,0.055-0.391,0.065-0.587c0.03-0.734-0.285-1.287-0.922-1.641c-0.597-0.333-1.177-0.28-1.736,0.109
		c-1.679,1.165-3.302,2.403-4.853,3.734c-2.47,2.118-4.768,4.408-6.854,6.906c-1.262,1.51-2.447,3.077-3.563,4.701
		c-0.992,1.443-1.89,2.936-2.742,4.458c-2.035,3.637-3.824,7.386-4.976,11.406c-0.605,2.113-0.994,4.265-0.799,6.482
		c0.117,1.317,0.429,2.571,1.163,3.694c0.067,0.101,0.107,0.22,0.158,0.332c0,0-0.01,0.047-0.032,0.144
		c-7.049,1.458-14.049,3.234-20.932,5.462c-0.059,0.018-0.132-0.018-0.213-0.032c-0.007-0.285,0.186-0.459,0.31-0.66
		c0.749-1.213,1.53-2.41,2.254-3.64c2.338-3.958,4.099-8.172,5.457-12.559c1.957-6.327,2.862-12.807,2.852-19.424
		c-0.007-4.592-0.494-9.135-1.435-13.63c-0.023-0.121-0.059-0.24-0.077-0.36c-0.255-1.622-2.249-1.746-3.069-0.945
		c-0.461,0.452-0.828,0.979-1.208,1.488c-2.152,2.878-4.15,5.854-5.886,9.01c-1.664,3.025-3.137,6.13-4.374,9.348
		c-2.494,6.476-4.019,13.169-4.451,20.101c-0.288,4.634-0.07,9.248,0.712,13.83c0.119,0.694,0.124,0.701-0.535,0.96
		c-5.339,2.105-10.548,4.491-15.623,7.175c-5.599,2.958-10.981,6.268-16.136,9.948c-0.412,0.295-0.778,0.687-1.311,0.788
		c-0.282,0.449-0.56,0.9-0.858,1.379c0.499,0.312,1.002,0.625,1.503,0.937c0.622-0.129,1.115-0.509,1.624-0.848
		c1.75-1.16,3.677-2.001,5.467-3.087c-1.512,1.951-3.023,3.95-4.535,5.681c-2.641,2.789-5.43,5.886-8.393,8.353
		c-1.984,1.984-4.451,3.607-6.596,5.256c-0.979,0.657-1.971,1.227-3.124,1.562c-2.145,0.657-3.298-0.298-2.802-2.443
		c0.496-2.306,1.153-4.58,2.145-6.725c2.963-6.422,6.087-12.665,9.05-18.913c6.1-13.179,12.187-26.359,18.287-39.525
		c0.979-2.306,2.789-3.124,4.934-3.62c1.153-0.335,2.306-0.335,3.459-0.335c2.467,0,4.934-0.161,7.414,0
		c2.467,0.174,4.116-0.657,5.43-2.628c0.161-0.174,0.322-0.335,0.496-0.657c-1.649-0.831-3.298-1.649-5.108-1.649
		c-2.306,0.161-4.612,0.322-6.918,0.322c-1.81,0.174-3.62,0.335-5.43,0.335c0.161-0.335,0.161-0.496,0.322-0.657
		c1.153-2.467,2.641-4.947,3.794-7.575c1.475-2.963,2.802-5.926,4.116-9.063c0.992-2.467,0.322-4.773-1.488-6.744
		c-1.314-1.314-2.628-2.641-4.116-3.955c-1.153-1.314-2.306-0.992-3.124,0.496c-3.955,8.071-7.736,15.968-11.691,24.039
		c-0.496,1.153-1.314,1.971-2.467,2.306c-0.992,0.335-2.145,0.657-3.124,0.657c-2.641,0-5.282-0.161-7.749-0.161
		c-1.475-0.161-2.963-0.161-4.277-0.335c-0.335,2.467,0.335,3.62,2.467,4.29c1.984,0.657,3.955,0.979,5.926,1.314
		c1.649,0.322,3.137,0.657,4.773,0.992c-0.322,0.483-0.483,0.979-0.657,1.475c-3.62,7.575-7.24,15.15-11.021,22.725
		c-3.633,7.24-7.253,14.654-10.873,21.894c-0.385,0.794-0.717,1.616-1.093,2.415c-2.397,2.462-5.102,4.339-8.507,5.321
		c-2.306,0.67-4.612,0.992-7.079,0.174c0-0.174,0.174-0.335,0.174-0.335c2.963-4.438,5.43-9.05,7.24-13.997
		c2.467-6.422,3.781-13.005,2.802-19.749c-0.992-6.918-4.947-11.369-11.369-12.844c-4.116-1.153-8.393-1.649-12.67-0.831
		c-5.269,0.992-10.055,3.137-14.332,6.261c-6.261,4.277-11.034,9.881-14.976,16.129c-4.451,7.253-8.071,14.654-8.902,23.221
		c-0.483,5.43,0,10.873,1.984,15.968c1.971,5.269,5.591,9.224,11.356,10.377c6.261,1.488,12.187-0.322,17.121-3.955
		c5.939-4.438,11.53-9.211,16.638-14.48c0.496-0.496,0.979-0.496,1.649-0.496c2.132,0,4.277,0.161,6.248-0.174
		c3.555-0.543,6.675-1.8,9.506-3.546c-1.099,2.745-2.108,5.515-2.869,8.333c-1.314,5.43,1.153,10.042,6.422,11.517
		c1.81,0.496,3.62,0.657,5.43,0.831c2.306,0.161,4.451-0.496,6.422-1.649c4.773-2.641,9.063-7.106,13.005-10.9
		c5.507-5.179,9.737-5.623,14.409-18.666c2.333-1.247,4.517-2.755,6.908-3.898c3.865-1.847,7.8-3.531,11.79-5.09
		c0.954-0.372,0.967-0.367,0.972,0.675c0.01,2.281,0.602,4.428,1.477,6.509c1.042,2.484,2.376,4.807,3.901,7.02
		c2.289,3.323,4.652,6.595,7.22,9.712c2.227,2.705,4.703,5.17,7.476,7.31c4.007,3.094,8.393,5.487,13.288,6.875
		c0.238,0.067,0.476,0.126,0.714,0.188c0.66,0.168,1.223-0.007,1.662-0.52c0.459-0.536,0.541-1.13,0.251-1.788
		c-0.972-2.209-2.028-4.376-3.171-6.501c-2.668-4.954-5.755-9.626-9.345-13.962c-2.722-3.286-5.69-6.333-9.038-8.984
		c-2.083-1.646-4.242-3.184-6.625-4.403c-1.689-0.865-3.389-1.684-5.195-2.267c-0.335-0.109-0.392-0.312-0.416-0.602
		c-0.03-0.362,0.148-0.53,0.469-0.64c1.538-0.525,3.064-1.081,4.604-1.594c6.447-2.155,13.007-3.901,19.653-5.323
		c0.892-0.191,1.786-0.352,2.681-0.516c0.573-0.104,0.654-0.054,0.727,0.509c0.107,0.855,0.211,1.709,0.357,2.557
		c0.674,3.948,2.063,7.639,3.982,11.138c2.633,4.807,6.124,8.906,10.285,12.445c2.179,1.85,4.525,3.472,7.007,4.894
		c0.575,0.332,1.165,0.637,1.763,0.927c0.964,0.468,1.949,0.154,2.405-0.726c0.221-0.429,0.154-0.865,0.065-1.299
		c-0.37-1.808-0.798-3.605-1.352-5.366c-1.215-3.868-2.852-7.55-4.971-11.006c-2.76-4.508-6.177-8.453-10.283-11.79
		c-1.22-0.992-2.475-1.942-3.819-2.77c-0.183-0.111-0.402-0.186-0.516-0.407c0.102-0.223,0.325-0.196,0.501-0.223
		c6.466-1.056,12.965-1.797,19.496-2.286c0.66-0.049,0.716,0,0.742,0.677c0.194,5.008,1.525,9.702,3.886,14.109
		c2.09,3.903,4.838,7.282,8.167,10.2c1.968,1.728,4.133,3.171,6.395,4.48c0.255,0.146,0.526,0.266,0.794,0.385
		c0.634,0.278,1.22,0.176,1.701-0.303c0.504-0.504,0.709-1.12,0.449-1.825c-0.085-0.228-0.199-0.449-0.323-0.66
		c-1.029-1.783-1.726-3.7-2.303-5.665c-0.685-2.336-1.294-4.696-2.014-7.022c-1.418-4.585-4.032-8.455-7.284-11.927
		c-0.808-0.863-1.671-1.668-2.551-2.455c-0.089-0.077-0.209-0.134-0.218-0.285c0.101-0.194,0.295-0.134,0.453-0.141
		c4.649-0.188,9.298-0.266,13.95-0.196c0.613,0.008,0.625,0.018,0.674,0.684c0.174,2.412,0.563,4.788,1.156,7.131
		c1.089,4.297,2.777,8.353,4.964,12.202c3.399,5.981,7.739,11.202,12.874,15.762c1.947,1.733,3.977,3.369,6.174,4.783
		c0.518,0.332,0.997,0.722,1.512,1.057c0.607,0.394,1.237,0.479,1.855,0.015c0.642-0.483,0.88-1.14,0.659-1.894
		c-0.332-1.133-0.727-2.246-1.101-3.365c-1.361-4.061-2.779-8.101-4.423-12.056c-1.719-4.143-3.664-8.173-6.047-11.979
		c-2.484-3.964-5.4-7.565-8.979-10.602c-0.56-0.476-1.15-0.922-1.736-1.388c0.109-0.216,0.3-0.114,0.449-0.107
		c3.834,0.169,7.666,0.389,11.49,0.721c1.103,0.096,2.209,0.174,3.312,0.275c0.644,0.06,0.667,0.096,0.513,0.736
		c-0.463,1.902-0.66,3.826-0.565,5.784c0.146,3.017,0.959,5.864,2.174,8.607c1.314,2.966,3.057,5.675,5.006,8.25
		c1.634,2.16,3.404,4.205,5.262,6.176c0.484,0.516,1.004,0.902,1.745,0.674c0.784-0.24,1.17-0.815,1.317-1.616
		c0.617-3.372,0.64-6.761,0.191-10.146c-0.525-3.932-1.627-7.696-3.519-11.207c-1.187-2.204-2.643-4.203-4.421-5.966
		c-0.087-0.086-0.176-0.171-0.251-0.266c0,0-0.013-0.091-0.023-0.178c0.288-0.07,0.58,0,0.863,0.034
		c4.962,0.582,9.906,1.27,14.837,2.071c0.365,0.06,0.731,0.114,1.093,0.178c0.235,0.04,0.35,0.168,0.268,0.416
		c0,0-0.022,0.097-0.037,0.144c-0.826,2.775-0.902,5.629-0.821,8.487c0.117,4.141,0.54,8.252,1.468,12.296
		c1.847,8.043,5.363,15.291,10.488,21.76c0.258,0.328,0.52,0.652,0.892,0.87c1.19,0.694,2.383,0.134,2.547-1.227
		c0.323-2.668,0.466-5.346,0.449-8.031c-0.035-5.611-0.687-11.145-2.137-16.575c-1.656-6.208-3.885-11.943-8.004-16.932
		c0,0,0.216-0.159,0.216-0.243v-0.074c0-0.151-0.062-0.055,0.096-0.027c5.09,0.898,9.969,1.882,15.022,2.966
		c0.168,0.037,0.243,0.067,0.407,0.117c0.459,0.134,0.475,0.201,0.39,0.684c-0.484,2.765-0.163,5.502,0.313,8.219
		c0.476,2.715,0.985,5.422,1.634,8.101c0.56,2.303,1.274,4.548,2.414,6.638c1.004,1.839,2.271,3.444,4.059,4.594
		c0.345,0.223,0.699,0.345,1.115,0.261c0.655-0.134,1.089-0.479,1.31-1.143c0.672-2.014,1.169-4.066,1.474-6.166
		c0.628-4.339,0.407-8.638-0.696-12.886c-0.483-1.864-1.145-3.662-1.959-5.405c0,0-0.143-0.307-0.208-0.447
		c0.136-0.193,0.29-0.104,0.419-0.072c3.855,0.917,7.682,1.931,11.495,3.005c0.679,0.191,0.692,0.235,0.471,0.935
		c-1.636,5.143-2.108,10.404-1.512,15.755c0.647,5.822,2.447,11.281,5.329,16.384c1.936,3.427,4.284,6.539,7.056,9.33
		c0.157,0.158,0.312,0.318,0.473,0.469c0.546,0.513,1.183,0.56,1.855,0.317c0.657-0.24,0.925-0.744,0.967-1.426
		c0.213-3.617,0.178-7.23-0.07-10.845c-0.352-5.174-1.25-10.255-2.608-15.256c-1.177-4.331-2.732-8.527-4.624-12.596
		c-0.121-0.26-0.303-0.504-0.29-0.809c0.191-0.139,0.355-0.022,0.506,0.027c4.738,1.5,9.425,3.142,14.061,4.936
		c0.548,0.211,0.582,0.261,0.486,0.888c-0.365,2.437-0.62,4.88-0.701,7.344c-0.141,4.183,0.191,8.313,1.314,12.358
		c1.347,4.857,3.786,9.053,7.558,12.44c0.53,0.476,1.099,0.789,1.803,0.518c0.741-0.283,1.094-0.888,1.14-1.666
		c0.339-5.656,0.509-11.311-0.335-16.943c-0.61-4.076-1.81-7.957-3.896-11.539l-0.111-0.25c0.152-0.186,0.286-0.07,0.409-0.017
		c2.417,1.099,4.852,2.162,7.242,3.315c2.323,1.123,4.646,2.252,6.895,3.523c0.493,0.278,1.029,0.471,1.503,0.788
		c0.511,0.342,0.546,0.409,0.23,0.938c-1.884,3.154-2.956,6.59-3.496,10.198c-0.511,3.432-0.449,6.87,0.067,10.298
		c0.764,5.041,2.405,9.784,4.914,14.223c1.225,2.17,2.66,4.193,4.277,6.092c0.493,0.576,1.056,0.878,1.815,0.654
		c0.786-0.235,1.218-0.758,1.346-1.58c1.19-7.785,1.322-15.581,0.26-23.391c-0.605-4.45-1.597-8.81-2.924-13.096
		c-0.057-0.181-0.174-0.359-0.067-0.573c0.241-0.027,0.399,0.153,0.58,0.258c2.423,1.418,4.713,3.043,7.049,4.592
		c1.123,0.744,2.266,1.482,3.312,2.341c0.454,0.374,0.483,0.394,0.26,0.913c-1.812,4.213-2.184,8.604-1.564,13.102
		c0.714,5.172,2.505,9.955,5.313,14.356c0.29,0.456,0.593,0.905,0.917,1.339c0.392,0.528,0.923,0.806,1.594,0.749
		c0.747-0.06,1.217-0.473,1.391-1.205c0.039-0.168,0.064-0.339,0.084-0.51c0.577-4.808,0.672-9.618,0.084-14.433
		c-0.396-3.236-1.113-6.397-2.246-9.461c-0.055-0.151-0.178-0.298-0.07-0.52c0.555,0.282,0.994,0.716,1.463,1.089
		c3.712,2.956,7.355,5.995,10.878,9.179c0.627,0.568,0.657,0.712,0.255,1.446c-1.686,3.05-2.775,6.291-3.171,9.764
		c-0.317,2.759-0.216,5.504,0.3,8.229c0.773,4.073,2.348,7.81,4.756,11.188c0.129,0.181,0.255,0.365,0.401,0.53
		c0.811,0.908,2.189,0.655,2.618-0.496c0.171-0.459,0.288-0.94,0.409-1.418c1.403-5.542,1.844-11.155,1.192-16.841
		c-0.25-2.18-0.685-4.326-1.235-6.447c-0.06-0.231-0.183-0.459-0.107-0.727c0.238-0.077,0.36,0.107,0.489,0.231
		c2.026,1.973,4.042,3.955,6.077,5.919c0.359,0.345,0.538,0.741,0.624,1.217c0.523,2.906,1.485,5.654,2.946,8.23
		c1.616,2.851,3.643,5.371,6.077,7.558c2.899,2.606,6.164,4.634,9.777,6.099c0.114,0.045,0.233,0.08,0.345,0.129
		c0.814,0.354,1.582,0.313,2.286-0.265c0.104-0.166,0.208-0.333,0.312-0.501c0.141-0.469,0.06-0.908-0.121-1.361
		c-1.8-4.512-4.207-8.669-7.233-12.469c-2.262-2.839-4.827-5.381-7.647-7.661c-1.108-0.895-2.246-1.756-3.441-2.539
		c-0.36-0.235-0.751-0.429-1.178-0.305c-0.459,0.134-0.722-0.045-1.009-0.374c-1.145-1.319-2.316-2.613-3.472-3.923
		c-0.122-0.139-0.3-0.253-0.313-0.496c0.124-0.054,0.238-0.003,0.345,0.035C1171.339,892.24,1173.803,892.835,1176.236,893.539z
		 M818.782,867.787c-2.641,2.467-5.269,5.095-7.91,7.575c-2.306,2.306-5.095,3.62-8.232,4.116c-1.153,0.322-2.306,0.322-3.459,0.322
		c-3.942,0-7.736-4.116-7.401-9.05c0.161-3.298,1.314-6.261,2.467-9.224c5.604-15.472,14.815-28.316,27.498-38.693
		c0.161-0.161,0.322-0.335,0.657-0.335c-0.161,0.335-0.161,0.657-0.335,0.831c-2.293,5.095-4.599,10.042-5.926,15.311
		c-1.153,4.116-1.475,8.071-0.161,12.187c1.153,3.459,3.459,6.248,6.087,8.728c0.831,0.818,1.649,1.475,2.48,2.306
		C822.563,863.832,820.753,865.803,818.782,867.787z M831.291,849.674c-1.314,2.132-2.628,4.438-4.116,6.583
		c-4.934-1.649-7.575-5.604-7.401-11.034c0.322-8.393,3.285-15.472,8.889-21.572c1.475-1.475,2.963-2.789,4.773-3.781
		c2.628-1.314,4.773-0.335,5.926,2.467c1.153,2.963,0.818,6.087,0,9.224C837.552,837.983,834.589,843.909,831.291,849.674z"/>
	<path id="XMLID_12768_" style="fill:#27262E;" d="M541.279,597.819c13.193,4.25,26.828,3.794,40.463,1.783
		c12.737-1.783,25.031-6.033,36.428-12.067c9.295-4.897,17.753-10.778,25.554-17.393c-0.163,1.037-0.449,2.025-0.55,3.087
		c-0.67,7.374,0,14.748,2.681,21.68c2.681,7.159,7.602,12.522,15.418,14.078c8.5,2.011,16.545-0.442,23.248-5.363
		c8.058-6.033,15.646-12.509,22.578-19.668c0.67-0.67,1.341-0.67,2.239-0.67c2.909,0,5.805,0.228,8.487-0.228
		c7.178-1.103,13.086-4.247,18.21-8.782c-0.158,1.078-0.432,2.118-0.566,3.204c-0.456,3.794-0.898,7.816-0.456,11.624
		c2.467,14.52,16.545,19.883,27.726,14.52c6.704-3.124,12.067-7.602,16.987-13.179c4.106-4.629,8.029-9.352,11.976-14.027
		c-0.667,3.707-1.128,7.463-1.036,11.346c0.442,12.737,11.624,21.452,23.919,18.542c7.374-1.783,13.407-6.033,18.328-11.624
		c4.207-4.763,8.338-9.533,12.477-14.302c-0.223,3.446,0.045,6.888,0.917,10.28c1.341,4.92,3.794,8.943,7.816,12.08
		c1.126,0.885,2.467,1.555,3.808,2.226c3.794,1.797,7.816,2.467,11.852,2.239c6.033-0.228,12.067-0.67,17.657-2.454
		c4.022-1.126,8.044-2.681,11.839-4.478c6.261-2.909,8.54-6.932,13.233-11.624c2.829-2.819,4.488-5.794,4.488-8.788
		c0,0.027,0,0.049,0,0.074c0,4.465,4.433,8.715,5.988,12.965c2.011,4.92,6.802,8.5,11.494,10.726
		c4.022,1.797,8.871,2.239,13.121,2.239c10.498-0.228,20.98-2.453,30.365-7.374c6.033-3.137,11.603-6.704,16.295-11.396
		c1.264-1.267,2.448-2.658,3.656-3.975c-0.751,2.142-1.576,4.257-2.161,6.429c-1.797,7.374,1.58,13.635,8.74,15.646
		c2.453,0.67,4.934,0.898,7.387,1.113c3.124,0.228,6.04-0.67,8.721-2.226c6.489-3.58,12.298-10.207,17.661-15.342
		c7.602-7.159,13.411-12.738,19.9-26.738c-2.011,0-3.58,0-5.135,0c-1.126,0-1.797,2.377-2.467,3.262
		c-3.124,3.58-6.261,8.462-9.385,12.028c-3.58,3.808-7.374,8.139-11.396,11.491c-2.682,2.681-6.047,4.96-8.943,7.199
		c-1.341,0.898-2.681,1.703-4.25,2.146c-2.909,0.898-4.465-0.376-3.794-3.285c0.67-3.124,1.555-6.227,2.896-9.123
		c4.022-8.728,8.272-17.199,12.294-25.699c8.272-17.885,16.545-35.748,24.817-53.633c1.341-3.124,3.794-4.245,6.704-4.915
		c1.569-0.442,3.124-0.442,4.693-0.442c3.352,0,6.704-0.224,10.055,0.003c3.352,0.228,5.591-0.898,7.387-3.58
		c0.214-0.228,0.442-0.442,0.67-0.898c-2.239-1.113-4.478-2.226-6.932-2.226c-3.137,0.215-6.261,0.442-9.398,0.442
		c-2.454,0.228-4.907,0.442-7.374,0.442c0.228-0.442,0.228-0.67,0.456-0.885c1.555-3.352,3.566-6.704,5.135-10.283
		c2.011-4.022,3.808-8.044,5.591-12.294c1.341-3.352,0.443-6.489-2.011-9.171c-1.797-1.783-3.58-3.566-5.591-5.363
		c-1.569-1.783-3.124-1.341-4.25,0.67c-5.363,10.954-10.498,21.68-15.861,32.633c-0.67,1.569-1.797,2.681-3.352,3.137
		c-1.354,0.442-2.909,0.885-4.25,0.885c-3.58,0-7.159-0.215-10.511-0.215c-2.011-0.228-4.022-0.228-5.805-0.456
		c-0.456,3.352,0.442,4.92,3.352,5.819c2.681,0.898,5.363,1.341,8.044,1.783c2.239,0.456,4.25,0.898,6.476,1.341
		c-0.443,0.67-0.67,1.341-0.885,2.011c-4.921,10.283-9.841,20.567-14.976,30.85c-4.92,9.841-9.841,19.896-14.761,29.724
		c-0.623,1.289-1.166,2.618-1.773,3.918c-0.67,0.781-1.337,1.56-2.008,2.343c-3.808,4.25-7.83,8.272-12.522,11.852
		c-4.92,3.58-10.498,6.261-15.874,8.715c-3.794,1.569-7.589,2.681-11.396,3.794c-4.25,1.341-8.487,2.239-12.965,2.239
		c-2.226,0-4.25-0.442-6.033-1.783c-2.681-1.797-4.25-4.478-4.25-7.83c0-2.226,0.228-4.693,0.456-6.704
		c1.113-6.261,3.566-12.067,6.704-17.657c6.476-11.396,14.976-21.237,25.031-29.724c5.148-4.478,10.726-8.272,17.215-10.511
		c1.569-0.442,3.352-0.67,4.92-0.228c2.681,0.67,4.022,2.239,3.124,4.92c-0.228,0.898-0.67,1.797-1.113,2.467
		c-4.25,5.363-8.728,10.726-12.965,15.861c-2.909,3.352-4.92,7.159-7.374,10.739c1.555,0.442,2.896,0.885,4.465,0
		c1.783-1.341,3.794-2.239,5.805-3.365c10.069-6.476,17.443-15.418,20.795-27.042c0.442-2.011,0.67-4.022,0-6.033
		c-1.113-3.124-3.58-4.92-6.489-6.261c-7.374-3.352-14.748-3.58-22.35-0.67c-5.805,2.239-11.168,5.591-16.317,9.171
		c-5.591,3.794-10.726,8.044-15.204,13.179c-7.816,9.171-14.748,18.998-18.77,30.622c-0.342,0.876-0.556,1.77-0.851,2.65
		c-1.118,1.205-2.289,2.412-3.372,3.612c-2.226,2.239-4.465,4.693-6.918,6.704c-2.239,2.239-4.92,4.022-7.387,6.047
		c-4.907,3.352-9.828,6.476-15.418,8.715c-5.591,2.011-11.624,3.566-17.657,4.237c-2.454,0.228-4.92,0.456-7.159-0.215
		c-2.454-0.67-4.693-1.569-6.033-3.808c-1.783-2.681-2.011-5.577-1.783-8.487c0.67-4.92,2.011-9.613,4.022-14.078
		c1.341-3.137,2.909-6.047,4.465-8.943c0.228,0,0.228,0,0.228,0.214c5.591,2.467,11.182,2.681,16.987,1.569
		c6.033-1.113,11.396-3.58,16.545-6.704c4.022-2.239,7.602-5.148,11.396-7.83c7.83-6.248,12.965-13.85,14.306-23.919
		c0.456-3.794-0.885-6.918-3.794-9.157c-2.239-1.783-4.693-2.909-7.374-3.58c-6.717-1.783-13.421-1.113-19.682,1.797
		c-6.033,2.681-11.611,6.033-16.759,10.055c-6.932,4.92-13.193,10.498-18.1,17.429c-2.239,3.352-4.25,6.704-6.489,9.841
		c-3.352,5.135-6.033,10.498-8.044,16.089c-0.174,0.493-0.268,0.995-0.426,1.492c-4.213,4.619-8.408,9.328-12.968,13.712
		c-5.363,5.363-11.182,10.055-18.784,12.067c-6.261,1.783-10.283-0.898-10.498-7.374c-0.228-5.591,0.442-11.182,2.011-16.545
		c4.693-15.19,10.498-29.952,17.872-44.029c10.739-19.454,21.693-38.894,32.861-58.12c8.943-15.204,17.885-30.394,28.611-44.485
		c1.341-1.783,2.909-2.226,5.148-2.011c7.602,1.569,15.418,3.137,23.248,4.478c17.872,3.124,35.757,5.135,53.857,5.805
		c15.204,0.67,30.18-0.215,45.156-1.783c11.852-1.341,23.476-3.794,34.202-8.943c9.841-4.693,16.317-11.852,16.317-23.248
		c0-10.283-4.022-18.998-11.624-25.702c-15.418-13.407-33.532-20.339-53.87-20.795c-19.44-0.215-37.996,3.808-55.654,11.182
		c-11.182,4.465-22.35,9.385-31.52,17.215c-11.396,9.385-22.792,18.77-31.963,30.394c-0.898,1.126-1.569,1.569-2.909,0.898
		c-2.454-0.898-4.907-1.569-7.374-2.467c-31.963-12.737-63.027-27.27-92.979-43.802c-13.635-7.602-27.941-10.283-43.372-6.489
		c-17.429,4.478-27.27,15.646-30.837,33.089c0,0.215-0.456,0.885-0.898,1.113c-4.966,1.441-10.042,2.702-15.155,2.435
		c-0.35-0.02-0.699-0.039-1.051-0.055c-1.674-0.161-3.352-0.463-5.031-1.039c-13.193-4.465-18.77-18.998-11.852-30.18
		c3.808-5.577,10.511-7.146,16.33-3.566c3.352,2.011,4.465,6.704,2.453,10.954c-1.341,3.352-3.58,4.237-8.044,3.124
		c-1.569-0.442-2.467,0.442-2.909,1.783c-0.442,1.569,0.442,2.681,1.783,2.909c1.126,0.228,2.467,0,3.808-0.228
		c5.591-0.885,8.715-4.022,9.613-9.6c1.113-5.376-1.341-10.739-5.819-13.193c-7.816-4.693-18.1-0.898-22.122,8.044
		c-5.49,11.731-0.503,24.979,10.491,31.376c-7.754,0.526-15.432,1.656-22.946,3.938c-10.726,3.137-20.781,7.602-30.85,12.522
		c-18.328,9.613-35.087,21.452-50.063,35.985c-15.418,14.976-28.169,31.963-38.894,50.746c-6.033,10.27-11.182,20.781-14.306,32.405
		c-2.909,10.726-4.465,21.907-2.681,33.076C516.69,582.615,525.86,592.898,541.279,597.819z M878.94,549.311
		c6.033-7.374,12.737-13.635,20.339-18.998c3.352-2.454,6.932-4.478,10.954-5.363c1.797-0.456,3.58-0.67,5.363,0
		c2.011,0.885,3.808,2.226,2.681,5.135c-0.885,2.239-2.011,4.478-3.124,6.489c-3.58,5.135-7.83,9.613-12.737,13.407
		c-3.137,2.681-6.489,5.591-10.069,7.602c-4.465,2.239-8.929,3.58-13.85,3.352c-2.467,0-4.92-0.442-7.374-1.783
		C873.805,555.787,876.259,552.435,878.94,549.311z M891.691,414.756c20.124-25.259,44.713-43.145,76.676-50.304
		c20.567-4.693,40.906-3.794,60.802,2.909c7.817,2.681,15.19,6.261,20.111,13.193c2.681,3.566,4.693,8.044,6.033,12.294
		c2.011,6.704-0.898,12.294-6.476,15.646c-5.591,3.352-11.624,6.261-17.657,8.272c-10.954,3.794-22.578,4.693-33.987,5.577
		c-26.587,2.239-52.972,0.228-79.344-2.681c-8.715-0.885-17.215-1.783-25.702-2.896c-0.456,0-0.898,0-1.797-0.228
		C890.806,415.869,891.248,415.198,891.691,414.756z M689.67,586.422c-3.58,3.352-7.159,6.918-10.726,10.27
		c-3.137,3.137-6.932,4.92-11.182,5.591c-1.569,0.456-3.124,0.456-4.693,0.456c-5.363,0-10.511-5.591-10.055-12.294
		c0.215-4.478,1.783-8.5,3.352-12.522c7.602-21.009,20.111-38.452,37.326-52.53c0.228-0.228,0.442-0.442,0.898-0.442
		c-0.228,0.442-0.228,0.885-0.456,1.113c-3.124,6.932-6.261,13.635-8.044,20.795c-1.569,5.577-2.011,10.954-0.228,16.531
		c1.569,4.693,4.706,8.5,8.272,11.852c1.126,1.113,2.239,2.011,3.352,3.124C694.805,581.046,692.352,583.728,689.67,586.422z
		 M706.657,561.833c-1.797,2.896-3.58,6.033-5.591,8.929c-6.704-2.226-10.283-7.589-10.055-14.976
		c0.442-11.396,4.465-21.009,12.067-29.281c2.011-2.011,4.022-3.794,6.489-5.135c3.566-1.783,6.476-0.442,8.044,3.352
		c1.569,4.022,1.113,8.272,0,12.522C715.144,545.959,711.122,554.004,706.657,561.833z M536.814,541.267
		c4.237-15.204,10.498-29.509,18.328-42.917c14.52-25.259,33.304-46.496,55.654-65.052c13.635-11.396,28.839-19.668,45.826-24.803
		c9.828-2.909,19.668-4.25,29.724-2.011c6.489,1.341,11.182,4.693,12.737,11.396c1.126,4.022,0.228,7.816-0.885,11.852
		c-0.67,1.783-1.126,3.794-1.797,5.577c1.126,0.228,2.011,0.228,2.909,0.228c4.693,0.228,9.613,0.67,14.306,0.67
		c2.011,0.228,3.58-0.67,4.25-2.681c0.67-2.011,1.783-4.25,2.226-6.489c0.684-2.819,0.794-5.534,0.452-8.167
		c14.451,4.88,28.668,3.102,42.183-5.241c1.341-0.67,2.681-2.239,3.352-3.794c4.25-8.272,2.011-18.998-10.055-22.135
		c-7.159-2.011-14.306-1.341-21.465,0.228c-7.146,1.341-14.078,2.681-21.009,4.022c-4.693,0.898-6.033-0.442-4.693-4.92
		c0.442-1.341,0.885-2.681,1.555-4.022c6.047-10.726,15.204-16.759,27.498-17.885c10.726-1.113,20.795,1.797,30.394,6.261
		c6.047,3.137,11.624,7.159,17.671,10.055c15.861,8.058,31.963,15.646,48.052,23.248c11.624,5.148,23.248,10.954,35.543,14.306
		c1.341,0.456,2.681,0.898,4.25,1.341c-2.681,4.022-5.376,7.602-7.83,11.182c-13.863,20.567-28.383,40.678-40.235,62.585
		c-11.839,21.237-22.792,42.917-29.952,66.165c-0.672,2.242-1.344,4.485-1.971,6.737c-0.084,0.077-0.173,0.112-0.255,0.194
		c-6.033,7.146-12.294,13.85-19.213,20.111c-4.478,4.25-9.841,7.374-15.874,8.943c-4.693,1.113-7.83-0.67-8.943-4.92
		c-0.228-0.67-0.228-1.341-0.442-2.011c-0.228-6.476,0.442-12.737,2.226-18.77c2.239-7.83,6.261-14.078,13.421-18.113
		c4.92-2.681,9.385-6.248,13.407-10.283c6.033-6.704,12.067-13.407,17.885-20.339c10.954-12.965,20.781-26.815,28.155-42.246
		c3.137-6.248,5.819-12.509,7.387-19.441c0.885-3.808,0.67-7.602-1.341-11.182c-1.126-2.226-2.681-3.566-5.376-3.566
		c-3.566-0.456-6.918,0.442-10.055,2.011c-9.385,4.465-17.429,10.498-24.589,18.1c-14.976,16.759-27.713,35.1-37.326,55.654
		c-6.781,14.657-12.362,29.811-15.556,45.74c-0.235,0.111-0.526,0.101-0.734,0.313c-3.58,4.25-7.83,7.146-13.193,8.715
		c-3.124,0.898-6.261,1.341-9.613,0.228c0-0.228,0.228-0.456,0.228-0.456c4.022-6.033,7.374-12.294,9.841-18.998
		c3.352-8.715,5.135-17.657,3.794-26.815c-1.341-9.398-6.704-15.432-15.418-17.443c-5.591-1.569-11.41-2.239-17.215-1.113
		c-7.159,1.341-13.635,4.25-19.454,8.487c-8.487,5.819-14.976,13.421-20.339,21.907c-2.452,3.999-4.626,8.068-6.529,12.227
		c-8.547,9.422-18.246,17.636-29.429,24.214c-17.429,10.283-35.757,16.317-56.096,14.748c-6.489-0.442-12.294-2.239-17.443-6.261
		c-6.918-5.363-10.055-12.737-10.94-21.237C533.905,557.141,534.803,549.083,536.814,541.267z M711.98,397.756
		c3.58-1.113,7.374-1.783,11.182-2.454c7.146-1.341,14.306-2.909,21.452-3.794c3.352-0.228,7.159,0.442,10.739,1.341
		c3.566,0.885,6.476,2.896,7.146,6.932c0.67,4.465-0.442,8.259-4.25,10.726c-2.896,1.783-6.261,3.352-9.613,4.465
		c-4.237,1.126-8.715,1.569-11.624,2.011c-7.002-0.677-13.082-1.783-18.458-4.349c-0.63-1.178-1.322-2.345-2.256-3.467
		c-2.06-2.41-4.719-4.071-7.528-5.559C707.727,400.889,708.709,398.728,711.98,397.756z M752,548.641v-0.228
		c0-0.885,3.024-1.555,3.466-2.226c8.715-15.432,18.606-30.85,27.549-46.268c7.374-12.75,16.69-24.817,26.29-35.999
		c2.909-3.352,6.34-6.476,9.692-8.943c1.113-0.885,2.601-1.555,3.714-2.011c1.797-0.442,2.983,0.456,2.755,2.239
		c0,2.467-0.848,4.693-1.974,6.932c-11.839,24.146-26.581,46.496-44.238,66.835c-2.896,3.124-5.354,6.476-8.25,9.613
		c-3.365,3.352-9.065,6.704-13.53,8.943C756.575,547.97,752,548.198,752,548.641z"/>
	<path id="XMLID_13536_" style="fill:#27262E;" d="M410.236,637.946c9.68,3.714,20.178,4.532,30.689,4.733
		c15.03,0.63,30.26-0.617,45.303-2.051c14.828-1.448,29.858-3.298,44.686-4.532c11.946-1.233,24.093-2.065,36.24-1.032
		c6.999,0.617,13.997,1.85,20.594,4.733c5.349,2.266,9.68,5.564,12.147,10.914c2.883,6.181,4.532,12.361,4.116,19.159
		c-0.402,3.7-0.402,7.83-1.85,11.329c-3.084,7.2-6.999,14.198-10.712,21.411c-0.818,1.448-1.85,3.084-2.883,4.331
		c-2.668,3.084-5.148,5.966-7.816,9.05c-5.363,5.98-11.128,11.745-18.542,15.861c-1.233,0.617-2.467,1.448-3.915,1.649
		c-1.636,0.416-2.668-0.617-2.252-2.065c0.617-2.883,1.233-5.765,2.252-8.433c2.681-6.181,5.779-12.16,8.661-18.127
		c3.7-7.615,7.2-15.03,10.699-22.658c4.746-10.699-2.883-21.612-14.413-20.795c-4.116,0.214-7.83,2.065-10.914,4.331
		c-8.849,6.797-17.496,13.582-26.359,20.379c-1.435,1.032-2.883,2.065-4.317,3.097c0.818-3.298,1.85-6.382,2.883-9.479
		c0.818-2.681,0.617-5.148-0.416-7.615c-3.499-7.615-12.978-11.53-20.392-7.615c-5.551,2.883-10.914,6.382-15.847,10.297
		c-6.395,5.148-12.16,10.914-18.328,16.263c-1.247,1.233-2.48,2.467-3.915,3.499c0.617-2.065,1.435-3.915,2.467-5.564
		c3.084-5.966,6.181-11.731,9.063-17.496c1.85-3.298,1.032-5.564-2.266-7.629c-1.448-0.617-2.883-1.435-4.532-1.85
		c-3.499-1.233-5.564-0.201-6.999,3.097c-0.831,2.051-1.649,4.317-2.681,6.382c-10.082,20.379-20.178,40.57-30.059,60.949
		c-0.416,1.032-1.032,1.85-1.233,2.883c-0.63,2.266,0,3.915,2.051,4.947c1.649,1.032,3.714,1.649,5.564,2.051
		c2.051,0.617,3.7-0.402,4.934-2.266c0.416-0.617,0.63-1.233,1.032-2.051c4.331-9.881,10.096-19.159,16.893-27.592
		c10.699-13.394,23.476-24.71,37.058-35.221c4.532-3.285,9.278-5.765,14.627-7.615c0,6.181-0.416,9.264-2.883,14.614
		c-4.331,9.063-8.862,18.127-13.595,26.989c-3.915,7.615-8.031,15.231-12.147,22.846c-1.649,3.298-1.032,5.363,2.266,6.797
		c2.681,1.032,5.349,1.864,8.232,2.48c2.883,0.617,3.714-0.215,4.947-2.883c2.051-4.331,3.915-8.862,6.181-12.978
		c6.382-10.498,14.614-19.776,23.262-28.209c6.596-6.596,13.595-12.978,20.594-19.159c3.097-2.668,6.596-4.733,10.096-6.999
		c1.435-0.818,3.298-1.233,4.733-1.032c2.467,0.215,3.915,1.233,2.883,3.915c-0.201,0.617-0.617,1.448-1.032,2.266
		c-4.532,8.447-9.05,16.893-13.582,25.541c-4.129,7.816-7.83,15.847-10.096,24.294c-1.233,4.331-0.416,8.031,3.084,11.115
		c3.714,3.298,13.796,4.129,18.127,1.649c9.479-5.765,17.51-12.965,24.093-21.612c6.596-8.245,12.563-17.094,16.893-26.774
		c3.285-7.83,6.583-15.646,7.2-24.307c0.831-11.115-2.467-20.795-10.712-28.41c-3.901-3.915-9.05-5.564-14.198-6.797
		c-11.745-2.883-23.892-2.681-35.838-1.649c-8.849,0.617-17.496,1.649-26.359,2.467c-13.796,1.448-27.592,3.097-41.388,4.331
		c-12.978,1.234-25.742,2.467-38.506,2.065c-8.862,0-17.711-0.831-26.158-3.298c-15.445-4.331-27.176-13.394-33.773-28.008
		c-6.181-13.179-5.966-26.56,1.032-39.337c7.414-13.179,18.529-21.827,32.942-25.742c13.796-3.7,26.975-2.467,38.519,6.596
		c4.934,3.7,9.264,7.83,12.348,13.179c3.714,6.999,4.331,14.413,3.915,22.243c-0.201,4.934-1.448,9.881-3.915,14.198
		c-4.934,8.031-12.147,13.179-21.21,15.66c-8.648,2.051-16.88,1.233-24.71-3.499c-3.7-2.266-5.35-5.363-5.35-9.479
		c0-1.85-1.032-2.681-2.681-3.084c-1.448-0.214-2.883-0.214-3.915,1.032c-1.032,1.636-1.233,3.499-0.201,4.934
		c1.649,2.467,3.499,4.947,5.564,6.999c8.648,7.629,18.944,9.895,30.059,7.83c14.212-2.883,23.892-11.329,29.657-24.294
		c5.551-11.946,5.966-24.093-0.416-36.039c-8.648-16.276-27.391-28.839-50.25-25.541c-17.496,2.681-31.708,10.914-42.206,25.541
		c-9.278,12.965-11.745,27.391-7.83,42.622C380.177,619.217,392.525,631.149,410.236,637.946z"/>
	<path id="XMLID_13562_" style="fill:#27262E;" d="M1071.804,667.402c0.214,1.85,0,3.499-1.032,4.934
		c-2.467,4.331-4.934,8.648-7.2,12.764c-2.065,3.714-4.685,7.213-7.353,10.297c-0.617,0.63-2.218,1.448-2.218,2.266v0.214
		c0,0.201,2.621,0.416,3.653,0.416c2.065-0.215,4.092-1.448,5.741-3.097c2.266-2.266,4.205-4.947,6.47-7.414
		c1.234-1.435,2.511-2.883,3.745-4.317c0.416,0.818,0.653,1.233,0.854,1.85c0.201,0.818,0.426,1.85,0.627,2.681
		c1.234,6.583,1.856,13.38,2.07,19.963c0,0.831-0.413,0.831-0.829,1.032c-3.298,1.448-6.581,2.467-9.678,4.116
		c-2.883,1.864-5.765,4.331-8.647,6.181c-4.317,3.298-7.2,7.615-8.447,12.978c-1.435,6.583,1.448,12.147,7.83,14.212
		c4.116,1.233,8.232,1.435,12.361,0.818c6.583-1.233,12.147-4.116,16.062-9.68c3.499-4.934,4.934-10.498,5.551-16.062
		c0.416-2.681,0.416-5.35,0.831-8.031c1.233-0.201,2.467-0.201,3.7-0.201c6.596-0.215,13.179,0.617,18.944,3.915
		c2.065,1.019,3.915,2.051,5.98,3.084c1.032,0.617,2.051,1.032,2.882,1.85c2.883,2.48,5.966,5.148,8.648,8.031
		c2.682,2.48,4.116,5.564,5.349,9.063c-2.051-0.201-4.116-0.617-5.966-0.818c-9.68-1.032-19.159-0.416-28.209,2.668
		c-5.98,2.065-11.544,4.947-15.66,9.68c-7.414,8.245-10.082,17.912-7.414,28.624c1.032,4.947,3.714,8.862,8.447,11.115
		c9.479,4.746,19.561,5.564,29.657,1.864c11.731-4.116,19.762-12.147,24.911-23.476c3.097-6.181,4.331-12.978,4.116-19.977
		c0-1.448-0.201-2.883-0.402-4.331c0.617,0,1.233,0.215,1.649,0.416c2.266,0.831,4.532,1.649,6.784,2.467
		c6.596,2.883,11.329,7.83,14.212,14.627c1.234,3.084,2.065,6.181,1.234,9.466c-1.435,5.779-3.499,8.031-8.648,8.447
		c-0.402,0.215-0.818,0.215-1.233,0.215c-1.234,0.201-2.051,1.435-1.435,2.668c0.201,0.617,1.019,1.448,1.649,1.85
		c1.85,0.63,3.499,0.416,5.148-0.617c2.883-1.649,5.135-3.901,6.583-6.999c3.7-7.414,1.85-14.212-2.266-20.795
		c-1.85-3.097-4.532-5.349-7.414-7.414c-4.934-3.298-10.297-5.564-16.062-6.999c-0.617-0.214-0.818-0.617-1.032-1.233
		c-0.617-1.864-1.032-3.714-1.85-5.564c-2.467-6.181-6.583-11.329-11.329-15.861c-10.082-9.68-21.827-14.413-35.824-14.212
		c-1.85,0.215-3.915,0.416-5.98,0.416c-0.402-2.467-0.617-4.947-1.019-7.414c-1.448-7.414-2.883-15.03-4.532-22.444
		c-0.617-2.883-0.215-5.349,1.435-7.615c1.032-1.649,2.065-3.298,3.097-4.746c1.636-2.883,3.285-5.551,4.934-8.232
		c1.032-1.85,1.032-3.7,0.831-5.765c-0.831-3.915-2.682-5.564-6.797-5.966c-4.532-0.63-8.245,1.435-11.128,4.733
		C1073.252,653.606,1070.986,659.988,1071.804,667.402z M1075.518,724.236c-0.416,1.85-1.032,3.915-1.649,5.765
		c-1.649,4.532-4.532,8.447-8.245,11.53c-1.85,1.649-3.901,2.266-6.382,1.435c-2.883-0.818-4.532-3.084-4.733-6.784
		c0-2.681,0.818-5.148,2.065-7.414c1.435-3.097,3.285-5.363,6.382-7.213c3.915-2.467,8.232-4.532,12.563-6.382
		c0.402,0,0.818-0.201,1.234-0.201c0.201,0,0.201,0,0.416,0.201C1076.537,718.055,1076.134,721.138,1075.518,724.236z
		 M1139.148,743.643c0.402,3.499,0.818,10.357,1.435,10.357c-0.201,0-0.201,0-0.402,0c0.201,0-0.416,9.62-2.065,14.151
		c-2.467,6.382-6.596,11.507-12.147,15.422c-6.382,4.317-13.595,6.471-21.21,6.471c-4.116,0-8.031-0.787-11.946-2.436
		c-4.116-1.435-6.382-4.496-7.615-8.625c-1.649-4.733-1.247-9.454,0-14.187c1.234-5.765,3.7-10.908,8.433-14.622
		c3.298-2.467,7.012-4.313,10.913-5.761c8.447-2.883,17.094-3.498,26.158-2.882c2.266,0.201,4.532,0.493,6.999,0.909
		C1138.532,742.439,1139.148,742.61,1139.148,743.643z"/>
	<path id="XMLID_13579_" style="fill:#27262E;" d="M663.513,853.589c-7.602,0-13.555,6.288-13.555,13.89
		c0,7.602,5.953,13.877,13.555,13.877c7.602,0,13.876-6.275,13.876-13.877C677.389,859.877,671.115,853.589,663.513,853.589z"/>
	<path id="XMLID_13974_" style="fill:#27262E;" d="M1150.437,950.443c-11.235-12.563-24.455-21.478-39.994-27.096
		c-30.743-10.914-62.478-2.319-83.299,22.471c-15.395,18.918-17.319,40.39-9.281,62.462c-3.607,3.107-6.965,6.721-8.899,6.721h-0.67
		c0.335,0,0.335-0.376,0.335-0.711c0.335-0.657,0.335-1.502,0.657-2.159c6.61-15.874,2.319-40.758,0.992-48.038
		c-0.992-6.61-1.984-12.274-2.976-17.557c-1.649-8.607-3.955-16.891-4.947-25.15c-0.67-2.976,1.314-6.299,2.963-8.941
		c4.639-8.259,10.578-15.545,14.225-24.139c1.314-3.633-0.335-11.574-3.647-14.215c-3.298-2.641-10.9-3.313-15.204-1.65
		c-13.877,4.947-23.141,23.797-21.157,38.343c0.335,1.984,0.335,4.29,0,6.275c-1.984,3.969-6.932,12.563-12.563,21.814
		l-7.924,13.555c-1.662,2.319-2.655,4.304-3.969,6.288c0,0-6.945,11.57-8.272,13.22l-8.259,12.826l-0.992,3.24h8.259
		c0.335,0,0.992-3.24,1.327-3.897c1.649-1.984,3.312-5.092,4.961-7.412l1.984-2.868l0.992-1.272l27.431-34.53l0.335-0.392
		c0,0,1.984,4.925,2.976,11.856c1.984,10.914,5.618,37.014-0.992,59.819c-1.984,7.602-5.296,14.538-10.578,20.826
		c-4.625,5.282-6.98,9.581-14.582,5.934c-4.29-2.306-15.671-8.919-1.671-15.207v-0.322c0-3.647-0.314-9.264,4.647-15.539
		c0.67-1.984,1.338-9.921-1.303-9.586c-0.335,0-1.811,0.322-2.803,1.984c-6.945,4.625-12.315,11.235-14.956,19.494
		c-3.633,13.233,2.772,24.133,16.326,26.774c12.227,2.319,23.695,0,32.289-5.939c0,0,9.215-3.312,18.131-10.914
		c2.42-2.42,6.758-6.73,11.011-11.413c12.05,22.923,35.898,35.569,61.349,31.577c11.906-1.984,22.142-7.602,29.744-17.188
		c1.327-1.984,2.638-4.304,2.316-6.945c-0.335-2.976-2.656-4.625-5.633-4.625c-2.976,0-4.949,1.649-5.284,3.969
		c-0.335,7.602-4.304,11.892-10.913,14.869c-12.563,5.953-25.447,5.631-38.345,0.67c-13.528-5.417-22.732-15.395-27.807-28.817
		c0.67-0.866,1.438-1.753,2.025-2.596c7.28-7.924,14.882-18.964,22.149-27.223c0.657-0.67,1.327-5.088,1.984-5.088h-8.259
		l-2.655,5.745c-5.742,6.325-11.524,14.21-17.486,20.37c-1.029-4.907-1.225-9.251-0.694-14.326
		c0.992-13.89,4.961-26.106,15.539-36.014c16.531-15.539,35.368-22.311,57.852-18.343c22.149,4.304,39.337,15.625,51.899,33.806
		c9.586,13.22,13.877,28.145,12.227,44.341c-1.984,22.149-13.555,39.359-31.735,51.922c-14.547,10.243-31.078,13.565-48.588,14.222
		c-25.125,0.992-49.915-2.302-74.383-6.941c-28.759-4.947-60.803-10.575-89.561-15.522c-8.259-1.662-14.083-2.973-27.083-4.3v-0.335
		c13-14.547,15.848-29.08,21.788-43.962c2.976-6.61,6.114-13.555,9.412-19.829c9.586-19.508,20.58-38.68,30.823-57.852
		c4.961-8.929,3.681-12.898-5.248-17.523c-6.288-2.976-10.073-1.649-13.371,4.625c-1.649,3.633-3.877,6.945-6.519,11.249
		c-0.335-3.312-0.289-5.953-0.946-8.272c-0.992-4.625-2.296-9.586-7.257-11.235c-4.29-1.984-9.24-2.976-14.201-3.312
		c-8.929-0.657-16.847,2.976-24.784,7.28c-26.117,13.555-44.951,34.376-58.506,60.494c-2.509,4.711-4.703,10.005-6.618,15.051
		c-0.218,0.266-0.454,0.556-0.659,0.809c-4.29,5.296-8.594,10.578-13.555,15.539c-4.29,4.626-8.594,9.586-13.877,13.22
		c-4.961,3.312-9.586,6.945-15.204,9.586c-0.992,0.67-2.319,0.992-3.647,1.327c-2.306,0.657-4.29-0.657-4.29-2.976
		c0-0.992,0-1.649,0.322-2.641c0.992-3.633,1.984-7.937,3.647-11.57c5.618-11.906,11.57-23.798,17.188-35.704
		c4.961-10.243,9.921-20.5,14.547-30.743c5.282-11.57,2.976-22.149-6.288-29.416c-7.937-6.288-16.196-7.937-25.125-3.647
		c-3.298,1.663-6.932,3.312-9.908,5.631c-10.257,7.267-18.248,14.533-28.156,22.149c-6.623,5.282-18.57,10.9-18.57,16.196
		c0,0,0,0,0-0.335c0-0.335-1.273-0.992-1.273-1.327c3.312-6.932,5.812-13.877,9.124-20.821c1.649-3.633,3.235-7.267,4.562-10.914
		c2.306-6.932-0.87-12.884-7.479-15.526c-3.298-1.327-6.709-1.984-10.343-1.984c-1.327,0-2.034,0.322-2.369,1.649
		c-2.976,6.945-5.964,13.877-9.276,20.821c-4.304,9.264-8.941,18.18-13.231,27.445c-4.874,9.74-9.69,19.558-14.58,29.337
		l-0.969,1.071c-12.884,14.212-24.456,28.437-41.323,38.68c-1.984,0.992-4.292,1.984-5.284,1.649
		c-1.984-0.335-2.976-3.298-3.312-5.282c0-0.67-0.335-1.327-0.335-1.327c0-2.976,0.67-6.61,1.662-10.578
		c1.314-3.312,2.641-6.945,4.29-10.243c12.563-25.46,25.46-50.25,37.688-75.376c5.953-12.563,0.992-21.157-14.212-26.774
		c-12.898,24.79-26.117,48.588-37.688,72.721c-2.795,5.732-5.162,11.696-7.441,17.681c-0.08,0.054-0.085,0.089-0.174,0.178
		c-7.602,8.259-14.882,16.853-22.484,24.79c-5.282,5.618-10.578,10.913-17.188,14.869c-3.298,1.984-6.61,3.312-9.921,4.639
		c-3.955,1.314-5.618,0-5.939-3.969c0-2.319,0-4.961,0.992-7.28c4.947-13.22,11.57-25.782,18.837-38.01
		c6.945-11.906,14.212-23.476,21.157-35.368c1.327-2.319,1.984-4.961,2.641-7.602c0.992-5.296-0.322-8.594-3.633-10.257
		c-4.961-2.641-9.921-3.298-15.204-1.984c-15.874,3.969-29.751,11.249-40.999,23.141c-2.963,2.976-6.275,5.618-9.586,8.929
		c0.335-0.657,0.335-0.992,0.335-1.327c2.641-7.924,7.28-14.869,12.227-21.478c2.319-3.312,5.296-5.618,9.264-7.28
		c4.29-1.984,8.594-3.298,12.884-5.618c6.288-3.312,12.241-7.267,18.515-10.914c15.874-9.586,30.086-21.814,42.648-35.368
		c7.602-8.594,14.869-17.188,22.149-26.117c6.61-8.259,12.563-16.853,17.523-26.104c2.641-4.639,3.955-9.264,4.29-14.547
		c0-1.431-0.226-2.723-0.533-3.962c5.515,0.204,11.034,0.201,16.501-0.275c8.232-0.496,16.464-1.488,24.696-2.306
		c9.881-0.992,19.762-1.984,29.469-2.802c7.91-0.657,15.807-1.153,23.717-0.831c6.918,0.335,13.501,1.327,19.923,3.955
		c3.781,1.649,7.079,4.116,9.05,7.91c3.955,7.736,4.773,15.968,2.145,24.2c-2.145,7.24-6.087,13.662-10.203,19.923
		c-2.306,3.298-5.269,6.261-7.91,9.224c-3.955,4.277-8.232,8.232-13.34,11.034c-0.979,0.496-1.971,0.979-3.124,1.314
		c-1.314,0.322-2.306-0.657-1.81-1.971c0.657-2.48,1.314-5.108,2.306-7.414c2.467-5.43,5.095-10.538,7.575-15.968
		c2.467-5.108,4.934-10.216,7.24-15.485c1.649-3.781,1.649-7.736-1.153-11.034c-2.963-3.62-6.744-5.752-11.691-4.773
		c-3.124,0.657-5.926,2.306-8.393,4.277c-6.1,4.612-12.187,9.398-18.274,13.997c-1.488,1.153-2.802,2.306-4.29,3.298
		c-0.161,0-0.322-0.161-0.322-0.161c0.818-1.81,1.636-3.459,2.467-5.108c1.475-3.124,3.124-6.087,4.451-9.224
		c1.971-4.277,0.322-7.736-4.129-9.05c-1.153-0.335-2.467-0.335-3.781-0.496c-0.657-0.161-0.992,0.161-1.314,0.818
		c-1.153,2.963-2.467,5.926-3.794,8.728c-7.079,14.332-13.662,28.987-21.572,42.984c-0.979,1.649-1.971,3.285-2.628,5.095
		c-0.818,1.984-0.335,3.298,1.475,4.116c2.145,0.992,4.612,1.823,6.918,2.48c1.81,0.496,2.802-0.335,3.298-1.984
		c2.628-7.079,6.583-13.501,11.195-19.266c10.377-13.005,22.564-24.2,36.066-33.746c0.657-0.496,1.475-0.657,2.132-0.831
		c1.488-0.161,2.802,0,4.29,0c0.322,2.145,0.161,4.29-1.153,6.261c-3.459,6.422-6.918,12.844-10.377,19.266
		c-3.298,6.087-6.261,12.187-7.91,18.931c-0.818,3.298-0.483,6.261,1.984,8.889c2.963,2.641,10.042,3.794,13.501,1.984
		c5.43-2.802,10.377-6.422,14.654-10.873c9.224-10.042,16.625-21.398,21.398-34.242c1.984-5.269,3.298-10.377,3.137-15.981
		c-0.161-7.562-3.298-13.823-8.567-18.931c-2.963-2.802-6.744-4.277-10.699-5.269c-9.385-2.306-18.77-2.145-28.155-1.475
		c-4.947,0.483-9.881,1.314-14.828,1.81c-5.43,0.496-10.699,0.818-15.968,1.314c-13.501,1.314-27.002,2.802-40.342,3.781
		c-5.157,0.426-10.27,0.561-15.365,0.352c-1.595-2.621-4.066-4.612-7.548-5.715c-4.625-1.314-9.251-1.649-13.89-0.992
		c-1.696,0.231-3.327,0.632-4.984,0.962c-4.527-2.229-8.614-5.184-12.056-9.261c-6.583-7.736-10.364-16.464-9.546-26.828
		c0.335-4.612,1.488-9.224,3.781-13.34c1.019-1.805,2.259-3.297,3.432-4.882c2.616,3.615,6.181,6.286,11.061,7.268
		c7.83,1.85,15.244-0.416,21.425-4.947c6.199-4.642,12.013-9.677,17.515-15.019c0.082,0.05,0.169,0.074,0.25,0.124
		c4.947,2.963,9.224,6.744,12.187,11.852c4.116,6.918,4.277,14.654,2.802,22.229c-1.649,9.063-7.575,14.815-15.807,18.113
		c-7.575,2.963-14.989,2.802-22.229-1.314c-3.137-1.81-4.947-4.451-4.947-8.232c0-0.657-0.657-1.488-1.314-1.81
		c-0.992-0.657-2.306-0.496-3.124,0.322c-0.992,0.657-1.488,1.984-0.992,3.137c0.496,1.153,0.992,2.467,1.81,3.459
		c6.918,8.393,16.142,11.021,26.506,9.211c10.873-1.971,18.448-8.554,23.06-18.435c3.603-7.656,4.426-15.217,2.366-22.564
		c4.713,1.465,6.174-0.925,7.582-4.357c11.946-27.391,33.987-48.816,59.93-67.546c1.649-1.233,3.7-2.065,6.382-3.097
		c3.915-0.818,4.116,2.266,4.116,3.499c-0.201,2.065-0.402,3.714-1.019,5.564c-1.864,5.148-3.915,9.881-6.395,14.627
		c-7.2,13.796-14.198,27.592-21.612,41.187c-3.097,5.349,1.649,6.784,5.765,8.232c2.883,0.818,7.2,3.084,8.849-1.448
		c6.596-18.328,20.392-32.942,34.805-47.153c7.615-7.615,16.679-14.212,25.527-21.009c1.448-0.818,6.11-1.85,9.194-0.617
		c0.831,0.617,2.611,2.065,2.611,5.564c0,0.201,0,0.201,0,0.201c-14,10.712-13.31,21.009-18.672,31.722
		c-3.084,6.382-6.856,13.179-8.505,19.977c-0.416,1.636-1.062,3.285-0.86,4.934c0.416,3.915,2.46,7.414,7.193,9.063
		c3.915,1.448,10.185,1.85,13.483,0.201c5.966-3.285,11.059-7.2,15.805-11.53c0.965-0.721,3.223-2.869,7.304-7.798
		c0.049,2.268,0.242,4.53,0.819,6.766c1.234,4.532,3.492,8.245,7.193,11.128c1.032,0.818,2.262,1.435,3.509,2.051
		c3.499,1.649,7.198,2.266,10.912,2.065c5.551-0.201,11.113-0.617,16.261-2.266c3.7-1.032,7.414-2.467,10.914-4.116
		c5.765-2.681,10.913-6.382,15.244-10.712c0.421-0.421,0.774-0.87,1.176-1.297c-1.032,1.807-2.086,3.615-3.053,5.413
		c-1.85,3.513-1.233,5.98,2.467,7.414c2.065,0.831,5.555,1.448,7.821,2.266c2.467,0.831,6.99,0.416,6.99-2.883
		c0-0.201,0-0.201,0-0.201c0-6.596,4.942-12.978,9.072-18.743c7.414-10.498,15.651-19.561,24.915-28.41
		c7.414-7.012,15.139-13.179,23.371-19.159c1.864-1.435,3.976-1.85,6.443-1.233c1.448,0.416,2.189,1.448,2.189,2.883
		c-0.201,1.233-0.455,2.467-0.857,3.499c-1.864,3.714-3.731,7.213-5.581,10.712c-4.116,7.615-8.256,15.231-12.157,23.06
		c-2.883,5.765-5.153,11.745-6.601,18.127c-1.233,5.966,1.647,10.913,7.211,12.764c2.668,1.032,5.145,1.233,7.813,1.233
		c2.065,0,4.129,0,5.98-1.233c6.999-3.7,13.179-8.648,18.73-14.413c0.695-0.721,1.26-1.532,1.927-2.273
		c-0.35,1.108-0.835,2.187-1.136,3.305c-1.649,6.797,1.435,12.563,8.031,14.413c2.266,0.617,4.518,0.818,6.784,1.032
		c2.883,0.201,5.564-0.617,8.031-2.065c5.98-3.298,11.329-4.585,16.276-9.318c6.999-6.596,12.348-19.829,18.328-19.829
		c-1.85,0-3.298,0-4.733,0c-1.032,0-1.649-2.614-2.266-1.796c-2.883,3.298-5.765,5.383-8.648,8.681
		c-3.298,3.499-6.797,6.291-10.511,9.375c-2.467,2.48-5.551,3.976-8.232,6.027c-1.233,0.831-2.467,1.272-3.915,1.687
		c-2.681,0.818-4.116-0.503-3.499-3.184c0.617-2.883,1.435-5.81,2.681-8.478c3.7-8.031,7.615-15.883,11.316-23.713
		c7.629-16.477,15.244-32.953,22.859-49.43c1.233-2.883,3.499-3.92,6.181-4.536c1.448-0.416,2.883-0.419,4.331-0.419
		c3.084,0,6.167-0.204,9.264-0.003c3.084,0.215,5.148-0.818,6.797-3.285c0.201-0.215,0.402-0.416,0.617-0.831
		c-2.065-1.032-4.129-2.051-6.382-2.051c-2.896,0.201-5.779,0.402-8.661,0.402c-2.266,0.214-4.518,0.416-6.784,0.416
		c0.201-0.416,0.201-0.617,0.402-0.818c1.448-3.097,3.298-6.181,4.746-9.479c1.85-3.7,3.499-7.414,5.148-11.329
		c1.233-3.084,0.402-5.966-1.864-8.433c-1.649-1.649-3.285-3.298-5.148-4.947c-1.435-1.649-2.883-1.233-3.915,0.617
		c-4.934,10.096-9.667,19.977-14.614,30.059c-0.617,1.448-1.649,2.48-3.084,2.896c-1.247,0.402-2.682,0.818-3.915,0.818
		c-3.298,0-6.596-0.201-9.68-0.201c-1.85-0.215-3.714-0.215-5.349-0.416c-0.416,3.084,0.402,4.532,3.084,5.349
		c2.467,0.831,4.947,1.233,7.414,1.649c2.051,0.416,3.915,0.831,5.966,1.233c-0.402,0.617-0.617,1.233-0.818,1.85
		c-4.532,9.479-9.063,18.958-13.796,28.423c-4.532,9.063-9.063,18.328-13.595,27.391c-0.58,1.192-1.081,2.425-1.646,3.63
		c-0.483,0.59-0.972,1.18-1.398,1.719c-2.681,3.298-5.349,6.596-8.447,9.68c-2.668,2.883-5.349,5.98-8.648,8.232
		c-3.084,2.065-5.966,4.331-9.466,5.98c-0.617,0.416-1.448,0.617-2.266,0.818c-1.448,0.416-2.681-0.402-2.681-1.85
		c0-0.617,0-1.032,0.201-1.649c0.617-2.266,1.233-4.934,2.266-7.2c3.499-7.414,7.213-14.828,10.712-22.243
		c3.084-6.382,6.181-12.764,9.063-19.159c3.298-7.2,1.85-13.796-3.915-18.328c-4.947-3.901-10.096-4.934-15.646-2.266
		c-2.065,1.032-4.331,2.065-6.181,3.513c-6.382,4.532-9.375,9.05-15.542,13.796c-4.129,3.285-9.576,6.797-9.576,10.082
		c0,0,0,0,0-0.201s-2.786-0.617-2.786-0.831c2.065-4.317,2.623-8.648,4.687-12.965c1.032-2.266,1.519-4.532,2.337-6.797
		c1.448-4.331-0.79-8.031-4.906-9.68c-2.051-0.818-4.301-1.233-6.566-1.233c-0.818,0-1.327,0.201-1.529,1.032
		c-1.864,4.317-3.761,8.648-5.812,12.965c-2.681,5.765-5.587,11.329-8.269,17.094c-3.181,6.36-6.336,12.76-9.53,19.135
		c-1.374,1.448-2.755,2.899-4.055,4.341c-2.065,2.065-4.119,4.331-6.385,6.181c-2.065,2.065-4.533,3.7-6.799,5.564
		c-4.532,3.084-9.065,5.966-14.213,8.031c-5.148,1.85-10.699,3.285-16.263,3.902c-2.266,0.214-4.532,0.416-6.596-0.201
		c-2.266-0.617-4.317-1.435-5.551-3.499c-1.649-2.467-1.864-5.148-1.649-7.83c0.617-4.532,1.85-8.849,3.7-12.965
		c1.233-2.883,2.681-5.564,4.116-8.245c0.214,0,0.214,0,0.214,0.215c5.148,2.266,10.297,2.467,15.646,1.435
		c5.564-1.032,10.498-3.298,15.244-6.181c3.7-2.051,6.999-4.733,10.498-7.2c7.213-5.765,11.946-12.764,13.179-22.042
		c0.416-3.499-0.818-6.382-3.499-8.433c-2.065-1.649-4.331-2.681-6.797-3.298c-6.181-1.649-12.361-1.032-18.127,1.649
		c-5.551,2.467-10.699,5.564-15.445,9.264c-6.382,4.532-12.147,9.68-16.679,16.062c-2.051,3.084-3.901,6.181-5.966,9.063
		c-3.084,4.733-5.564,9.68-7.414,14.828c-0.305,0.861-0.499,1.731-0.744,2.598c-0.992,1.099-2.038,2.246-3.104,3.369
		c-0.402,0.831-1.435,1.85-2.668,3.298c-0.215,0.201-0.617,0.617-0.831,1.032c-0.201,0-0.201,0.201-0.402,0.402
		c-2.681,2.883-5.765,6.181-8.245,7.83c-0.201,0-0.201,0.201-0.416,0.201c-0.402,0.416-0.617,0.617-1.019,0.831
		c-0.617,0.617-1.448,1.032-2.266,1.649c-0.831,0.617-1.649,1.233-2.681,1.85c-0.818,0.617-3.7,2.065-3.7,2.065
		c-1.649,0.818-2.883,1.233-3.513,1.019c-1.435-0.402-1.636-1.649-1.636-2.051c-0.214-1.448,0.818-4.532,1.636-6.382
		c0.215-0.831,0.416-1.649,0.831-2.266c6.583-14.011,13.595-27.807,19.977-41.804c3.7-8.245,1.233-15.445-5.765-19.776
		c-2.065-1.435-4.331-2.266-6.596-2.467c-1.032-0.201-2.051-0.201-3.084,0c-0.831,0-3.298,0.416-7.615,3.084
		c-1.448,0.617-2.896,1.649-4.532,2.883c-10.511,7.414-20.191,15.66-29.858,23.275c1.233-3.915,3.499-8.447,4.518-12.978
		c1.247-6.167-1.85-11.115-7.615-14.614s-11.329-2.48-16.679,0.818c-4.733,3.097-9.68,5.98-13.796,9.479
		c-7.83,6.583-15.244,13.582-23.476,20.996c0.818-1.636,1.234-2.883,1.649-3.902c3.7-7.012,7.414-13.809,10.914-20.808
		c2.883-5.349-1.448-7.615-6.382-9.466c-5.148-1.864-6.797,0.402-8.245,4.317c-2.668,6.797-6.382,13.394-9.466,19.977
		c-4.515,9.263-9.11,18.442-13.664,27.666c-2.184,1.562-4.557,2.836-7.305,3.64c-2.883,0.818-5.765,1.234-8.849,0.201
		c0-0.201,0.201-0.416,0.201-0.416c3.714-5.551,6.797-11.316,9.063-17.496c3.084-8.031,4.733-16.276,3.499-24.71
		c-1.233-8.648-6.181-14.212-14.212-16.062c-5.148-1.448-10.498-2.065-15.847-1.032c-6.596,1.233-12.563,3.915-17.925,7.83
		c-7.816,5.349-13.796,12.348-18.73,20.178c-5.564,9.063-10.096,18.328-11.128,29.027c-0.617,6.797,0,13.595,2.48,19.977
		c0.06,0.159,0.154,0.288,0.218,0.444c-5.792,7.243-9.067,15.606-9.067,25.459c0.161,9.881,3.124,18.609,9.385,26.184
		c3.281,3.907,7.106,6.824,11.168,9.279c-8.078,2.249-15.665,5.649-22.578,10.255c-10.732,6.89-20.091,15.15-28.492,24.364
		c-2.21-3.348-4.548-6.6-7.143-9.663c-2.629-3.104-5.426-6.05-8.382-8.844c-0.365-0.345-0.359-0.347-0.098-0.773
		c1.724-2.809,3.086-5.785,4.119-8.909c1.545-4.672,2.309-9.479,2.38-14.396c0.035-2.443-0.114-4.875-0.409-7.304
		c-0.309-2.534-0.837-5.019-1.493-7.481c-0.116-0.436-0.218-0.878-0.402-1.297c-0.327-0.744-1.672-1.19-2.267-0.188
		c-0.044,0.074-0.098,0.144-0.147,0.215c-1.804,2.71-3.325,5.569-4.542,8.587c-1.754,4.349-2.869,8.852-3.252,13.531
		c-0.266,3.243-0.219,6.479,0.272,9.7c0.153,1,0.35,1.993,0.523,2.99c0.029,0.164,0.109,0.33,0.029,0.516
		c-0.056-0.013-0.116-0.008-0.148-0.037c-3.938-3.281-8.075-6.298-12.326-9.117c0.012-0.07,0.018-0.104,0.018-0.104
		c0.061-0.06,0.119-0.127,0.189-0.178c0.779-0.543,1.316-1.287,1.74-2.122c0.715-1.408,1.027-2.924,1.187-4.475
		c0.303-2.95,0.116-5.887-0.261-8.815c-0.158-1.227-0.355-2.447-0.627-3.657c-0.305-1.364-0.671-2.707-1.103-4.032
		c-0.712-2.195-1.62-4.307-2.686-6.353c-0.669-1.285-1.409-2.529-2.206-3.739c-0.266-0.402-0.634-0.59-1.112-0.53
		c-0.513,0.067-0.866,0.345-1.04,0.838c-0.046,0.131-0.08,0.265-0.112,0.402c-0.784,3.355-1.252,6.752-1.394,10.195
		c-0.127,3.075,0.023,6.135,0.467,9.179c0.217,1.482,0.479,2.96,0.848,4.418c0.384,1.522,0.801,3.032,1.327,4.512
		c0.208,0.585,0.42,1.17,0.632,1.756c-0.142,0.05-0.208-0.018-0.28-0.06c-3.72-2.246-7.525-4.336-11.416-6.268
		c-0.188-0.092-0.374-0.188-0.565-0.273c-0.229-0.102-0.261-0.256-0.152-0.464c0.041-0.077,0.08-0.156,0.118-0.235
		c0.579-1.156,1.058-2.355,1.431-3.593c1.433-4.755,1.388-9.526,0.066-14.292c-0.694-2.5-1.741-4.853-3.121-7.056
		c-0.808-1.287-1.704-2.511-2.723-3.64c-0.401-0.444-0.845-0.513-1.365-0.251c-0.464,0.231-0.678,0.625-0.785,1.108
		c-0.347,1.567-0.616,3.149-0.793,4.744c-0.375,3.379-0.339,6.754,0.119,10.119c0.203,1.488,0.535,2.95,0.956,4.393
		c0.644,2.206,1.528,4.302,2.754,6.249c0.251,0.397,0.531,0.778,0.794,1.166c0.075,0.112,0.217,0.235,0.12,0.37
		c-0.11,0.153-0.256,0.015-0.37-0.037c-0.542-0.24-1.078-0.494-1.619-0.739c-3.706-1.669-7.455-3.233-11.266-4.651
		c-0.429-0.159-0.442-0.199-0.182-0.585c1.86-2.752,2.955-5.799,3.459-9.067c0.56-3.622,0.384-7.221-0.316-10.813
		c-0.448-2.303-1.098-4.54-1.964-6.715c-1.228-3.08-2.823-5.951-4.905-8.542c-0.373-0.466-0.83-0.714-1.412-0.593
		c-0.587,0.119-0.906,0.546-1.05,1.116c-0.349,1.368-0.656,2.747-0.909,4.136c-1.099,6.038-1.025,12.073,0.038,18.106
		c0.385,2.182,0.818,4.351,1.442,6.479c0.473,1.611,1.064,3.172,1.904,4.632c0.075,0.131,0.2,0.243,0.169,0.479
		c-0.966-0.332-1.915-0.66-2.863-0.985c-0.957-0.328-1.911-0.662-2.872-0.979c-0.977-0.325-1.959-0.632-2.939-0.945
		c-0.953-0.307-1.906-0.612-2.855-0.915c0.057-0.238,0.19-0.335,0.299-0.442c0.911-0.907,1.499-2.001,1.893-3.214
		c0.397-1.223,0.562-2.48,0.588-3.757c0.047-2.319-0.324-4.59-0.809-6.843c-0.343-1.59-1.145-2.941-2.348-4.057
		c-1.08-0.999-2.266-1.854-3.505-2.638c-1.192-0.758-2.383-1.517-3.576-2.273c-0.147-0.094-0.29-0.199-0.447-0.27
		c-0.911-0.407-1.704,0.047-1.802,1.034c-0.4,4.036-0.093,8.006,1.037,11.909c0.936,3.234,2.375,6.214,4.398,8.909
		c0.09,0.119,0.228,0.218,0.228,0.422c-0.199,0.012-0.373-0.072-0.55-0.124c-1.977-0.573-3.962-1.113-5.954-1.626
		c-1.503-0.387-3.01-0.761-4.514-1.141c-0.473-0.119-0.47-0.122-0.273-0.58c0.346-0.808,0.552-1.651,0.63-2.527
		c0.206-2.301-0.276-4.51-0.916-6.692c-0.561-1.911-1.315-3.751-2.108-5.574c-0.953-2.192-1.889-4.391-3.067-6.476
		c-1.219-2.159-2.672-4.124-4.649-5.663c-1.027-0.799-2.158-1.416-3.379-1.855c-1.014-0.365-1.803,0.208-1.951,1.17
		c-0.465,3.027-0.417,6.047,0.033,9.065c0.172,1.156,0.462,2.289,0.778,3.414c0.998,3.555,2.608,6.797,4.94,9.667
		c1.429,1.758,3.081,3.275,5.007,4.481c0.215,0.136,0.448,0.251,0.672,0.488c-0.241,0.032-0.404-0.027-0.569-0.062
		c-1.365-0.285-2.728-0.587-4.096-0.858c-1.813-0.359-3.631-0.694-5.446-1.041c-0.476-0.092-0.493-0.106-0.478-0.568
		c0.017-0.508-0.034-1.007-0.126-1.508c-0.168-0.912-0.471-1.785-0.789-2.653c-1.123-3.07-2.796-5.763-5.371-7.842
		c-2.314-1.867-4.932-2.926-7.918-3.02c-0.644-0.022-1.293-0.017-1.927,0.109c-0.912,0.179-1.303,1.006-0.885,1.835
		c0.079,0.154,0.173,0.302,0.265,0.451c0.917,1.485,1.881,2.936,2.984,4.292c2.389,2.94,5.057,5.577,8.277,7.721
		c0,0,0.069,0.032,0.05,0.121c-0.074,0.072-0.162,0.039-0.245,0.027c-3.091-0.432-6.183-0.858-9.29-1.158
		c-0.328-0.034-0.478-0.194-0.601-0.483c-1.489-3.462-3.407-6.67-5.746-9.63c-2.34-2.96-5.033-5.556-8.066-7.793
		c-2.58-1.9-5.356-3.466-8.32-4.689c-1.016-0.421-2.045-0.806-3.096-1.13c-0.813-0.248-1.463,0.181-1.579,1.029
		c-0.041,0.303,0.025,0.59,0.112,0.875c0.485,1.595,1.185,3.094,2.053,4.512c1.585,2.591,3.572,4.853,5.743,6.965
		c1.64,1.592,3.379,3.074,5.127,4.545c1.987,1.673,3.896,3.439,6.048,4.91c0.053,0.037,0.121,0.074,0.088,0.171
		c-0.044,0.007-0.094,0.025-0.142,0.023c-3.238-0.189-6.477-0.293-9.72-0.297c-0.611-0.002-0.613-0.01-0.813-0.578
		c-0.68-1.941-1.651-3.727-2.84-5.4c-1.849-2.601-4.139-4.76-6.734-6.595c-2.116-1.497-4.395-2.703-6.806-3.657
		c-0.811-0.32-1.633-0.612-2.473-0.851c-0.492-0.141-0.902,0.005-1.222,0.38c-0.303,0.359-0.39,0.774-0.215,1.223
		c0.044,0.114,0.092,0.226,0.143,0.337c1.099,2.405,2.443,4.661,4.104,6.725c2.929,3.64,6.478,6.466,10.805,8.282
		c0.097,0.04,0.235,0.047,0.265,0.221c-0.629,0.028-1.236,0.059-1.843,0.084c-2.124,0.084-4.245,0.22-6.362,0.419
		c-0.729,0.067-1.458,0.126-2.187,0.191c-0.178,0.017-0.316-0.007-0.328-0.225c-0.02-0.365-0.223-0.654-0.409-0.949
		c-2.92-4.612-6.755-8.281-11.46-11.034c-2.771-1.621-5.722-2.817-8.841-3.59c-3.272-0.81-6.589-1.143-9.958-0.972
		c-0.659,0.032-1.316,0.156-1.979,0.074c-0.206,0.037-0.412,0.074-0.618,0.111c-0.074,0.072-0.146,0.148-0.223,0.218
		c-0.65,0.587-0.685,1.311-0.056,1.907c0.684,0.647,1.383,1.279,2.094,1.894c2.06,1.783,4.23,3.424,6.507,4.917
		c4.102,2.691,8.459,4.867,13.113,6.437c2.134,0.721,4.304,1.306,6.513,1.745c0.132,0.025,0.279,0.02,0.39,0.116
		c-2.617,0.384-5.218,0.853-7.814,1.349c-1.18,0.226-2.35,0.508-3.519,0.791c-0.323,0.077-0.53-0.027-0.742-0.235
		c-0.848-0.833-1.756-1.599-2.717-2.293c-4.428-3.201-9.381-4.931-14.828-5.274c-1.833-0.116-3.658-0.047-5.564,0.189
		c0,0-0.086,0.017-0.168,0.045c-0.446,0.153-0.739,0.454-0.848,0.915c-0.111,0.468,0.089,0.823,0.447,1.094
		c0.752,0.566,1.494,1.15,2.276,1.673c1.289,0.861,2.61,1.676,3.99,2.391c3.165,1.644,6.48,2.837,10.009,3.407
		c0.116,0.017,0.247-0.007,0.37,0.129c-0.68,0.216-1.337,0.432-1.999,0.638c-2.181,0.677-4.327,1.451-6.462,2.263
		c-0.274,0.104-0.514,0.05-0.79,0.03c-0.597-0.047-0.957-0.459-1.412-0.714c-4.21-2.378-8.745-3.613-13.556-3.891
		c-1.935-0.111-3.864-0.045-5.794,0.144c-1.288,0.127-2.551,0.382-3.823,0.597c-0.435,0.072-0.83,0.211-0.922,0.711
		c-0.095,0.513,0.093,0.933,0.527,1.218c1.258,0.826,2.6,1.49,3.988,2.068c2.959,1.232,6.06,1.849,9.233,2.167
		c1.786,0.181,3.565,0.439,5.362,0.506c0.08,0.003,0.169,0.002,0.236,0.069c-0.074,0.156-0.22,0.186-0.338,0.245
		c-1.106,0.555-2.218,1.099-3.319,1.664c-0.275,0.141-0.496,0.188-0.763-0.02c-0.248-0.194-0.556-0.171-0.856-0.111
		c-0.992,0.198-1.968,0.464-2.934,0.761c-2.457,0.754-4.815,1.75-7.052,3.02c-2.993,1.699-5.675,3.798-8.049,6.291
		c-0.239,0.25-0.408,0.516-0.439,0.863c0.024,0.137,0.049,2.826,0.073,2.963c0.311,0.566,0.805,3.329,1.433,3.329
		c0.087,0,0.174,0,0.261,0c2.764,0,5.447-3.028,8.042-3.976c2.178-0.798,4.176-3.195,5.993-4.643c1.641-1.307,2.999-3.5,4.11-5.273
		c0.183-0.292,0.405-0.821,0.731-0.954c1.857-0.756,3.707-1.686,5.561-2.449c0.117-0.049,0.246-0.215,0.382-0.105
		c-0.021,0.198-0.162,0.275-0.262,0.413c-0.922,1.25-1.775,2.527-2.515,3.895c-1.931,3.568-3.122,7.366-3.663,11.383
		c-0.047,0.345-0.096,0.687-0.106,1.034c-0.022,0.871,0.818,1.399,1.59,1.015c0.14-0.069,0.271-0.159,0.403-0.244
		c2.476-1.585,4.501-3.627,6.083-6.104c1.059-1.656,1.85-3.434,2.371-5.333c0.654-2.388,0.794-4.807,0.492-7.26
		c-0.072-0.588-0.014-0.675,0.549-0.883c3.157-1.165,6.356-2.201,9.579-3.166c0.407-0.121,0.811-0.292,1.25-0.33
		c0.013,0.173-0.108,0.24-0.184,0.323c-1.553,1.716-2.859,3.607-3.974,5.629c-1.658,3.012-2.867,6.201-3.757,9.516
		c-0.032,0.119-0.06,0.236-0.079,0.357c-0.08,0.528,0.122,0.923,0.597,1.16c0.427,0.215,0.849,0.171,1.246-0.07
		c0.327-0.201,0.645-0.416,0.957-0.64c3.008-2.154,5.45-4.827,7.284-8.041c1.595-2.794,2.511-5.779,2.43-9.03
		c-0.01-0.399,0.015-0.406,0.412-0.533c0.916-0.288,1.861-0.473,2.796-0.665c1.946-0.402,3.881-0.866,5.849-1.158
		c0.147-0.022,0.297-0.097,0.451-0.017c0.013,0.169-0.111,0.255-0.195,0.359c-2.006,2.469-3.809,5.075-5.382,7.84
		c-2.761,4.857-4.731,10.022-6.005,15.455c-0.134,0.575,0.013,1.034,0.468,1.394c0.44,0.35,0.891,0.298,1.366,0.05
		c1.564-0.821,3.043-1.773,4.422-2.878c2.822-2.257,5.154-4.946,6.987-8.059c1.245-2.118,2.194-4.362,2.763-6.756
		c0.598-2.516,0.799-5.06,0.393-7.63c-0.068-0.432-0.028-0.468,0.4-0.556c0.396-0.084,0.799-0.069,1.197-0.121
		c1.814-0.241,3.64-0.372,5.465-0.496c1.876-0.129,3.758-0.184,5.638-0.27c0.095-0.005,0.215-0.044,0.266,0.119l-0.139,0.134
		c-2.317,1.807-4.132,4.042-5.61,6.563c-2.043,3.481-3.421,7.245-4.694,11.054c-0.175,0.525-0.101,1.016,0.31,1.398
		c0.392,0.364,0.85,0.308,1.324,0.136c3.375-1.233,6.088-3.35,8.256-6.189c1.807-2.363,3.116-4.993,4.127-7.78
		c0.596-1.642,1.075-3.318,1.476-5.016c0.104-0.437,0.139-0.461,0.555-0.458c3.523,0.045,7.04,0.204,10.552,0.468
		c0.111,0.008,0.251-0.025,0.339,0.116c-0.071,0.204-0.256,0.317-0.404,0.456c-2.319,2.177-4.45,4.528-6.367,7.066
		c-2.213,2.929-4.145,6.035-5.744,9.345c-1.116,2.313-2.094,4.679-2.908,7.116c-0.153,0.459-0.111,0.861,0.259,1.193
		c0.377,0.335,0.808,0.473,1.304,0.282c0.146-0.057,0.289-0.122,0.433-0.184c2.562-1.104,4.927-2.531,7.106-4.274
		c3.243-2.596,5.867-5.711,7.831-9.37c1.805-3.364,2.883-6.948,3.166-10.763c0.039-0.521,0.06-0.545,0.556-0.491
		c2.791,0.3,5.577,0.643,8.354,1.059c0.094,0.013,0.219-0.005,0.257,0.158c-0.08,0.074-0.256,0.238-0.256,0.238
		c-0.995,0.932-1.905,1.941-2.715,3.04c-1.847,2.504-3.127,5.271-3.86,8.292c-0.354,1.461-0.568,2.943-0.658,4.444
		c-0.029,0.496,0.164,0.838,0.561,1.098c0.251,0.164,0.517,0.178,0.803,0.122c1.479-0.283,2.739-1.004,3.885-1.949
		c1.302-1.074,2.369-2.361,3.344-3.729c1.135-1.589,2.192-3.233,3.221-4.892c1.031-1.661,1.981-3.37,2.392-5.318
		c0.072-0.34,0.131-0.367,0.468-0.335c0.122,0.012,0.241,0.037,0.362,0.057c3.609,0.62,7.205,1.312,10.789,2.065
		c0.111,0.023,0.251,0.007,0.308,0.144l-0.023,0.049c-0.056,0.04-0.173,0.116-0.173,0.116c-4.026,2.192-7.257,5.277-9.985,8.923
		c-2.387,3.189-4.277,6.657-5.781,10.34c-0.719,1.76-1.333,3.56-1.825,5.398c-0.251,0.94,0.386,1.622,1.352,1.48
		c0.302-0.045,0.559-0.188,0.817-0.335c5.078-2.903,9.305-6.74,12.643-11.544c1.678-2.415,4.638-5.008,5.808-7.701
		c0.807-1.859,3.297-3.756,3.297-5.8c0-0.034,0-0.104,0-0.104c0-0.184-1.468-0.238-1.303-0.203c0.256,0.055-0.284,0.116-0.03,0.173
		c3.455,0.774,6.493,1.626,9.909,2.554c0.196,0.054,0.206,0.084,0.379,0.206c-0.029,0.055-0.161,0.111-0.161,0.111
		c-0.075,0.042-0.206,0.075-0.286,0.109c-1.635,0.69-3.147,1.621-4.509,2.755c-2.171,1.812-3.902,3.995-5.286,6.445
		c-1.19,2.107-2.074,4.341-2.559,6.722c-0.116,0.566-0.017,1.046,0.437,1.411c0.427,0.344,0.868,0.23,1.324,0.018
		c1.742-0.808,3.446-1.686,5.091-2.675c1.963-1.18,3.823-2.5,5.47-4.104c1.525-1.483,2.81-3.142,3.704-5.088
		c0.579-1.262,0.957-2.581,1.155-3.953c0.066-0.463,0.091-0.479,0.531-0.349c0.752,0.225,1.499,0.466,2.25,0.694
		c2.604,0.791,5.182,1.659,7.749,2.559c0.1,0.035,0.252,0.018,0.266,0.189c-0.509,0.153-1.013,0.288-1.507,0.454
		c-3.156,1.052-6.025,2.653-8.705,4.604c-2.573,1.874-4.916,4.012-7.141,6.281c-2.126,2.169-4.124,4.451-6.092,6.764
		c-0.542,0.637-1.096,1.265-1.613,1.924c-0.345,0.436-0.361,0.932-0.067,1.418c0.285,0.469,0.721,0.58,1.224,0.479
		c0.427-0.084,0.845-0.214,1.273-0.295c1.82-0.35,3.586-0.892,5.325-1.515c4.582-1.646,8.814-3.932,12.63-6.97
		c2.455-1.956,4.635-4.178,6.487-6.715c1.009-1.384,1.891-2.846,2.644-4.386c0.208-0.424,0.218-0.427,0.624-0.271
		c3.078,1.182,6.115,2.462,9.124,3.813c0.101,0.044,0.246,0.057,0.26,0.211c-0.045,0.097-0.139,0.102-0.218,0.131
		c-0.787,0.285-1.568,0.587-2.326,0.942c-3.055,1.424-5.797,3.281-7.94,5.923c-1.088,1.339-2.112,2.732-3.179,4.086
		c-0.897,1.14-1.863,2.217-3.01,3.117c-0.137,0.107-0.271,0.221-0.387,0.35c-0.357,0.394-0.385,0.853-0.186,1.319
		c0.189,0.442,0.549,0.664,1.038,0.649c0.209-0.008,0.419-0.015,0.625-0.045c1.833-0.261,3.638-0.64,5.39-1.257
		c2.958-1.039,5.659-2.537,8.064-4.552c2.717-2.276,4.832-5.014,6.282-8.255c0.196-0.439,0.246-0.456,0.666-0.248
		c4.166,2.045,8.247,4.248,12.22,6.65c0.109,0.064,0.264,0.106,0.272,0.278c-0.133,0.116-0.297,0.107-0.448,0.132
		c-1.102,0.189-2.18,0.483-3.244,0.813c-3.581,1.111-6.87,2.804-9.877,5.039c-2.305,1.714-4.354,3.705-6.175,5.928
		c-0.83,1.012-1.585,2.081-2.306,3.172c-0.173,0.263-0.332,0.531-0.3,0.872c0.067,0.699,0.634,1.166,1.39,1.113
		c0.469-0.032,0.939-0.079,1.404-0.144c2.007-0.28,3.979-0.726,5.901-1.369c3.672-1.23,7.05-3.005,10.05-5.47
		c2.186-1.797,4.075-3.856,5.56-6.275c0.32-0.521,0.613-1.056,0.911-1.589c0.196-0.352,0.264-0.362,0.612-0.142
		c0.546,0.344,1.093,0.685,1.628,1.047c3.997,2.688,7.85,5.571,11.523,8.69c0.876,0.746,1.734,1.513,2.606,2.264
		c0.184,0.158,0.256,0.315,0.14,0.545c-0.092,0.183-0.183,0.303-0.432,0.287c-1.342-0.094-2.677-0.003-4.016,0.119
		c-1.889,0.173-3.715,0.613-5.52,1.148c-2.902,0.858-5.658,2.08-8.316,3.523c-3.506,1.904-6.771,4.163-9.833,6.717
		c-1.313,1.096-2.58,2.242-3.803,3.437c-0.364,0.357-0.466,0.769-0.306,1.242c0.153,0.454,0.477,0.717,0.956,0.781
		c0.173,0.023,0.345,0.047,0.519,0.067c3.587,0.379,7.102-0.037,10.556-1.014c2.389-0.675,4.669-1.644,6.848-2.836
		c2.511-1.373,4.93-2.899,7.313-4.481c1.587-1.054,3.079-2.231,4.42-3.588c1.125-1.14,2.081-2.393,2.689-3.891
		c0.278-0.684,0.29-0.684,0.818-0.188c2.213,2.078,4.357,4.227,6.412,6.462c3.401,3.697,6.502,7.639,9.401,11.74
		c-4.849,5.445-9.463,11.126-13.605,17.28c-5.122,7.684-10.029,15.589-14.859,23.57c-8.338-0.545-16.637-1.733-24.799-3.405
		c-5.953-0.992-11.906-2.319-18.18-3.647c1.649-3.298,3.298-6.61,4.626-9.586c1.327-3.298,2.976-6.932,4.304-10.243
		c1.314-4.29,0.657-8.594-2.319-11.906c-2.641-2.963-5.618-5.939-8.594-8.594c-1.984-1.649-5.618-0.657-6.61,1.327
		c-2.641,5.618-5.296,10.914-7.937,16.531c-2.319,5.282-4.961,10.578-7.602,15.861c-0.992-0.322-1.984-0.322-2.976-0.657
		c-16.196-4.626-32.727-9.251-48.923-14.212c-30.086-8.594-60.494-16.866-91.572-20.164c-14.869-1.649-29.416-1.984-43.627,1.984
		c-32.727,9.251-54.876,28.759-62.813,62.478c-1.984,7.924-3.633,16.196-2.319,24.455c1.663,15.539,6.945,29.751,16.196,42.313
		c7.615,10.578,16.866,19.508,27.78,26.453c18.502,11.57,38.667,17.188,60.494,12.884c18.837-3.633,34.376-13.22,45.947-28.088
		c15.204-19.172,16.853-40.664,8.929-63.47c-8.594-25.125-30.086-41.321-55.546-41.992c-15.204-0.657-28.423,3.969-39.002,14.547
		c-1.984,2.319-3.633,4.626-3.312,7.602c0,2.976,1.984,4.961,5.296,5.296c3.633,0,5.618-1.327,5.953-4.626
		c1.314-5.631,3.969-9.921,9.586-11.906c1.314-0.657,2.641-1.327,3.969-1.984c13.22-4.304,26.104-2.641,38.345,3.312
		c14.547,7.267,24.455,18.837,28.423,34.698c1.984,8.607,0.992,16.866-0.657,25.125c-2.976,14.225-8.929,26.453-21.157,35.382
		c-18.18,13.541-38.023,18.837-59.837,12.227c-30.743-8.929-50.907-28.759-59.837-59.501c-2.641-9.264-2.976-18.851-0.992-28.102
		c5.953-28.759,24.133-47.274,50.907-57.517c16.531-6.288,33.719-6.288,50.907-3.633c15.217,1.971,30.086,4.626,44.968,8.594
		c27.096,6.932,53.884,14.869,80.658,22.471c3.633,0.992,6.945,1.984,10.9,2.976c-1.314,2.319-2.641,4.304-3.633,6.61
		c-6.275,13.233-12.563,26.453-18.837,40.007c-6.945,14.547-13.555,29.08-20.5,43.305c-2.976,5.939-6.275,11.57-9.586,17.51
		c-6.945,13.233-13.555,26.788-17.523,41.321c-2.306,9.264,0.67,17.858,8.272,21.492c8.916,3.969,18.502,5.296,27.431,0
		c2.319-1.327,4.625-2.641,6.61-4.29c10.513-6.6,19.379-14.838,27.301-24.153c-2.822,6.065-5.682,12.108-8.464,18.2
		c-1.649,3.633-3.298,7.602-4.961,11.235c5.618,3.312,11.249,4.304,17.188,1.984c0.67,0,0.992-0.657,1.327-1.327
		c4.626-8.594,9.251-17.188,14.212-25.447c8.929-15.204,17.858-30.421,27.445-45.29c8.259-13.22,19.508-23.798,33.719-30.743
		c2.976-1.327,5.953-2.319,9.251-2.976c2.641-0.335,3.312,0.657,2.319,2.976c-4.304,8.929-8.594,18.18-13.233,26.774
		c-7.602,13.89-15.861,27.766-23.463,41.978c-2.976,5.631-5.296,11.57-6.945,17.858c-2.319,8.259,2.319,15.204,10.243,17.523
		c5.296,0.992,10.578,0.657,15.539-1.327c12.563-4.625,23.141-11.906,32.405-21.814c5.152-5.47,10.235-11.019,15.313-16.568
		c-0.89,2.77-1.906,5.541-2.737,8.296c-1.327,5.296-0.992,9.921,0.322,14.212c0.335,0.992,0.67,1.662,0.992,2.655
		c4.961,10.243,11.235,13.555,17.188,13.876c1.662,0,3.312,0,4.961-0.322c2.641-0.67,4.625-1.327,5.618-1.984
		c4.625-1.984,8.594-4.961,10.914-7.28c7.82-7.82,15.455-15.908,22.97-24.116c-0.057,0.104-0.107,0.215-0.164,0.318
		c-2.319,4.304-4.961,8.594-7.267,12.898c-2.976,5.618-1.984,9.586,3.955,11.892c3.312,1.327,6.884,2.319,10.517,3.633
		c3.969,1.327,9.203,0.67,9.203-4.625c0-0.322,0-0.322,0-0.322c0-10.578,9.969-20.835,16.592-30.086
		c11.892-16.866,26.135-31.4,41.017-45.625c11.906-11.235,24.805-21.157,38.025-30.743c2.976-2.306,6.632-2.976,10.587-1.984
		c2.319,0.67,3.65,2.319,3.65,4.639c-0.335,1.984-0.668,3.955-1.325,5.618c-2.976,5.953-5.954,11.57-8.93,17.188
		c-6.61,12.227-13.217,24.455-19.491,37.017c-4.639,9.264-8.273,18.851-10.579,29.094c-1.984,9.586,2.641,17.523,11.57,20.5
		c4.29,1.649,8.259,1.984,12.549,1.984c3.312,0,6.623,0,9.6-1.984c11.235-5.953,21.157-13.89,30.072-23.141
		c3.072-3.177,5.758-6.647,8.525-10.057c-0.055,7.835,1.743,15.521,6.357,22.941c6.275,10.257,17.845,15.217,30.086,12.898
		c9.251-1.984,17.188-7.267,24.455-13.22c3.633-3.312,7.28-6.61,10.913-9.921c0,0,0.322,0,0.322,0.335
		c-2.963,6.945-5.939,14.212-9.251,21.478c-1.649,2.655-3.969,4.961-5.953,7.602c-1.314,1.663-2.641,1.984-4.29,1.663
		c-8.929-0.335-17.858-0.992-26.774-0.992c-17.201,0.322-34.711,0.992-51.899,4.29c-18.194,2.976-36.039,7.937-52.57,16.866
		c-14.212,7.602-26.774,16.853-35.703,30.743c-7.924,12.227-12.227,26.117-8.594,40.986c5.296,22.149,20.164,35.703,41.992,41.656
		c20.164,5.953,39.994,2.319,58.831-6.288c20.835-9.251,37.688-23.463,53.227-39.994c19.829-21.157,34.054-45.947,46.617-71.729
		c1.314-2.655,2.641-3.312,5.282-2.976c21.157,3.298,42.313,5.953,63.47,9.586c30.421,5.282,60.829,11.892,91.571,14.212
		c15.861,1.327,31.735,2.319,47.931-0.335c15.874-2.306,30.408-7.602,42.97-17.845c21.157-17.188,31.413-40.007,29.429-67.103
		C1169.288,978.88,1162.343,963.676,1150.437,950.443z M867.611,691.696c5.564-6.797,11.745-12.563,18.743-17.51
		c3.084-2.252,6.382-4.116,10.096-4.934c1.636-0.416,3.285-0.617,4.934,0c1.85,0.818,3.499,2.051,2.48,4.733
		c-0.831,2.065-1.864,4.116-2.883,5.98c-3.298,4.733-7.213,8.849-11.745,12.348c-2.883,2.467-5.966,5.148-9.264,6.999
		c-4.116,2.065-8.245,3.298-12.764,3.097c-2.266,0-4.532-0.416-6.797-1.649C862.879,697.662,865.144,694.579,867.611,691.696z
		 M651.915,725.885c-3.298,3.084-6.583,6.382-9.881,9.466c-2.883,2.883-6.382,4.532-10.297,5.148
		c-1.448,0.416-2.883,0.416-4.331,0.416c-3.546,0-6.925-2.71-8.43-6.501c5.851-5.81,12.998-9.762,21.609-11.532
		c4.884-0.942,9.64-0.945,14.25,0C653.876,723.884,652.914,724.879,651.915,725.885z M677.859,722.788
		c3.198-0.491,6.073-1.515,8.79-2.804c-2.083,4.191-4.114,8.432-6.223,12.598c-2.933-3.958-6.305-6.997-9.891-9.573
		C673.039,723.029,675.544,723.176,677.859,722.788z M664.277,670.687c1.85-1.85,3.7-3.499,5.966-4.733
		c3.298-1.649,5.966-0.416,7.414,3.084c1.435,3.714,1.032,7.629,0,11.544c-2.266,8.031-5.966,15.445-10.096,22.645
		c-1.636,2.681-3.285,5.564-5.148,8.232c-6.167-2.051-9.466-6.999-9.264-13.796C653.565,687.164,657.265,678.316,664.277,670.687z
		 M621.24,718.055c6.999-19.36,18.529-35.422,34.39-48.387c0.201-0.214,0.402-0.416,0.818-0.416
		c-0.201,0.416-0.201,0.818-0.416,1.032c-2.883,6.382-5.765,12.563-7.414,19.146c-1.435,5.148-1.85,10.096-0.201,15.244
		c1.435,4.317,4.317,7.816,7.615,10.914c0.587,0.577,1.17,1.106,1.756,1.634c-4.337-0.997-8.889-1.51-13.917-0.923
		c-9.692,1.156-18.122,4.941-25.299,10.94C619.088,724.053,620.078,721.021,621.24,718.055z M584.826,847.971
		c12.227-13.22,26.117-24.79,41.643-34.054c4.961-2.976,10.578-4.947,15.539-7.602c1.327-0.657,2.976-0.992,3.969,0.335
		c1.327,1.327,1.327,2.641,0.657,3.969c-1.649,2.976-2.963,6.275-4.625,8.929c-12.227,16.518-26.117,32.392-40.651,46.939
		c-0.335,0.328-0.694,0.617-1.031,0.945c3.865-4.507,7.692-9.036,9.625-14.835c1.327-2.976,1.327-5.953-0.657-8.929
		c-1.984-2.641-2.82-3.633-6.466-2.641c-3.298,1.327-1.827,3.312-1.827,6.945c0,1.327,0,2.641,0,4.304
		c0,2.963-4.447,5.282-7.088,7.602c-7.89,6.301-18.252,9.811-27.897,11.349C572.39,863.225,577.633,855.41,584.826,847.971z
		 M555.542,883.09c2.164,0.062,4.289,0.283,6.477,0.25c13.655-0.302,26.047-4.057,35.998-13.793
		c-14.218,13.635-28.945,26.927-44.606,38.903c-5.939,4.29-11.892,10.55-18.837,10.55c-0.335,0-0.335,0-1.327,0
		c0.992,0,1.662-3.605,2.655-4.932C541.888,903.548,548.489,892.837,555.542,883.09z M483.845,981.165
		c-0.147,0.017-0.354,0-0.499,0.02c-0.67,0-1.663,0.335-2.319,0.992c-7.267,8.272-14.869,16.866-22.471,25.125
		c-6.623,6.945-14.225,12.898-22.819,17.523c-1.984,0.992-3.969,1.984-5.618,2.319c-2.641,0.657-4.625-1.327-3.969-3.647
		c1.327-4.947,1.984-9.908,4.304-14.533c9.586-20.835,19.829-41.656,29.416-62.478c10.914-24.133,22.149-47.944,34.376-71.407
		c1.663-3.312,0.67-3.312,4.639-1.984c12.62,3.608,25.154,6.566,37.901,8.39c-1.943,3.268-3.908,6.514-5.844,9.791
		C513.945,920.571,498.533,950.664,483.845,981.165z M859.54,1072.435c-9.251,18.837-19.508,37.353-33.062,53.549
		c-14.212,16.531-30.743,30.408-51.229,38.01c-16.209,5.953-32.727,7.602-49.258,1.662c-14.547-5.296-25.782-14.882-30.421-30.421
		c-2.963-11.235-0.657-21.478,4.639-31.735c6.932-12.563,17.51-21.479,29.416-29.08c14.212-8.929,29.751-14.225,46.282-17.523
		c23.141-4.961,46.282-7.28,70.08-6.288c7.602,0.335,15.204,1.327,23.476,1.984C865.815,1059.538,862.838,1065.812,859.54,1072.435z
		 M874.409,1009.287c-5.618,6.288-11.892,11.57-20.164,14.547c-3.633,1.327-7.924,1.984-12.227,2.32
		c-2.306,0.322-3.969-0.67-5.282-2.655c-2.976-3.955-3.969-8.259-3.647-12.884c0-6.945,1.662-13.555,4.639-19.829
		c9.586-20.5,21.814-39.672,38.667-55.546c7.602-6.945,15.874-13.555,25.46-18.18c3.298-1.314,6.61-2.306,10.243-2.976
		c4.625-0.657,7.937,1.662,8.929,6.61c0.992,5.953,0,11.57-1.649,17.188c-5.618,21.492-17.523,39.35-32.07,55.868
		C883.016,998.709,879.048,1004.326,874.409,1009.287z"/>
</g>
<g id="XMLID_1_">
</g>
<g id="XMLID_2_">
</g>
<g id="XMLID_3_">
</g>
<g id="XMLID_4_">
</g>
<g id="XMLID_5_">
</g>
<g id="XMLID_6_">
</g>
</svg>
