<?xml version="1.0" encoding="iso-8859-1"?>
<!-- Generator: Adobe Illustrator 22.0.0, SVG Export Plug-In . SVG Version: 6.00 Build 0)  -->
<svg version="1.1" id="Layer_1" xmlns="http://www.w3.org/2000/svg" xmlns:xlink="http://www.w3.org/1999/xlink" x="0px" y="0px"
	 viewBox="0 0 1366 768" style="enable-background:new 0 0 1366 768;" xml:space="preserve">
<g>
	<path d="M606.668,699.067l49.865-41.231l4.097,4.955c5.658,6.842,15.791,7.802,22.633,2.145l33.45-27.658
		c6.842-5.658,7.803-15.79,2.144-22.633l-27.657-33.45c-5.657-6.843-15.791-7.802-22.633-2.145l-33.449,27.658
		c-6.842,5.656-7.803,15.79-2.145,22.633l4.097,4.955l-49.865,41.231l-4.097-4.955c-5.658-6.842-15.791-7.802-22.633-2.145
		l-33.45,27.658c-6.842,5.658-7.803,15.79-2.144,22.633l27.658,33.45c5.658,6.843,15.79,7.802,22.633,2.145l33.45-27.658
		c6.841-5.656,7.802-15.79,2.144-22.632L606.668,699.067z"/>
	<path d="M821.605,681.947h-43.403c-8.877,0-16.075,7.197-16.075,16.075v6.43h-64.703v-6.43c0-8.878-7.198-16.075-16.075-16.075
		h-43.403c-8.877,0-16.075,7.197-16.075,16.075v43.403c0,8.878,7.198,16.075,16.075,16.075h43.403
		c8.878,0,16.075-7.197,16.075-16.075v-6.43h64.703v6.43c0,8.878,7.198,16.075,16.075,16.075h43.403
		c8.878,0,16.075-7.197,16.075-16.075v-43.403C837.68,689.144,830.482,681.947,821.605,681.947z"/>
	<path d="M496.358,39.352c31.709,13.53,57.433,47.223,74.168,60.238c26.971,20.976,38.957,16.482,38.957,16.482
		s-20.227-4.495-35.212-25.47c-14.979-20.976-56.937-75.667-80.911-79.413c-23.973-3.745-38.954,31.464-38.954,31.464
		S464.656,25.822,496.358,39.352z"/>
	<path d="M832.737,80.114c45.697-12.968,77.913,14.982,77.913,14.982s-1.501-11.985-26.973-31.604
		c-25.476-19.618-95.142,17.371-125.112,24.862c-29.965,7.494-49.444-4.039-49.444-4.039
		C737.59,107.249,795.145,90.781,832.737,80.114z"/>
	<path d="M469.379,175.08c-11.645,3.003-34.196-9.168-35.461-9.853c16.545,23.079,35.671,36.146,51.163,43.523
		c18.389,13.489,51.479,18.547,79.88,18.547c9.8,0,19.074-0.58,27.03-1.686c25.818-3.478,41.573-10.117,46.789-19.707
		c3.003-5.585,1.37-10.116,0.949-11.17c-0.843-2.107-11.856-27.663-58.961-45.577c-11.908-4.531-24.08-7.429-35.777-8.694
		c-26.346-5.427-51.742-6.375-67.339-5.48c-31.509,1.739-43.786-12.488-43.786-12.488C441.821,159.22,469.379,175.08,469.379,175.08
		z M478.125,180.876c1.317-10.854,6.955-19.39,16.756-25.344c9.642-5.849,22.552-8.747,36.936-8.747c4.162,0,8.43,0.263,12.804,0.79
		c-0.632,2.476-0.948,5.058-0.948,7.64c0,18.02,14.701,32.668,32.879,32.668c12.962,0,24.132-7.429,29.507-18.231
		c21.445,13.963,27.03,27.504,27.083,27.715l0.105,0.158c0,0.106,0.896,2.266-0.843,5.269c-2.371,4.163-10.96,11.75-41.362,15.807
		c-36.62,4.953-87.52-0.949-105.909-19.021C479.6,194.101,477.282,187.989,478.125,180.876z"/>
	<path d="M880.209,134.982c-4.057-0.211-8.8-0.316-14.069-0.211c-9.695,0.105-21.076,0.791-33.248,2.371
		c-6.691,0.843-13.594,1.95-20.549,3.425c-0.158,0-0.316,0.053-0.474,0.053c-3.32,0.369-6.692,0.896-10.433,1.581
		c-8.22,1.581-16.44,3.952-24.396,6.955c-25.924,9.906-40.835,22.13-49.055,31.14c-0.369,0.474-0.791,0.896-1.159,1.317
		c-1.212,1.423-2.266,2.687-3.214,3.899c-1.581,2.108-2.951,4.216-4.057,6.27c-0.316,0.632-0.632,1.317-0.948,1.95
		c0,0.053-0.053,0.105-0.053,0.105c-0.105,0.105-0.158,0.211-0.211,0.316l-0.105,0.316l-0.105,0.263l-0.211,0.685
		c0,0.053,0,0.105-0.052,0.211c-0.633,1.791-1.265,5.69,1.212,10.274c5.164,9.59,20.918,16.229,46.789,19.759
		c8.799,1.159,18.073,1.686,27.399,1.686c17.546,0,35.355-2.002,50.109-5.849l0.474-0.105c12.014-3.161,21.709-7.429,28.769-12.593
		c0-0.053,0.052-0.053,0.052-0.053c15.491-7.324,34.618-20.391,51.216-43.523c-1.265,0.685-23.764,12.857-35.461,9.853
		c0,0,27.61-15.86,35.514-52.585C923.943,122.494,911.666,136.721,880.209,134.982z M842.535,214.44
		c-0.105,0-0.158,0.052-0.263,0.052c-2.635,0.316-5.269,0.58-7.799,0.843c-1.738,0.211-3.477,0.369-5.163,0.527
		c-70.869,7.008-93.526-3.794-100.745-11.171c-0.843-0.843-1.475-1.686-2.002-2.476c-0.474-0.738-0.843-1.475-1.106-2.108
		c-0.58-1.475-0.633-2.635-0.58-3.109l0.053-0.158c0.685-1.476,2.002-3.899,4.321-7.008c0.896-1.106,1.844-2.371,2.951-3.636
		c7.324-8.43,21.551-20.602,47.369-30.402c7.43-2.846,15.122-5.058,22.815-6.534c1.897,16.282,15.807,28.875,32.668,28.875
		c13.963,0,25.818-8.589,30.508-20.76c8.272,5.691,13.015,13.647,14.121,23.5C881.948,199.792,860.871,209.539,842.535,214.44z"/>
	<path d="M400.079,235.243c-1.13-0.559-2.533-0.844-3.651-0.844c-7.005,0-13.725,0-20.731,0.559
		c-5.054,0.57-9.812,1.13-12.619,6.172c-2.236,4.199-2.521,9.242-2.795,13.725c-1.403,23.264-1.403,46.527-1.403,69.779
		c-0.285,12.06,0,23.823,2.795,35.871c0.57,2.807,1.403,5.328,4.495,6.446c3.354,1.13,7.279,0.285,10.645,0.559
		c1.403,0,2.795,0,4.199,0h6.446c3.081,0,5.887,0,8.968-0.274c1.118-0.285,2.521-0.559,3.366-1.403c0.559-0.844,1.118-3.081,0-3.64
		c-0.285-0.285-0.559-0.559-0.844-0.559c-1.403-0.285-2.521-0.285-3.925-0.285h-9.801c-1.403,0-3.08,0-4.484-0.274
		c-1.13,0-1.962-0.57-2.248-1.403c-0.274-0.844-0.274-1.403-0.274-1.962v-1.403c-0.285-3.081,0-5.887,0-8.968
		c0-3.64,0-7.291,0.274-10.93c0.285-7.85,0.559-15.699,0.559-23.823v-0.844c0-6.435-0.559-12.881-0.274-19.327v-5.887
		c0-1.962-0.285-4.484,1.677-5.602c0.559-0.285,1.403-0.285,1.962-0.285c3.925,0,7.564,0.285,11.215,0.285
		c2.795,0,3.64-4.484,1.677-6.172c-0.285-0.274-0.844-0.274-1.403-0.274c-5.328,0-10.371,0-15.414-0.285
		c-0.559,0-0.274-10.371-0.274-11.204v-20.742c1.392-0.285,2.795-0.559,4.199-0.559h15.129c1.689,0,3.366-0.285,4.21-1.962
		C402.316,238.049,401.757,235.802,400.079,235.243z"/>
	<path d="M467.086,390.215c9.242-23.537,11.489-47.919,9.801-72.86c-0.274-4.21-1.118-8.409-2.521-12.619
		c-2.236-5.602-8.123-6.435-11.489-1.392c-3.925,5.876-7.85,11.763-10.93,18.209c-4.484,9.253-8.409,18.78-12.607,28.306
		c-0.559,1.118-3.08,8.409-5.328,8.682c-4.199,0.57-2.236-16.806-2.236-19.327c0.274-6.446,0.559-12.893,0.559-19.339
		c0-4.21-1.118-8.409-5.602-9.812c-1.962-0.844-4.484-0.559-6.732,0.285c-5.887,2.521-4.758,14.284-5.043,19.613
		c-0.559,6.161-0.559,12.048,0,18.221c0.844,6.161,2.807,11.763,7.564,15.973c6.172,5.887,12.607,5.317,16.817-1.962
		c3.366-5.613,5.887-11.489,8.682-17.376c3.925-8.409,7.576-16.817,11.215-25.226c0.559-1.118,1.118-2.236,1.677-3.081
		c0,7.291,0.559,14.296,0,21.301c-0.833,12.048-1.677,24.096-3.08,36.145c-1.118,10.371-3.081,21.301-9.812,29.71
		c-5.602,7.005-17.091,5.602-18.494-4.199c-0.559-2.807-0.274-5.613-0.833-8.409c-0.844-3.925-4.769-3.651-5.613-0.285
		c-0.559,2.521-0.559,5.043-0.274,7.564c0.559,4.21,2.236,8.409,5.043,11.489c7.85,8.409,18.78,8.409,27.462,0
		C460.914,404.226,464.28,397.506,467.086,390.215z"/>
	<path d="M505.513,326.038c5.887,0,11.489,0.285,16.817,0c4.484,0,6.72-1.677,7.279-5.328c0.844-7.005,0.844-14.011-1.677-20.731
		c-4.21-10.645-14.57-13.737-23.537-7.005c-2.521,1.962-4.769,4.199-6.732,6.72c-11.204,14.855-13.452,31.672-10.645,49.322
		c0.833,5.887,3.354,10.93,7.279,15.14c3.081,3.354,8.135,5.317,12.619,4.199c4.484-1.118,7.564-4.758,10.36-8.123
		c3.366-4.21,5.887-8.694,7.291-13.737c0.285-1.118,0.285-3.354-1.118-4.199c-2.248-0.844-4.484,0.559-5.602,2.236
		c-1.962,3.366-3.925,6.732-6.172,10.097c-1.118,1.677-2.521,4.484-4.758,4.758c-1.129,0.285-1.129-0.274-1.689-1.403
		c-0.274-1.118-0.559-1.962-0.559-3.081c0-0.844-1.118-8.123-0.844-12.333C503.824,341.178,504.954,326.038,505.513,326.038z
		 M515.313,301.097c1.962-1.962,4.495-1.118,5.887,1.962c2.521,5.328,2.807,10.93,2.248,17.091h-16.532
		C508.879,313.145,510.841,306.699,515.313,301.097z"/>
	<path d="M624.672,258.221c-2.248,3.925-3.925,7.85-5.887,11.774h-0.844v-3.925c0-7.85,0-15.973-0.274-23.823
		c-0.285-4.199-2.807-6.72-6.172-7.005c-3.64,0-6.161,1.962-7.279,6.161c-0.285,1.962-0.844,3.925-1.13,5.887
		c-3.354,31.113-5.602,61.93-3.081,93.317c0.559,6.172,1.403,28.592,11.489,26.903c3.651-0.559,5.043-3.081,5.328-6.72
		c0.274-2.521,0.274-4.769,0.274-7.564v-46.801c0-1.403,0-2.521,0.285-3.925h0.844l3.354,9.242
		c3.092,8.135,5.328,16.543,9.253,24.382c3.366,7.017,9.253,16.543,17.376,18.78c4.199,1.118,8.968-0.559,11.204-3.925
		c1.403-1.962,1.689-6.161-1.392-6.161c-1.962,0-3.925,1.962-6.172,1.677c-1.677-0.559-2.795-2.521-3.925-3.925
		c-1.962-3.354-3.925-7.005-5.317-10.645l-11.489-33.349c19.327-7.85,29.139-18.209,34.182-36.43
		c1.118-3.925,1.403-8.409,0.844-12.607c-1.118-7.291-6.446-11.774-13.452-11.774c-3.64,0.285-7.564,1.118-10.93,2.807
		C634.198,244.496,628.87,250.657,624.672,258.221z M648.209,246.447c15.688-1.392,3.925,20.742,0.559,26.344
		c-4.199,6.732-9.812,12.619-16.817,16.258c-4.199,2.521-8.409,3.366-12.607-1.118c3.081-10.93,7.005-22.145,14.296-30.828
		C636.994,252.893,642.322,247.017,648.209,246.447z"/>
	<path d="M690.56,362.468c7.291,6.172,17.935,7.291,24.667,0c7.005-7.564,9.253-20.731,10.371-30.543
		c1.403-10.645,0.833-21.86-4.21-31.672c-4.758-9.527-16.806-12.881-26.333-8.397c-12.619,5.876-15.414,24.655-15.984,37.263
		C678.797,342.011,681.593,355.189,690.56,362.468z M697.577,326.597c0.559-6.72,1.392-13.166,2.236-19.898
		c0.559-3.354,1.677-7.279,5.043-8.397c1.403-0.571,3.366-0.285,4.769,0.274c5.887,2.521,8.123,9.527,8.682,15.973
		c1.689,12.607,0.285,25.785-5.043,37.559c-0.844,2.236-3.081,6.435-5.887,6.72c-2.795,0.285-5.317-3.366-6.446-5.602
		c-2.236-4.484-3.081-9.812-3.354-15.14C697.292,334.173,697.292,330.522,697.577,326.597z"/>
	<path d="M830.712,254.022c-1.118-7.005-5.876-10.371-12.607-8.409c-3.64,1.118-7.291,3.08-9.812,5.602
		c-3.913,3.925-7.564,8.682-10.36,13.452c-8.694,14.855-14.581,30.828-17.376,47.919c-0.844,5.602-0.844,11.489-2.807,16.817
		c-3.366,9.242-7.291,18.495-11.489,27.462c-1.677,3.64-4.199,7.005-6.72,10.086c-1.403,1.689-3.651,4.484-5.887,3.092
		c-2.807-1.689-3.081-7.017-3.081-10.097c-0.57-15.414,1.392-30.828,3.913-45.957c0-1.118,0.844-2.248,1.689-3.081
		c11.489-8.968,18.209-21.301,23.537-34.468c1.403-3.366,2.236-7.29,2.236-10.93c0.285-8.409-6.72-17.662-15.973-12.619
		c-2.795,1.689-5.043,3.925-7.279,6.446c-4.21,4.769-7.85,10.371-10.371,16.258c-10.645,23.264-14.296,48.204-13.737,73.419
		c0,7.564,0.844,14.855,4.484,21.586c3.092,5.317,8.968,8.682,15.14,7.005c6.446-1.403,10.086-7.564,13.166-12.893l9.253-16.532
		c0.844-0.844,1.118-1.962,2.236-3.925c0.285,1.962,0.285,3.081,0.559,3.925c1.403,4.758,1.962,10.086,4.21,14.57
		c2.807,6.161,9.812,8.123,15.129,4.199c7.85-5.876,9.812-16.532,14.011-24.656c0.844-1.689,3.651-6.172,1.13-7.291
		c-3.925-2.236-5.613,4.21-6.446,6.732l-5.043,10.93c-1.403,2.795-3.925,9.527-7.291,10.36c-0.559,0.285-0.844,0.285-1.118-0.274
		c-1.13-1.118-0.844-4.21-0.844-5.602c1.403-13.452,3.081-26.903,4.484-40.355c0.285-2.807,1.403-4.769,3.64-6.446
		c12.06-10.097,21.027-22.145,26.903-36.43C830.997,267.474,831.842,260.742,830.712,254.022z M757.293,300.823
		c0.285-2.248,0.844-4.484,1.403-6.732l1.677-6.72c1.403-4.769,3.081-8.968,5.043-13.452c1.13-2.807,3.925-13.178,8.135-12.333
		h0.559c1.677,1.118,1.677,4.199,1.403,5.602c-0.57,3.081-1.403,6.161-2.248,9.253c-1.118,2.795-2.521,5.602-3.925,8.397
		c-1.403,2.807-3.081,5.328-5.043,7.85c-1.677,2.521-3.64,5.043-5.887,7.564c-0.274,0.285-0.559,0.844-1.118,1.13
		C757.008,301.097,757.293,300.823,757.293,300.823z M823.992,264.108c-0.559,4.199-1.962,8.123-3.925,12.048
		c-3.366,7.291-8.682,14.011-13.737,20.457c-1.392,1.689-3.081,3.081-4.758,4.769c0.559-0.559,0.559-2.521,0.844-3.366
		c2.795-11.489,5.876-22.705,11.489-33.064c1.962-3.651,4.484-7.576,7.838-10.097C825.11,252.334,823.992,262.431,823.992,264.108z"
		/>
	<path d="M1030.865,402.822c2.248-1.962,1.689-4.484-0.274-6.446c-2.521-3.081-5.602-5.876-8.135-8.968
		c-0.833-0.833-1.392-2.521-1.118-3.354c5.602-14.855,7.85-30.269,9.253-45.683c0.833-7.564,1.403-15.129,1.962-22.978
		c0.559-6.172,2.236-13.178-1.13-19.054c-1.677-2.248-4.758-3.651-7.564-2.533c-2.236,0.57-3.925,2.807-5.317,4.769
		c-1.403,2.521-3.092,4.769-5.054,6.731c-1.392-1.403-2.521-3.366-3.64-5.054c-3.64-5.602-8.682-8.123-15.414-8.123
		c-7.564-0.274-13.725,2.521-19.054,7.564c-10.645,10.097-16.532,22.704-18.495,37c-0.559,4.484-2.248,8.682-4.484,12.607
		c-2.248,3.925-5.043,7.85-8.123,11.204c-1.403,1.962-4.21,4.769-6.732,5.328c-3.64,0.285-3.081-5.328-2.807-7.564
		c1.403-11.774,4.484-22.978,6.172-34.468c0.833-7.564,1.403-15.414,1.118-23.264c-0.285-6.161-4.484-10.93-10.645-12.893
		c-6.172-1.962-10.93,0.285-15.14,4.21c-0.833,0.833-1.677,1.677-2.521,2.795c-6.72,7.005-11.204,15.699-14.855,24.941l-1.677,4.484
		c-0.559-3.366-0.285-6.161,0-8.968c0.559-5.602,1.403-10.93,1.403-16.532c0-5.328-2.807-8.409-6.732-8.682
		c-3.925-0.559-7.564,1.677-8.968,6.446c-3.354,10.36-4.484,21.016-8.409,31.102c-4.199,10.086-9.242,19.613-14.284,28.866
		c-2.248,4.199-6.732,7.005-7.85,0.844c-1.962-11.774-0.285-23.549,1.118-35.038c1.13-6.446,1.689-12.607,1.962-19.054
		c0-3.925-2.521-6.72-5.887-7.291c-3.354-0.833-6.72,0.844-8.409,4.484c-0.559,1.13-0.833,1.962-1.118,2.807
		c-4.484,14.296-6.446,28.866-5.887,43.72c0.285,5.043,1.689,10.086,3.651,14.57c5.317,11.489,16.532,13.166,24.941,3.64
		c3.925-4.484,6.446-10.36,9.527-15.688c1.677-3.08,2.807-6.161,4.199-9.527c0.844,1.118,0.844,2.236,1.13,3.366
		c0.833,5.876,1.392,12.048,2.236,17.935c0.844,4.472,3.925,6.72,7.85,6.435c3.366,0,5.328-2.522,5.887-7.005
		c0.274-2.236,0.559-4.484,1.118-6.446c4.769-12.322,8.968-24.941,14.011-36.989c1.677-3.64,3.64-6.72,5.887-10.086
		c1.677-2.521,3.64-7.005,6.72-8.409c6.446-2.807,4.484,6.731,3.651,9.812c-3.366,13.452-5.887,26.618-5.043,40.914
		c0.559,8.682,0.833,25.5,12.607,26.344c8.409,0.559,15.688-7.564,19.339-14.296c0.833-1.403,7.279-9.812,6.72-10.645l1.118,1.677
		c5.328,7.564,13.178,8.968,20.742,4.199c2.248-1.392,4.199-3.081,5.887-4.758c10.371-9.812,20.172-20.183,27.462-32.505
		c0.559-0.559,1.118-1.129,1.677-1.962c-1.392,19.613-4.199,38.666-9.527,57.446c-3.925-1.403-7.279-3.081-11.204-4.199
		c-14.855-4.484-31.672,1.392-38.118,15.973c-5.887,12.892-0.833,30.543,14.296,33.349c10.086,1.677,21.575-1.13,29.139-7.85
		c5.887-4.769,10.93-10.93,16.817-16.532c1.962,1.962,4.769,4.199,7.291,6.72C1026.382,404.226,1028.629,404.785,1030.865,402.822z
		 M1008.446,313.704c-6.446,11.215-14.284,21.301-24.382,29.436c-1.677,1.392-7.005,6.161-9.242,5.317
		c-0.844-0.559-1.118-1.403-1.118-3.081c0.274-11.204,4.484-22.419,10.36-31.672c2.521-4.199,6.172-7.838,11.215-9.527
		c5.043-1.962,12.048,1.962,13.452,7.291C1009.005,312.313,1008.732,313.145,1008.446,313.704z M978.748,407.865
		c-1.962,0.57-3.925,0.844-6.172,0.844c-6.161,0-10.086-3.925-10.36-10.086c-0.57-8.409,3.913-14.855,11.489-18.495
		c10.919-5.043,19.613-0.844,28.854,4.484C996.957,394.984,990.511,404.226,978.748,407.865z"/>
	<path d="M845.065,280.64c-0.274,4.199,2.248,7.005,5.887,7.005c4.21,0.285,8.123-3.925,8.409-8.409c0-3.925-2.807-7.005-6.72-7.005
		C848.431,272.232,845.065,276.156,845.065,280.64z"/>
	<path d="M338.431,495.585v-1.962c0-14.855,0.559-29.71-0.285-44.839c-0.559-6.172-0.274-21.016-9.242-21.301
		c-7.85,0-8.694,8.968-9.253,14.57c-0.844,8.123-0.559,16.258-0.559,24.382c0,11.774,0.274,23.537,0.559,35.312
		c0,9.527,0.285,19.054,0.559,28.58c0.285,5.613,0.559,10.93,1.403,16.258c0.559,5.602,2.236,11.489,8.409,12.607
		c7.279,1.13,8.968-5.876,8.968-11.489C338.704,530.326,338.145,512.95,338.431,495.585z"/>
	<path d="M379.367,486.332c-9.812-10.371-24.941-0.285-26.07,12.048c-0.833,7.005,1.689,13.737,4.484,19.898l7.576,17.661
		c1.677,4.199,2.521,11.489-0.57,15.414c-2.236,3.081-5.317,0.274-6.161-2.248c-1.118-2.807-1.118-5.887-1.677-8.682
		c0-1.13-0.559-3.092-2.248-2.807c-1.118,0-2.521,1.118-2.795,2.236c-0.844,1.403-0.57,3.092-0.285,4.769
		c0.285,2.807,0.844,5.328,1.677,7.85c2.807,6.161,10.656,9.527,16.543,6.446c6.446-3.366,10.645-11.215,10.645-18.221
		c0-2.795-0.285-5.602-0.844-7.85c-1.403-6.435-3.64-12.607-6.446-18.495c-2.521-5.602-5.317-11.763-4.484-17.935
		c0.285-2.236,1.13-5.043,3.081-5.876c5.328-2.248,4.769,7.005,8.694,7.838c0.844,0,1.962-0.274,2.522-1.118
		c0.559-0.844,0.559-1.677,0.285-2.521C383.007,491.66,381.603,488.579,379.367,486.332z"/>
	<path d="M527.654,476.52c0.559-0.274,0.844-0.559,1.403-0.274c1.403,0.833,0.844,4.199,0.844,6.72c0,7.005,0,14.296,0.274,21.586
		v28.295c0.285,4.769,1.118,9.812,2.248,14.581c0.833,3.08,3.081,6.161,6.446,5.317c8.123-2.521,6.161-16.532,6.161-22.693
		c0-11.489,0.844-23.264,1.677-34.753c0.844-9.253,0.844-19.339-3.913-27.462c-2.533-3.925-6.446-7.29-11.215-6.161
		c-5.602,1.392-8.968,6.435-12.333,10.93c-1.392,1.951-3.081,4.199-4.758,6.161c-0.285,0.559-0.559,0.844-0.844,0.844
		c-0.285-1.689-0.285-3.092-0.285-4.769c0-3.081,0.57-6.446,0.844-9.253c0.285-4.758,0.285-9.527,0-14.011
		c-0.274-4.758-1.118-9.801-2.795-14.284c-3.366-8.135-10.93-10.371-17.376-5.054c-4.484,3.651-8.694,8.409-12.048,13.463
		c-3.651,5.602-5.887,12.048-8.968,18.768v-5.602c-0.285-7.564-0.285-15.414-0.57-22.978c-0.559-4.769-3.925-7.85-8.123-8.409
		c-4.199-0.285-8.123,2.521-9.241,7.005c-0.844,2.521-1.403,5.328-1.403,7.85c-0.559,7.564-0.844,15.129-1.13,22.693
		c-0.274,16.258-0.274,32.231,1.13,48.204c1.403,14.296,2.795,29.984,9.242,43.161c1.403,2.795,4.21,3.925,7.005,2.795
		c2.807-1.118,3.925-3.354,3.925-6.446c-1.403-24.096-3.64-49.322,3.081-72.86c1.962-6.446,3.651-12.893,6.172-19.054
		c2.236-5.887,5.043-12.333,9.242-16.817c1.403-1.677,4.769-4.758,5.043-0.559c0,3.366-0.274,6.72-0.559,10.086
		c-0.833,14.57-1.962,29.151,2.521,43.435c1.13,3.092,2.248,5.613,5.887,5.887c4.769,0.559,6.446-5.317,8.694-8.409
		c3.354-4.758,6.72-9.527,10.086-14.011C525.132,478.767,527.095,476.805,527.654,476.52z"/>
	<path d="M603.092,566.197c-1.118,10.371-3.08,21.301-9.812,29.71c-5.602,7.005-17.091,5.602-18.495-4.199
		c-0.559-2.807-0.274-5.613-0.833-8.409c-0.844-3.925-4.769-3.651-5.613-0.285c-0.559,2.521-0.559,5.043-0.274,7.564
		c0.559,4.21,2.236,8.409,5.043,11.489c7.85,8.409,18.78,8.409,27.462,0c5.602-5.602,8.968-12.322,11.774-19.613
		c9.242-23.537,11.489-47.919,9.801-72.86c-0.274-4.21-1.118-8.409-2.521-12.619c-2.236-5.602-8.123-6.435-11.489-1.392
		c-3.925,5.876-7.85,11.763-10.93,18.209c-4.484,9.253-8.409,18.78-12.607,28.307c-0.559,1.118-3.081,8.409-5.328,8.682
		c-4.199,0.57-2.236-16.806-2.236-19.327c0.274-6.446,0.559-12.892,0.559-19.339c0-4.21-1.118-8.409-5.602-9.812
		c-1.962-0.844-4.484-0.559-6.731,0.285c-5.887,2.521-4.758,14.284-5.043,19.613c-0.559,6.161-0.559,12.048,0,18.221
		c0.844,6.161,2.807,11.763,7.564,15.973c6.172,5.887,12.619,5.317,16.817-1.962c3.366-5.613,5.887-11.489,8.682-17.376
		c3.925-8.409,7.576-16.817,11.215-25.226c0.559-1.118,1.118-2.236,1.677-3.08c0,7.29,0.559,14.296,0,21.301
		C605.34,542.1,604.495,554.149,603.092,566.197z"/>
	<path d="M720.574,440.649c2.807-2.522,6.732-2.522,9.538-0.274c3.64,2.521,5.043,9.241,6.435,13.166
		c0.571,2.248,1.13,4.484,3.925,3.925c2.807-0.559,3.081-3.081,2.521-5.043c-1.392-4.484-2.521-9.253-4.758-13.166
		c-4.484-8.694-13.452-12.892-22.978-10.93c-5.887,1.392-10.93,4.758-14.296,9.527c-9.812,14.284-10.645,30.828-11.774,47.634
		c-0.833,12.06-1.118,24.382,0.559,36.715c1.403,10.645,4.21,22.978,12.06,31.113c15.688,16.247,36.43-2.807,41.188-19.339
		c0.559-1.403,0.844-2.807,0.559-4.21c-0.274-1.118-1.392-2.521-2.795-2.795c-1.677-0.285-3.081,1.392-4.21,2.795
		c-3.913,5.328-6.72,13.452-12.607,17.103c-1.677,0.833-3.081,1.118-4.199,0.559c-1.13-0.559-2.248-1.403-3.092-2.807
		c-5.876-8.968-6.161-19.054-6.72-29.425c-0.559-11.774-0.844-23.537-0.285-35.312C710.214,466.719,709.37,449.617,720.574,440.649z
		"/>
	<path d="M805.813,485.487c-0.844,1.403-1.689,3.092-2.521,4.484l-5.887-3.354c-13.178-7.005-22.978-4.769-31.946,7.005
		c-10.93,15.414-17.376,41.188-6.172,58.29c1.689,2.795,4.21,5.317,7.291,6.72c5.328,2.521,10.93,0.844,14.855-3.081
		c6.446-6.446,9.527-15.699,14.011-23.537c1.118-1.962,1.962-4.21,3.081-6.446l0.285-0.285c0.274-0.274,0.274-0.274,0.274-0.274
		v-0.285c0.559-0.274,0.559,2.522,0.559,2.807l3.366,21.86c0.559,3.925,0.559,8.682,1.962,12.322
		c0.844,1.962,2.236,3.651,4.199,4.21c2.248,0.833,4.21,0.833,6.172-0.559c3.081-1.962,3.354-5.043,3.354-8.694
		c0.285-4.758,0.844-9.801,1.13-14.855c0.559-9.801,1.403-19.613,2.236-29.698l1.689-21.016c0.274-4.769-2.248-8.694-6.446-9.812
		C813.092,479.885,808.608,481.289,805.813,485.487z M799.366,507.074c-5.887,12.048-11.774,24.096-17.935,36.145
		c-1.13,1.962-4.21,8.135-6.446,7.005c-2.807-1.403-2.248-9.242-2.521-11.763c0-4.484,0.274-8.968,1.118-13.452
		c1.403-8.694,4.484-17.376,8.682-25.226c3.925-6.446,13.452-7.005,18.221-1.118c0.559,0.559,0.559,1.677,0.559,2.521
		C800.758,503.149,800.484,505.385,799.366,507.074z"/>
	<path d="M870.583,484.655c-2.236,1.118-4.472,2.521-6.435,4.199c-7.29,5.887-11.501,13.737-14.022,22.419l-2.521,9.812
		c-0.833-4.21-0.559-8.135-0.833-12.048c0-7.005,0-14.022-0.559-21.027c0-3.354-1.689-5.876-5.328-6.161
		c-3.64-0.274-5.602,1.677-6.732,4.769c-2.521,8.123-1.962,18.209-1.962,26.618c0,9.253,0.844,18.78,2.248,28.021
		c0.844,3.925,1.677,8.135,3.081,12.06c0.844,3.354,1.962,6.72,5.602,7.279c1.689,0.285,3.925-1.118,5.054-2.521
		c1.118-1.677,1.677-4.199,1.951-6.446c1.403-8.968,1.962-18.209,3.651-27.177c0.833-4.769,1.962-9.538,3.925-13.737
		c1.962-5.328,4.758-9.812,8.409-13.737c1.392-1.677,7.564-7.279,9.527-4.199c0,0.285,0.274,0.844,0.274,1.677
		c0.285,3.366,0,6.732,0,10.097c0,3.64,0.285,7.279,0.844,10.645c0.274,3.366,2.795,5.328,5.887,5.043
		c3.081-0.274,5.043-1.962,5.602-5.043c0.844-7.564,1.403-14.855-0.844-22.134C885.164,485.214,878.433,481.574,870.583,484.655z"/>
	<path d="M972.913,431.681c-6.446,4.484-10.93,11.489-14.57,17.935c-3.092,5.054-5.613,10.656-7.29,16.543
		c-3.081,9.242-4.769,19.054-6.732,28.295l-0.833,3.925c-12.893-9.801-25.785-8.409-35.597,4.769
		c-7.279,9.527-10.371,22.419-10.371,34.468c0,6.731,1.403,14.57,6.732,19.339c11.774,10.371,22.693-8.694,27.462-17.103
		c3.08-5.317,5.328-11.763,9.527-16.532c0.285-0.274,0.559-0.559,0.844-0.559c-0.285,0-0.844,21.301-0.844,23.264
		c0,2.521-0.274,5.328,0,8.123c0.559,3.64,2.807,5.887,6.446,6.172c3.64,0.274,6.732-1.962,7.564-5.613
		c0.285-1.962,0.559-3.64,0.559-5.602c1.403-12.893,3.092-25.785,4.21-38.392c0.274-3.08,1.677-5.043,3.64-7.005l4.769-4.199
		c9.801-9.538,19.054-19.898,25.215-31.957c5.043-9.527,9.538-23.252,1.403-32.505C989.445,428.327,980.192,426.923,972.913,431.681
		z M938.446,513.52c-4.21,7.838-7.85,15.973-12.333,23.537c-1.403,2.521-7.291,15.129-10.93,14.011
		c-0.559-0.285-1.118-0.844-1.403-2.248c-0.844-2.795-0.559-6.72,0-9.801c1.118-5.602,2.248-11.215,4.484-16.258
		c2.248-5.317,12.048-23.537,19.898-15.688C940.123,509.036,939.838,510.999,938.446,513.52z M990.29,457.751
		c-1.689,4.758-4.21,9.242-7.005,13.452c-2.807,3.925-5.887,7.838-9.253,11.489c-1.677,1.962-3.366,3.925-5.328,5.602
		c-0.833,1.118-4.199,3.366-4.758,4.769c2.521-15.984,5.602-31.387,14.011-45.409c1.118-1.677,2.236-3.913,4.199-5.043
		c3.651-2.521,7.291-1.403,9.253,2.521C993.644,449.343,991.681,453.827,990.29,457.751z"/>
	<path d="M1018.927,467.837c0-4.199-2.521-7.29-6.161-7.564c-3.64,0-6.446,2.795-6.72,7.279c0,4.21,2.795,7.576,6.161,7.85
		C1015.846,475.402,1018.653,472.036,1018.927,467.837z"/>
	<path d="M1011.922,481.289c-3.354-0.559-5.876,0.844-7.279,3.925c-0.844,1.677-1.403,3.366-1.689,5.043
		c-2.521,21.301-3.081,44.279,2.521,65.01c2.248,7.85,10.93,7.017,11.489-1.118c0.844-10.371,1.689-21.016,2.248-31.387
		c0.559-12.048,0.559-24.096-1.118-35.871C1017.535,483.525,1015.287,481.574,1011.922,481.289z"/>
	<path d="M1070.223,492.493c-4.758-9.527-16.806-12.881-26.333-8.397c-12.619,5.876-15.414,24.656-15.984,37.263
		c-0.274,12.893,2.521,26.07,11.489,33.349c7.291,6.172,17.935,7.291,24.667,0c7.005-7.564,9.253-20.731,10.371-30.543
		C1075.836,513.52,1075.266,502.305,1070.223,492.493z M1062.1,544.348c-0.844,2.236-3.081,6.435-5.887,6.72
		c-2.795,0.285-5.317-3.366-6.446-5.602c-2.236-4.484-3.081-9.812-3.354-15.14c-0.285-3.913-0.285-7.564,0-11.489
		c0.559-6.72,1.392-13.166,2.236-19.898c0.559-3.354,1.677-7.279,5.043-8.397c1.403-0.57,3.366-0.285,4.769,0.274
		c5.887,2.521,8.123,9.527,8.682,15.973C1068.831,519.396,1067.428,532.574,1062.1,544.348z"/>
</g>
</svg>
