<?xml version="1.0" encoding="iso-8859-1"?>
<!DOCTYPE svg PUBLIC "-//W3C//DTD SVG 1.1//EN" "http://www.w3.org/Graphics/SVG/1.1/DTD/svg11.dtd" [
    <!ENTITY ns_flows "http://ns.adobe.com/Flows/1.0/">
    <!ENTITY ns_extend "http://ns.adobe.com/Extensibility/1.0/">
    <!ENTITY ns_ai "http://ns.adobe.com/AdobeIllustrator/10.0/">
    <!ENTITY ns_graphs "http://ns.adobe.com/Graphs/1.0/">
]>
<!-- Generator: Adobe Illustrator 19.0.0, SVG Export Plug-In . SVG Version: 6.00 Build 0)  -->
<svg version="1.1" id="Layer_1" xmlns:x="&ns_extend;" xmlns:i="&ns_ai;" xmlns:graph="&ns_graphs;"
	 xmlns="http://www.w3.org/2000/svg" xmlns:xlink="http://www.w3.org/1999/xlink" xmlns:a="http://ns.adobe.com/AdobeSVGViewerExtensions/3.0/"
	 x="0px" y="0px" viewBox="0 0 1500 1500" style="enable-background:new 0 0 1500 1500;" xml:space="preserve">
<g id="XMLID_1_">
	<g id="XMLID_876_">
		<path id="XMLID_3472_" style="fill:#2E2532;" d="M1231.58,704.353c-61.064,3.058-109.949,28.207-144.651,79.649
			c-8.937,13.249-16.276,26.728-17.338,43.02c-0.219,3.365-0.765,8.003-5.698,7.094c-5.028-0.927-3.268-5.46-2.809-8.739
			c3.483-24.876,16.669-44.925,32.614-63.266c31.82-36.601,72.159-58.551,120.01-65.195c38.65-5.366,72.376,5.927,98.31,36.172
			c16.593,19.352,20.21,46.133,8.838,63.154c-9.33,13.966-21.464,24.965-36.918,32.039c-24.36,11.151-54.958-0.983-64.927-25.803
			c-7.482-18.627,1.409-40.628,18.897-46.54c6.402-2.165,12.793-2.317,18.717,1.523c2.115,1.371,3.866,3.36,2.668,6.109
			c-1.152,2.642-3.561,2.849-6.205,2.48c-16.566-2.315-20.6-0.938-24.986,8.349c-5.359,11.345-2.964,24.643,7.337,33.066
			c20.895,17.087,47.381,17.925,64.368-7.883c16.348-24.836,13.228-49.933-7.406-71.512
			C1275.662,710.566,1255.45,703.348,1231.58,704.353z"/>
		<path id="XMLID_3455_" style="fill:#2E2532;" d="M1178.529,553.99c-0.175,11.26,3.077,21.345,10.469,29.937
			c5.267,6.123,11.894,9.152,20.095,8.531c11.354-0.86,15.55-8.553,9.743-18.366c-2.377-4.016-3.457-7.727,1.397-10.283
			c4.476-2.357,8.088-0.151,10.057,3.915c3.571,7.374,3.252,14.821-1.775,21.47c-6.637,8.779-15.911,13.034-26.711,13.16
			c-23.663,0.276-44.406-25.784-38.78-48.667c12.058-49.042,62.878-57.865,94.59-34.866c27.333,19.823,36.026,47.467,24.992,79.412
			c-5.375,15.562-13.712,29.403-25.259,41.178c-19.374,19.757-40.005,38.037-63.749,52.465c-3.801,2.309-9.239,7.555-12.463,2.348
			c-2.704-4.367,4.422-6.122,7.772-8.332c24.602-16.23,46.464-35.568,64.014-59.228c19.914-26.847,21.081-56.333,7.274-85.897
			c-11.023-23.603-36.474-32.002-60.56-21.967C1185.706,524.605,1178.475,536.663,1178.529,553.99z"/>
		<path id="XMLID_3064_" style="fill:#2E2532;" d="M1078.238,736.733c0.354,25.82-7.713,45.02-16.145,64.099
			c-0.931,2.106-2.307,5.394-4.951,4.453c-3.751-1.336-1.207-4.778-0.565-6.966c2.663-9.073,5.968-17.957,8.625-27.031
			c5.366-18.325,3.261-35.898-6.47-52.344c-10.957-18.517-32.833-24.054-48.556-12.534c-10.262,7.519-11.604,21.242-2.938,30.466
			c3.219,3.426,6.908,5.578,11.396,2.355c4.32-3.102,4.54-7.131,1.547-11.291c-2.132-2.964-3.133-5.82,0.003-8.592
			c3.427-3.028,6.95-2.269,10.347,0.19c7.804,5.647,7.017,17.449-1.621,24.453c-11.3,9.161-28.856,4.435-34.461-9.278
			c-8.539-20.89,6.6-45.134,29.272-46.879C1058.601,685.15,1078.26,704.356,1078.238,736.733z"/>
		<path id="XMLID_3063_" style="fill:#2E2532;" d="M1187.863,731.563c5.202,0.175,10.096,1.147,11.701,6.815
			c1.533,5.414-2.024,8.874-6.246,11.023c-5.993,3.05-12.169,5.928-18.555,7.986c-35.521,11.452-59.867,35.424-76.822,67.82
			c-2.003,3.827-3.747,7.79-5.752,11.615c-0.857,1.634-1.928,3.696-4.234,2.904c-2.779-0.953-2.304-3.352-1.507-5.441
			c2.692-7.062,4.942-14.36,8.339-21.072c16.434-32.474,37.491-60.672,72.217-75.78
			C1173.718,734.513,1180.504,731.909,1187.863,731.563z"/>
		<path id="XMLID_3062_" style="fill:#2E2532;" d="M1206.43,634.683c-0.501,6.259-4.173,12.907-8.801,18.901
			c-18.016,23.333-40.788,41.499-64.536,58.544c-2.903,2.083-6.564,4.155-9.374,0.537c-3.147-4.052,0.65-6.383,3.539-8.278
			c24.334-15.964,41.176-37.755,51.085-65.05c1.562-4.301,3.484-8.496,5.544-12.586c2.541-5.045,6.51-8.106,12.456-6.508
			C1202.746,621.964,1206.587,626.027,1206.43,634.683z"/>
		<path id="XMLID_1712_" style="fill:#2E2532;" d="M1103.965,716.923c-1.183,4.629,0.923,12.315-4.565,13.1
			c-4.546,0.651-4.191-7.053-5.229-11.193c-2.949-11.757-6.792-22.687-17.956-29.473c-3.519-2.139-5.58-5.866-6.394-9.98
			c-1.129-5.714-0.234-11.049,5.276-14.044c5.717-3.108,9.97,0.462,13.185,4.62C1098.912,683.705,1102.272,699.976,1103.965,716.923
			z"/>
	</g>
	<g id="XMLID_881_">
		<path id="XMLID_3541_" style="fill:#2E2532;" d="M1099.042,1019.068c16.376-42.763,12.236-84.729-16.227-125.96
			c-7.331-10.619-15.326-20.224-27.381-26.498c-2.49-1.296-5.847-3.249-3.646-6.309c2.244-3.12,5.15-0.374,7.501,1.057
			c17.836,10.852,29.034,26.69,38.088,43.831c18.069,34.207,22.395,69.244,12.79,104.201c-7.759,28.235-26.668,47.432-57.593,54.85
			c-19.786,4.746-41.245-1.904-50.697-15.471c-7.755-11.131-12.398-23.169-13.041-36.137c-1.013-20.442,17.578-37.215,39.491-35.573
			c16.446,1.232,30.441,14.8,29.578,28.763c-0.316,5.111-2.157,9.53-6.889,12.269c-1.69,0.978-3.738,1.497-5.459-0.258
			c-1.655-1.687-1.074-3.404,0.016-5.084c6.832-10.53,7.021-13.755,1.307-19.916c-6.98-7.525-17.818-10.418-27.373-6.249
			c-19.383,8.457-28.131,26.268-13.722,46.664c13.866,19.629,33.893,26.045,56.609,19.297
			C1080.822,1047.07,1092.497,1035.719,1099.042,1019.068z"/>
		<path id="XMLID_3481_" style="fill:#2E2532;" d="M1229.548,1034.034c-8.503-3.955-17.162-5.167-25.955-3.044
			c-6.266,1.513-10.597,5.01-12.636,10.824c-2.824,8.051,1.737,13.537,10.972,12.912c3.78-0.256,6.93,0.27,7.386,4.457
			c0.42,3.861-2.362,5.577-6.055,5.538c-6.697-0.072-12.258-2.826-15.771-8.525c-4.639-7.525-5.032-15.311-1.821-22.732
			c7.036-16.262,33.192-21.558,48.858-9.92c33.574,24.942,24.716,62.67-2.473,76.503c-23.434,11.923-47.103,8.448-67.999-9.971
			c-10.179-8.973-18.144-19.383-23.556-31.283c-9.08-19.966-16.653-40.288-20.345-61.425c-0.591-3.383-2.912-8.886,2.033-9.315
			c4.147-0.36,3.298,5.106,3.951,8.148c4.799,22.337,12.799,43.86,25.403,63.91c14.302,22.75,36.351,33.59,63.045,34.226
			c21.311,0.507,35.488-14.021,35.238-33.895C1249.68,1048.945,1242.732,1039.898,1229.548,1034.034z"/>
		<path id="XMLID_3478_" style="fill:#2E2532;" d="M1121.396,903.269c-19.729-8.552-31.848-20.604-43.764-32.862
			c-1.315-1.353-3.392-3.414-1.868-4.899c2.164-2.108,4.001,0.803,5.466,1.986c6.079,4.909,11.817,10.194,17.899,15.1
			c12.282,9.907,26.28,14.455,41.757,13.407c17.427-1.18,28.333-14.24,24.394-28.907c-2.571-9.573-12.588-15.163-22.251-12.384
			c-3.589,1.032-6.354,2.82-5.279,6.984c1.035,4.008,4.028,5.53,8.106,4.903c2.906-0.447,5.382-0.158,6.528,2.928
			c1.252,3.373-0.404,5.521-3.313,7.005c-6.681,3.409-15.409-1.149-18.085-9.436c-3.501-10.841,5.467-21.226,17.604-20.386
			c18.489,1.281,32.276,19.882,26.659,35.967C1166.608,907.421,1145.993,914.312,1121.396,903.269z"/>
		<path id="XMLID_3477_" style="fill:#2E2532;" d="M1091.754,979.93c-1.726,3.494-3.964,6.507-8.762,5.673
			c-4.584-0.797-6.123-4.405-6.463-8.021c-0.483-5.133-0.778-10.334-0.387-15.398c2.175-28.171-8.585-52.969-28.01-75.587
			c-2.295-2.672-4.772-5.213-7.065-7.886c-0.979-1.142-2.218-2.576-0.911-3.882c1.575-1.574,3.253-0.432,4.596,0.823
			c4.542,4.244,9.398,8.267,13.459,12.875c19.644,22.289,34.623,46.28,35.469,75.152
			C1093.844,969.261,1093.744,974.785,1091.754,979.93z"/>
		<path id="XMLID_3476_" style="fill:#2E2532;" d="M1159.687,1025.613c-4.603-2.474-8.53-7.247-11.667-12.451
			c-12.213-20.256-19.044-42.002-24.724-64.033c-0.694-2.693-1.147-5.9,2.463-6.588c4.043-0.77,4.651,2.618,5.207,5.237
			c4.679,22.064,16.08,40.992,33.787,57.059c2.79,2.532,5.389,5.274,7.866,8.074c3.056,3.454,4.166,7.209,1.13,10.727
			C1170.48,1027.428,1166.216,1028.668,1159.687,1025.613z"/>
		<path id="XMLID_3475_" style="fill:#2E2532;" d="M1128.571,927.594c-3.155-2.385-9.641-3.563-8.557-7.581
			c0.898-3.328,6.643-0.461,10.107,0.239c9.837,1.99,19.32,3.086,27.895-2.23c2.703-1.676,6.167-1.815,9.542-0.969
			c4.688,1.175,8.467,3.603,9.056,8.388c0.611,4.965-3.404,6.655-7.548,7.435C1155.361,935.456,1141.968,932.209,1128.571,927.594z"
			/>
	</g>
	<g id="XMLID_3682_">
		<path id="XMLID_4039_" style="fill:#2E2532;" d="M253.728,693.63c52.041,3.058,93.702,28.207,123.275,79.649
			c7.616,13.249,13.871,26.728,14.776,43.02c0.187,3.365,0.652,8.003,4.856,7.094c4.285-0.927,2.786-5.46,2.394-8.739
			c-2.968-24.876-14.206-44.925-27.794-63.266c-27.118-36.601-61.495-58.551-102.275-65.195
			c-32.939-5.366-61.681,5.927-83.782,36.172c-14.141,19.352-17.223,46.133-7.532,63.154c7.951,13.966,18.293,24.966,31.463,32.039
			c20.76,11.151,46.837-0.983,55.332-25.803c6.376-18.627-1.201-40.628-16.105-46.54c-5.456-2.165-10.902-2.317-15.951,1.523
			c-1.803,1.371-3.295,3.36-2.274,6.109c0.982,2.642,3.035,2.849,5.288,2.48c14.118-2.315,17.556-0.938,21.294,8.349
			c4.567,11.345,2.526,24.643-6.253,33.066c-17.808,17.087-40.38,17.925-54.856-7.883c-13.932-24.836-11.273-49.933,6.311-71.512
			C216.16,699.842,233.386,692.624,253.728,693.63z"/>
		<path id="XMLID_4036_" style="fill:#2E2532;" d="M298.939,543.267c0.149,11.26-2.622,21.345-8.922,29.937
			c-4.489,6.123-10.136,9.152-17.125,8.531c-9.676-0.86-13.252-8.553-8.303-18.366c2.025-4.016,2.946-7.727-1.191-10.283
			c-3.815-2.357-6.893-0.151-8.571,3.915c-3.043,7.374-2.772,14.821,1.512,21.47c5.657,8.779,13.56,13.034,22.764,13.16
			c20.167,0.277,37.844-25.784,33.049-48.667c-10.276-49.042-53.586-57.865-80.612-34.866
			c-23.294,19.823-30.703,47.467-21.299,79.412c4.581,15.562,11.686,29.403,21.527,41.178
			c16.511,19.757,34.093,38.037,54.329,52.465c3.239,2.309,7.874,7.555,10.622,2.348c2.304-4.367-3.769-6.122-6.624-8.332
			c-20.966-16.23-39.598-35.568-54.554-59.228c-16.971-26.847-17.966-56.333-6.199-85.897c9.394-23.603,31.084-32.002,51.611-21.967
			C292.823,513.881,298.986,525.94,298.939,543.267z"/>
		<path id="XMLID_4035_" style="fill:#2E2532;" d="M384.41,726.01c-0.302,25.82,6.573,45.02,13.759,64.099
			c0.793,2.106,1.966,5.394,4.219,4.453c3.197-1.336,1.029-4.778,0.482-6.966c-2.269-9.073-5.086-17.957-7.351-27.031
			c-4.573-18.325-2.779-35.898,5.514-52.344c9.338-18.517,27.981-24.054,41.381-12.534c8.746,7.519,9.889,21.242,2.504,30.466
			c-2.743,3.426-5.887,5.578-9.712,2.355c-3.682-3.103-3.869-7.131-1.319-11.291c1.817-2.964,2.67-5.82-0.003-8.592
			c-2.92-3.028-5.923-2.269-8.818,0.19c-6.651,5.647-5.98,17.449,1.382,24.453c9.63,9.161,24.592,4.435,29.369-9.278
			c7.277-20.89-5.625-45.134-24.946-46.879C401.145,674.426,384.391,693.632,384.41,726.01z"/>
		<path id="XMLID_3977_" style="fill:#2E2532;" d="M290.985,720.84c-4.433,0.175-8.604,1.147-9.971,6.815
			c-1.307,5.414,1.725,8.874,5.323,11.023c5.107,3.05,10.371,5.928,15.813,7.986c30.272,11.453,51.02,35.424,65.47,67.82
			c1.707,3.827,3.193,7.79,4.902,11.615c0.73,1.634,1.643,3.696,3.608,2.905c2.368-0.953,1.963-3.352,1.285-5.441
			c-2.294-7.062-4.212-14.36-7.107-21.072c-14.005-32.474-31.951-60.672-61.545-75.78
			C303.04,723.789,297.256,721.186,290.985,720.84z"/>
		<path id="XMLID_3974_" style="fill:#2E2532;" d="M275.162,623.959c0.427,6.259,3.556,12.907,7.5,18.901
			c15.354,23.333,34.76,41.499,54.999,58.544c2.474,2.083,5.594,4.155,7.989,0.537c2.682-4.052-0.554-6.383-3.016-8.278
			c-20.738-15.964-35.091-37.755-43.536-65.05c-1.331-4.301-2.969-8.496-4.724-12.586c-2.165-5.045-5.548-8.106-10.616-6.508
			C278.301,611.24,275.028,615.304,275.162,623.959z"/>
		<path id="XMLID_3971_" style="fill:#2E2532;" d="M362.485,706.2c1.008,4.629-0.787,12.315,3.89,13.101
			c3.874,0.651,3.572-7.053,4.457-11.193c2.513-11.757,5.788-22.687,15.303-29.473c2.999-2.139,4.756-5.866,5.449-9.98
			c0.962-5.714,0.199-11.049-4.496-14.044c-4.872-3.108-8.497,0.462-11.236,4.62C366.791,672.981,363.927,689.252,362.485,706.2z"/>
	</g>
	<g id="XMLID_3970_">
		<path id="XMLID_4293_" style="fill:#2E2532;" d="M496.319,526.485c-44.775,8.474-78.206,33.242-98.366,77.434
			c-5.192,11.381-9.179,22.787-8.232,35.799c0.196,2.688,0.286,6.416-3.454,6.185c-3.812-0.236-2.994-4.002-3.004-6.644
			c-0.072-20.052,7.535-37.242,17.362-53.352c19.61-32.149,47.07-53.536,81.704-63.541c27.975-8.081,54.084-2.477,76.453,18.914
			c14.312,13.686,19.83,34.544,13.241,49.156c-5.406,11.988-13.199,21.905-23.861,29.04c-16.806,11.248-40.694,4.667-50.695-14.007
			c-7.506-14.015-3.278-32.325,9.009-38.742c4.498-2.349,9.202-3.103,13.985-0.648c1.708,0.877,3.213,2.279,2.62,4.575
			c-0.57,2.208-2.327,2.61-4.319,2.579c-12.481-0.192-15.314,1.298-17.566,9.091c-2.752,9.519,0.431,19.816,8.934,25.468
			c17.249,11.466,36.899,9.505,46.702-12.624c9.434-21.296,4.462-40.869-13.071-55.919
			C529.536,527.039,513.841,523.324,496.319,526.485z"/>
		<path id="XMLID_4239_" style="fill:#2E2532;" d="M441.154,412.623c1.067,8.938,4.542,16.605,10.914,22.679
			c4.541,4.329,9.757,6.071,15.748,4.767c8.294-1.806,10.576-8.317,5.244-15.515c-2.182-2.946-3.374-5.779-0.061-8.285
			c3.055-2.311,5.957-0.921,7.844,2.105c3.421,5.488,3.977,11.419,0.972,17.185c-3.969,7.613-10.366,11.903-18.329,13.073
			c-17.448,2.564-35.538-16.026-33.815-34.712c3.692-40.046,40.288-52.073,66.154-36.995c22.294,12.996,31.653,34.034,26.9,60.435
			c-2.316,12.861-7.002,24.652-14.278,35.125c-12.208,17.572-25.503,34.098-41.505,47.881c-2.562,2.206-6.021,6.901-8.955,3.095
			c-2.461-3.192,2.615-5.288,4.855-7.371c16.445-15.295,30.536-32.782,40.982-53.265c11.854-23.242,9.582-46.717-3.758-68.769
			c-10.65-17.606-30.34-21.738-47.062-11.401C443.331,388.632,439.272,398.902,441.154,412.623z"/>
		<path id="XMLID_4238_" style="fill:#2E2532;" d="M386.508,567.334c3.006,20.42-0.911,36.43-5.11,52.38
			c-0.464,1.761-1.131,4.502-3.183,4.018c-2.912-0.686-1.399-3.666-1.158-5.462c1.002-7.451,2.499-14.817,3.497-22.269
			c2.015-15.049-1.407-28.762-10.343-40.827c-10.061-13.584-26.806-15.802-37.194-5.118c-6.78,6.974-6.312,17.978,1.068,24.427
			c2.742,2.395,5.695,3.734,8.667,0.736c2.861-2.886,2.595-6.099-0.057-9.098c-1.89-2.137-2.933-4.3-0.911-6.807
			c2.209-2.739,4.892-2.486,7.662-0.875c6.364,3.7,7.038,13.128,1.402,19.532c-7.372,8.378-20.841,6.373-26.438-3.935
			c-8.527-15.703,0.077-36.41,16.636-40.039C366.522,528.415,383.083,541.682,386.508,567.334z"/>
		<path id="XMLID_4232_" style="fill:#2E2532;" d="M466.923,552.374c3.86-0.377,7.578-0.092,9.366,4.239
			c1.708,4.137-0.552,7.231-3.441,9.351c-4.102,3.01-8.358,5.902-12.855,8.166c-25.017,12.593-40.45,33.996-49.528,61.341
			c-1.072,3.23-1.939,6.542-3.014,9.772c-0.459,1.379-1.031,3.119-2.818,2.721c-2.154-0.48-2.058-2.427-1.692-4.161
			c1.237-5.861,2.124-11.866,3.919-17.52c8.686-27.355,21.24-51.78,45.281-67.191C456.79,556.112,461.525,553.377,466.923,552.374z"
			/>
		<path id="XMLID_4227_" style="fill:#2E2532;" d="M470.338,473.784c0.295,5.008-1.71,10.639-4.491,15.846
			c-10.826,20.27-25.713,36.918-41.44,52.775c-1.922,1.938-4.406,3.942-6.866,1.354c-2.755-2.898-0.198-5.121,1.733-6.909
			c16.275-15.059,26.397-33.99,30.815-56.596c0.696-3.562,1.67-7.076,2.756-10.52c1.34-4.248,3.946-7.067,8.508-6.39
			C466.265,464.073,469.533,466.911,470.338,473.784z"/>
		<path id="XMLID_4225_" style="fill:#2E2532;" d="M403.403,549.09c-0.381,3.784,1.991,9.665-1.979,10.831
			c-3.288,0.966-3.845-5.172-5.052-8.349c-3.428-9.021-7.428-17.3-16.395-21.569c-2.827-1.346-4.745-4.094-5.783-7.273
			c-1.442-4.415-1.347-8.73,2.404-11.649c3.892-3.029,7.412-0.622,10.229,2.353C396.14,523.275,400.351,535.832,403.403,549.09z"/>
	</g>
	<g id="XMLID_1689_">
		<path id="XMLID_1705_" style="fill:#2E2532;" d="M984.425,524.42c44.751,8.65,77.989,34.861,97.753,82.005
			c5.09,12.142,8.974,24.321,7.901,38.268c-0.222,2.881-0.347,6.875,3.4,6.592c3.819-0.289,3.036-4.315,3.071-7.146
			c0.264-21.48-7.189-39.821-16.875-56.983c-19.328-34.25-46.619-56.897-81.202-67.283c-27.934-8.389-54.13-2.137-76.732,20.99
			c-14.461,14.797-20.185,37.192-13.727,52.781c5.299,12.79,13.007,23.338,23.614,30.879c16.72,11.888,40.702,4.611,50.894-15.488
			c7.649-15.084,3.591-34.657-8.651-41.413c-4.482-2.473-9.184-3.236-13.997-0.561c-1.719,0.955-3.239,2.472-2.667,4.926
			c0.55,2.359,2.305,2.773,4.3,2.722c12.499-0.325,15.321,1.245,17.502,9.57c2.664,10.17-0.62,21.231-9.188,27.366
			c-17.38,12.446-37.037,10.533-46.641-13.076c-9.242-22.721-4.077-43.735,13.622-60.023C951.16,525.33,966.91,521.2,984.425,524.42
			z"/>
		<path id="XMLID_1704_" style="fill:#2E2532;" d="M1040.748,401.928c-1.154,9.584-4.706,17.83-11.145,24.397
			c-4.588,4.68-9.828,6.597-15.814,5.257c-8.288-1.856-10.51-8.807-5.102-16.569c2.213-3.177,3.434-6.223,0.14-8.875
			c-3.037-2.446-5.956-0.93-7.874,2.33c-3.478,5.911-4.092,12.27-1.137,18.417c3.901,8.117,10.266,12.651,18.227,13.828
			c17.445,2.58,35.736-17.506,34.189-37.505c-3.315-42.861-39.843-55.394-65.886-38.996c-22.447,14.133-32.019,36.759-27.511,64.992
			c2.196,13.754,6.775,26.34,13.961,37.488c12.056,18.706,25.21,36.281,41.101,50.892c2.544,2.339,5.962,7.334,8.937,3.23
			c2.495-3.442-2.568-5.64-4.79-7.849c-16.32-16.227-30.262-34.823-40.526-56.664c-11.647-24.783-9.148-49.95,4.42-73.699
			c10.832-18.961,30.587-23.574,47.231-12.662C1038.797,376.25,1042.763,387.212,1040.748,401.928z"/>
		<path id="XMLID_1703_" style="fill:#2E2532;" d="M1093.986,567.126c-3.205,21.901,0.564,39.014,4.616,56.059
			c0.447,1.882,1.089,4.812,3.149,4.274c2.923-0.763,1.436-3.94,1.211-5.862c-0.932-7.972-2.361-15.848-3.289-23.82
			c-1.874-16.101,1.684-30.822,10.746-43.831c10.204-14.646,26.992-17.183,37.29-5.837c6.722,7.405,6.149,19.197-1.303,26.175
			c-2.768,2.592-5.738,4.054-8.685,0.872c-2.837-3.064-2.54-6.508,0.144-9.746c1.913-2.307,2.977-4.634,0.977-7.3
			c-2.186-2.913-4.874-2.616-7.664-0.864c-6.408,4.024-7.172,14.13-1.59,20.936c7.302,8.904,20.806,6.628,26.51-4.467
			c8.688-16.902,0.271-39.001-16.275-42.73C1114.369,525.247,1097.661,539.616,1093.986,567.126z"/>
		<path id="XMLID_1702_" style="fill:#2E2532;" d="M1013.611,551.87c-3.862-0.367-7.587-0.026-9.418,4.63
			c-1.75,4.448,0.483,7.74,3.356,9.984c4.078,3.186,8.312,6.242,12.794,8.624c24.929,13.25,40.177,36.03,49.006,65.234
			c1.043,3.45,1.879,6.989,2.924,10.438c0.446,1.473,1.003,3.331,2.796,2.887c2.161-0.534,2.083-2.62,1.733-4.473
			c-1.183-6.266-2.013-12.69-3.757-18.73c-8.435-29.219-20.773-55.262-44.698-71.54
			C1023.722,555.778,1019.006,552.893,1013.611,551.87z"/>
		<path id="XMLID_1701_" style="fill:#2E2532;" d="M1010.943,467.72c-0.343,5.367,1.611,11.38,4.345,16.93
			c10.646,21.609,25.393,39.3,40.99,56.135c1.906,2.058,4.374,4.181,6.862,1.385c2.786-3.131,0.247-5.488-1.67-7.384
			c-16.152-15.975-26.107-36.157-30.314-60.33c-0.663-3.809-1.604-7.563-2.66-11.243c-1.301-4.538-3.884-7.532-8.458-6.763
			C1015.113,457.278,1011.813,460.35,1010.943,467.72z"/>
		<path id="XMLID_1698_" style="fill:#2E2532;" d="M1077.244,547.746c0.346,4.05-2.086,10.371,1.878,11.583
			c3.283,1.003,3.899-5.577,5.138-8.991c3.518-9.696,7.603-18.602,16.622-23.261c2.843-1.469,4.79-4.431,5.86-7.846
			c1.485-4.743,1.432-9.364-2.296-12.455c-3.868-3.207-7.416-0.596-10.264,2.618
			C1084.762,520.024,1080.426,533.515,1077.244,547.746z"/>
	</g>
	<g id="XMLID_912_">
		<path id="XMLID_3660_" style="fill:#2E2532;" d="M369.246,1018.365c-15.267-42.763-11.408-84.729,15.128-125.96
			c6.834-10.619,14.288-20.224,25.526-26.498c2.321-1.296,5.451-3.249,3.399-6.309c-2.092-3.12-4.801-0.374-6.993,1.057
			c-16.628,10.852-27.067,26.69-35.508,43.831c-16.845,34.207-20.878,69.244-11.923,104.201
			c7.233,28.235,24.862,47.432,53.693,54.85c18.446,4.746,38.452-1.904,47.264-15.471c7.23-11.131,11.558-23.169,12.157-36.137
			c0.945-20.442-16.387-37.215-36.816-35.573c-15.332,1.232-28.379,14.8-27.575,28.763c0.294,5.111,2.011,9.53,6.422,12.269
			c1.575,0.978,3.484,1.497,5.089-0.258c1.543-1.687,1.002-3.404-0.015-5.084c-6.37-10.53-6.546-13.755-1.219-19.916
			c6.507-7.525,16.612-10.418,25.52-6.249c18.07,8.457,26.225,26.268,12.793,46.664c-12.927,19.629-31.598,26.045-52.775,19.297
			C386.232,1046.367,375.348,1035.016,369.246,1018.365z"/>
		<path id="XMLID_3659_" style="fill:#2E2532;" d="M247.578,1033.331c7.927-3.955,16-5.167,24.197-3.044
			c5.841,1.513,9.879,5.01,11.781,10.824c2.633,8.051-1.619,13.537-10.229,12.912c-3.524-0.256-6.461,0.27-6.886,4.457
			c-0.392,3.861,2.202,5.577,5.645,5.538c6.243-0.072,11.428-2.826,14.703-8.525c4.325-7.525,4.691-15.311,1.697-22.732
			c-6.56-16.262-30.944-21.558-45.549-9.92c-31.3,24.942-23.042,62.67,2.305,76.503c21.847,11.923,43.913,8.448,63.393-9.971
			c9.49-8.973,16.915-19.383,21.96-31.283c8.465-19.966,15.525-40.288,18.967-61.425c0.551-3.383,2.714-8.886-1.895-9.315
			c-3.866-0.36-3.075,5.106-3.684,8.148c-4.474,22.337-11.932,43.86-23.683,63.91c-13.334,22.75-33.889,33.59-58.775,34.226
			c-19.868,0.507-33.084-14.021-32.852-33.895C228.81,1048.242,235.288,1039.195,247.578,1033.331z"/>
		<path id="XMLID_3658_" style="fill:#2E2532;" d="M348.406,902.566c18.392-8.552,29.691-20.604,40.8-32.862
			c1.226-1.353,3.163-3.414,1.741-4.899c-2.017-2.108-3.73,0.803-5.096,1.986c-5.667,4.909-11.017,10.194-16.687,15.1
			c-11.45,9.907-24.5,14.455-38.929,13.407c-16.246-1.18-26.415-14.24-22.742-28.907c2.397-9.573,11.736-15.163,20.744-12.384
			c3.346,1.032,5.924,2.82,4.922,6.984c-0.965,4.008-3.756,5.53-7.557,4.903c-2.709-0.447-5.018-0.158-6.086,2.928
			c-1.167,3.373,0.377,5.521,3.089,7.005c6.228,3.409,14.365-1.149,16.86-9.436c3.264-10.841-5.096-21.226-16.411-20.386
			c-17.237,1.281-30.09,19.882-24.853,35.967C306.257,906.718,325.475,913.609,348.406,902.566z"/>
		<path id="XMLID_3655_" style="fill:#2E2532;" d="M376.041,979.227c1.609,3.494,3.695,6.507,8.168,5.673
			c4.273-0.797,5.709-4.405,6.026-8.021c0.45-5.133,0.725-10.334,0.36-15.398c-2.028-28.171,8.004-52.969,26.113-75.587
			c2.139-2.672,4.449-5.213,6.586-7.886c0.913-1.142,2.068-2.576,0.849-3.882c-1.469-1.574-3.032-0.432-4.285,0.823
			c-4.234,4.244-8.762,8.267-12.547,12.875c-18.314,22.289-32.278,46.28-33.067,75.152
			C374.092,968.558,374.185,974.082,376.041,979.227z"/>
		<path id="XMLID_3612_" style="fill:#2E2532;" d="M312.709,1024.91c4.291-2.474,7.953-7.247,10.877-12.451
			c11.386-20.256,17.754-42.002,23.049-64.033c0.647-2.693,1.07-5.9-2.296-6.588c-3.769-0.77-4.336,2.618-4.854,5.237
			c-4.362,22.064-14.991,40.992-31.499,57.059c-2.601,2.532-5.024,5.274-7.334,8.074c-2.849,3.454-3.884,7.209-1.054,10.727
			C302.646,1026.725,306.622,1027.965,312.709,1024.91z"/>
		<path id="XMLID_3609_" style="fill:#2E2532;" d="M341.717,926.891c2.942-2.385,8.988-3.563,7.978-7.581
			c-0.837-3.328-6.193-0.461-9.422,0.239c-9.171,1.99-18.011,3.086-26.006-2.23c-2.52-1.676-5.749-1.815-8.896-0.969
			c-4.371,1.175-7.894,3.603-8.443,8.388c-0.57,4.965,3.173,6.655,7.037,7.435C316.741,934.753,329.228,931.506,341.717,926.891z"/>
	</g>
	<g id="XMLID_1690_">
		<path id="XMLID_1709_" style="fill:#2E2532;" d="M1101.181,1098.808c-8.3,4.979-18.971,3.32-23.713-4.506
			c-4.506-7.351-1.186-17.311,6.639-22.053c8.063-5.218,18.022-3.321,23.002,3.794
			C1112.088,1083.631,1109.717,1093.59,1101.181,1098.808z"/>
		<path id="XMLID_1707_" style="fill:#2E2532;" d="M1022.689,1123.47c-4.031-7.588,0-17.311,8.3-21.579
			c8.063-4.031,18.496-1.66,22.765,5.691c4.506,7.826,0.712,18.022-7.825,22.29
			C1037.392,1134.378,1026.721,1131.531,1022.689,1123.47z"/>
		<path id="XMLID_1700_" style="fill:#2E2532;" d="M965.066,1148.605c-3.321-8.062,1.185-17.31,10.196-20.868
			c8.537-3.557,18.734-0.473,22.529,7.352c3.794,8.062-0.712,17.784-9.723,21.578
			C978.583,1160.462,968.623,1156.905,965.066,1148.605z"/>
		<path id="XMLID_1699_" style="fill:#2E2532;" d="M880.648,1159.039c8.298-2.134,16.598-7.114,21.816-13.991
			c1.186-1.897,2.133-3.557,3.082-5.928c0.474-1.66,0.949-7.588,1.186-9.248c0.712-1.66,3.557-4.031,5.453-3.32
			c8.537,2.845-1.184,19.682-3.794,23.714c-5.927,8.536-14.939,12.805-24.661,16.362c-16.126,5.691-21.578,6.403-52.643,4.979
			c-19.208-1.66-40.314-5.928-55.965,9.723c-14.465,13.991-12.329,36.993,10.198,48.613c14.227,7.588,49.086-8.537,33.91-27.983
			c-4.98-6.876-17.549-10.433-25.61-1.66c-2.61,3.083-2.373,7.826-6.879,9.011c-6.165,2.372-5.216-7.351-3.557-10.433
			c11.382-17.548,45.53-20.157,50.273,5.454c3.794,22.29-27.508,36.756-47.426,32.487c-13.992-2.609-22.055-11.145-26.324-20.393
			c-4.267-9.485-4.741-25.136,1.424-34.147c10.433-15.651,19.682-22.291,38.653-24.899
			C822.549,1154.534,858.355,1167.102,880.648,1159.039z"/>
		<path id="XMLID_1697_" style="fill:#2E2532;" d="M840.334,1190.103c-5.69-1.185-7.588-5.454-2.37-6.639
			c5.927-1.422,13.99-0.237,19.92,1.185c23.002,5.454,35.331,32.487,20.392,34.384c-6.165,0.237-11.382-5.928-13.516-11.145
			C860.965,1200.3,852.902,1192.712,840.334,1190.103z"/>
		<path id="XMLID_1696_" style="fill:#2E2532;" d="M741.924,1244.882c1.186-3.321-1.659-21.105,6.404-20.631
			c5.927,0.712,6.639,20.394,8.535,23.714C767.296,1273.101,732.914,1273.338,741.924,1244.882z"/>
		<path id="XMLID_1695_" style="fill:#2E2532;" d="M699.002,1156.193c18.973,3.083,27.982,9.723,37.941,25.848
			c5.692,9.248,4.743,24.662,0.475,33.91c-4.741,9.485-13.041,17.548-27.031,19.919c-19.92,3.794-50.984-11.62-46.479-33.91
			c5.69-25.373,39.6-21.816,50.508-4.031c1.661,3.083,2.135,13.043-4.029,10.434c-4.269-1.423-3.796-6.166-6.641-9.248
			c-7.588-8.775-20.392-5.691-25.61,0.948c-15.414,19.208,18.733,36.044,33.198,28.93c22.765-11.145,25.61-33.91,11.62-48.375
			c-15.177-15.888-36.28-12.094-55.726-10.909c-31.065,0.474-36.52-0.474-52.169-6.639c-9.724-3.794-18.496-8.3-24.188-16.836
			c-2.608-4.269-11.857-21.342-3.32-23.951c1.896-0.711,4.743,1.897,5.453,3.557c0.237,1.661,0.475,7.588,0.949,9.249
			c0.949,2.371,1.898,4.03,2.845,5.927c5.218,7.115,13.281,12.331,21.581,14.703
			C640.194,1164.256,676.474,1152.636,699.002,1156.193z"/>
		<path id="XMLID_1694_" style="fill:#2E2532;" d="M660.114,1181.092c4.978,1.423,3.082,5.454-2.373,6.64
			c-12.804,2.134-21.104,9.723-25.135,17.074c-2.371,5.217-7.588,11.145-13.753,10.908c-14.939-2.372-1.898-28.931,21.341-33.91
			C646.121,1180.619,654.184,1179.433,660.114,1181.092z"/>
		<path id="XMLID_1693_" style="fill:#2E2532;" d="M538.227,1148.605c-3.082,8.537-13.043,12.569-22.053,9.012
			c-9.486-3.557-13.992-12.806-10.435-21.105c3.322-8.063,13.043-11.62,22.292-8.3
			C536.566,1131.531,541.309,1140.543,538.227,1148.605z"/>
		<path id="XMLID_1692_" style="fill:#2E2532;" d="M448.589,1110.664c4.031-7.588,13.992-10.433,22.292-6.402
			c8.772,4.031,12.804,13.279,9.01,21.341c-3.794,8.063-13.753,11.382-23.002,6.878
			C448.117,1128.449,444.56,1118.727,448.589,1110.664z"/>
		<path id="XMLID_1691_" style="fill:#2E2532;" d="M424.166,1097.859c-4.506,8.063-14.939,10.434-23.477,5.217
			c-8.3-4.742-11.145-14.465-6.402-22.29c4.506-7.351,14.702-9.248,22.528-4.742
			C425.115,1080.785,428.435,1090.271,424.166,1097.859z"/>
	</g>
	<g id="XMLID_376_">
		<g id="XMLID_135_">
			<path id="XMLID_150_" style="fill:#2E2532;" d="M945.616,403.259c-1.142,1.988-2.991,2.802-5.15,3.095
				c-23.889,3.245-47.494,8.173-71.287,11.986c-3.252,0.521-6.514,0.982-9.777,1.431c-2.886,0.397-5.217-0.988-5.937-3.463
				c-0.752-2.586,0.53-5.025,3.454-6.136c5.839-2.219,11.789-4.119,17.808-5.792c13.222-3.675,26.671-6.235,40.266-8.032
				c6.786-0.897,13.591-1.646,20.392-2.427c1.289-0.148,2.605-0.068,3.896-0.209c3.105-0.339,5.19,0.94,6.335,3.816
				C945.616,399.438,945.616,401.349,945.616,403.259z"/>
			<path id="XMLID_149_" style="fill:#2E2532;" d="M684.363,227.649c3.137,0.057,5.233,1.864,5.814,5.226
				c0.635,3.675,1.128,7.375,1.688,11.063c2.385,15.702,5.453,31.286,8.112,46.941c1.322,7.784,2.552,15.584,3.744,23.389
				c0.544,3.563-1.654,6.296-4.876,6.262c-2.523-0.027-3.997-1.51-4.803-3.717c-1.219-3.342-2.423-6.693-3.497-10.084
				c-4.944-15.601-8.067-31.597-10.293-47.787c-1.099-7.995-1.83-16.029-2.755-24.041
				C676.998,230.587,680.261,227.74,684.363,227.649z"/>
			<path id="XMLID_148_" style="fill:#2E2532;" d="M762.669,317.15c0.057-0.356,0.172-1.127,0.306-1.894
				c3.479-19.943,9.872-38.998,17.577-57.652c2.816-6.818,5.804-13.562,8.909-20.253c1.676-3.612,4.717-4.817,8.364-3.349
				c3.629,1.46,4.974,4.569,3.471,8.251c-3.476,8.518-6.673,17.143-9.86,25.771c-5.502,14.896-10.68,29.911-16.458,44.705
				c-0.884,2.263-1.74,4.539-2.701,6.769c-0.897,2.08-2.503,3.342-4.817,3.405C764.63,322.981,762.613,320.68,762.669,317.15z"/>
			<path id="XMLID_147_" style="fill:#2E2532;" d="M643.046,347.722c-0.022,3.957-3.432,6.183-6.747,4.697
				c-0.778-0.349-1.499-0.879-2.161-1.428c-10.175-8.445-19.398-17.851-28.083-27.806c-9.482-10.869-18.1-22.402-26.45-34.145
				c-2.652-3.729-1.965-7.479,1.755-9.773c2.956-1.823,5.644-1.431,7.846,1.267c2.853,3.494,5.624,7.057,8.452,10.571
				c8.378,10.41,17.117,20.518,25.681,30.773c6.061,7.259,12.161,14.486,17.953,21.965
				C642.267,345.101,643.145,346.375,643.046,347.722z"/>
			<path id="XMLID_146_" style="fill:#2E2532;" d="M826.202,359.114c-2.174,0.014-3.71-0.662-4.634-2.348
				c-0.903-1.649-0.927-3.411,0.135-4.947c1.229-1.777,2.631-3.446,4.06-5.073c8.26-9.401,17.219-18.093,26.735-26.213
				c9.906-8.454,20.281-16.302,30.904-23.827c0.637-0.451,1.304-0.861,1.928-1.329c4.865-3.649,9.749,0.849,10.286,4.852
				c0.281,2.1-0.623,3.714-2.212,4.988c-2.572,2.062-5.174,4.085-7.742,6.152c-11.76,9.462-23.213,19.294-34.785,28.983
				c-6.783,5.679-13.685,11.217-20.548,16.801C829.044,358.199,827.694,359.168,826.202,359.114z"/>
			<path id="XMLID_145_" style="fill:#2E2532;" d="M601.083,411.169c-2.643-0.497-5.98-1.053-9.285-1.757
				c-17.377-3.697-34.101-9.434-50.483-16.233c-6.654-2.761-13.238-5.68-19.781-8.694c-4.583-2.112-5.648-6.628-2.443-10.447
				c1.796-2.14,3.888-2.675,6.795-1.566c4.865,1.855,9.671,3.867,14.554,5.671c14.163,5.232,28.363,10.366,42.527,15.596
				c6.43,2.374,12.814,4.877,19.211,7.34c0.806,0.31,1.625,0.647,2.341,1.12c1.97,1.301,2.757,3.577,2.061,5.678
				C605.895,409.946,604.141,411.149,601.083,411.169z"/>
			<path id="XMLID_144_" style="fill:#2E2532;" d="M940.457,510.553c0.109,5.504-4.258,8.635-8.974,6.728
				c-21.809-8.821-44.144-16.225-66.11-24.618c-3.405-1.301-6.796-2.635-10.179-3.992c-0.798-0.32-1.605-0.699-2.286-1.213
				c-1.732-1.307-2.373-3.412-1.741-5.322c0.706-2.134,2.412-3.461,4.72-3.367c1.636,0.066,3.268,0.399,4.885,0.699
				c19.118,3.549,37.431,9.724,55.345,17.145c6.813,2.822,13.509,5.923,20.267,8.877C938.81,506.55,940.363,508.221,940.457,510.553
				z"/>
			<path id="XMLID_143_" style="fill:#2E2532;" d="M519.177,496.214c-5.417,0.377-8.916-3.816-7.25-8.701
				c0.708-2.076,2.097-3.343,4.294-3.684c4.114-0.638,8.224-1.306,12.342-1.92c10.814-1.611,21.554-3.652,32.318-5.549
				c12.388-2.184,24.764-4.438,37.226-6.172c3.378-0.47,5.987,1.282,6.335,4.217c0.291,2.455-0.855,4.283-3.623,5.336
				c-3.243,1.234-6.523,2.386-9.831,3.435c-14.597,4.63-29.541,7.692-44.68,9.9C537.294,494.391,528.249,495.411,519.177,496.214z"
				/>
			<path id="XMLID_142_" style="fill:#2E2532;" d="M734.602,309.747c0,1.994,0.065,3.991-0.017,5.981
				c-0.1,2.418-1.419,4.05-3.63,4.923c-3.295,1.302-6.209-0.279-6.743-3.794c-0.65-4.281-1.15-8.587-1.628-12.892
				c-0.937-8.44-1.406-16.919-2.018-25.386c-0.113-1.555-0.14-3.119-0.127-4.679c0.029-3.374,1.69-5.403,4.712-5.843
				c3.21-0.468,6.294,1.332,7.067,4.374c0.466,1.832,0.628,3.758,0.767,5.653C733.764,288.626,734.385,299.177,734.602,309.747z"/>
			<path id="XMLID_141_" style="fill:#2E2532;" d="M811.992,289.519c3.976,0.036,6.966,3.754,6.095,7.625
				c-0.17,0.754-0.456,1.496-0.784,2.199c-5.504,11.805-11.315,23.453-17.84,34.734c-0.348,0.601-0.691,1.207-1.083,1.779
				c-1.681,2.461-4.384,3.221-7.073,2.011c-2.469-1.112-3.487-3.205-2.547-5.747c1.083-2.929,2.331-5.798,3.562-8.67
				c4.414-10.299,9.361-20.344,14.489-30.301C808.264,290.326,809.558,289.497,811.992,289.519z"/>
			<path id="XMLID_140_" style="fill:#2E2532;" d="M640.825,292.199c2.22-0.038,3.678,0.649,4.898,1.862
				c0.429,0.426,0.816,0.905,1.16,1.402c7.758,11.21,15.373,22.512,22.094,34.387c1.451,2.563,1.191,4.734-0.66,6.672
				c-2.34,2.45-5.494,2.358-7.634-0.304c-4.463-5.55-8.601-11.345-12.668-17.188c-3.719-5.344-7.421-10.701-10.867-16.229
				c-0.322-0.516-0.664-1.018-0.985-1.534c-1.169-1.878-1.704-3.852-0.512-5.896C636.891,293.245,638.896,292.338,640.825,292.199z"
				/>
			<path id="XMLID_139_" style="fill:#2E2532;" d="M864.013,450.691c-2.205,0-4.028,0.055-5.847-0.014
				c-2.182-0.082-3.777-1.193-4.765-3.114c-1.711-3.326-0.14-6.687,3.549-7.256c4.45-0.687,8.926-1.257,13.41-1.661
				c8.367-0.754,16.748-1.361,25.125-2.003c1.468-0.112,2.947-0.139,4.42-0.127c3.385,0.028,5.604,1.873,5.987,4.917
				c0.374,2.974-1.532,6.007-4.422,6.856c-2.259,0.664-4.636,0.666-6.954,0.815c-7.607,0.49-15.202,1.21-22.839,1.258
				C868.999,450.381,866.321,450.778,864.013,450.691z"/>
			<path id="XMLID_138_" style="fill:#2E2532;" d="M595.054,439.259c1.56,0,3.128-0.1,4.678,0.023
				c2.491,0.197,4.202,1.544,4.973,3.937c1.026,3.187-0.484,5.865-3.779,6.363c-4.537,0.686-9.104,1.186-13.665,1.698
				c-8.093,0.909-16.225,1.357-24.344,1.949c-1.728,0.126-3.466,0.164-5.198,0.149c-2.994-0.026-4.938-1.44-5.664-4.018
				c-0.695-2.47,0.369-5.414,2.508-6.887c1.096-0.755,2.325-1.134,3.65-1.241c3.971-0.321,7.936-0.752,11.913-0.962
				c8.306-0.439,16.617-0.764,24.927-1.136C595.053,439.176,595.054,439.217,595.054,439.259z"/>
			<path id="XMLID_137_" style="fill:#2E2532;" d="M881.645,357.164c-0.037,2.528-1.04,4.249-2.889,5.513
				c-4.657,3.182-9.267,6.438-13.978,9.539c-6.669,4.39-13.409,8.673-20.372,12.589c-2.786,1.567-4.648,1.512-6.756-0.138
				c-2.661-2.083-2.894-5.83,0.195-8.158c8.807-6.636,17.73-13.098,26.943-19.159c2.61-1.717,5.211-3.449,7.842-5.134
				c1.865-1.194,3.857-1.672,5.889-0.452C880.626,353.031,881.545,355.019,881.645,357.164z"/>
			<path id="XMLID_136_" style="fill:#2E2532;" d="M579.921,355.705c1.032-0.047,2.118,0.275,3.14,0.765
				c12.293,5.886,24.573,11.802,36.319,18.745c2.84,1.679,3.661,4.049,2.628,6.834c-1.091,2.943-3.443,4.065-6.445,2.846
				c-4.664-1.892-9.295-3.872-13.895-5.914c-8.413-3.734-16.622-7.893-24.83-12.054c-1.902-0.964-3.251-2.265-3.392-4.54
				C573.214,358.632,576.026,355.651,579.921,355.705z"/>
		</g>
	</g>
	<g id="XMLID_614_">
		<g id="XMLID_461_">
			<path id="XMLID_520_" style="fill:#2E2532;" d="M673.598,661.225c19.687,13.398,42.38,17.69,65.732,17.682
				c18.897-0.005,38.034-0.928,56.626-5.741c12.189-3.155,22.926-8.147,31.943-15.352
				C778.4,672.569,725.399,669.144,673.598,661.225z"/>
			<path id="XMLID_473_" style="fill:#2E2532;" d="M876.175,576.341c-6.498-6.703-12.266-13.462-9.819-24.412
				c2.588-11.581-0.704-21.493-12.766-26.612c-2.334-0.99-2.556-3.248-3.058-5.261c-2.351-9.422-4.477-18.902-6.966-28.287
				c-8.639-32.58-19.315-64.397-35.738-94.026c-6.383-11.516-13.563-23.033-22.8-31.871c-12.417-11.881-27.693-20.605-44.33-17.71
				c-26.38-1.52-44.153,10.336-59.102,27.671c-11.255,13.05-18.914,28.207-26.185,43.803
				c-13.557,29.078-21.225,59.521-24.866,91.219c-0.682,5.939,0.944,12.774-3.511,17.645c-8.462,9.253-11.005,20.16-8.839,31.862
				c1.958,10.575,0.616,19.918-4.531,29.33c-5.709,10.44-2.099,16.889,9.763,18.415c8.493,1.093,14.154,5.516,16.797,13.451
				c1.062,3.189,2.416,6.145,3.924,8.978c36.726,8.906,74.184,17.64,112.203,15.981c33.575-1.465,65.147-12.306,95.395-26.127
				c0.71-2.249,2.317-4.275,4.249-4.519c8.849-1.12,13.51-4.623,13.878-12.013c0.264-5.291,2.876-8.528,6.269-11.856
				C883.657,584.628,883.425,583.822,876.175,576.341z M836.612,546.022c0.233,2.052,0.437,4.153,0.567,6.383
				c0.158,0.638,0.222,1.244,0.223,1.827c-19.081-3.917-38.387-8.495-50.957-24.64c-0.262-0.336-0.549-0.571-0.847-0.72
				c3.077-2.655,6.293-5.086,9.733-7.12c9.589,13.862,24.039,22.452,40.84,24.311C836.34,546.082,836.461,546.03,836.612,546.022z
				 M720.91,554.761c-0.39-2.064-0.92-4.089-1.772-6.003c-2.917-6.551-3.55-12.723-2.352-18.72
				c11.098,12.605,24.872,21.923,40.658,27.67c-0.524,1.782-1.033,3.575-1.399,5.463c-0.407,2.098-0.52,4.255-0.573,6.422
				C742.842,567.29,731.289,562.332,720.91,554.761z M755.243,574.925c-0.348,2.422-1.696,3.745-4.452,3.805
				c-5.931,0.128-11.738,2.007-16.503,1.254c-2.288,0-3.348,0.007-4.408-0.001c-10.632-0.086-10.581-0.079-8.968-10.531
				c0.4-2.588,0.565-5.209,0.577-7.814C731.705,568.422,743.047,572.877,755.243,574.925z M704.954,578.399
				c-18.291-2.69-36.098-6.875-52.549-15.717c-2.334-1.254-4.701-2.39-4.815-5.337c-0.006-0.152-0.006-0.303-0.012-0.455
				c20.256,10.3,41.79,16.383,64.464,18.221C710.697,577.612,708.475,578.917,704.954,578.399z M710.968,585.773
				c-0.967,1.084-1.801,2.322-2.539,3.414c-2.34,3.462-4.035,7.301-5.263,11.284c-0.096,0.31-0.09,0.586-0.084,0.86
				c-1.345-0.364-3.339-0.385-6.465-0.444c-7.168-0.137-14.256-1.596-20.719-5.008c-1.459-0.77-2.444-2.725-4.092-2.944
				c-1.145-4.44-2.29-8.881-3.435-13.321c-0.295-1.143-0.563-2.348-0.987-3.415C681.397,580.999,695.963,583.767,710.968,585.773z
				 M647.427,550.896c-0.043-1.68-0.125-3.366-0.128-5.039c21.685,8.602,44.07,14.061,67.29,16.512
				c0.068,0.765,0.158,1.506,0.203,2.297c-0.32,1.477-0.625,3.346-1.05,5.299C690.262,568.283,668.236,561.945,647.427,550.896z
				 M710.287,524.828c-1.691-12.21-6.352-23.454-13.787-33.286c-0.105-0.139-0.241-0.207-0.358-0.319
				c1.481-1.353,3.128-2.339,4.808-2.674c0.015,0.561,0.16,1.134,0.594,1.664c6.409,7.818,10.257,17.109,11.253,27.169
				c0.058,0.582,0.298,1.027,0.598,1.41c-0.867,1.733-1.67,3.502-2.382,5.32c-0.251,0.642-0.507,1.091-0.767,1.423
				C710.271,525.303,710.323,525.083,710.287,524.828z M694.234,521.578c0.737-0.058,1.284-0.381,1.701-0.808
				c1.937,2.224,3.69,4.6,5.363,7.042c-16.659-1.195-32.611-5.004-47.977-11.622c0.56-1.031,1.065-2.071,1.729-3.086
				c0.59-0.902,1.242-1.694,1.902-2.466c0.186,0.305,0.441,0.589,0.781,0.832C668.474,519.124,681.086,522.611,694.234,521.578z
				 M660.802,507.143c5.446-3.762,12.171-4.071,18.775-0.139c4.55,2.709,8.548,5.877,12.166,9.36
				C680.516,516.74,670.108,513.66,660.802,507.143z M691.821,506.766c-2.427-2.302-1.495-7.125,0.95-11.263
				c5.469,7.565,9.185,15.88,11.216,24.875C700.243,515.587,696.281,510.996,691.821,506.766z M711.583,547.92
				c1.002,2.894,1.758,5.892,2.313,9.059c-22.973-2.494-45.035-8.096-66.46-16.732c0.121-2.628,0.312-5.244,0.695-7.83
				C668.397,541.235,689.523,546.421,711.583,547.92z M706.724,488.482c6.507,0.939,11.318,5.052,15.619,10.069
				c1.712,1.997,1.151,3.769-0.158,5.722c-1.716,2.562-3.393,5.149-4.996,7.778C715.544,503.436,712.061,495.56,706.724,488.482z
				 M718.61,524.1c0.764-1.883,1.65-3.757,2.754-5.624c2.403-4.062,4.919-8.04,7.608-11.888
				c10.626,13.04,23.369,23.717,38.204,31.746c-3.276,4.378-5.929,9.179-7.985,14.379C743.215,546.918,729.503,537.213,718.61,524.1
				z M784.831,521.102c-0.242-0.216-0.515-0.413-0.864-0.547c-15.816-6.088-28.933-16.811-38.134-31.035
				c-0.165-0.255-0.372-0.418-0.575-0.589c10.463-7.509,23.64-9.149,33.171-3.589c7.046,4.11,14.537,22.08,12.408,29.813
				C789.976,518.286,787.147,519.423,784.831,521.102z M780.283,524.695c-1.924,1.598-3.739,3.271-5.483,4.994
				c-0.117-1.22-0.933-2.361-2.515-2.361c-3.325,0-3.39,4.997-0.232,5.258c-0.482,0.523-1.005,1.019-1.472,1.552
				c-14.924-7.955-27.864-18.657-38.355-31.922c2.746-3.536,5.672-6.934,9.041-9.997
				C750.815,506.972,764.153,517.974,780.283,524.695z M763.508,561.139c6.017,5.668,12.655,10.508,19.884,14.471
				c-5.003,0.681-10.012,1.422-15.028,2.112c-5.121,0.705-6.449-1.352-6.372-5.815C762.056,568.155,762.657,564.597,763.508,561.139
				z M765.239,555.534c1.374-3.605,3.066-7.069,5.233-10.289c8.924,13.096,21.999,21.981,37.292,25.493
				c-5.228,1.484-10.57,2.598-15.979,3.526c-0.215-0.259-0.505-0.49-0.886-0.672C781.325,569.024,772.76,563.017,765.239,555.534z
				 M773.83,540.793c0.611-0.737,1.205-1.483,1.857-2.195c2.089-2.281,4.256-4.46,6.47-6.57c0.067,0.447,0.209,0.894,0.537,1.316
				c12.897,16.566,32.825,21.76,52.48,25.828c-1.386,1.396-3.324,2.602-5.696,3.662c-4.384,1.958-8.831,3.641-13.313,5.192
				c-0.405-0.717-1.071-1.3-2.071-1.429C797.327,564.435,782.848,554.973,773.83,540.793z M835.89,540.712
				c-14.623-1.699-27.41-9.442-35.833-21.443c3.286-1.51,6.756-2.682,10.471-3.387c0.01,0.026,0.003,0.047,0.014,0.074
				c3.913,9.43,12.078,16.308,22.268,17.897c0.689,0.107,1.27-0.064,1.772-0.346C835.067,535.841,835.5,538.243,835.89,540.712z
				 M833.158,527.054c0.118,0.506,0.225,1.019,0.341,1.526c-7.654-1.419-14.246-6.198-17.499-13.347
				c0.935-0.06,1.825-0.209,2.789-0.211C827.526,515.001,831.156,518.476,833.158,527.054z M811.607,421.227
				c2.792,5.607,5.206,11.406,7.631,17.187c0.652,1.555-0.31,2.435-1.911,2.16c-1.22-0.21-2.765-0.402-3.507-1.207
				c-4.491-4.878-5.938-11.404-8.867-16.329c-0.155-1.973,0.303-2.846,1.497-3.13C808.398,419.443,810.738,419.482,811.607,421.227z
				 M807.296,412.205c-5.362,2.146-8.34,0.382-10.607-3.751c-1.72-3.135-3.971-5.976-5.912-8.995
				c-0.855-1.33-2.985-2.698-1.574-4.308c1.429-1.63,3.467-0.432,5.236,0.377C801.626,398.814,804.514,405.293,807.296,412.205z
				 M781.991,373.572c2.785,3.161,5.438,6.442,8.07,9.734c0.767,0.96,1.259,2.14,2.359,4.059c-4.153,0.501-8.202,2.3-10.506,1.002
				c-5.234-2.948-9.663-7.357-14.297-11.315c-1.155-0.987-0.457-2.185,0.495-3.265C771.69,369.725,778.422,369.52,781.991,373.572z
				 M770.284,363.47c-6.859,8.833-15.861,8.918-25.323,7.12c-3.671-0.697-6.26-1.477-2.415-5.873
				C751.598,354.368,756.619,353.955,770.284,363.47z M742.211,354.445c-7.03,10.103-13.923,20.393-28.581,20.501
				C716.278,359.815,722.857,355.145,742.211,354.445z M709.456,362.743c-1.185,14.737-9.926,24.91-21.845,32.993
				C686.164,382.807,697.259,366.027,709.456,362.743z M682.002,387.313c-2.427,13.608-2.724,26.892-12.934,36.423
				C664.522,414.855,671.5,398.83,682.002,387.313z M660.177,423.616c7.502,12.743-1.631,23.093-4.904,35.177
				C648.214,445.198,657.731,434.904,660.177,423.616z M659.268,468.902c6.374-20.701,14.601-40.598,27.119-58.438
				c8.458-12.054,17.961-23.051,32.095-28.872c19.053-7.847,43.043-6.11,58.128,11.343c14.331,16.58,24.188,35.592,32.566,55.585
				c7.289,17.395,12.355,35.509,17.799,53.508c1.093,3.614,1.38,6.428-3.654,6.354c-7.419-0.109-14.807-0.433-21.758,3.184
				c-2.742,1.427-3.68-0.895-4.012-3.235c-0.719-5.063-2.236-9.875-4.226-14.587c-6.563-15.536-22.241-22.162-38.263-16.832
				c-8.948,2.977-16.436,7.725-22.581,14.644c-2.947,3.319-5.049,2.718-7.788-0.161c-5.181-5.444-10.735-10.064-19.093-9.823
				c-9.293,0.268-15.592,3.905-19.117,12.742c-1.971,4.94-3.85,6.936-9.675,4.332c-9.169-4.099-17.227,0.117-25.66,6.941
				C652.34,491.862,655.743,480.352,659.268,468.902z M703.548,533.343c0.439,0.025,0.816-0.046,1.142-0.18
				c1.717,2.963,3.258,6.069,4.685,9.269c-20.929-1.67-40.974-6.716-60.206-15.286c0.513-2.078,1.108-4.143,1.911-6.175
				C667.879,528.157,685.277,532.3,703.548,533.343z M647.05,459.96c7.962,15.114-1.703,26.455-2.834,38.753
				C637.308,485.579,645.365,473.931,647.05,459.96z M628.815,538.562c-3.913,7.641-1.211,13.605,4.152,18.803
				c5.066,4.909,11.049,8.664,17.288,11.763c3.265,1.622,6.578,3.044,9.912,4.383c-4.359,1.534-8.245,6.312-10.411,10.298
				c-1.056-0.313-2.438-0.483-4.275-0.46c-9.796,0.127-20.418-15.618-21.001-26.794C624.155,550.306,624.114,544.03,628.815,538.562
				z M643.249,612.139c-3.879-6.072-9.695-9.393-17.116-10.634c-8.752-1.464-9.427-2.886-5.676-10.666
				c1.446-2.999,2.444-6.239,5.057-9.172c2.485,7.829,9.645,10.447,15.158,14.822c2.752,2.184,6.618,3.051,7.888,6.987
				c0.099,0.307,0.241,0.596,0.395,0.873C647.897,607.555,645.946,610.188,643.249,612.139z M663.152,625.233
				c-7.646,2.609-10.995,1.615-15.468-5.233c-0.677-1.036-1.245-2.142-1.84-3.231c4.135-2.818,7.159-6.883,8.514-11.761
				c0.188-0.676,0.078-1.246-0.154-1.738c0.265-0.699,0.33-1.483-0.029-2.383c-0.961-2.411-1.319-4.837-1.534-7.404
				c-0.119-1.419,0.133-2.95,0.228-4.381c0.208-0.207,0.405-0.443,0.552-0.776c0.914-2.082,2.015-4.01,3.542-5.713
				c0.708-0.789,4.448-4.667,5.441-4.24c0.809,0.347,1.796,6.318,2.099,7.497c0.774,3,1.547,6,2.321,9
				c0.176,0.683,0.559,1.12,1.009,1.426c-0.267,1.183-0.22,2.497-0.253,3.74c-0.076,2.908-0.083,5.817,0.598,8.646
				c-0.164,0.455-0.238,0.961-0.062,1.558l3.79,12.875C669.024,623.475,666.104,624.226,663.152,625.233z M689.93,628.906
				c-0.356-0.273-0.714-0.498-1.068-0.806c-3.75-3.268-7.648-4.727-11.644-5.097c0.012-0.283,0.018-0.569-0.076-0.891
				c-0.847-2.876-1.693-5.751-2.54-8.627c9.255-3.002,17.323,1.141,25.31,4.805c0.502,0.23,0.848,0.281,1.272,0.424
				c-2.464,4.482-6.326,7.975-11.173,10.133C689.977,628.863,689.964,628.89,689.93,628.906z M719.673,624.928
				c-3.731,0.175-7.133,1.677-10.414,3.839c-4.697,3.095-9.212,4.205-13.565,3.081c6.161-3.706,10.659-9.665,12.635-16.662
				c0.535-1.893-0.933-3.122-2.451-3.234c-0.018-0.581-0.04-1.163-0.044-1.742c-0.06-3.176-0.129-5.184-0.493-6.546
				c1.191,0.176,2.485-0.307,2.94-1.782c0.749-2.429,1.665-4.756,2.887-6.991c0.762-1.394,3.203-6.177,4.621-5.969
				c0.857,0.126,1.741,6.252,1.92,7.032l1.962,8.556c0.165,0.722,0.558,1.183,1.029,1.487c0.029,0.999,0.118,2.065,0.2,3.575
				c0,0.141-0.023,0.99,0.004,1.837c0.037,1.166,0.081,2.099,0.14,2.927C719.82,617.751,719.355,621.31,719.673,624.928z
				 M721.465,588.62c-0.168-0.614-0.389-1.22-0.639-1.805c13.155,0.926,26.13,0.115,39.025-1.199
				c-0.225,0.406-0.452,0.817-0.651,1.209c-1.789,3.526-3.172,7.217-4.244,11.019c-0.162,0.576-0.093,1.067,0.06,1.512
				c-0.223,0.229-0.446,0.476-0.661,0.812c-3.717,5.793-9.051,3.601-13.754,3.692c-4.934,0.095-10.336,1.876-14.787-1.573
				c-0.524-0.407-0.992-0.724-1.416-0.969C723.462,597.079,722.609,592.797,721.465,588.62z M761.382,637.807
				c-4.964,0.52-10.402-0.854-16.694-3.969c-5.691-2.818-11.656-4.993-17.472-7.467c-0.782-0.333-1.543-0.586-2.295-0.802
				c0.02-0.181,0.08-0.335,0.061-0.541c-0.203-2.215,0.031-4.314,0.471-6.398c0.947-0.006,2.033-0.045,3.448-0.103
				c9.056-0.368,18.189-1.385,27.213,0.686c0.849,0.195,1.583,0.226,2.257,0.184c0.077,0.109,0.106,0.225,0.204,0.33
				c3.964,4.234,5.167,10.432,2.783,15.783C760.986,636.344,761.068,637.137,761.382,637.807z M775.755,629.713
				c-2.968,3.237-5.998,5.394-9.175,6.712c2.471-7.129,1.032-14.804-4.255-20.45c-0.292-0.312-0.607-0.527-0.928-0.658
				c-0.024-0.259,0.045-0.438-0.008-0.723c-0.781-4.161-1.633-8.275-2.047-12.511c-0.05-0.509-0.174-0.969-0.329-1.401
				c0.466-0.303,0.864-0.742,1.057-1.427c0.745-2.642,1.603-5.244,2.739-7.746c0.271-0.597,0.97-2.46,1.589-3.423
				c0.377,0.422,0.754,0.844,1.131,1.266c3.486,3.901,6.972,7.802,10.458,11.704c-0.398,3.668-0.359,7.384,0.655,10.973
				c0.064,0.226,0.188,0.392,0.272,0.6c-0.549,0.572-0.856,1.367-0.565,2.372c1.081,3.731,2.164,7.462,3.245,11.193
				C778.303,627.203,777.022,628.331,775.755,629.713z M781.107,596.925c-0.807-0.484-1.57-0.643-2.278-0.64
				c-2.342-2.621-4.684-5.241-7.025-7.862c-0.9-1.008-1.927-2.496-3.104-3.773c3.972-0.458,7.941-0.932,11.905-1.399
				c10.981-1.292,21.874-3.302,32.398-6.473c-1.4,4.201-2.227,8.522-2.679,12.924c-0.007,0.062,0.019,0.104,0.017,0.164
				c-0.027,0.056-0.055,0.11-0.082,0.166c-2.05,4.208-22.494,11.573-26.475,9.508C782.726,598.991,782.149,597.55,781.107,596.925z
				 M801.683,624.362c-6.578-2.916-12.194-3.313-17.401-1.053c-0.789-2.721-1.578-5.442-2.367-8.164
				c0.046-0.011,0.081,0.001,0.127-0.012c2.451-0.664,4.883-1.403,7.351-1.993c7.363-1.759,14.74-3.46,20.894-4.9
				c1.911,0.115,3.472,0.05,4.721-0.209c2.111,4.528,3.233,9.295,3.287,14.344c0.002,0.197,0.075,0.343,0.111,0.518
				C813.668,627.963,810.097,628.093,801.683,624.362z M823.186,617.112c-0.639-4.552-2.043-8.922-4.194-13.073
				c0.124-1.083,0.008-2.383-0.322-3.919c-0.664-3.098-1.394-6.182-2.134-9.263c-0.166-0.693-0.446-1.319-0.799-1.874
				c0.361-3.132,0.948-6.207,1.857-9.232c0.254-0.845,1.038-4.681,1.807-5.014c0.885-0.383,2.144,2.056,2.428,2.448
				c2.296,3.165,5.278,5.444,8.731,7.035c1.296,3.517,1.043,7.317,2.033,10.865c0.455,1.632,1.044,2.767,1.727,3.461
				c0.115,3.516,0.773,6.912,1.912,10.144C831.071,609.641,826.869,612.639,823.186,617.112z M835.236,579.13
				c-1.105-1.134-2.474-1.345-3.849-0.421c-2.536-1.546-4.321-3.704-6.27-6.192c8.971-3.725,17.55-8.558,25.492-14.971
				c3.132-2.529,4.895-5.753,6.996-8.867c1.409-2.09,0.586-3.974-1.119-5.663c-2.445-2.422-2.97-5.477-2.555-9.463
				c3.886,1.496,5.089,4.37,5.731,7.561c3.076,15.29-5.34,31.943-19.364,38.742C838.213,580.865,836.801,580.734,835.236,579.13z
				 M855.846,608.999c-3.794,0.242-7.733,0.534-11.411-0.195c-0.883-0.175-1.72-0.258-2.556-0.337
				c-1.333-3.124-2.149-6.425-2.26-9.971c-0.018-0.562-0.21-0.997-0.464-1.374c0.079-0.097,0.154-0.161,0.234-0.265
				c3.178-4.136,7.261-2.548,11.102-3.045c-0.494-2.151-3.768,0.129-3.731-2.276c0.024-1.598,1.726-2.256,2.97-3.055
				c2.02-1.297,4.091-2.481,5.484-4.123c4.415,4.106,6.877,9.408,6.989,15.468c0.009,0.492,0.149,0.893,0.344,1.243
				c-0.026,0.389-0.105,0.758-0.081,1.166C862.746,606.971,859.863,608.743,855.846,608.999z M866.39,592.905
				c-1.328-4.723-3.824-9.035-7.564-12.453c-0.618-0.565-1.312-0.758-1.969-0.705c-0.004-0.792-0.083-1.641-0.33-2.61
				c-0.565-2.223,1.746-5.568,4.124-6.683c2.884-1.353,3.53,2.341,4.826,3.888C873.232,583.591,873.315,583.975,866.39,592.905z"/>
			<path id="XMLID_472_" style="fill:#2E2532;" d="M852.494,625.833c-28.923,13.105-59.061,23.507-91.009,25.709
				c-38.342,2.642-76.364-5.672-113.486-14.614c4.584,6.584,10.308,12.259,16.579,17.51c57.77,9.47,117.49,14.36,172.298-5.245
				c3.985-4.613,7.508-9.824,10.411-15.837c1.189-2.462,2.107-5.168,5.054-6.169C854.247,626.539,853.231,626.475,852.494,625.833z"
				/>
			<path id="XMLID_471_" style="fill:#2E2532;" d="M768,525.994v-2.495C766,523.499,766,525.994,768,525.994z"/>
			<path id="XMLID_470_" style="fill:#2E2532;" d="M759,520.381c2,0,2-2.495,0-2.495C758,517.887,758,520.381,759,520.381z"/>
			<path id="XMLID_469_" style="fill:#2E2532;" d="M751,515.6c4,0,4-2.495,0-2.495V515.6z"/>
			<path id="XMLID_468_" style="fill:#2E2532;" d="M745,508.532c1,0,1-2.495,0-2.495V508.532z"/>
			<path id="XMLID_467_" style="fill:#2E2532;" d="M739,500.217v2.495C743,502.712,743,500.217,739,500.217z"/>
			<path id="XMLID_466_" style="fill:#2E2532;" d="M722.353,541.377c-0.322,0-0.883,0.376-0.955,0.835
				c-0.012,0-0.398-0.003-0.398-0.003c-1,0-1,2.495,0,2.495c0,0,1.419-0.433,1.531-0.938
				C723.625,543.289,723.809,541.377,722.353,541.377z"/>
			<path id="XMLID_465_" style="fill:#2E2532;" d="M730,549.692c-4,0-4,2.495,0,2.495V549.692z"/>
			<path id="XMLID_464_" style="fill:#2E2532;" d="M736,554.057c-2,0-2,2.495,0,2.495C739,556.552,739,554.057,736,554.057z"/>
			<path id="XMLID_463_" style="fill:#2E2532;" d="M746,558.631c-1,0-1,2.495,0,2.495V558.631z"/>
			<path id="XMLID_462_" style="fill:#2E2532;" d="M751,562.372v2.495C755,564.867,755,562.372,751,562.372z"/>
		</g>
	</g>
	<g id="XMLID_31_">
		<path id="XMLID_32_" style="fill:#2E2532;" d="M513.584,765h0.14c-2.694,15-4.039,28.967-4.039,40.294
			c0,4.365,0.23,8.774,0.696,13.322c0.185,4.365,1.484,8.984,3.9,13.904c3.806,6.037,7.333,9.459,10.585,10.295
			c1.021-10.213,1.95-18.297,2.786-24.333C531.458,795.548,535.59,776,540.047,761c1.021,0,1.811,0,2.368,0h6.546
			c10.955,0,22.626,0.929,35.348,2.879C576.88,793.035,573,813.091,573,824.14v0.975c0,8.45,2.626,15.46,7.549,21.031
			c4.548,4.365,9.228,6.546,13.872,6.546c0.927,0,1.647-0.14,2.113-0.418c-0.372-2.507-0.534-5.244-0.534-8.218v-1.113
			c0-16.992,5.681-43.037,17.01-78.135c11.978-35.746,24.985-68.894,39.007-99.443l6.55-13.544c0-1.578-4.825-2.82-14.48-2.82
			h-0.278c-7.058,0-11.421,0.779-13.092,2.263c-3.158,3.436-5.804,6.935-7.938,10.463c-10.958,18.106-22.285,47.038-33.984,86.778
			c-4.644-1.393-9.471-2.707-14.484-3.821c-14.021-2.414-23.399-3.682-28.134-3.682h-0.139c7.427-23,15.042-42.738,22.841-58.152
			c2.414-4.085,3.621-7.022,3.621-8.881c0-2.599-1.301-5.785-3.899-9.594c-0.745-0.463-1.393-1.106-1.95-1.942
			c0-0.927-5.34-1.528-16.017-1.806c-15.692,0-30.595,2.324-44.708,6.966c-11.142,3.714-20.891,9.38-29.248,16.993
			c-4.178,4.178-6.964,7.382-8.356,9.61c-2.694,4.087-4.923,8.405-6.686,12.953c-2.507,7.893-3.76,14.346-3.76,19.36
			c0,2.601,0.509,5.429,1.532,8.772c2.413,5.479,5.662,9.721,9.749,10.721h0.14c0.557-2,1.393-5.753,2.507-9.468
			c2.32-6.128,4.735-10.884,7.242-14.414c1.763-3.621,5.941-8.784,12.535-15.564c5.105-4.827,9.471-8.339,13.092-10.567
			c6.128-3.991,12.487-7.411,19.081-9.918c4.084-1.484,9.192-3.069,15.32-4.069h0.139l-3.064,7.003
			c-6.5,15.414-12.304,33.052-17.41,52.735c-0.278,0.093-2.35,0.556-6.062,1.298C494.94,747.493,486,756.823,486,770.936v0.696
			c0,4.366,1.028,9.368,2.793,15.368H489v-0.465c1-3.807,2.495-7.332,5.468-10.768C498.552,771.125,504.95,767,513.584,765z"/>
		<path id="XMLID_35_" style="fill:#2E2532;" d="M643.53,735.142c-5.665,7.058-10.41,13.743-13.753,20.056
			C621.421,771.354,617,785.097,617,796.424v1.949c0,8.914,3.028,15.042,8.599,18.385c10.955,4.087,18.83,6.128,23.381,6.128
			c5.756,0,10.831-2.115,15.103-6.202c2.692-2.877,5.259-5.684,7.582-9.684H672v0.565c0,2.416,0.644,4.862,2.13,7.09
			c4.363,5.479,10.578,8.344,18.843,8.344h1.254c4.743,0,9.835-2.189,15.272-6.294c-3.826,12.736-7.479,23.604-10.954,32.706
			c-6.498,16.713-12.487,28.512-17.967,35.754c4.272,3.343,8.914,4.834,13.928,4.834h0.139c8.822,0,15.692-4.309,20.613-13.222
			c7.428-19.499,14.437-41.895,21.031-67.336c1.95,1.858,2.925,2.87,2.925,2.962c7.243,6.222,13.74,9.35,19.499,9.35
			c3.806,0,8.866-2.17,15.181-6.537c2.786-2.135,5.989-5.287,9.61-9.466c3.621-4.735,6.546-9.329,8.774-13.786
			c7.612-15.878,11.421-31.288,11.421-46.239c-0.188-14.019-3.53-22.815-10.028-26.808c-9.471-4.084-16.11-5.917-19.916-5.917
			h-0.418c-4.551,0-8.962,1.043-13.231,3.55c-3.437-1.578-7.058-2.473-10.863-2.473c-5.014,0-9.379,1.48-13.092,4.544
			c-2.507,6.964-6.361,20.959-11.56,42.036c-1.947,7.882-3.855,15.431-5.728,22.555C710.721,792.35,704.872,797,701.33,797h-0.14
			c-0.372,0-0.744-0.219-1.114-0.497c-1.302-0.742-1.95-2.592-1.95-5.471c0-3.528,1.438-11.302,4.318-23.28
			c4.084-15.505,8.217-28.931,12.396-40.261c2.413-6.407,3.621-9.879,3.621-10.158c-3.621-2.135-7.151-3.333-10.585-3.333h-0.139
			c-2.137,0-4.318,0.414-6.546,1.341c-4.829,2.416-7.242,4.659-7.242,5.659h-0.139c-2.416-6-6.546-9.294-12.396-9.294
			c-2.229,0-4.875,0.693-7.939,1.899c-5.571,1.58-11.469,4.827-17.688,9.654C653.464,724.93,649.38,728.922,643.53,735.142z
			 M747.291,770.657c3.343-8.727,6.964-16.665,10.863-23.816c7.521-12.813,13.184-19.22,16.992-19.22c0.37,0,0.394,0.048,0.394,0.14
			c2.136,0,3.459,3.112,3.459,9.332v2.368c0,9.564-2.438,20.985-7.637,34.262c-2.416,5.758-5.49,11.003-9.389,15.738
			c-3.252,3.436-5.624,5.408-7.202,6.15c-1.95,1.207-4.695,2.39-8.316,2.39h-0.418c-0.187,0-0.557,0.071-1.114-0.022
			c-1.671-0.927-2.507-2.912-2.507-6.069C742.417,787.081,744.04,780.037,747.291,770.657z M669.436,741.27
			c4.363-2.786,7.891-4.178,10.585-4.178l0.975,0.139c2.32,0.651,3.482,2.786,3.482,6.407s-1.114,8.774-3.343,15.46
			c-3.158,8.635-7.382,17.487-12.674,26.401C659.175,800.449,652.072,808,647.151,808h-0.696c-2.043,0-3.455-2.476-3.455-7.119
			v-0.836c0-7.428,2.331-17.223,6.602-29.388c2.877-7.521,6.644-14.391,11.101-20.613
			C663.21,746.702,666.184,743.777,669.436,741.27z"/>
		<path id="XMLID_39_" style="fill:#2E2532;" d="M769.296,885.134c4.272,3.343,8.914,4.866,13.928,4.866h0.14
			c8.822,0,15.692-4.309,20.613-13.222c7.427-19.499,14.437-41.895,21.03-67.336c1.95,1.858,2.925,2.87,2.925,2.962
			c7.242,6.222,13.74,9.35,19.499,9.35c3.806,0,8.866-2.17,15.181-6.537c2.786-2.135,5.989-5.287,9.61-9.466
			c3.621-4.735,6.546-9.329,8.774-13.786c7.612-15.878,11.421-31.288,11.421-46.239c-0.188-14.019-3.53-22.815-10.028-26.808
			c-9.471-4.084-16.11-5.917-19.916-5.917h-0.418c-4.551,0-8.962,1.043-13.231,3.55c-3.437-1.578-7.058-2.473-10.863-2.473
			c-5.015,0-9.38,1.48-13.092,4.544c-2.508,6.964-6.361,20.959-11.561,42.036c-9.563,38.719-18.245,68.206-26.045,88.632
			C780.765,866.001,774.776,877.892,769.296,885.134z M836.01,770.657c3.343-8.727,6.964-16.665,10.863-23.816
			c7.521-12.813,13.184-19.22,16.992-19.22c0.37,0,0.535,0.048,0.535,0.14c2.136,0,3.6,3.112,3.6,9.332v2.368
			c0,9.564-2.579,20.985-7.778,34.262c-2.416,5.758-5.56,11.003-9.46,15.738c-3.252,3.436-5.66,5.408-7.237,6.15
			c-1.95,1.207-4.731,2.39-8.352,2.39h-0.417c-0.188,0-0.558,0.071-1.114-0.022c-1.672-0.927-2.508-2.912-2.508-6.069
			C831.135,787.081,832.759,780.037,836.01,770.657z"/>
		<path id="XMLID_40_" style="fill:#2E2532;" d="M982.947,712h-0.975c-4.366,0-8.774,2.03-13.231,5.93
			c-4.087,11.329-8.266,23.996-12.535,37.923c-2.229,9.192-6.686,18.078-13.37,26.62C935.221,791.48,929.232,796,924.869,796h-0.836
			c-2.507-1-4.033-2.919-4.033-6.819v-1.113c0-3.713,2.422-13.789,6.6-30.224c4.921-16.898,9.4-30.919,14.4-42.062v-0.139
			c-4-1.578-7.578-2.368-10.921-2.368c-6.779,0-12.169,4.132-15.976,12.396c-2.415,5.85-5.853,15.971-10.216,30.362
			c-5.479,17.643-8.241,31.385-8.241,41.226c0,7.058,1.241,12.767,3.747,17.037c3.156,5.107,7.37,7.705,12.663,7.705h0.975
			c2.413,0,5.014-0.553,7.8-1.577c3.249-1.205,8.078-4.848,14.484-10.885c4.085-4.179,6.87-7.393,8.356-9.621
			c-2.321,8.822-3.575,13.32-3.76,13.504c-6.595,25.442-12.165,43.731-16.714,54.872c-8.356,19.684-16.295,29.526-23.816,29.526
			c-1.765,0-3.695-0.791-5.551-2.369c-3.806-4.179-5.83-9.937-5.83-17.271v-1.532C888,858.263,900.541,849,925.147,849h0.278
			c-0.466-4-2.367-7.438-5.71-11.525c-6.315-5.94-13.604-8.896-21.866-8.896c-3.994,0-7.66,0.892-11.003,2.655
			c-2.877,1.579-6.22,4.23-10.028,7.943c-8.727,10.027-13.092,21.96-13.092,35.796c0,9.377,2.089,17.55,6.268,24.514
			c1.022,2.041,3.063,4.447,6.128,7.047c8.078,4.92,15.692,7.465,22.842,7.465h1.531c11.233,0,21.819-5.794,31.756-17.214
			c4.456-5.759,8.169-11.928,11.142-18.426c4.735-11.515,10.028-27.132,15.878-46.818c4.178-14.67,9.065-32.693,14.636-54.05
			C979.663,753.63,986,732.961,993,715.504v-0.14C989,713.229,986.103,712,982.947,712z"/>
		<path id="XMLID_41_" style="fill:#2E2532;" d="M575.869,1039.824c7.026-6.953,10.542-14.317,10.542-22.091
			c0-2.21-0.44-4.934-1.317-7.799C581.338,1000.772,574.71,996,565.208,996h-0.479l0.016,0.312c0.079,0.819,0.255,2.03,0.255,3.258
			v1.718c0,4.909-1.375,10.187-3.849,15.832c-1.278,2.782-3.104,5.646-5.339,8.591c-0.479,1.147-2.789,3.683-6.862,7.609
			c-7.028,5.891-13.394,8.837-19.063,8.837c-1.997,0-3.85-0.368-5.767-1.105c-6.15-3.19-9.121-8.1-9.121-14.727v-1.104
			c0-5.155,2.003-11.577,6.237-19.269c1.995-3.763,5.135-8.386,9.527-13.868c1.995-2.617,5.522-6.34,10.633-11.168
			c6.867-6.217,12.762-10.718,17.715-13.5c6.148-3.271,9.935-5.032,11.373-5.277c0.159-0.163,1.273-6.791,3.351-19.882
			c-0.081,0-0.122,0.131-0.122,0.049c-9.184,3.682-16.613,5.695-22.282,5.695h-0.839c-1.359,0-2.7-0.335-4.057-0.663
			c-3.036-1.063-4.536-2.996-4.536-5.45v-1.228c0-3.354,2.099-7.936,6.333-13.745c1.118-1.882,4.383-5.236,9.815-10.556
			C569.247,906.624,578.583,902,586.17,902h0.839c0.719,0,1.438-0.122,2.156,0.123c1.516,1.147,2.276,3.029,2.276,5.891
			c0,4.338-1.677,9.389-5.031,15.28c-1.438,2.865-4.313,6.893-8.625,11.72c4.151,2.537,8.185,3.986,12.099,3.986h1.078
			c4.95,0,9.157-2.257,12.592-6.349c2.954-4.499,4.446-9.418,4.446-14.328v-1.841c0-2.209-0.373-4.703-1.092-7.486
			c-0.799-3.108-1.884-5.292-3.241-6.93C595.68,893.23,587.048,889,577.786,889h-1.677c-8.307,0-18.088,3.044-29.348,9.507
			c-4.632,2.7-9.448,6.453-14.719,11.442C523.256,919.277,519,928.102,519,936.61v0.49c0,4.992,2.594,9.818,7.625,14.482
			c3.513,3.273,7.375,5.564,13.375,6.873v0.122c-1,0-1.89,0.656-4.765,1.964c-4.632,2.374-9.93,5.688-15.68,9.94
			c-3.036,2.292-7.081,6.057-12.032,11.291c-11.9,13.828-17.875,27.328-17.875,40.501c0,6.219,1.305,11.864,3.94,16.936
			c1.198,3.028,3.467,6.053,6.821,9.325c7.107,5.729,16.285,8.465,27.545,8.465h1.438c7.026,0,14.614-1.142,22.76-3.679
			c5.75-2.044,9.822-3.741,12.218-5.214C567.643,1046.471,571.476,1043.751,575.869,1039.824z"/>
		<path id="XMLID_44_" style="fill:#2E2532;" d="M727.88,975.146c0,0.165,0.159,0.701,0.479,1.438
			c3.034,6.22,6.907,9.416,11.62,9.416h0.838c4.552,0,8.904-2.828,13.058-8.311c3.432-5.563,5.15-10.967,5.15-16.122
			c0-2.862-0.52-5.608-1.557-8.145C753.635,944.505,745.13,940,731.953,940h-1.078c-12.619,0-23.718,4.646-33.301,13.892
			c-7.108,7.773-10.661,16.131-10.661,25.048c0,5.434,1.313,10.278,3.927,14.525c-0.696,0.922-1.483,1.79-2.37,2.974
			c-10.781,13.828-18.168,20.562-22.161,20.562h-0.12c-0.32,0-0.64,0.06-0.958-0.186c-1.119-0.654-1.677-2.159-1.677-4.696
			c0-3.108,1.237-9.895,3.713-20.449c3.513-13.663,7.068-25.463,10.661-35.446c2.076-5.646,3.115-8.373,3.115-8.618
			c-3.115-1.881-6.15-2.605-9.104-2.605h-0.12c-1.838,0-3.713,0.281-5.63,1.098c-4.153,2.129-6.229,3.902-6.229,4.902h-0.12
			c-2.078-6-5.63-8.422-10.661-8.422c-1.917,0-4.192,0.495-6.828,1.557c-4.792,1.392-9.864,4.196-15.213,8.449
			c-1.997,1.473-5.51,4.942-10.542,10.422c-4.872,6.22-8.843,12.106-11.718,17.668C597.692,994.91,594,1007.016,594,1016.997v1.718
			c0,7.854,2.494,13.255,7.286,16.2c9.422,3.602,16.14,5.399,20.053,5.399c4.951,0,9.288-2.021,12.962-5.623
			c2.315-2.535,4.496-4.692,6.493-8.692H641v0.814c0,2.129,0.595,4.077,1.874,6.041c3.752,4.829,9.139,7.145,16.248,7.145h1.078
			c5.589,0,11.739-3.298,18.447-10.09c4.232-4.909,7.506-9.402,9.823-13.575c3.468-6.612,5.882-12.256,7.259-16.993
			c2.979,2.781,6.696,5.24,11.189,7.334c14.213,5.811,21.322,10.929,21.322,15.347c0,1.393-0.56,2.427-1.677,3.488
			c-2.955,2.455-6.789,3.489-11.5,3.489h-1.078c-5.031,0-7.546-1.891-7.546-4.591c0-1.799,1.198-3.91,3.593-6.529
			c-3.435-3.763-6.789-5.596-10.062-5.596c-2.716,0-5.192,1.049-7.427,3.093c-3.594,3.927-5.391,8.235-5.391,12.898
			c0,2.455,0.678,4.793,2.036,7.002c4.472,6.627,11.659,9.943,21.562,9.943c7.188,0,13.417-1.511,18.687-4.54
			c7.745-5.234,11.62-12.067,11.62-20.494c0-7.935-3.794-15.135-11.38-21.599c-4.234-3.191-8.226-5.645-11.979-7.364
			c-7.108-2.617-10.661-6.136-10.661-10.555c0-4.253,2.915-8.747,8.745-13.412c7.667-5.48,14.414-8.257,20.244-8.257h1.677
			c5.669,1,8.505,2.041,8.505,3.839C746.208,965.785,740.099,969.911,727.88,975.146z M648.939,984.105
			c-2.716,7.609-6.349,15.311-10.9,23.165c-7.987,13.175-14.096,19.729-18.328,19.729h-0.599c-1.757,0-3.112-1.983-3.112-6.076
			v-0.736c0-6.545,2.074-15.176,5.749-25.896c2.474-6.627,5.749-12.681,9.583-18.164c2.156-2.945,4.69-5.522,7.486-7.731
			c3.753-2.454,6.816-3.682,9.134-3.682l0.853,0.123c1.995,0.573,3.002,2.454,3.002,5.645
			C651.807,973.674,650.856,978.215,648.939,984.105z"/>
		<path id="XMLID_47_" style="fill:#2E2532;" d="M975.483,1020.549c-4.153-3.191-8.466-4.549-12.938-4.549h-1.317
			c-3.994,0-8.266,1.072-12.817,3.689c-2.477,1.064-7.268,5.117-14.375,11.908c-3.354,3.519-5.95,5.403-7.786,5.403h-0.359
			c-0.161,0-0.669-0.326-1.067-0.491c-2.396-1.473-3.823-5.807-3.823-12.517v-0.245c0-4.419,0.708-9.858,1.667-16.323
			c1.836-9.653,3.771-16.526,5.288-20.618c5.19-15.299,8.045-26.304,8.045-33.014v-0.123c0-8.181-3.659-12.272-10.685-12.272
			c-4.552,0-11.215,1.678-19.36,5.032c0.239-1.554,0.045-3.108,0.045-4.664v-1.841c0-1.881-0.039-3.763-0.596-5.646
			c-2.156-5.809-6.149-8.714-12.217-8.714c-0.161,0-1.017,0.083-2.695,0.245c-4.233,0.656-7.788,2.332-11.142,5.032
			c-4.393,3.11-6.35,7.446-6.35,13.009v1.228c0,2.619,0.35,5.277,1.469,7.978c1.678,3.765,3.729,6.301,6.365,7.609
			c0.719,0.245,1.026,0.695,1.026,1.35c0,1.801-1.304,5.811-3.859,12.027c-4.073,9.41-8.758,18.409-14.029,27
			c-0.239,0.245-0.446,0.533-0.605,0.859c-0.421,0.576-0.804,1.156-1.164,1.759c-12.923,12.237-23.321,18.34-31.185,18.34h-0.479
			c-1.278,0-2.635-0.271-4.072-0.845c-4.552-1.963-6.828-6.135-6.828-12.927c0-2.945,0.479-6.227,1.438-10.227h0.719
			c8.625,0,18.247-2.774,28.869-7.929c13.416-7.609,20.124-16.87,20.124-27.59c0-6.382-1.877-11.217-5.63-14.409
			c-4.153-3.599-8.864-5.424-14.135-5.424c-8.705,0-18.528,5.43-29.468,16.31c-4.792,5.154-8.505,9.609-11.141,13.372
			c-5.688,8.67-9.749,16.787-12.196,24.236c-10.683,13.566-17.886,20.433-21.584,20.433h-0.479c-0.32,0-0.599-0.103-0.839-0.186
			c-1.197-0.653-1.797-2.364-1.797-5.063c0-4.499,1.797-14.13,5.391-28.858c5.11-18.734,10.661-35.231,16.65-49.467
			c12.058,2.455,20.644,3.678,25.755,3.678c2.795,0,5.031-0.287,6.708-0.86c1.276,0,2.636-1.515,4.073-4.542
			c3.193-8.509,4.791-14.237,4.791-17.182c-0.08-0.246-0.2-0.487-0.359-0.487c-1.997,1.392-5.072,1.967-9.224,1.967h-1.557
			c-4.234,0-11.38,0-21.442-2h-0.12c1.995-4,4.271-8.501,6.828-12.839c0-1.228-3.994-2.161-11.979-2.161h-1.318
			c-3.833,0-6.229,0.732-7.187,2.205c-3.276,3.765-5.791,7.795-7.547,10.795h-3.714c-6.549,0-11.92,0.79-16.312,2.426
			C754.252,917.944,750,924.46,750,934.033v2.945c0,0.328-0.159,1.021-0.079,2.021h0.24c0-1,0.279-0.959,0.838-1.861
			c2.954-4.664,8.385-7.139,16.292-7.139h0.719c0.159,0,0.318-0.04,0.479-0.122c0.079,0.082,0.199,0.122,0.359,0.122h1.438
			c1.678,0,3.034,0.074,4.073,0.237c-4.393,11.291-8.405,22.742-11.919,34.359c-7.588,26.837-11.439,45.938-11.439,57.31v1.718
			c0,4.828,1.297,8.388,3.773,10.677c3.992,3.765,9.133,5.646,15.363,5.646c3.833-0.49,7.041-1.451,9.598-2.884
			c2.555-1.431,5.836-4.274,9.83-8.529c2.56-3.022,4.766-5.962,6.628-8.825c1.136,4.76,3.56,8.834,7.273,12.411
			c6.229,5.319,13.299,7.881,21.205,7.881h1.078c3.992,0,8.224-0.68,12.697-2.236c11.659-4.09,21.641-11.856,29.947-23.393
			c1.738-2.576,3.256-5.099,4.601-7.622c6.661-9.625,12.085-18.768,16.242-27.441c3.594-8.591,5.948-13.762,7.067-15.808
			c8.225-3.762,13.456-5.499,15.692-5.499h0.6l0.599-0.018c0.958,0.41,1.438,1.28,1.438,2.753c0,3.027-2.287,10.642-6.438,22.915
			c-5.989,17.347-9.192,30.483-9.192,39.482v1.719c0,9.081,3.003,16.629,8.594,22.438c5.43,5.074,11.188,7.711,16.859,7.711h1.438
			c4.631,0,9.063-2.188,13.297-6.36c2.635-2.7,5.51-6.188,8.625-10.36c5.51-7.526,10.58-11.316,15.213-11.316
			c1.117,0,2.354,0.275,3.713,0.847c2.475,0.981,3.714,4.125,3.714,9.444c0,1.718-0.2,3.432-0.599,5.151
			c-3.834,11.701-11.58,17.548-23.239,17.548c-5.432,0-29.629-1.347-72.592-3.556c-65.085-3.437-116.794-5.397-155.126-5.397h-2.516
			c-64.126,0-108.847,4.66-134.163,13.496c-6.628,2.374-12.091,5.233-16.565,8.344c-7.826,5.726-11.653,11.615-11.653,17.425v0.859
			c0,2.7,0.674,5.317,2.19,7.854c2.156-0.818,3.232-1.27,3.311-1.35c11.5-4.501,27.769-8.756,48.852-12.764
			c44.722-7.774,104.085-11.659,178.115-11.659c33.382,0,70.271,0.776,110.679,2.332c30.585,1.308,46.515,1.963,47.793,1.963
			c9.583,0,17.168-1.392,22.758-4.172c5.669-2.783,10.047-7.241,13.083-13.378c2.795-6.462,4.219-12.027,4.219-16.69v-2.087
			c0-1.881-0.227-3.726-0.625-5.771C982.617,1028.612,979.635,1023.739,975.483,1020.549z M827.784,981.405
			c2.235-4.335,5.75-9.49,10.542-14.973c6.786-6.791,13.057-10.433,18.807-10.433h0.119l1.075,0.368
			c1.198,0.411,1.673,1.311,1.673,2.21v0.491c0,0.981-0.356,2.343-1.314,3.979C850.301,975.649,840.44,982,828.862,982h-1.078
			l-0.239-0.175L827.784,981.405z M894,943.851c0,3.437-1.77,5.149-3.447,5.149h-0.359l-0.839-0.12
			c-2.077-1.145-3.354-2.614-3.354-4.415v-0.736c0-2.044,2.038-2.729,5.152-2.729h0.359c1.916,0,2.488,0.685,2.488,1.992V943.851z"
			/>
	</g>
</g>
<g id="XMLID_2_">
</g>
<g id="XMLID_3_">
</g>
<g id="XMLID_4_">
</g>
<g id="XMLID_5_">
</g>
<g id="XMLID_6_">
</g>
<g id="XMLID_7_">
</g>
<g id="XMLID_8_">
</g>
<g id="XMLID_9_">
</g>
<g id="XMLID_10_">
</g>
<g id="XMLID_11_">
</g>
<g id="XMLID_12_">
</g>
<g id="XMLID_13_">
</g>
<g id="XMLID_14_">
</g>
<g id="XMLID_15_">
</g>
<g id="XMLID_16_">
</g>
</svg>
