<?xml version="1.0" encoding="utf-8"?>
<!-- Generator: Adobe Illustrator 23.0.1, SVG Export Plug-In . SVG Version: 6.00 Build 0)  -->
<svg version="1.1" id="Layer_9" xmlns="http://www.w3.org/2000/svg" xmlns:xlink="http://www.w3.org/1999/xlink" x="0px" y="0px"
	 viewBox="0 0 714 714" style="enable-background:new 0 0 714 714;" xml:space="preserve">
<style type="text/css">
	.st0{fill:#010101;}
	.st1{fill:#A21D21;}
	.st2{fill:#84A1CB;}
	.st3{fill:#FFCA57;}
	.st4{fill:#AF78B3;}
	.st5{fill:#A199CB;}
	.st6{fill:#828383;}
	.st7{fill:#6D6E6E;}
	.st8{fill:#CB2128;}
	.st9{fill:#FFFFFF;}
</style>
<metadata><?xpacket begin="﻿" id="W5M0MpCehiHzreSzNTczkc9d"?>
<x:xmpmeta xmlns:x="adobe:ns:meta/" x:xmptk="Adobe XMP Core 5.6-c145 79.163499, 2018/08/13-16:40:22        ">
   <rdf:RDF xmlns:rdf="http://www.w3.org/1999/02/22-rdf-syntax-ns#">
      <rdf:Description rdf:about=""
            xmlns:dc="http://purl.org/dc/elements/1.1/"
            xmlns:xmp="http://ns.adobe.com/xap/1.0/"
            xmlns:xmpGImg="http://ns.adobe.com/xap/1.0/g/img/"
            xmlns:xmpMM="http://ns.adobe.com/xap/1.0/mm/"
            xmlns:stRef="http://ns.adobe.com/xap/1.0/sType/ResourceRef#"
            xmlns:stEvt="http://ns.adobe.com/xap/1.0/sType/ResourceEvent#"
            xmlns:illustrator="http://ns.adobe.com/illustrator/1.0/"
            xmlns:xmpTPg="http://ns.adobe.com/xap/1.0/t/pg/"
            xmlns:stDim="http://ns.adobe.com/xap/1.0/sType/Dimensions#"
            xmlns:xmpG="http://ns.adobe.com/xap/1.0/g/"
            xmlns:pdf="http://ns.adobe.com/pdf/1.3/">
         <dc:format>image/svg+xml</dc:format>
         <dc:title>
            <rdf:Alt>
               <rdf:li xml:lang="x-default">Mobile</rdf:li>
            </rdf:Alt>
         </dc:title>
         <xmp:CreatorTool>Adobe Illustrator CC 23.0 (Windows)</xmp:CreatorTool>
         <xmp:CreateDate>2022-11-12T23:03:56+02:00</xmp:CreateDate>
         <xmp:ModifyDate>2022-11-12T23:03:56+02:00</xmp:ModifyDate>
         <xmp:MetadataDate>2022-11-12T23:03:56+02:00</xmp:MetadataDate>
         <xmp:Thumbnails>
            <rdf:Alt>
               <rdf:li rdf:parseType="Resource">
                  <xmpGImg:width>256</xmpGImg:width>
                  <xmpGImg:height>112</xmpGImg:height>
                  <xmpGImg:format>JPEG</xmpGImg:format>
                  <xmpGImg:image>/9j/4AAQSkZJRgABAgEASABIAAD/7QAsUGhvdG9zaG9wIDMuMAA4QklNA+0AAAAAABAASAAAAAEA&#xA;AQBIAAAAAQAB/+4ADkFkb2JlAGTAAAAAAf/bAIQABgQEBAUEBgUFBgkGBQYJCwgGBggLDAoKCwoK&#xA;DBAMDAwMDAwQDA4PEA8ODBMTFBQTExwbGxscHx8fHx8fHx8fHwEHBwcNDA0YEBAYGhURFRofHx8f&#xA;Hx8fHx8fHx8fHx8fHx8fHx8fHx8fHx8fHx8fHx8fHx8fHx8fHx8fHx8fHx8f/8AAEQgAcAEAAwER&#xA;AAIRAQMRAf/EAaIAAAAHAQEBAQEAAAAAAAAAAAQFAwIGAQAHCAkKCwEAAgIDAQEBAQEAAAAAAAAA&#xA;AQACAwQFBgcICQoLEAACAQMDAgQCBgcDBAIGAnMBAgMRBAAFIRIxQVEGE2EicYEUMpGhBxWxQiPB&#xA;UtHhMxZi8CRygvElQzRTkqKyY3PCNUQnk6OzNhdUZHTD0uIIJoMJChgZhJRFRqS0VtNVKBry4/PE&#xA;1OT0ZXWFlaW1xdXl9WZ2hpamtsbW5vY3R1dnd4eXp7fH1+f3OEhYaHiImKi4yNjo+Ck5SVlpeYmZ&#xA;qbnJ2en5KjpKWmp6ipqqusra6voRAAICAQIDBQUEBQYECAMDbQEAAhEDBCESMUEFURNhIgZxgZEy&#xA;obHwFMHR4SNCFVJicvEzJDRDghaSUyWiY7LCB3PSNeJEgxdUkwgJChgZJjZFGidkdFU38qOzwygp&#xA;0+PzhJSktMTU5PRldYWVpbXF1eX1RlZmdoaWprbG1ub2R1dnd4eXp7fH1+f3OEhYaHiImKi4yNjo&#xA;+DlJWWl5iZmpucnZ6fkqOkpaanqKmqq6ytrq+v/aAAwDAQACEQMRAD8A9U4qp21zDc28dxA3OGUB&#xA;o33AZT0YV7HtiqpirsVdirTuERnNSFBJoCTt4AYqtgminhjnhcSRSqHjddwysKgj5jFV+KuxV2Ku&#xA;xV2KuxV2KuxV2KuxV2KsEEry+UPMRmkZ+F5KiF2JoFMZVRU+OZtVkj7lQEHnDzBaQpYL6blTDHBK&#xA;FAADRVEdWIWv2ak5M4Ik2qA/Sl3b6xJfMEe6EwmkCElC6QkkAq1CpLHLOAGNdFTiHzZ5mkt4Llpr&#xA;eO3nljh9RgjFTKpHNlU1VVdGpXKThhdbqidN8z+YZNag0+ZoiqGETuwVC6SivOhIPI81oFyM8MOG&#xA;1ZxmGrsVdirH/PfnfRvJPlm58xawJGsrVo1aKAIZnaVwgCLI8asRXkRy6A0xVj1/+ef5e6X5h1XR&#xA;dYvxp76ZDbXEdy6vJHcx3SRsDB6SuWK+slV671AoCQqgbv8A5yV/J2COsesyXUxdY0tobS7DszuU&#xA;ABkijTqjdWHT5YqlWi/85ReQ9U0y3uBBcw6hdXsFpBphQtIUuJvRScygeiBUNVedfhPsSq9jR0cc&#xA;kYMviDUY0reKsP8AN/mGSGHzBp8b8ZIdNjlhHf8AevJHKw77BkxVkHl2aKfQNNlhIMb20JWn+oNv&#xA;oxVMMVdirsVWySJHG0kjBUQFnY9AAKknFWBeSvM5Gl6FaHb65eXUKKdz6KK8i/8AAuyL8sVZ/irs&#xA;VeTy/nt5d1DzDd6JYaxDoFxpnrJqDa3p8rx+tDIUaNJEu7YBlVS5FD8PxV2OKoi4/Mm4XR9S1Wy8&#xA;2aNqkGk2zXt5FY6TczSrbo5jeQL+klqqsjV37HwxViF3/wA5JQ29m93+k0kgT1V5jQJ0RngIEkay&#xA;S6tHGzgMh4hq0dfHFU20387bu+0Sw1k6tbW1nqWpto9r62iTcjcoBu3p6rIFQswUMT1xVMYPzd09&#xA;7WKebz95ctWkhjnaC40+ZJYxLH6oSRf0kaSBagrWvIU64qyHSfzS8loWs9U84aLdagJmi5WxFrGO&#xA;LKnDjJPc7h2py5036YqzfFXYqpWl1DdW0dxC3KKVQynvv2PuOhwyiQaKAbYOPMdlaPqthLpwuoTd&#xA;XDOihEUrCRXn/N8+uZnhE0brYJTPWtR0TT9Ms1GlRz2d0v1kQ/u140VTy40JLUbr+OV44SkTvuFS&#xA;5/MnlqOU3L6KFIlmRJgE3e2RSNu32x8vfLPCny4vwVU08w6RD6+nzaRFKGuiPqkCCgC8VB6fvGqx&#xA;psMPhSO99FRGha7Dc3lh9es45tSmLKl8ypGeKyMlEotCVA6VrvkcmOgaO3crN8w1diqncGcQSG3C&#xA;mcKTGHrxLdgaeOEVe6C8v82a7NcMthrWjxXVtHI8sdtfozcHeN4TxdHCyD05XAJXv4iuZ8NLCQu/&#xA;k4ss8onklk+jeSrqyg1eLy3aCcCCw1OaSP6y6Q2axm1CCVj8KiBa/wCrQnIjSgSIPwZeOSLHxSqX&#xA;yN+XSQGRPLWmyxaZ6HDgkgWUzr+8apYMOnw+HXrkhpo8u+0HMfkutvJHkWBLKaDy7Yxy2uofV7aQ&#xA;JIGRUdZVIPPqJDy329sfy8b+Fr40vtZVo/nA6F5at4LeFZruaWV6PXiqAgV2oSScnk0/HMk8mEMv&#xA;DEJroXnDzHrF0ojtAwU0AjUpCvIU5yyMzEhdzwAFcqy6eEBzbIZZSPJjH5jXMk7WvmSxP7uWB9O1&#xA;OEbmKUcg8cq9tmIH+rUdswXJQ35efmbBooGkasT+jWJa1uR8Xp8jVgQOq1323GKoLzJ+e/ma81i4&#xA;s/KNojWVqJG9cxNPLJHECXl49EQAV6dOp7ZrcmrkT6eT2mk9ncMcYlnPqNbXQF9Pevj/AOci9Sg0&#xA;aeC90lR5ihf00+0lvtUMZEJ9RWUinEHfxGEayVct0H2XgcgMZ/uj8/h0+KV6H/zkR5oh1FG1mCC7&#xA;092HrJCnpyopPWM8qGng3XxGRjq5g77uRqPZjCYfuyYy89x8WV+fvzWsb+0bSNAkMsVwv+lXlCo9&#xA;M/aRQQDv3P0ZsgbFvDTgYkxPMJd+XMqvqMes38oi0jQYZODt9jnLyoq1+07F2Yd+nthYvarOaSa0&#xA;gmljMUkkau8R6ozKCVPy6Yqq4q+e7j8vfKf5gfm756tYfrdqbRrcX2pwNF6XrSWDWU9usbR7FklZ&#xA;uZY/GrbU6qsjH5d+V/yr8ueZtfmurzVtPubF7F9MkEQLLc3UjRwRsqg1eW8KVavWvtirDdE/Ir8v&#xA;LzyxoujXXmG/tL/zZEl/pVnMYXkAt7QC5WHjGEYNE0ZZjuQikd8VZNrf5Pfl/wCXPIlv5b1zX7qH&#xA;T5766mtX4Bp5Lm7hPFI44kd2MToJV4r+zvtirzny95c/JTUJH02wvNc1G/v7uDUkkjs4TM376Wxl&#xA;gog5cJuUszV+BIzUUaoKr13yn/zjn5M8t+Y7fW4Jpbw2s13NDa3UcEkY+t8eIJ4Bj6PD4GJrir1b&#xA;FVsiCSNkaoDgqSCQaEU2I6Ygq8v1XU9c8uaxMLW8SRXctJCVZQ5J+28TAAM3do9jm0hCOSO4cKcp&#xA;QOxTXy2nl3XYLq9vbX6pO0rLNIZiIpJLipbhUihNPs5Tm44EAG/2N+PLxDdE3dz5Tu7iW01VGtjp&#xA;vO0gHOQ84o+ND8I69KDfIxEwLjve7csmXyS1pKLOcGdEmniMizyIHuFEbF14nrRduvemI8S9/wBC&#xA;obR28sfUYJNUula6jmJWaATqWE4I4yOEUvy4NWvbbJT479I2+Co+zg8hC+08wSv9YVx9UVvX+Ji3&#xA;JCeQ/mb4SeuQkctG1ZdPPFBE0srcUWlT8zQD5k7ZigWgml+BLsVYJ+ZPnmXytqnl1Y7d7gXsl9Lc&#xA;JEsZZ4bGxluGSriq1IDVU9vA42rHfIHnHT/zMs7afVdKjtb245TwnTLgXKx2zoRyvJFVPRkLxmMI&#xA;/wATH7I4hiLceaUOTCeMS5sZ83fmroPl78y7nyWnlxrqO0utItpZluXRGiukQtLKpVqmIzxqq1+K&#xA;pqdsl+Yn3o8KK/T/AMyvLWrXVjc23lu8hTWdem03Rp5boRQTsgYidao1AZUCOqgha/aJ+HCNTOqR&#xA;4Mbt2j/m/Mnl86Fp/l+60zzPLoeq6jd6g4DW2nm2WZIpvVYMZITPARXoDQDkTleTKZmyzjAR5Mz/&#xA;ACa89vqXl3TtG1dbt/NVpJc6frDXCRB/rNhHFJcO7RuwKr9aiTl9osdwMrtk1+Z/lSz5yanbTy6e&#xA;9woN5II5JLWQqaj1fSDsjbdStD864q8VvIUSVgs0cgB6x8wD8gwGJCQaNonyBY64upXv6LW1MixK&#xA;lxJeMqoLdnq5HIH+QVYbrmmlCUZU+hajW4M+GEyZUekefFXL8c2f+ZLjzdpVja6gseglrt2ivAIQ&#xA;FC3CxRiXlNI7uFJ4MyeI+1+zOVgX6XWaWODJIxvL6eW/dZrYUO8A/Z1IPzgTX3i02O4tNPtdPkdz&#xA;ZQ2lDOnFERhKQFSm1f3Yp0r+zjkiSQKHwcnsnPgxRnMylcR6jLlzPLr89+7qxGzgWkaGVFAop58q&#xA;bbVNBm0hGgA8ZqcviZJT/nSJ+Zeu/lp5Rs7u4gu7y4k1CC3PqwxRRSJaJIP52mWPkenwoD77ZJpe&#xA;wYq7FXzrrH5I/mbf+Z/OUtjfLpmlatNd3FvIlyVa9S7kgY2siqrGJOETqXPxfZH2QcVZX+ZHkjzR&#xA;N+SlxpKGfUdXS6tbuSziaW7YxR3cbC3j5UaQQwqOw5lS1KtirGIvyW876VZXPmJ9RZ/MGn30d1p7&#xA;T6hwijtfrJa7fmIo0g52PpwsgqoCMRsVAVYb5U/LXzvrOrz6Noms3A0/TU0q9uLmSWaz5StDeRW9&#xA;5bK/rSqvKk7RuoMnX4Ay4qhvKXljzhrWoR+WH0+8tPTW0tT6rTWUc0OkXVzd3qmeON/TrPOighft&#xA;spp3xS9B/LT8n/zM8u+fZtXvrtU0/VLq6fVZIZ6H0ob03VuI0BJ43L9RWoRnDdaFQ+gMVdiqB1q7&#xA;0y006WbUuJsxQOjDkGqdl4/tV8MnjjImo82MyAN2I6nPYarrNnbWoUabFZmVCF4Rx+o/GWRgQAvC&#xA;NWpX9qmZcAYxJPO2iREpADlSO1byv5eEN5qmoXcy21yTIG/ZjaZl+JVCljWijftlcM07EQN28yAF&#xA;lCTWHli0t9QVtTuYoIXhgvYl4gNKn2KDhvUA7Db7smJTJGw8mJyRF+SGXTfKsSq6X90y28lrISqr&#xA;9qV3aLqux+M1yXFkPQdV8UNatZ+XvK09rdJJcXV7E7+lFVAhK0bizcfhA5/s7744zPKCNgEZMoio&#xA;6XreveY9Vh9WWG3t0esMfNQquN+QiJ5yuo3WuwO+Snjhji0RnKZekgUAHh9Oa5zHYqxvzt5T8p+Y&#xA;reyj8xELHZzma2f1vQY8o2jliLAqTHLE7JIvdcIBPJIBPJ5X+WmtWHk7zt+YVlPftdaLFdNdS3k7&#xA;Kk0moemJGihhXikkkylx8PxO0R2pQAKmOpeTPyq85Xcvmq61qWwv/ONppd7p0Alhgv4jaEGF7eJh&#xA;Izs5CIVCtuPh3IxQ851XVPyxSfTLLQPLuuovqafeeXbuG8iWS0nub8wcrWFvrqxtNJC7Osi8mZeJ&#xA;VRQhV6Zoml/lLrKeWnu7iHTdUWzTTrbSBqMMzXdpFeEwwXRiZo5yZ4Obop+2WVq74qzHyt5F8qaF&#xA;5p1rWNOvJJ9S1iaa6ntZZo5Ege4MbXBhjVVZRKYYi/In7K9BhoposwwIY9qX5f8Ak7UnL3Olxeoa&#xA;/HFWI1Pf92VBPzxVj+t/kj5Lv9LntraFrS8YVtrsOzGNx/kk0ZT+0PuplObCJjzdh2d2jPS5OKO8&#xA;TzHe+fr3yH5otPNA8tPZs+qO3GFE3SRD0lVjQcKCvLt3pTNWcchLhrd9Ex9o4ZYfG4vR93l73vPl&#xA;f8jfK2naPFDqkZvdTf4rm5V3VakfYRQR8K+JFT+GbLBg4B5vA9q9qz1U+6A5D9J82Sad+W/kqwdX&#xA;h0uN5F/amLS/8K5K/hmQ6lkiIiIERQqKKKqigAHYAYq3irsVSnW/KHlPXpIpNd0Sw1WSAFYHvrWG&#xA;5KBjUhDKr8QadsVSz/lVP5Xf9Sdof/cNtP8AqniqF1b8n/y6vNKvbOy8vaZpVzdQSwR6jZ2NtFPD&#xA;6qFCyMqKejUIruNu+Kusfys8tSveXnmmzs/M+sahP9Yur2+s4XReKLFHHbwyCX0o0jQCnIkmpJNc&#xA;VRX/ACqn8rv+pO0P/uG2n/VPFU70bQdC0O0NnounWumWjOZGtrOGO3jLsACxSNVXkQo3xVHYq7FU&#xA;r8xaTNqdlHHCyCaCaO4jWX+7cxmvF9m2Pyy3FPhO7DJGwxm28ttp3mWwRoA8NxGWmEakweqrOzAg&#xA;ilE5KUJ8MyTm4oFpGOpBknmm0hutGlillENGjdGYFgWVwVXivxNyO1BvmNgkRJuyCww/TNAvb/V9&#xA;Sc/Dc2txaXT285pFKzozSCQKH4k8vfjWmZk8ojEdxBDjxgST8Eyb8v5UhcW9yiMywSiOjBPrMFdy&#xA;dzwIZh7ZV+a7x3/Jn4DIF0GzubH0dUgiuJHkkmk2JCvIxNEYhW+EUWu1aZR4pBuJbeAEbomx0jTL&#xA;BQLO1jhIHEuqjmR/lOfiP0nIyySlzKYxA5IvIMnYqluu+XdL1y3jgv0LJE4kQqeJBHUV8GGxycMh&#xA;jyZwyGPJ5FJ/zjuNV8+aprWsXSjSTqy6hZWYBlE0TqjyrTlGYH5xqnIVJUe4pBiwzzv+U9pD5mNv&#xA;Y3Ls1x5js7QXEaiCOxF7etqMdvaRDkzTW8F3JI7cljEfGi891UIy4/Ibzv5P1rS5vKVvFrVlZ/o6&#xA;/vnZo7X1bjTbqVvRiieVuBljnWT7XHkrbryC4qmkf/OLE0FxpF5a6/HBfaLaWsVhOlqAIrm3vluz&#xA;NxVl5lhzBZmqWNdh8IVey6H5L0HRLiO4sImSSO2jtE5NUCOJQgNP5iFFT7fPJnITGujM5CY8PRPc&#xA;gwdirsVWGCAzLOY1M6qUWUgcwrEEqG60JA2wULtPEarovwodirsVdirsVdirsVdirsVdirsVdirs&#xA;VdirsVSjWTLHqOn3Rt5bm1gExdIV5sJWVRG3H5cxXtXLse4Iui1y5gu8u6ddW8V1d3qhL3UJmnmj&#xA;BrwXokdR14rjmmDQHILjiRueZTfKWx2KuxV2KuxV2KuxVJf8GeW/8Rf4iNoW1bmZVlaWZo1laFbc&#xA;yrAXMKymGNYzIE5cdq0xVOsVdirsVdirsVdirsVdirsVdirsVdirsVdirsVdirsVdirsVdirsVdi&#xA;rsVdirsVdirsVdirsVdirsVdirsVdirsVdirsVdirsVdirsVdirsVdirsVdirsVdirsVdirsVdir&#xA;sVdirsVdirsVdirsVdirsVdirsVdirsVdirsVdirsVdirsVdirsVdirsVdiqW+YvMej+XdMfVNXm&#xA;e3sImVZZ0ilmCcjQFhCkjKtduRFMVRlndxXlrHcxLIsco5Ks0UkEgH+VHKqSL8mUYqgNW81eX9J1&#xA;LTdM1G9S3vtXkaLToGDFpWXiD9kEKKuq1agqQOpGKprirsVdirsVdirsVcCD0Ne33Yq7FXYq7FXY&#xA;q7FXYq7FUBD5g0GZmSHUbWRkuWsWCzRki6SnODY/3q13TqMVR+KuxV2KoDQ/MGia9Y/X9GvodQs/&#xA;UeH6xbuHTnExV1qPAj7t+hxVH4q7FXmGpfnRHp35tf4JubOP9HtbTSR6gkoMpuILYXTw+l0+waCp&#xA;FW2xVNPIX50eTPPGqHTNF+tLc/Uv0iv1mH0laATGAlDU8qPStNt+tagKpCP+cm/y2WWaCdNStriG&#xA;ZIPQmtCsjGSR4uQQMWADx0IajdNsVQOt/wDOUPk2LR2utCtp7+9QJJNb3Sm0jgiN4tmzzyHmVqxJ&#xA;UKrHxAxVDX//ADk5oV/5h0DSPKUf1sahrVppl7PdxsqG2upmhM1sUkrUMhp6gHbbFXuGKuxV2KsA&#xA;/PuFpvyl8wKu3FLeQ/KO6ic/guKsR/KHUPzu/wAUy2fmqO4l0SczTpc3cQX0YoLi8g9AP8NZJJDC&#xA;69axAEfDiqY+dfMOjWf5wwXEl9ZxXOh+V9RuGF1NHGiTyT25gSQsw4lgpbftuMVYnosv/OSGqJZr&#xA;qNzMG1C2eazmNtBFApWC8WSO8WLiqs7Sw+lVqMQrdmxVIrDV/wDnI3TI7n1mubHS0BtC94tsi2aQ&#xA;R2MjSiVw0K+pC0iRfa+MsAOeKvZfyP8AMHm7zD5Fg1jzNcxXVxPNcRW8scXou8dtO8JklQKiqzOh&#xA;ooXZQO5OKvQMVdiqyaaKGF5pWCRRqXkY9AqipP3Yq+PvIba235J675p1PUbyx0+CW7Hl6ys7iS3k&#xA;vNavW4Jcs0JSSQQuyCOOpHJXJxVnU/50641vqd/N5rt9N03y+9jpX1ay0/8ASV5fajPC3qFvVMCU&#xA;9WGYL6Z4ngaN05Krk85fmdrP5o+VINK1i2lil0i8vhbz213p1s1Ge3cahaLcT8pYpYmA4txruNji&#xA;r0W88zXnkX8tRrusa3F5iup54pU1B1aG2kF/cKVSH6ulwyxJHIfT+10Hboqpn8/vy7HmlfLBnuBq&#xA;r6s2hqno1Q3ausZ+IH7HqOFqe/bFXodvc21zH6tvKk0YZ4y8bB15xsUdaiu6upVh2IpiqpirsVfI&#xA;mi2dvfeXdVvli/S3mPUtXvdYn4MJG0nSbC+N1czcqH0ri7mtfTQn4nHGmy4qzef/AJyV8226aVCf&#xA;K0d3qep6RHqJsrSVpGgku7kw2bSEVHpyI8L8PtfvBuMVV7T/AJyL8wLosM1zpdm89t5budY1i7Ex&#xA;WOK8WeW0s4hEDzpPPEgK1qPVB2A3VSu//wCcgPMuuaLraXujjQNHuPLepm2uZSxmfUEt4XieM0oI&#xA;3S/g4ruQW+1iqVfk9+cF5oWj6B5K0nQ4pnlu0F5q7XCiIWzW31q5lkIAVJ7eEVdCx4qvE1bFXof5&#xA;Ief9Zlt4PKHmFrnUPMcMhmn1C4k5F7W7tv0hFIylVZPTS4hiaNiaM3Wgpir2PFXhPmb8sfytl1T1&#xA;L3zjp2m+dYNYOo3eovLapdMZ2kkjtJIHlBCUlAWu5UAdKUVb/Lfyd+V/kvVbXVIPP9leSNocul26&#xA;tc2kLtbyXTXf1hOMhaqcSvTtXFXn6/lX+Ui6JbeYovzEN1FbQSy2VlL9Whubs2VzJcFYoZHjkZpH&#xA;DBaqSeVe+KpBH5Z0kp5b1HSki1PQtTKT+anv720s5Iree9E8Vvdr6v8Ao684zIko+3XjvShVen+W&#xA;vyT/AC1tNf0a00rz1b3Mtlq8GuaRpEb2LzyJAPrKxsY2E04MfxBzUKtSoFTVV9C4q7FXYqpXdnaX&#xA;lu9teQR3NtJQSQTKsiNQ1HJWBB3GKvLfzk/NXU/IeraNDpkCXkbWGpXt1pdOBlW0WL0uMnFuAjVp&#xA;ZGp+ynyxVj/kn84fLV3+nb3z/NaJeLfTXWkWDWYkube0trOC5MbNHEeTw+vwDMeTMGpt0VZzH+ev&#xA;5XyW19drrKGysbi3tDd8W9Gaa7jeSJIXpRq+k4J2ClTWnXFWOXn5naF5u8reW9Uj1Gy0LWWvFu00&#xA;zUed0qSBnsYxKIgm6TXUMyFqCvE7D4gq9F8kaJpmh+UtK0zTLj65YwW6mK9qG9f1f3jT1XY+qzl9&#xA;vHFU8xV2KqGoWv1uwubTlw+sRPFzpXjzUrWlRWlcVfM/5VeU/PD+SPJvmm5s4PM2gaClzNp3leJz&#xA;a3MM/wBZk5XQDho7mdCG4K7IB+z8WKq8H5F61J5BvU04W99o80smv6C9m0kGqXU1xGPqLXJdYwhs&#xA;45ZHVBI3NjT4cVSW5sfNnlXzBouo+YLaZPN/mby7qWmrI8pnmn1S4ufStubhnHMRTQ1jQ0XoKdlX&#xA;vP5i/l1L5i/LkeVdJmjt7iz+ptpz3NfRLWToyLKVV24sqUJA99+mKvEV/wCcf/zLt9c1bzSlvaXn&#xA;maLzRa6vZM0ixQXEKmW4mkTeqL686fC2/wAJ2O1VX0f5O8vL5d8r6Zook9aSygVJ596yzH4ppTX/&#xA;AH5IzN9OKpxiq2V2SJ3WNpWVSyxJxDMQK8V5FVqfcgYlIG7xHSfL3k+KN9AstHuF832VxdXKX9lc&#xA;aJDqcJurmW6WOaOPUC8kaK/pmOWqsg6DtDiPcfs/W5PgQ/1SH+z/AOIZtoum6Vodwlxo35e3enzp&#xA;HJCslv8AomM+nMyO6njeioJhTr04gDbHiPcfs/WvgQ/1SH+z/wCIQq+WfLIWRf8AlWk5Eks1w9Rp&#xA;B/eXIpKwre7chTYbDanTHiPcfs/WvgQ/1SH+z/4hR1a48o63fWvlTUvJdxeX2l2ZuLTTHl0v1YLR&#xA;x9W5oBfBlTYL7EKeoBx4j3H7P1r4EP8AVIf7P/iF1l5R8qWeipokH5Z3A0qO4N4tq/6KkX6wRxMl&#xA;ZL5mLcfh6/Z+HptjxHuP2frXwIf6pD/Z/wDEI4+X9E1HXLq/vfI97Feat9Xj1C/mlsSpW3eN4mcR&#xA;XrtRGgjJ4JU8RWtBjxHuP2frYywxAsTif9N/xLNLu7htYGmlNFXoNqsabKK0FT0GWRiSacYmnzn+&#xA;cv5V6n5589fpfyhcae0tzZQLdQ3krRS/XLSUvHIsbIan0f3Z9q5OWKURZDETB5FLPMn/ADj953vf&#xA;McNzb/oOysY7uwu1ht2FuIvimuLyNY0RfUWKe4ZY+Z5enwApvTFlqMcTRlEH3huGKR5AobR/yD8+&#xA;6UFimg0HWEm0qfTUubmWRvqMiyytHPBWOvNkk+GmwY1NKbx/N4v5wZeDPuSy4/5xq/MMw25tZtMW&#xA;Wyt7J/q8d3wa4uLZm5AOqjiaSGjE9skNTiJoSj8wg4pdxZh5R/KzzF5J/NPRdXmk0jS9Dhtl+u2s&#xA;NzPcszC1e2QiOYc/XXkV9ZOKkE7CrJmTDHKXINMpgcy+iNP1G2v4fVtySvdWFGHhyHYkb0O9ME4G&#xA;J3TGQKJyKWndI0Z3PFEBZmPQAbk4gKlmka3b3bPZyuqalbnjNDWhanSRB+0jj4hTLcmMjfowjO9u&#xA;qR+ZPy+s9d886H5hu1ims9MsdRsrq0mHMTC/WONVKEFCnp+qHr1qMqZsem/Ify5f6t5km1Pl9R1p&#xA;5jCtrK0TiK7ihEsUqceNIp7ZZYSD3owoKFV595svfyQ0nzrc6NqujanpMtjIbZLO0aH6vOhjeQzL&#xA;ao7TOLpb2WGoU/Cf2GqVVQnnvyl5M8xeZ5v8N3ou5tZ1LTCP3qTpM2oTx3M31eNKenbw21q8ryMH&#xA;YtVdguKX0TqusWtgiWcDKb+akdrbLSoJ2DMP2UUbkntluPGTv0a5TrbqmUciSRrJGQyOAyMOhBFQ&#xA;cqIpmuxVC6np/wBftDb/AFme0qQfWtX9OQU7BqHY5GUbFM8c+E3QPvYB+YMdn5F8kal5kfUtXuLf&#xA;TFRhaR3gi5tLMsSqG9Mhfik8Mr8H+lL5t/5r+jD5MEh/OzyB+hNX1O61bzFZyaWts8FjNcxrNere&#xA;LWFrVTTkDQsa0+CjdDj4P9KXzX81/Rh8mtd/NT8urT9ET6hL5lu7t7aDU0CPbStZfWn9BOTyOnF2&#xA;rt6darvWhx8H+lL5r+a/ow+SeX3n/wAsWdz5q56h5lk03yijLqGqpMDA92kiRPaRkgfveUqBeVA3&#xA;xdlrj4P9KXzX81/Rh8k+8lX+iebNO065ttb1y1u9RtprtNPnuaypFb3H1WRmZFaOnq/Z+L4huO9H&#xA;wf6Uvmv5r+jD5PRrWD6vbRQeo83pKE9WVuUjcRTkzdye+WgUHGkbNquFDsVYJ5YjlT84PPTO3JZL&#xA;DQmjH8q0vVp/wSk4q8yi88f85M3mtfoy30Rbaa4mufTkurP07SKDiAjCcnizRsH4Vb4qBmBDAFVm&#xA;Nj5t/Na4/KC61VNMd/ONv9VtYIHtSk0sgaCO8nMDGNaozzcRxC/BXdTiryfTPN35k6b5o1HzfDpF&#xA;3debJooY/MOmTafMqQWkGmW9JGX4HVJbr1G+A7+lts1GVZZefmL+d+iX7TR6bLqnlmNJprbUp7F/&#xA;3sElzK8U1w8TJ6fC1Xl0QAAct2AKlHflf+af5meZvNen2epR2kdje2ks0fpws0TR2d7JbXMxkQsy&#xA;ylovTjUtwp8R34h1D2HzXqVjpfljVtUv4Bc2WnWc95cW5APNLeNpWXcHqEwgkGwgi3zp5d/MnUdd&#xA;12w0jTvLEeha/fW+oTWj3cszQCaGxS9s2RnCxsjrKC43opDbA72zzylExO4LCOKINjmmyfnF5t1P&#xA;TbrS00o6fBF5Uj1LVL6VyvG6vLQyQmIW8pkWKd6RxqsizVcHYrTNfDSiAqEpRHw/SC5Ry8XMA/jy&#xA;Zj+T/nCebSLHyreW89rrGlXV3o15GkwuYlbTIIZJ5hLKHk9P1LqONQzHr1pk/Cl/Pl/sf+JY8Y7h&#xA;9v62PfmH+fGteWvO+u+U4tHk1eS3jso9IaMhD697CSDPQfGpnkhRVTiacjU5GWm4hUpSI+H6AEjL&#xA;XIAfj3pD5b8/3+szeQ7bVtLi1DVtfju5tfuvUa2jgsrG8ltPVjClVXhFCZHLdeNBu22bhynHAQjt&#xA;EOPkxicuKXMvf/J95Z33lrT7+ysjp9pexLcW9s1Awjk+KNmp+06UY1333yMpGRsshEDYJxkUuxV5&#xA;h5w0Ga1vudgt4FjNYIxEXRB1/dSoWooJ+yaUzZ6fLY3pwssKO1qnlvz5qlnbXk+scp9K063luLm6&#xA;KkyRrChfjy2DM1KANuT3yvVYYRFjYs8GSRNF5zpX/OUGpa5+ZOkeXoUg03T7rU4rR09B7h3SRpIf&#xA;SkmaSLg7MYiOMXwtWpIFGwHKeG/mZc/8rH/O7VT5Tie7/S95HbafuT6hhiSAy1P2Y2MRk3+yvhTC&#xA;h9UavYP5SWy07TLVYpYLcR/poqZLqVpWMkwWeTm8atKzN6atQV222zN0uGEhZ3LjZ8kgaCJ8paFP&#xA;dX/O/W8IlP8ApEfpMiuvX97M5X4T3UVJy7PlAG1MMULO9vUgAAABQDYAZq3NdirsVeT/APOURmb8&#xA;ndSt0JEdzdWMU5Ar8Bu42+j4lXFWOab/AM4tQJ5K1vTdV1kX/mfVZYJINaeHkLdLI0t4VVmLemUF&#xA;HUEClAB8AxVf5u/5xv1zzPfXev3nmOKHXbqKFvqcNsVsUuLQ/wCiqjczIIUj+BgVJJ+LbpiqIf8A&#xA;Ibzde6B5i8raj5gtv0L5mvpNc1G8ghYXJ1GZFYxCI/u/q4uY0lqG5ELx2ryxV6H5D8najogmvtau&#xA;obvWbi3tbH/RYzHbQWlihWGGFXLNuzvI5/malKAYqy3FXYq7FWA+ZvP/AJb8sfmDYaRPpS/pfzBb&#xA;RRw6ogiR5JGult7e2kcj1CgMruTU8QDRSTirx3Ufzm/MnULhJpry00m502w1LUJLKCKSON1Gjpdw&#xA;hj9amE4/0lDExVRyoaH7IVZ7+Qvm/wAv2v5dyafbw3QGgRXNzqM8hEjSAOzmY/Z4NOQ7JH1+E8jX&#xA;cqqVz/zlP5KiSRotL1Gcwr6tyiJEzQwGGB0lmCu3ENLdJD3HKu57qpraec4fzN0ww+XoUju9Lvjc&#xA;PZ6lVrO4W1dooxcGBi3Eyn1kADAtFvtvirOfJflmLyx5X0/Qo5jcmzjImuWHEyzSMZJpOO/HnI7N&#xA;Su2KpnqFhZ6jYXOn3sSz2d5E8FzA32XilUo6H2ZSRirCb/8AJHyJd6LYaSsV1appsjSW15BcyC7p&#xA;JAtrIjTsXdle3RYj4IqgUoMVTa7/AC08mXWtWWsSWHC8sYYbaJYpJI4XitnEluk0KMI5RC6hk5qa&#xA;GngMVb8v/l35c0HzHq/mCwWYX2syvPcLJIXijebgZzCh+z6zQoz7n7IpQCmKo2Lyh5fi8zXnmVbU&#xA;HV7+CC2uJm+IFLVmeMhTsGqw3/yR4YqxgfkT+W31hrhrCYymWeRCLq4QJFdM7zWqBHUC2kaZy0X2&#xA;TyOKs+jjjjjWONQkaAKiKAAABQAAdAMVXYq7FWnRHQo6hkYUZSKgg9iDiqnLZ2ktq9pLBHJayKY5&#xA;LdlUxsjChUoRxIPhiSr4n/On8ofNn5c+eB5u8vxST6K98uoabexJ6ptLgS+ssUykN9hx8DNsw96j&#xA;FX0b+R3kbyXZ+XbLzjpvltND1vXbYS3cZaWQxBz8SQCZmMUTkcwo7EA1oMVenuiOpR1DKdipFQfo&#xA;ONq5ERFCIoVFFFUCgA9gMVbxV2KuxVhX50eVtW80/llrmh6Qnq6pcpC9nHyVOUlvcRzqvJyqivpd&#xA;zTFWa4q7FXYq7FXYq7FXYqlHmHyj5a8xRJHrWnQ3hiIMEzArPEVdZAYpkKyxnnGp+Bh0xVj/AJp/&#xA;J/yX5hu9OuZrOO0eyZEuBbRxp9atI04C0nIWrRUVRTsooKVxVEeZrDT/ACp5T13UPLuiwC7uFV7m&#xA;K3thIZK8YTJJEg5SrFGS5TuAfHFWJ/lX+WPlwNrGtX2kLPb3d8V0L9IwD1PqUFtHaeqIXVBEk5iZ&#xA;ljEaqE48VC8QFXpWleW9A0ie5n0rT7exlvPT+tNbxrHz9FeMdQoA+FTtiqY4q//Z</xmpGImg:image>
               </rdf:li>
            </rdf:Alt>
         </xmp:Thumbnails>
         <xmpMM:OriginalDocumentID>uuid:C1BCCE1871B8DB11993190FCD52B4E9F</xmpMM:OriginalDocumentID>
         <xmpMM:DocumentID>xmp.did:701b1dd8-132c-194f-a5d8-99dc6f230bd1</xmpMM:DocumentID>
         <xmpMM:InstanceID>xmp.iid:701b1dd8-132c-194f-a5d8-99dc6f230bd1</xmpMM:InstanceID>
         <xmpMM:RenditionClass>proof:pdf</xmpMM:RenditionClass>
         <xmpMM:DerivedFrom rdf:parseType="Resource">
            <stRef:instanceID>uuid:55962782-3947-4884-b6b4-fb233771c8aa</stRef:instanceID>
            <stRef:documentID>xmp.did:c23052af-2e76-aa41-be91-1af2784b7ca6</stRef:documentID>
            <stRef:originalDocumentID>uuid:C1BCCE1871B8DB11993190FCD52B4E9F</stRef:originalDocumentID>
            <stRef:renditionClass>proof:pdf</stRef:renditionClass>
         </xmpMM:DerivedFrom>
         <xmpMM:History>
            <rdf:Seq>
               <rdf:li rdf:parseType="Resource">
                  <stEvt:action>saved</stEvt:action>
                  <stEvt:instanceID>xmp.iid:c23052af-2e76-aa41-be91-1af2784b7ca6</stEvt:instanceID>
                  <stEvt:when>2022-11-12T19:16:08+02:00</stEvt:when>
                  <stEvt:softwareAgent>Adobe Illustrator CC 23.0 (Windows)</stEvt:softwareAgent>
                  <stEvt:changed>/</stEvt:changed>
               </rdf:li>
               <rdf:li rdf:parseType="Resource">
                  <stEvt:action>saved</stEvt:action>
                  <stEvt:instanceID>xmp.iid:701b1dd8-132c-194f-a5d8-99dc6f230bd1</stEvt:instanceID>
                  <stEvt:when>2022-11-12T23:03:56+02:00</stEvt:when>
                  <stEvt:softwareAgent>Adobe Illustrator CC 23.0 (Windows)</stEvt:softwareAgent>
                  <stEvt:changed>/</stEvt:changed>
               </rdf:li>
            </rdf:Seq>
         </xmpMM:History>
         <illustrator:StartupProfile>Mobile</illustrator:StartupProfile>
         <xmpTPg:NPages>1</xmpTPg:NPages>
         <xmpTPg:HasVisibleTransparency>False</xmpTPg:HasVisibleTransparency>
         <xmpTPg:HasVisibleOverprint>False</xmpTPg:HasVisibleOverprint>
         <xmpTPg:MaxPageSize rdf:parseType="Resource">
            <stDim:w>714.000000</stDim:w>
            <stDim:h>714.000000</stDim:h>
            <stDim:unit>Pixels</stDim:unit>
         </xmpTPg:MaxPageSize>
         <xmpTPg:PlateNames>
            <rdf:Seq>
               <rdf:li>Cyan</rdf:li>
               <rdf:li>Magenta</rdf:li>
               <rdf:li>Yellow</rdf:li>
               <rdf:li>Black</rdf:li>
            </rdf:Seq>
         </xmpTPg:PlateNames>
         <xmpTPg:SwatchGroups>
            <rdf:Seq>
               <rdf:li rdf:parseType="Resource">
                  <xmpG:groupName>Default Swatch Group</xmpG:groupName>
                  <xmpG:groupType>0</xmpG:groupType>
                  <xmpG:Colorants>
                     <rdf:Seq>
                        <rdf:li rdf:parseType="Resource">
                           <xmpG:swatchName>White</xmpG:swatchName>
                           <xmpG:mode>CMYK</xmpG:mode>
                           <xmpG:type>PROCESS</xmpG:type>
                           <xmpG:cyan>0.000000</xmpG:cyan>
                           <xmpG:magenta>0.000000</xmpG:magenta>
                           <xmpG:yellow>0.000000</xmpG:yellow>
                           <xmpG:black>0.000000</xmpG:black>
                        </rdf:li>
                        <rdf:li rdf:parseType="Resource">
                           <xmpG:swatchName>Black</xmpG:swatchName>
                           <xmpG:mode>CMYK</xmpG:mode>
                           <xmpG:type>PROCESS</xmpG:type>
                           <xmpG:cyan>74.609375</xmpG:cyan>
                           <xmpG:magenta>67.578125</xmpG:magenta>
                           <xmpG:yellow>66.796875</xmpG:yellow>
                           <xmpG:black>89.843750</xmpG:black>
                        </rdf:li>
                        <rdf:li rdf:parseType="Resource">
                           <xmpG:swatchName>RGB Red</xmpG:swatchName>
                           <xmpG:mode>CMYK</xmpG:mode>
                           <xmpG:type>PROCESS</xmpG:type>
                           <xmpG:cyan>0.000000</xmpG:cyan>
                           <xmpG:magenta>98.828125</xmpG:magenta>
                           <xmpG:yellow>100.000000</xmpG:yellow>
                           <xmpG:black>0.000000</xmpG:black>
                        </rdf:li>
                        <rdf:li rdf:parseType="Resource">
                           <xmpG:swatchName>RGB Yellow</xmpG:swatchName>
                           <xmpG:mode>CMYK</xmpG:mode>
                           <xmpG:type>PROCESS</xmpG:type>
                           <xmpG:cyan>6.250000</xmpG:cyan>
                           <xmpG:magenta>0.000000</xmpG:magenta>
                           <xmpG:yellow>96.093750</xmpG:yellow>
                           <xmpG:black>0.000000</xmpG:black>
                        </rdf:li>
                        <rdf:li rdf:parseType="Resource">
                           <xmpG:swatchName>RGB Green</xmpG:swatchName>
                           <xmpG:mode>CMYK</xmpG:mode>
                           <xmpG:type>PROCESS</xmpG:type>
                           <xmpG:cyan>62.500000</xmpG:cyan>
                           <xmpG:magenta>0.000000</xmpG:magenta>
                           <xmpG:yellow>100.000000</xmpG:yellow>
                           <xmpG:black>0.000000</xmpG:black>
                        </rdf:li>
                        <rdf:li rdf:parseType="Resource">
                           <xmpG:swatchName>RGB Cyan</xmpG:swatchName>
                           <xmpG:mode>CMYK</xmpG:mode>
                           <xmpG:type>PROCESS</xmpG:type>
                           <xmpG:cyan>51.562500</xmpG:cyan>
                           <xmpG:magenta>0.000000</xmpG:magenta>
                           <xmpG:yellow>12.500000</xmpG:yellow>
                           <xmpG:black>0.000000</xmpG:black>
                        </rdf:li>
                        <rdf:li rdf:parseType="Resource">
                           <xmpG:swatchName>RGB Blue</xmpG:swatchName>
                           <xmpG:mode>CMYK</xmpG:mode>
                           <xmpG:type>PROCESS</xmpG:type>
                           <xmpG:cyan>87.890625</xmpG:cyan>
                           <xmpG:magenta>76.562500</xmpG:magenta>
                           <xmpG:yellow>0.000000</xmpG:yellow>
                           <xmpG:black>0.000000</xmpG:black>
                        </rdf:li>
                        <rdf:li rdf:parseType="Resource">
                           <xmpG:swatchName>RGB Magenta</xmpG:swatchName>
                           <xmpG:mode>CMYK</xmpG:mode>
                           <xmpG:type>PROCESS</xmpG:type>
                           <xmpG:cyan>26.953125</xmpG:cyan>
                           <xmpG:magenta>81.250000</xmpG:magenta>
                           <xmpG:yellow>0.000000</xmpG:yellow>
                           <xmpG:black>0.000000</xmpG:black>
                        </rdf:li>
                        <rdf:li rdf:parseType="Resource">
                           <xmpG:swatchName>R=193 G=39 B=45</xmpG:swatchName>
                           <xmpG:mode>CMYK</xmpG:mode>
                           <xmpG:type>PROCESS</xmpG:type>
                           <xmpG:cyan>16.796875</xmpG:cyan>
                           <xmpG:magenta>97.656250</xmpG:magenta>
                           <xmpG:yellow>92.578125</xmpG:yellow>
                           <xmpG:black>6.640625</xmpG:black>
                        </rdf:li>
                        <rdf:li rdf:parseType="Resource">
                           <xmpG:swatchName>R=237 G=28 B=36</xmpG:swatchName>
                           <xmpG:mode>CMYK</xmpG:mode>
                           <xmpG:type>PROCESS</xmpG:type>
                           <xmpG:cyan>0.390625</xmpG:cyan>
                           <xmpG:magenta>98.828125</xmpG:magenta>
                           <xmpG:yellow>96.875000</xmpG:yellow>
                           <xmpG:black>0.000000</xmpG:black>
                        </rdf:li>
                        <rdf:li rdf:parseType="Resource">
                           <xmpG:swatchName>R=241 G=90 B=36</xmpG:swatchName>
                           <xmpG:mode>CMYK</xmpG:mode>
                           <xmpG:type>PROCESS</xmpG:type>
                           <xmpG:cyan>0.000000</xmpG:cyan>
                           <xmpG:magenta>79.687500</xmpG:magenta>
                           <xmpG:yellow>96.484375</xmpG:yellow>
                           <xmpG:black>0.000000</xmpG:black>
                        </rdf:li>
                        <rdf:li rdf:parseType="Resource">
                           <xmpG:swatchName>R=247 G=147 B=30</xmpG:swatchName>
                           <xmpG:mode>CMYK</xmpG:mode>
                           <xmpG:type>PROCESS</xmpG:type>
                           <xmpG:cyan>0.000000</xmpG:cyan>
                           <xmpG:magenta>50.000000</xmpG:magenta>
                           <xmpG:yellow>98.046875</xmpG:yellow>
                           <xmpG:black>0.000000</xmpG:black>
                        </rdf:li>
                        <rdf:li rdf:parseType="Resource">
                           <xmpG:swatchName>R=251 G=176 B=59</xmpG:swatchName>
                           <xmpG:mode>CMYK</xmpG:mode>
                           <xmpG:type>PROCESS</xmpG:type>
                           <xmpG:cyan>0.000000</xmpG:cyan>
                           <xmpG:magenta>34.765625</xmpG:magenta>
                           <xmpG:yellow>87.109375</xmpG:yellow>
                           <xmpG:black>0.000000</xmpG:black>
                        </rdf:li>
                        <rdf:li rdf:parseType="Resource">
                           <xmpG:swatchName>R=252 G=238 B=33</xmpG:swatchName>
                           <xmpG:mode>CMYK</xmpG:mode>
                           <xmpG:type>PROCESS</xmpG:type>
                           <xmpG:cyan>4.687500</xmpG:cyan>
                           <xmpG:magenta>0.000000</xmpG:magenta>
                           <xmpG:yellow>92.968750</xmpG:yellow>
                           <xmpG:black>0.000000</xmpG:black>
                        </rdf:li>
                        <rdf:li rdf:parseType="Resource">
                           <xmpG:swatchName>R=217 G=224 B=33</xmpG:swatchName>
                           <xmpG:mode>CMYK</xmpG:mode>
                           <xmpG:type>PROCESS</xmpG:type>
                           <xmpG:cyan>18.750000</xmpG:cyan>
                           <xmpG:magenta>0.000000</xmpG:magenta>
                           <xmpG:yellow>98.046875</xmpG:yellow>
                           <xmpG:black>0.000000</xmpG:black>
                        </rdf:li>
                        <rdf:li rdf:parseType="Resource">
                           <xmpG:swatchName>R=140 G=198 B=63</xmpG:swatchName>
                           <xmpG:mode>CMYK</xmpG:mode>
                           <xmpG:type>PROCESS</xmpG:type>
                           <xmpG:cyan>50.000000</xmpG:cyan>
                           <xmpG:magenta>0.000000</xmpG:magenta>
                           <xmpG:yellow>98.828125</xmpG:yellow>
                           <xmpG:black>0.000000</xmpG:black>
                        </rdf:li>
                        <rdf:li rdf:parseType="Resource">
                           <xmpG:swatchName>R=57 G=181 B=74</xmpG:swatchName>
                           <xmpG:mode>CMYK</xmpG:mode>
                           <xmpG:type>PROCESS</xmpG:type>
                           <xmpG:cyan>74.218750</xmpG:cyan>
                           <xmpG:magenta>0.000000</xmpG:magenta>
                           <xmpG:yellow>99.218750</xmpG:yellow>
                           <xmpG:black>0.000000</xmpG:black>
                        </rdf:li>
                        <rdf:li rdf:parseType="Resource">
                           <xmpG:swatchName>R=0 G=146 B=69</xmpG:swatchName>
                           <xmpG:mode>CMYK</xmpG:mode>
                           <xmpG:type>PROCESS</xmpG:type>
                           <xmpG:cyan>85.937500</xmpG:cyan>
                           <xmpG:magenta>17.578125</xmpG:magenta>
                           <xmpG:yellow>100.000000</xmpG:yellow>
                           <xmpG:black>3.906250</xmpG:black>
                        </rdf:li>
                        <rdf:li rdf:parseType="Resource">
                           <xmpG:swatchName>R=0 G=104 B=55</xmpG:swatchName>
                           <xmpG:mode>CMYK</xmpG:mode>
                           <xmpG:type>PROCESS</xmpG:type>
                           <xmpG:cyan>89.843750</xmpG:cyan>
                           <xmpG:magenta>33.203125</xmpG:magenta>
                           <xmpG:yellow>98.437500</xmpG:yellow>
                           <xmpG:black>25.781250</xmpG:black>
                        </rdf:li>
                        <rdf:li rdf:parseType="Resource">
                           <xmpG:swatchName>R=34 G=181 B=115</xmpG:swatchName>
                           <xmpG:mode>CMYK</xmpG:mode>
                           <xmpG:type>PROCESS</xmpG:type>
                           <xmpG:cyan>75.781250</xmpG:cyan>
                           <xmpG:magenta>0.000000</xmpG:magenta>
                           <xmpG:yellow>74.609375</xmpG:yellow>
                           <xmpG:black>0.000000</xmpG:black>
                        </rdf:li>
                        <rdf:li rdf:parseType="Resource">
                           <xmpG:swatchName>R=0 G=169 B=157</xmpG:swatchName>
                           <xmpG:mode>CMYK</xmpG:mode>
                           <xmpG:type>PROCESS</xmpG:type>
                           <xmpG:cyan>78.125000</xmpG:cyan>
                           <xmpG:magenta>8.984375</xmpG:magenta>
                           <xmpG:yellow>45.703125</xmpG:yellow>
                           <xmpG:black>0.000000</xmpG:black>
                        </rdf:li>
                        <rdf:li rdf:parseType="Resource">
                           <xmpG:swatchName>R=41 G=171 B=226</xmpG:swatchName>
                           <xmpG:mode>CMYK</xmpG:mode>
                           <xmpG:type>PROCESS</xmpG:type>
                           <xmpG:cyan>69.531250</xmpG:cyan>
                           <xmpG:magenta>14.843750</xmpG:magenta>
                           <xmpG:yellow>0.000000</xmpG:yellow>
                           <xmpG:black>0.000000</xmpG:black>
                        </rdf:li>
                        <rdf:li rdf:parseType="Resource">
                           <xmpG:swatchName>R=0 G=113 B=188</xmpG:swatchName>
                           <xmpG:mode>CMYK</xmpG:mode>
                           <xmpG:type>PROCESS</xmpG:type>
                           <xmpG:cyan>87.109375</xmpG:cyan>
                           <xmpG:magenta>52.343750</xmpG:magenta>
                           <xmpG:yellow>0.000000</xmpG:yellow>
                           <xmpG:black>0.000000</xmpG:black>
                        </rdf:li>
                        <rdf:li rdf:parseType="Resource">
                           <xmpG:swatchName>R=46 G=49 B=146</xmpG:swatchName>
                           <xmpG:mode>CMYK</xmpG:mode>
                           <xmpG:type>PROCESS</xmpG:type>
                           <xmpG:cyan>98.828125</xmpG:cyan>
                           <xmpG:magenta>96.093750</xmpG:magenta>
                           <xmpG:yellow>3.515625</xmpG:yellow>
                           <xmpG:black>0.390625</xmpG:black>
                        </rdf:li>
                        <rdf:li rdf:parseType="Resource">
                           <xmpG:swatchName>R=27 G=20 B=100</xmpG:swatchName>
                           <xmpG:mode>CMYK</xmpG:mode>
                           <xmpG:type>PROCESS</xmpG:type>
                           <xmpG:cyan>100.000000</xmpG:cyan>
                           <xmpG:magenta>100.000000</xmpG:magenta>
                           <xmpG:yellow>26.171875</xmpG:yellow>
                           <xmpG:black>24.218750</xmpG:black>
                        </rdf:li>
                        <rdf:li rdf:parseType="Resource">
                           <xmpG:swatchName>R=102 G=45 B=145</xmpG:swatchName>
                           <xmpG:mode>CMYK</xmpG:mode>
                           <xmpG:type>PROCESS</xmpG:type>
                           <xmpG:cyan>74.218750</xmpG:cyan>
                           <xmpG:magenta>98.046875</xmpG:magenta>
                           <xmpG:yellow>1.171875</xmpG:yellow>
                           <xmpG:black>0.390625</xmpG:black>
                        </rdf:li>
                        <rdf:li rdf:parseType="Resource">
                           <xmpG:swatchName>R=147 G=39 B=143</xmpG:swatchName>
                           <xmpG:mode>CMYK</xmpG:mode>
                           <xmpG:type>PROCESS</xmpG:type>
                           <xmpG:cyan>49.218750</xmpG:cyan>
                           <xmpG:magenta>98.828125</xmpG:magenta>
                           <xmpG:yellow>1.171875</xmpG:yellow>
                           <xmpG:black>0.000000</xmpG:black>
                        </rdf:li>
                        <rdf:li rdf:parseType="Resource">
                           <xmpG:swatchName>R=158 G=0 B=93</xmpG:swatchName>
                           <xmpG:mode>CMYK</xmpG:mode>
                           <xmpG:type>PROCESS</xmpG:type>
                           <xmpG:cyan>34.765625</xmpG:cyan>
                           <xmpG:magenta>100.000000</xmpG:magenta>
                           <xmpG:yellow>37.109375</xmpG:yellow>
                           <xmpG:black>10.937500</xmpG:black>
                        </rdf:li>
                        <rdf:li rdf:parseType="Resource">
                           <xmpG:swatchName>R=212 G=20 B=90</xmpG:swatchName>
                           <xmpG:mode>CMYK</xmpG:mode>
                           <xmpG:type>PROCESS</xmpG:type>
                           <xmpG:cyan>11.718750</xmpG:cyan>
                           <xmpG:magenta>100.000000</xmpG:magenta>
                           <xmpG:yellow>49.218750</xmpG:yellow>
                           <xmpG:black>0.781250</xmpG:black>
                        </rdf:li>
                        <rdf:li rdf:parseType="Resource">
                           <xmpG:swatchName>R=237 G=30 B=121</xmpG:swatchName>
                           <xmpG:mode>CMYK</xmpG:mode>
                           <xmpG:type>PROCESS</xmpG:type>
                           <xmpG:cyan>0.000000</xmpG:cyan>
                           <xmpG:magenta>96.875000</xmpG:magenta>
                           <xmpG:yellow>20.312500</xmpG:yellow>
                           <xmpG:black>0.000000</xmpG:black>
                        </rdf:li>
                        <rdf:li rdf:parseType="Resource">
                           <xmpG:swatchName>R=199 G=178 B=153</xmpG:swatchName>
                           <xmpG:mode>CMYK</xmpG:mode>
                           <xmpG:type>PROCESS</xmpG:type>
                           <xmpG:cyan>22.656250</xmpG:cyan>
                           <xmpG:magenta>27.343750</xmpG:magenta>
                           <xmpG:yellow>39.843750</xmpG:yellow>
                           <xmpG:black>0.000000</xmpG:black>
                        </rdf:li>
                        <rdf:li rdf:parseType="Resource">
                           <xmpG:swatchName>R=153 G=134 B=117</xmpG:swatchName>
                           <xmpG:mode>CMYK</xmpG:mode>
                           <xmpG:type>PROCESS</xmpG:type>
                           <xmpG:cyan>39.843750</xmpG:cyan>
                           <xmpG:magenta>42.578125</xmpG:magenta>
                           <xmpG:yellow>52.343750</xmpG:yellow>
                           <xmpG:black>6.640625</xmpG:black>
                        </rdf:li>
                        <rdf:li rdf:parseType="Resource">
                           <xmpG:swatchName>R=115 G=99 B=87</xmpG:swatchName>
                           <xmpG:mode>CMYK</xmpG:mode>
                           <xmpG:type>PROCESS</xmpG:type>
                           <xmpG:cyan>50.390625</xmpG:cyan>
                           <xmpG:magenta>52.734375</xmpG:magenta>
                           <xmpG:yellow>60.546875</xmpG:yellow>
                           <xmpG:black>23.437500</xmpG:black>
                        </rdf:li>
                        <rdf:li rdf:parseType="Resource">
                           <xmpG:swatchName>R=83 G=71 B=65</xmpG:swatchName>
                           <xmpG:mode>CMYK</xmpG:mode>
                           <xmpG:type>PROCESS</xmpG:type>
                           <xmpG:cyan>57.421875</xmpG:cyan>
                           <xmpG:magenta>60.156250</xmpG:magenta>
                           <xmpG:yellow>63.281250</xmpG:yellow>
                           <xmpG:black>41.796875</xmpG:black>
                        </rdf:li>
                        <rdf:li rdf:parseType="Resource">
                           <xmpG:swatchName>R=198 G=156 B=109</xmpG:swatchName>
                           <xmpG:mode>CMYK</xmpG:mode>
                           <xmpG:type>PROCESS</xmpG:type>
                           <xmpG:cyan>22.656250</xmpG:cyan>
                           <xmpG:magenta>38.281250</xmpG:magenta>
                           <xmpG:yellow>63.281250</xmpG:yellow>
                           <xmpG:black>1.171875</xmpG:black>
                        </rdf:li>
                        <rdf:li rdf:parseType="Resource">
                           <xmpG:swatchName>R=166 G=124 B=82</xmpG:swatchName>
                           <xmpG:mode>CMYK</xmpG:mode>
                           <xmpG:type>PROCESS</xmpG:type>
                           <xmpG:cyan>31.250000</xmpG:cyan>
                           <xmpG:magenta>48.828125</xmpG:magenta>
                           <xmpG:yellow>73.828125</xmpG:yellow>
                           <xmpG:black>9.765625</xmpG:black>
                        </rdf:li>
                        <rdf:li rdf:parseType="Resource">
                           <xmpG:swatchName>R=140 G=98 B=57</xmpG:swatchName>
                           <xmpG:mode>CMYK</xmpG:mode>
                           <xmpG:type>PROCESS</xmpG:type>
                           <xmpG:cyan>35.937500</xmpG:cyan>
                           <xmpG:magenta>57.031250</xmpG:magenta>
                           <xmpG:yellow>83.593750</xmpG:yellow>
                           <xmpG:black>22.656250</xmpG:black>
                        </rdf:li>
                        <rdf:li rdf:parseType="Resource">
                           <xmpG:swatchName>R=117 G=76 B=36</xmpG:swatchName>
                           <xmpG:mode>CMYK</xmpG:mode>
                           <xmpG:type>PROCESS</xmpG:type>
                           <xmpG:cyan>39.062500</xmpG:cyan>
                           <xmpG:magenta>63.671875</xmpG:magenta>
                           <xmpG:yellow>92.968750</xmpG:yellow>
                           <xmpG:black>35.546875</xmpG:black>
                        </rdf:li>
                        <rdf:li rdf:parseType="Resource">
                           <xmpG:swatchName>R=96 G=56 B=19</xmpG:swatchName>
                           <xmpG:mode>CMYK</xmpG:mode>
                           <xmpG:type>PROCESS</xmpG:type>
                           <xmpG:cyan>41.406250</xmpG:cyan>
                           <xmpG:magenta>69.921875</xmpG:magenta>
                           <xmpG:yellow>96.484375</xmpG:yellow>
                           <xmpG:black>48.828125</xmpG:black>
                        </rdf:li>
                        <rdf:li rdf:parseType="Resource">
                           <xmpG:swatchName>R=66 G=33 B=11</xmpG:swatchName>
                           <xmpG:mode>CMYK</xmpG:mode>
                           <xmpG:type>PROCESS</xmpG:type>
                           <xmpG:cyan>47.656250</xmpG:cyan>
                           <xmpG:magenta>73.046875</xmpG:magenta>
                           <xmpG:yellow>83.203125</xmpG:yellow>
                           <xmpG:black>67.968750</xmpG:black>
                        </rdf:li>
                     </rdf:Seq>
                  </xmpG:Colorants>
               </rdf:li>
               <rdf:li rdf:parseType="Resource">
                  <xmpG:groupName>Grays</xmpG:groupName>
                  <xmpG:groupType>1</xmpG:groupType>
                  <xmpG:Colorants>
                     <rdf:Seq>
                        <rdf:li rdf:parseType="Resource">
                           <xmpG:swatchName>R=0 G=0 B=0</xmpG:swatchName>
                           <xmpG:mode>CMYK</xmpG:mode>
                           <xmpG:type>PROCESS</xmpG:type>
                           <xmpG:cyan>74.609375</xmpG:cyan>
                           <xmpG:magenta>67.578125</xmpG:magenta>
                           <xmpG:yellow>66.796875</xmpG:yellow>
                           <xmpG:black>89.843750</xmpG:black>
                        </rdf:li>
                        <rdf:li rdf:parseType="Resource">
                           <xmpG:swatchName>R=26 G=26 B=26</xmpG:swatchName>
                           <xmpG:mode>CMYK</xmpG:mode>
                           <xmpG:type>PROCESS</xmpG:type>
                           <xmpG:cyan>72.265625</xmpG:cyan>
                           <xmpG:magenta>66.406250</xmpG:magenta>
                           <xmpG:yellow>64.843750</xmpG:yellow>
                           <xmpG:black>77.734375</xmpG:black>
                        </rdf:li>
                        <rdf:li rdf:parseType="Resource">
                           <xmpG:swatchName>R=51 G=51 B=51</xmpG:swatchName>
                           <xmpG:mode>CMYK</xmpG:mode>
                           <xmpG:type>PROCESS</xmpG:type>
                           <xmpG:cyan>69.140625</xmpG:cyan>
                           <xmpG:magenta>62.890625</xmpG:magenta>
                           <xmpG:yellow>61.718750</xmpG:yellow>
                           <xmpG:black>58.203125</xmpG:black>
                        </rdf:li>
                        <rdf:li rdf:parseType="Resource">
                           <xmpG:swatchName>R=77 G=77 B=77</xmpG:swatchName>
                           <xmpG:mode>CMYK</xmpG:mode>
                           <xmpG:type>PROCESS</xmpG:type>
                           <xmpG:cyan>65.234375</xmpG:cyan>
                           <xmpG:magenta>57.812500</xmpG:magenta>
                           <xmpG:yellow>56.640625</xmpG:yellow>
                           <xmpG:black>36.328125</xmpG:black>
                        </rdf:li>
                        <rdf:li rdf:parseType="Resource">
                           <xmpG:swatchName>R=102 G=102 B=102</xmpG:swatchName>
                           <xmpG:mode>CMYK</xmpG:mode>
                           <xmpG:type>PROCESS</xmpG:type>
                           <xmpG:cyan>59.375000</xmpG:cyan>
                           <xmpG:magenta>51.171875</xmpG:magenta>
                           <xmpG:yellow>50.390625</xmpG:yellow>
                           <xmpG:black>19.921875</xmpG:black>
                        </rdf:li>
                        <rdf:li rdf:parseType="Resource">
                           <xmpG:swatchName>R=128 G=128 B=128</xmpG:swatchName>
                           <xmpG:mode>CMYK</xmpG:mode>
                           <xmpG:type>PROCESS</xmpG:type>
                           <xmpG:cyan>51.562500</xmpG:cyan>
                           <xmpG:magenta>42.968750</xmpG:magenta>
                           <xmpG:yellow>42.968750</xmpG:yellow>
                           <xmpG:black>7.421875</xmpG:black>
                        </rdf:li>
                        <rdf:li rdf:parseType="Resource">
                           <xmpG:swatchName>R=153 G=153 B=153</xmpG:swatchName>
                           <xmpG:mode>CMYK</xmpG:mode>
                           <xmpG:type>PROCESS</xmpG:type>
                           <xmpG:cyan>42.578125</xmpG:cyan>
                           <xmpG:magenta>34.765625</xmpG:magenta>
                           <xmpG:yellow>35.156250</xmpG:yellow>
                           <xmpG:black>1.171875</xmpG:black>
                        </rdf:li>
                        <rdf:li rdf:parseType="Resource">
                           <xmpG:swatchName>R=179 G=179 B=179</xmpG:swatchName>
                           <xmpG:mode>CMYK</xmpG:mode>
                           <xmpG:type>PROCESS</xmpG:type>
                           <xmpG:cyan>30.468750</xmpG:cyan>
                           <xmpG:magenta>24.218750</xmpG:magenta>
                           <xmpG:yellow>24.609375</xmpG:yellow>
                           <xmpG:black>0.000000</xmpG:black>
                        </rdf:li>
                        <rdf:li rdf:parseType="Resource">
                           <xmpG:swatchName>R=204 G=204 B=204</xmpG:swatchName>
                           <xmpG:mode>CMYK</xmpG:mode>
                           <xmpG:type>PROCESS</xmpG:type>
                           <xmpG:cyan>19.531250</xmpG:cyan>
                           <xmpG:magenta>14.843750</xmpG:magenta>
                           <xmpG:yellow>15.625000</xmpG:yellow>
                           <xmpG:black>0.000000</xmpG:black>
                        </rdf:li>
                        <rdf:li rdf:parseType="Resource">
                           <xmpG:swatchName>R=230 G=230 B=230</xmpG:swatchName>
                           <xmpG:mode>CMYK</xmpG:mode>
                           <xmpG:type>PROCESS</xmpG:type>
                           <xmpG:cyan>8.593750</xmpG:cyan>
                           <xmpG:magenta>6.250000</xmpG:magenta>
                           <xmpG:yellow>6.640625</xmpG:yellow>
                           <xmpG:black>0.000000</xmpG:black>
                        </rdf:li>
                        <rdf:li rdf:parseType="Resource">
                           <xmpG:swatchName>R=242 G=242 B=242</xmpG:swatchName>
                           <xmpG:mode>CMYK</xmpG:mode>
                           <xmpG:type>PROCESS</xmpG:type>
                           <xmpG:cyan>3.515625</xmpG:cyan>
                           <xmpG:magenta>2.343750</xmpG:magenta>
                           <xmpG:yellow>2.343750</xmpG:yellow>
                           <xmpG:black>0.000000</xmpG:black>
                        </rdf:li>
                     </rdf:Seq>
                  </xmpG:Colorants>
               </rdf:li>
               <rdf:li rdf:parseType="Resource">
                  <xmpG:groupName>Mobile Color Group</xmpG:groupName>
                  <xmpG:groupType>1</xmpG:groupType>
                  <xmpG:Colorants>
                     <rdf:Seq>
                        <rdf:li rdf:parseType="Resource">
                           <xmpG:swatchName>R=136 G=168 B=13</xmpG:swatchName>
                           <xmpG:mode>CMYK</xmpG:mode>
                           <xmpG:type>PROCESS</xmpG:type>
                           <xmpG:cyan>52.734375</xmpG:cyan>
                           <xmpG:magenta>16.796875</xmpG:magenta>
                           <xmpG:yellow>100.000000</xmpG:yellow>
                           <xmpG:black>1.171875</xmpG:black>
                        </rdf:li>
                        <rdf:li rdf:parseType="Resource">
                           <xmpG:swatchName>R=127 G=71 B=221</xmpG:swatchName>
                           <xmpG:mode>CMYK</xmpG:mode>
                           <xmpG:type>PROCESS</xmpG:type>
                           <xmpG:cyan>64.843750</xmpG:cyan>
                           <xmpG:magenta>75.781250</xmpG:magenta>
                           <xmpG:yellow>0.000000</xmpG:yellow>
                           <xmpG:black>0.000000</xmpG:black>
                        </rdf:li>
                        <rdf:li rdf:parseType="Resource">
                           <xmpG:swatchName>R=251 G=174 B=23</xmpG:swatchName>
                           <xmpG:mode>CMYK</xmpG:mode>
                           <xmpG:type>PROCESS</xmpG:type>
                           <xmpG:cyan>0.390625</xmpG:cyan>
                           <xmpG:magenta>35.546875</xmpG:magenta>
                           <xmpG:yellow>98.828125</xmpG:yellow>
                           <xmpG:black>0.000000</xmpG:black>
                        </rdf:li>
                     </rdf:Seq>
                  </xmpG:Colorants>
               </rdf:li>
            </rdf:Seq>
         </xmpTPg:SwatchGroups>
         <pdf:Producer>Adobe PDF library 15.00</pdf:Producer>
      </rdf:Description>
   </rdf:RDF>
</x:xmpmeta>
                                                                                                    
                                                                                                    
                                                                                                    
                                                                                                    
                                                                                                    
                                                                                                    
                                                                                                    
                                                                                                    
                                                                                                    
                                                                                                    
                                                                                                    
                                                                                                    
                                                                                                    
                                                                                                    
                                                                                                    
                                                                                                    
                                                                                                    
                                                                                                    
                                                                                                    
                                                                                                    
                           
<?xpacket end="w"?>
	</metadata>
<g id="In_Loving_Memory_Of">
	<g>
		<g>
			<path class="st0" d="M179.1227264,255.4674377c-9.0716858-8.0526428-24.09021-14.1018524-36.5683289-17.4858856
				c7.1381226-4.7742004,13.5808716-10.5141296,19.1437683-17.056076
				c13.6213989-15.8397369,21.4367523-34.4294586,21.4367523-50.9874725c0-13.2364044-6.8021698-22.1321259-16.931839-22.1321259
				c-19.444519,0-35.4250336,32.0975494-39.2164536,42.7759247c1.958107-20.9493561,4.2670822-38.5888214,5.4669113-44.4620667
				c0.5311127-2.5921326-1.5901642-4.8728638-5.4103851-5.8177795c-3.7125092-0.9113312-8.1374359-0.2490234-9.0205002,2.789978
				c-1.5730972,5.4269104-7.7300339,42.2773285-7.7300339,86.4690399c0,4.3683929,1.9751663,39.2559204,3.90448,45.9050293
				c0.600441,2.0828857,2.789978,3.0166321,4.9859085,3.0166321c0.5225906-0.0010681,1.0441055-0.0544128,1.5560303-0.1583862
				c2.6545334-0.5492554,4.1934967-2.3036499,3.9215393-4.4766541c-0.9331894-7.4698181-1.1998138-17.2992554-1.0238419-28.2101288
				c3.9055405-0.4692688,7.7033691-1.5960236,11.2324371-3.3328247c0.0543823,0.025589,0.1109161,0.0447845,0.170639,0.0565186
				c9.6028137,2.0204926,21.7247009,6.8128357,31.6389313,12.5063782
				c10.309906,5.9249725,16.4615173,11.7934113,16.4615173,15.7037506c0,0.3450012-0.0223999,0.5151062-0.5428619,0.5151062
				c-0.473526,0.0058899-0.9257202,0.2026367-1.2520752,0.5455322c-0.3274078,0.3428955-0.5023193,0.8030701-0.48526,1.2766113
				c-0.0032043,0.4911194,0.1781158,0.9657288,0.508728,1.3299255c0.3860779,0.4159241,0.9321289,0.6468506,1.4994965,0.6335144
				c2.0381012,0,4.2276306-1.5224304,4.2276306-4.8664856C187.0959167,265.0478516,184.4136658,260.1589966,179.1227264,255.4674377
				z M132.4108734,235.7051086c-2.789978-0.5449829-5.6290207-0.8025513-8.4712524-0.7694855
				c0.2996902-7.8036194,0.7753448-15.923996,1.3523254-23.9606476c0.1119843-0.1247711,0.1951752-0.2735443,0.2431641-0.4351196
				c0.7582855-2.654007,6.162262-16.9824982,13.8816376-30.2754211
				c6.9376068-11.9517822,17.576004-26.2008362,28.8265533-26.2008362c2.631073,0,4.3854828,1.7480011,4.3854828,10.3104401
				C172.6287842,197.9092255,147.5253754,224.8459473,132.4108734,235.7051086z"/>
			<path class="st0" d="M597.295105,202.1901855c-0.4980469-0.4602051-1.2072754-0.6121826-1.8504028-0.3962097
				c-0.7849121,0.2639618-1.3693848,0.9294586-1.5272217,1.7431946c-2.1766968,9.8342438-4.8568726,19.5506439-8.0307617,29.109726
				c-5.7548828,16.9425049-8.9063721,18.1428528-9.5804443,18.1881866
				c-0.6217651-0.2943573-2.9478149-3.7631683-2.9478149-15.3816681c0-3.6607819,0.2943726-8.0185242,0.5546265-11.860611
				c0.2260742-3.3050995,0.4351196-6.428894,0.4351196-8.6920166c0-12.0483093-2.9136963-16.1170197-11.5438843-16.1170197
				c-1.697876-0.0191956-3.3882446,0.219162-5.0136108,0.7076263c-0.8329468,0.2580872-1.6936035,0.4122009-2.5639038,0.4580536
				c-0.3647461,0.0133362-0.7294922-0.0485229-1.0697021-0.1813049c0.2975464-0.0650482,0.5567017-0.2458191,0.718811-0.5033875
				c1.114502-1.7655945,5.4274902-12.5628967,5.4274902-21.4026184c0-11.000473-6.1911011-12.6418304-9.8811646-12.6418304
				c-2.8465576,0-6.1334839,1.7997284-8.5896606,4.7027588c-2.1394043,2.53508-4.6915283,7.1077271-4.6915283,14.5268707
				c0,9.8493042,4.4067993,15.9157867,9.0076904,18.9563904c-2.3660278,7.4416809-5.1403198,14.7479095-8.3411255,21.8715515
				c-7.6970215,16.7446747-13.2993164,20.2651978-16.6321411,20.2651978
				c-1.0526733-0.0735779-8.0073242-4.4084015-8.0073242-21.1925201c0.0021362-2.391098,0.1247559-4.7806091,0.3679199-7.1594543
				c1.0323486,0.3471527,2.1127319,0.5327301,3.2026978,0.5497894c2.6428223,0,5.4498291-1.5624237,7.5092773-4.1822968
				c2.2524414-2.8635712,3.4970703-6.7851105,3.4970703-11.0404663c0-8.1768951-3.7914429-12.6818085-10.6778564-12.6818085
				c-8.4075317,0-15.0081177,7.8421478-17.4677429,19.6996155c-2.8840942,2.0485535-6.3190613,3.9831238-9.9414368,5.9300995
				c-0.508728-11.5219879-5.177887-23.1452942-14.7583008-23.1452942c-11.4766541,0-19.2919922,23.3207397-21.8942871,32.4142914
				c-0.0063782-0.4927216-0.0063782-0.9902496-0.0063782-1.4883118c-0.0010681-8.080368,0.4201965-16.1554108,1.2627258-24.1920624
				c0.121582-0.0389252,0.2367859-0.098114,0.3391418-0.1754456c4.9688721-3.6554413,22.8392334-33.987381,22.8392334-51.4231415
				c0-6.6885834-3.5759888-10.6901093-9.5686951-10.6901093c-15.1433105,0-27.9328308,32.8899536-27.9328308,71.8243103
				c0,3.2290497,0.0661316,6.3526459,0.1887817,9.3839111c-1.3235474,3.7736359-2.8132019,7.8072968-4.385498,11.6555786
				c-6.5931091,16.1394196-10.0784607,17.8820801-11.2676086,17.8820801c-1.2275391,0-4.6115723-5.3874359-4.6115723-22.7373505
				c0-3.4522705,0.2261047-7.8324127,0.4639282-12.4669037c0.2548828-5.0589752,0.5257874-10.2992401,0.5257874-14.8153687
				c0-5.568222,0-14.8889313-10.4464111-14.8889313c-6.7904358,0-11.555603,9.2583313-18.753418,28.6799164
				c-0.6228638-3.6949005-1.4483337-7-2.5297546-8.9804993c-1.4483337-2.5308228-4.0975342-4.1364441-7.0112-4.2500305
				c-2.6086731-0.1642456-4.9059448,0.7641449-6.1516113,2.4844208c-4.8782043,6.7680511-7.7300415,15.6130981-9.6145325,21.4639587
				c-0.0618591,0.1983643-0.1237183,0.3738098-0.1813354,0.5604401c0.0853271-10.4181519,0.7647095-19.1725616,1.1891785-24.6277313
				c0.2090149-2.7217255,0.3508606-4.5219879,0.3220825-5.3709259c-0.0618591-1.9463654-1.6637573-3.4229431-4.3908081-4.0623169
				c-2.3825684-0.5492554-6.2081299-0.4527283-7.2490234,1.504303c-1.0985107,2.0493011-2.7505188,12.7783356-2.7505188,24.2661896
				c0,0.6688385,0.0082397,1.3691254,0.0213318,2.0849609c-1.1809082,2.9996033-2.4108582,5.9800873-3.7327881,8.9219055
				c-7.6969604,16.7446747-13.2993164,20.2651978-16.6321411,20.2651978
				c-1.0526428-0.0735779-8.0073242-4.4084015-8.0073242-21.1925201c0.0021362-2.391098,0.1247864-4.7806091,0.3679504-7.1594543
				c1.0323792,0.3471527,2.1127319,0.5327301,3.2027283,0.5497894c2.6427917,0,5.4498291-1.5624237,7.5092468-4.1822968
				c2.2524719-2.8635712,3.4970703-6.7851105,3.4970703-11.0404663c0-8.1768951-3.7914124-12.6818085-10.6778564-12.6818085
				c-10.7236938,0-18.5102539,12.7554016-18.5102539,30.3319397c0,1.8127899,0.1260986,3.59198,0.3546143,5.3283844
				c-0.5319214,1.3879242-1.0763855,2.7724609-1.6322937,4.1331177
				c-6.5931396,16.1394196-10.0784607,17.8820801-11.2676086,17.8820801c-1.2275696,0-4.6115723-5.3874359-4.6115723-22.7373505
				c0-3.4522705,0.2261047-7.8324127,0.4639282-12.4669037c0.2548828-5.0589752,0.5257874-10.2992401,0.5257874-14.8153687
				c0-5.568222,0-14.8889313-10.4464111-14.8889313c-6.7904663,0-11.555603,9.2583313-18.7534485,28.6799164
				c-0.6228333-3.6949005-1.4483032-7-2.5297546-8.9804993c-1.4483032-2.5308228-4.0975037-4.1364441-7.0111847-4.2500305
				c-2.6086731-0.1642456-4.9059296,0.7641449-6.1516113,2.4844208c-4.8781891,6.7680511-7.7300262,15.6130981-9.6145325,21.4639587
				c-0.0618591,0.1983643-0.1237183,0.3738098-0.1813202,0.5604401c0.0853271-10.4181519,0.7646942-19.1725616,1.1891632-24.6277313
				c0.2090302-2.7217255,0.3508759-4.5219879,0.3220825-5.3709259c-0.0618591-1.9463654-1.6637421-3.4229431-4.3908081-4.0623169
				c-2.3825684-0.5492554-6.2081146-0.4527283-7.2490234,1.504303c-1.0985107,2.0493011-2.7505188,12.7783356-2.7505188,24.2661896
				c0,0.668045,0.008255,1.3674622,0.0213318,2.082428c-1.1811676,3.000473-2.4116364,5.9818268-3.7338409,8.9244385
				c-7.6969604,16.7446747-13.2993164,20.2651978-16.6321411,20.2651978
				c-1.0526428-0.0735779-8.0073242-4.4084015-8.0073242-21.1925201c0.0021362-2.391098,0.1247864-4.7806091,0.3679504-7.1594543
				c1.0323639,0.3471527,2.1127319,0.5327301,3.202713,0.5497894c2.6427917,0,5.4498291-1.5624237,7.5092621-4.1822968
				c2.2524567-2.8635712,3.4970703-6.7851105,3.4970703-11.0404663c0-8.1768951-3.7914276-12.6818085-10.6778564-12.6818085
				c-10.7237091,0-18.5102539,12.7554016-18.5102539,30.3319397c0,16.6033478,10.0272675,30.6257629,21.8942719,30.6257629
				c9.1354218,0,16.3964539-10.032547,21.9230804-22.6714325c0.8601379,6.8866272,2.5006866,14.5559235,5.4946442,22.1051178
				c0.6590881,1.8205261,2.3815002,3.0395355,4.3182678,3.0560608c0.3487549-0.0005341,0.6974945-0.0442505,1.0355835-0.1306458
				c1.5197601-0.2975464,2.5948029-1.6610718,2.5297546-3.2091064c0.0671844-0.3562164,0.1524963-0.8425446,0.2655487-1.4536438
				c3.6783752-20.5254364,7.4250183-33.5410614,11.1193848-38.6730804c0.0682526-0.0906525,0.1311798-0.1754456,0.1877136-0.2490234
				c0.0330505,0.2319641,0.0671844,0.5145874,0.1013184,0.8654633c0.3562012,3.6165161,1.5336304,12.9196472,4.7427368,21.2095947
				c0.7636108,1.9804993,3.8020935,2.9542084,6.1569519,2.6150665c1.7650452-0.2490387,2.9136658-1.2168884,3.1344299-2.5921478
				c2.8017273-8.5842896,12.4162598-31.3003235,14.6687317-36.0190735
				c-0.0405273,1.5789642-0.0288086,4.9741821-0.0117493,9.5014954c0.0117493,2.9931488,0.0223999,6.4507599,0.0223999,10.1125946
				c0,34.0892487,11.0692749,37.7676239,15.8280029,37.7676239c5.3573303,0,10.6546631-6.2945251,15.8359985-18.7720337
				c3.7149048,9.7348633,11.081543,16.5371704,19.3448181,16.5371704c9.1351318,0,16.3959045-10.0315552,21.9222717-22.6695099
				c0.8598633,6.8860931,2.5007019,14.5546722,5.4943848,22.1031952c0.6590881,1.8205261,2.3815002,3.0395355,4.3182678,3.0560608
				c0.3487549-0.0005341,0.6974792-0.0442505,1.0355835-0.1306458c1.5197754-0.2975464,2.5947876-1.6610718,2.5297546-3.2091064
				c0.0671692-0.3562164,0.1524963-0.8425446,0.2655334-1.4536438c3.6783752-20.5254364,7.4250183-33.5410614,11.1193848-38.6730804
				c0.0682678-0.0906525,0.1311951-0.1754456,0.1877136-0.2490234c0.0330505,0.2319641,0.0671997,0.5145874,0.1013184,0.8654633
				c0.3562012,3.6165161,1.5336304,12.9196472,4.7427368,21.2095947c0.7636414,1.9804993,3.8020935,2.9542084,6.1569519,2.6150665
				c1.7650452-0.2490387,2.9136963-1.2168884,3.1344604-2.5921478c2.8016968-8.5842896,12.4162598-31.3003235,14.6687012-36.0190735
				c-0.0405273,1.5789642-0.0287781,4.9741821-0.0117188,9.5014954c0.0117188,2.9931488,0.0223999,6.4507599,0.0223999,10.1125946
				c0,34.0892487,11.0692444,37.7676239,15.8280029,37.7676239c5.8670959,0,11.6622314-7.5533295,17.3120422-22.5063324
				c1.0134277,9.2725372,2.7182312,17.3718414,5.1122742,24.1994019l0.0512085,0.1301117
				c0.8606567,2.4561615,2.7046509,3.4522858,4.4707642,3.4522858c0.4127502-0.0010681,0.8233643-0.0543823,1.222229-0.1583862
				c1.94104-0.5156555,3.1856384-2.122345,2.9083557-3.7519531c0.0128174-0.0767975,0.0159912-0.1546478,0.0117493-0.2319641
				c-0.713501-16.3271332,9.4556274-51.2823792,19.4839783-55.3398895
				c0.7465515,1.6637421,1.7255859,7.9113312,1.7255859,14.1082611c0,3.7919617-0.1748962,7.2495728-0.4692383,10.395752
				c-9.2530212,5.8225861-16.9606323,13.1057587-16.9606323,24.3045959c0,7.2554321,4.6296997,8.3416595,7.3855286,8.3416595
				c4.9059448,0,10.89328-4.4307861,15.6349792-11.5555725c4.6435547-7.0431976,7.389801-15.1651764,7.9742432-23.5804291
				c3.1907349-1.6933441,6.3019714-3.3674316,9.138092-5.1394958c-0.1146545,1.4513245-0.1773071,2.9416962-0.1773071,4.4713287
				c0,16.6033478,10.0272827,30.6257629,21.8942871,30.6257629c14.3391724,0,24.0678101-24.706131,29.7032471-45.435257
				c0.0031738-0.0118561,0.0061035-0.0227966,0.0093384-0.0345917c1.0288696,0.3079529,2.0060425,0.4766541,2.8616943,0.4766541
				c2.3484497,0,5.9755859-0.7470856,7.8035889-1.7938538c0.4746094,1.4898987,0.6985474,3.0485992,0.6622925,4.6121063
				c0,2.5180054-0.3626099,6.5078125-0.746521,10.7348938c-0.4244995,4.6856995-0.8660278,9.5297699-0.8660278,12.9591064
				c0,21.1077423,10.5200195,23.3884583,15.0409546,23.3884583c11.2612305,0,18.5443726-27.1180267,22.6760254-49.8665771
				c0.1237183-0.6793671,0.1972656-1.1155701,0.2314453-1.262207c0.3231201-1.3416595-0.1920166-2.0722198-0.5311279-2.3825684
				H597.295105z M520.2657471,196.3497925c0.4481812,0.0477295,2.104187,1.9333191,2.104187,7.0626068
				c0,9.6987915-6.0609741,10.4181519-6.1121216,10.4181519c-0.8031006,0-1.2787476-0.413269-1.94104-1.6920166
				c-0.0170898-0.0410614-0.0394897-0.0789185-0.0682983-0.1135712
				C515.8722534,202.7967529,518.881897,196.3531342,520.2657471,196.3497925z M460.6107483,165.4405518
				c4.4419861-15.4264679,9.0375671-22.098526,10.4016418-22.098526c0.4468689,0,1.1592712,1.261673,1.1592712,4.6574249
				c0,13.9893494-12.7831116,36.6696472-16.8123779,42.3178558
				C456.5484314,181.9164581,458.303894,173.6057129,460.6107483,165.4405518z M332.0318298,196.3497925
				c0.4482117,0.0477295,2.1042175,1.9333191,2.1042175,7.0626068c0,9.6987915-6.0609436,10.4181519-6.1121521,10.4181519
				c-0.8030701,0-1.278717-0.413269-1.94104-1.6920166c-0.0170593-0.0410614-0.0394592-0.0789185-0.0682373-0.1135712
				C327.6383667,202.7967529,330.6480408,196.3531342,332.0318298,196.3497925z M205.3342285,196.3497925
				c0.4481964,0.0477295,2.1042023,1.9333191,2.1042023,7.0626068c0,9.6987915-6.0609436,10.4181519-6.1121368,10.4181519
				c-0.8030701,0-1.2787323-0.413269-1.94104-1.6920166c-0.0170593-0.0410614-0.0394592-0.0789185-0.0682526-0.1135712
				C200.9407501,202.7967529,203.9504395,196.3531342,205.3342285,196.3497925z M464.9855652,250.5289917
				c-0.2154541-0.1754456-0.4703369-0.9289246-0.4703369-3.4981384c0-7.5545807,4.2670898-12.9414978,10.2149963-17.3946991
				C472.1375427,244.7735901,466.4509277,250.5113983,464.9855652,250.5289917z M551.4695435,196.3611908
				c-0.5866089-1.8994446-0.8617554-3.881012-0.8148193-5.8684387c0-10.8874207,2.0487671-16.8017273,2.9990234-18.3582916
				c0.5268555,0.725235,1.4259033,2.9200897,1.4259033,7.9454651
				C555.0839233,185.7057495,553.8510132,191.2643738,551.4695435,196.3611908z"/>
			<path class="st0" d="M610.9165039,238.4017639c-3.4692993,0-6.2816772,3.0619354-6.2816772,6.8362885
				c0,3.7173157,2.7334595,6.7344513,6.1345215,6.8245697c-0.1759644,0.9219971-1.5795288,3.5541382-2.2866211,4.6291809
				c-0.4777832,0.6990967-0.3977661,1.6381531,0.1930542,2.2460327c0.5385742,0.5503235,1.2840576,0.8500061,2.0540771,0.8260193
				c0.5983276-0.0032043,1.1881104-0.1546326,1.7138672-0.4404602c1.2115479-0.6393738,4.6296997-4.5273132,4.7427979-13.7232513
				c0.0053101-0.118927,0.0170288-0.2373047,0.0170288-0.3620911
				C617.2056885,241.4636993,614.3911743,238.4017639,610.9165039,238.4017639z"/>
		</g>
		<g>
			<path class="st0" d="M160.5399323,314.4265442c-10.1552734-0.5711365-36.6685867,1.177948-37.7766876,1.7581177
				c-0.8681335,0.4580688-0.9555893,1.6051025-0.7636185,2.451355c0.2442322,1.0734558,0.9033356,1.7581482,1.7234726,1.7885437
				c0.0341339,0,0.077858,0.0047913,0.1258545,0.0047913c0.6505661,0,2.6044006-0.109314,5.6364746-0.2794189
				c2.2247314-0.1263733,4.5145111-0.2575684,5.3613281-0.2746277c-0.8340149,4.5497131-1.6925507,19.7260742-1.6925507,39.8056946
				c0,22.2169189,2.8486328,50.6414185,3.8820801,57.769928c-1.0675659,0.074646-2.1255493,0.2453003-3.1621857,0.5097961
				c-0.6985626,0.2666016-1.0643768,0.9907837-0.9641266,1.8930359c0.1045227,0.9342651,0.7102966,1.9506226,1.6701508,2.085022
				c0.0213318,0.0053406,0.0437317,0.0064087,0.0661163,0.0053406c1.1336975,0,13.9541626-1.4003296,14.6441956-1.6061707
				c0.6377563-0.2239685,1.0430298-0.8521423,0.9854431-1.5272217c0.0298615-0.9172058-0.5332489-1.7490845-1.3960571-2.0626221
				c-0.4713898-0.1439819-1.287262-0.1087952-2.4817505-0.0394592c-0.2410278,0.013855-0.4586029,0.0266418-0.6281738,0.0351868
				c-0.1749115-3.9919434-1.1390228-26.9847107-1.1390228-49.0187073c0-18.4265442,0.8468018-32.0762024,1.3523254-40.2333679
				c0.3263397-5.309082,0.4532623-7.494873,0.2612915-8.2883606c-0.0085297-0.0351868-0.0213318-0.0655823-0.0309296-0.0959778
				c0.037323,0.0021362,0.0735931,0.0021362,0.109848,0c0.5929718-0.0565186,3.5642548-0.1045227,6.4342194-0.1525269
				c6.9184265-0.1178284,8.6024323-0.170105,9.0087738-0.2969971c0.9502563-0.2319641,1.5848236-1.1289063,1.4867096-2.1026306
				C163.1358032,315.5959473,162.2367401,314.522522,160.5399323,314.4265442z"/>
			<path class="st0" d="M310.1428528,360.8248291c-0.7465515-0.230896-1.7629089,0.2229004-2.1852722,1.5272522
				c-0.1013184,0.3183289-0.2399597,0.7630615-0.414856,1.3165894c-1.151825,3.6474609-3.8479614,12.1928101-6.9493408,19.7831421
				c-5.0819092,12.4407654-7.7695007,13.7845764-8.6856384,13.7845764c-0.9459839,0-3.554657-4.1529846-3.554657-17.5280151
				c0-2.6609192,0.1749268-6.0364075,0.3572998-9.6092224c0.196228-3.9002075,0.4063416-7.9395752,0.4063416-11.4206543
				c0-4.2926941,0-11.4777222-8.0531921-11.4777222c-5.2344055,0-8.9074402,7.1370544-14.4564819,22.1080933
				c-0.4799194-2.8480835-1.1166382-5.3959656-1.9495544-6.9226685c-1.1166382-1.9506531-3.1589966-3.188324-5.4050598-3.2757874
				c-2.0114441-0.1268921-3.7818298,0.5887146-4.741684,1.914917c-3.760498,5.2173462-5.9596252,12.0355225-7.4122162,16.5457764
				c-0.0479889,0.1524963-0.0959778,0.2879333-0.1386414,0.4319153c0.0650635-8.0307617,0.5887146-14.7790833,0.9150543-18.984314
				c0.1621094-2.0983582,0.2709045-3.4858704,0.2495728-4.1401672c-0.0479889-1.5005798-1.2830048-2.6390686-3.3850861-3.1318054
				c-1.8365326-0.4234009-4.7854156-0.3492737-5.5884857,1.1598206c-0.846817,1.5794983-2.120224,9.8502502-2.120224,18.7059631
				c0,2.0484924,0.0762634,4.4012146,0.2796936,6.951355c-0.1661072,0.552063-0.33461,1.1044922-0.5057831,1.655365
				c-4.3310852,13.9594727-6.743515,16.131958-7.5327301,16.4412231c-0.8297424-1.0334473-3.8650055-6.7531128-3.8650055-18.6488953
				c-0.0245361-6.2027893,0.3583374-12.4002686,1.1464844-18.5529175c0.1087799-0.7172241,0.182373-1.43927,0.2186279-2.1634216
				c0-1.7405396-1.6360168-3.1013794-4.2660065-3.5551758c-2.1596832-0.3711548-4.7512817-0.0085449-5.348526,1.6712036
				c-0.1183929,0.3354187-0.2271729,0.7150879-0.3359528,1.1203613c-2.098877-1.4621887-4.583847-2.2711182-7.1413116-2.3244324
				c-8.562973,0-14.3167725,8.8205261-14.3167725,21.9508057c0,14.5044556,6.3606415,21.026123,10.879425,21.026123
				c4.5806274,0,6.0897369-5.0776062,7.9966431-11.5032959c0.4447327-1.4920654,0.933197-3.1408691,1.4909821-4.8419495
				c1.3267365,11.1023254,6.6134033,19.943634,12.5335693,19.943634c1.3779144,0,2.7387848-0.6836243,4.0431213-2.0370178
				c2.1020813-2.1815186,4.140976-6.1617126,6.0940094-11.8742065c0.7454834,4.0287476,1.8615875,8.2664795,3.5237274,12.4586487
				c0.508728,1.4035339,1.8365173,2.3431091,3.3285675,2.3559265c0.2698212,0,0.5375214-0.0341492,0.7988129-0.1002502
				c1.1710205-0.2303772,1.9996948-1.2808838,1.9495697-2.4743042c0.0522614-0.2751465,0.1183777-0.6495056,0.2047729-1.1208801
				c2.8358307-15.8216248,5.7239227-25.8552856,8.5725555-29.8120422c0.0522766-0.0693054,0.1002502-0.1343689,0.1439819-0.1914368
				c0.0256042,0.1786499,0.0522766,0.3972778,0.0778503,0.6671143c0.275177,2.7878418,1.1827698,9.9590149,3.6559753,16.3495178
				c0.5887146,1.5272217,2.9318237,2.2780457,4.7459717,2.015686c1.3608398-0.1919556,2.2471008-0.937439,2.416687-1.9975586
				c2.159668-6.6176453,9.5708313-24.1280823,11.3070984-27.7659302c-0.0309448,1.2168884-0.0213318,3.8346252-0.0085449,7.3242188
				c0.0085449,2.3079224,0.0170593,4.973114,0.0170593,7.795105c0,26.2786865,8.5331116,29.114502,12.2019043,29.114502
				c6.6176453,0,13.1169434-12.4588928,19.3197327-37.0317078c0.1482544-0.5759277,0.2623596-1.0339661,0.3060913-1.1651611
				C311.4162598,361.805481,310.8051758,361.0343933,310.1428528,360.8248291z M215.7091675,364.8338318
				c-0.7593536,3.8735352-2.3036499,10.5701294-3.9439392,16.336731
				c-2.7046509,9.4876099-4.1743011,11.2548218-4.5934296,11.5822449c-0.532196-0.6463013-1.6701508-3.90448-1.6701508-10.9317017
				c0-17.4320068,6.0982819-21.9774475,7.2106476-22.0867615c0.9331818,0,2.682251,1.710144,3.1408539,2.5478821
				c0.0170593,0.026123,0.0351868,0.0431824,0.0522614,0.0698547
				C215.8318176,363.128479,215.765686,363.9555664,215.7091675,364.8338318z"/>
			<path class="st0" d="M611.0647583,362.2774048c-0.2250366-0.377533-0.6377563-0.6030884-1.0772095-0.5887146
				c-0.6323853,0.0218811-1.2264404,0.4927368-1.6402588,1.2958069c-2.0892944,4.0740662-8.3624878,8.3059387-15.0067749,12.7852783
				c-2.7131958,1.8279724-5.5266724,3.7253113-8.1918335,5.7058105c-4.7640991-3.0139465-9.2348633-5.8849792-9.2348633-11.2676392
				c0-2.9136963,1.0942383-6.6523132,2.7921143-9.5137634c1.1069946-1.8759766,3.4501343-5.0168457,6.6912231-5.0168457
				c1.6317749,0,3.232605,2.4695129,3.232605,4.9816589c-0.0810547,1.1827393-0.3210449,2.3500366-0.7156372,3.4682617
				l-0.0309448,0.1040039c-0.2229004,0.7198792,0.1077271,1.4952393,0.7817383,1.8322449
				c0.821228,0.4815369,1.8632202,0.3567505,2.546814-0.3050232c0.7860107-0.8809204,1.4227295-3.7999573,1.4227295-5.6274109
				c0-4.270813-3.8127441-10.2816467-12.2893066-10.2816467c-7.6116943,0-16.4540405,7.2719727-16.4540405,16.6465454
				c0,2.6068115,0.5812378,4.785675,1.5349731,6.6667175c-2.4231567,4.229248-5.2165527,8.2443542-8.3776855,11.9773865
				c-0.7550659-15.3214111-2.8795776-25.5849304-4.3929443-27.7659302
				c-3.9130249-5.6535339-10.272583-3.8084717-10.0283203-1.0734253c0.0298462,0.3359375,0.2836914,1.684021,0.6494751,3.8388977
				c-2.1329956,20.8517761-8.4019165,33.638092-11.9960327,33.638092c-0.5930176,0-2.3121948-2.0978088-2.3121948-8.5331116
				c0-7.5732422,1.7053223-15.4685974,2.6171875-19.7084656c0.4234009-1.9591675,0.5940552-2.7697144,0.5802002-3.2016602
				c-0.0778809-2.0764771-2.62146-3.3418884-4.7715454-3.795166c-2.0551758-0.4361877-4.7555542-0.3231506-5.6013184,1.4173889
				c-1.0387573,2.1287537-2.5830688,11.3636169-2.5830688,19.7527466c0,1.1771545,0.0429688,2.2715149,0.1165161,3.3050842
				c-3.7714233,11.4572144-5.9060059,13.3586426-6.6392212,13.6459351
				c-0.8297729-1.0334473-3.8650208-6.7531128-3.8650208-18.6488953
				c-0.0245361-6.2027893,0.3583374-12.4002686,1.1464844-18.5529175c0.1087646-0.7172241,0.182373-1.43927,0.2186279-2.1634216
				c0-1.7405396-1.6360168-3.1013794-4.2660217-3.5551758c-2.159668-0.3711548-4.7512817-0.0085449-5.3485107,1.6712036
				c-0.1183777,0.3354187-0.2271729,0.7150879-0.335968,1.1203613c-2.098877-1.4621887-4.5838318-2.2711182-7.1412964-2.3244324
				c-5.3080139,0-9.532959,3.3946838-11.9805908,9.0991516c-1.4008484,0.3823242-2.8478394,0.597229-4.3103027,0.6326904
				c-2.1415405,0.023468-4.273468-0.2671509-6.3296814-0.8633423c0.065033-1.6706848,0.0959778-3.3541565,0.0959778-5.0429688
				c0-8.9079895-3.3637695-15.6210938-7.8217468-15.6210938c-4.4451904,0-6.0289612,4.8467407-6.0289612,9.3836365
				c0,4.8072815,2.1159363,8.8770752,6.1164246,11.7779541c1.0025024,0.7204285,2.0732727,1.3411255,3.1973572,1.854126
				c-0.8595886,19.1944275-9.2913818,36.3939514-13.2918396,36.5603333
				c-1.0387878-0.4276733-7.1199951-7.2682495-7.1199951-27.906189c0-2.6257324,0.2015686-5.2823792,0.3626099-7.4196777
				c0.1269226-1.6493225,0.2271729-2.9579468,0.2005005-3.7908936c-0.0522461-1.7229309-2.1543274-2.8224792-3.9385986-3.2410889
				c-1.9943542-0.4666138-4.6808777-0.3444824-5.6929932,1.5400391c-1.4440613,2.6955872-1.8674622,9.705719-1.9890442,14.0592041
				c-4.8248596,15.2328796-7.5561829,17.1525879-8.0222473,17.3744202c-0.5023193-0.401001-1.954895-3.0704651-1.954895-11.2366943
				c0-8.1576843,1.6008301-19.7564697,2.2865906-24.7077332c0.1439514-1.068634,0.2527466-1.8365173,0.2922058-2.220459
				c0.1343689-1.2392883-0.9555969-2.4993591-2.9190063-3.3808289c-2.4167175-1.0867615-5.6311646-1.3309937-7.3588867,0.5753784
				c-1.3875427,1.5363159-4.0527344,11.3070984-4.0527344,20.6512756c0,1.7777405,0.0802612,3.4914856,0.2316895,5.1383057
				c-0.5657654,2.0342102-1.1760864,4.1427002-1.8239746,6.2519836
				c-1.4781799,4.8024597-6.5782166,20.4811707-10.1861877,20.4854126
				c-1.0643921-0.2005005-5.3783875-5.4700928-5.3783875-26.0653687c0-4.4441223,0.2356873-8.7677307,0.6281738-12.8817749
				c0.0362549-0.0218811,0.0703735-0.0480042,0.1002502-0.0778809c6.6656494-6.0678711,19.4732971-29.8690491,19.4732971-46.4894714
				c0-5.639679-2.7259827-8.6195068-7.8825378-8.6195068c-11.7304688,0-23.2423401,31.0422363-23.2423401,62.6731873
				c0,2.111145,0.0698547,4.1544189,0.1994324,6.1286621c-0.1402283,0.4639282-0.2815552,0.9282532-0.4255371,1.3912659
				c-4.3310547,13.9594727-6.7434998,16.131958-7.5327148,16.4412231
				c-0.8297424-1.0334473-3.8650208-6.7531128-3.8650208-18.6488953
				c-0.0245361-6.2027893,0.3583679-12.4002686,1.1465149-18.5529175c0.1087646-0.7172241,0.1823425-1.43927,0.2186279-2.1634216
				c0-1.7405396-1.6360168-3.1013794-4.2660217-3.5551758c-2.159668-0.3711548-4.7512817-0.0085449-5.3485413,1.6712036
				c-0.1173096,0.3354187-0.2271423,0.7150879-0.3359375,1.1203613c-2.098877-1.4621887-4.5838318-2.2711182-7.1413269-2.3244324
				c-8.5629578,0-14.3167419,8.8205261-14.3167419,21.9508057c0,14.5044556,6.3606262,21.026123,10.8793945,21.026123
				c4.580658,0,6.0897522-5.0776062,7.9966736-11.5032959c0.4447327-1.4920654,0.933197-3.1408691,1.4909668-4.8419495
				c1.3267212,11.1023254,6.6134033,19.943634,12.5335693,19.943634c1.3779297,0,2.7387695-0.6836243,4.0431213-2.0370178
				c2.0466309-2.1239319,4.0327148-5.9598999,5.9385681-11.432251c2.3092346,12.8100586,7.7359009,20.9380188,14.7377625,20.9380188
				c5.1245422,0,9.8630371-7.4356689,14.0903931-22.0777283c0.5127258,1.574707,1.1126404,3.0396729,1.8186646,4.3502808
				c2.3782959,4.4057312,5.6407471,6.8352356,9.1868896,6.8352356c4.3929138,0,6.5003357-4.6638184,8.7335815-9.6017456
				c0.2623596-0.5759277,0.532196-1.1646423,0.8031006-1.7490845c2.5126648,11.4425354,10.3205566,20.171875,16.925415,20.171875
				c5.5831604,0,10.3205872-5.3175964,13.6928711-15.3779297c2.2119446-6.586731,3.708252-14.9971924,4.315094-23.9185181
				c2.0935364,0.49646,4.2382813,0.7438965,6.3904724,0.7380371c1.0427856,0.0174561,2.0780945-0.0778503,3.1038208-0.2335815
				c-0.6423035,2.624939-0.9899902,5.5663757-0.9899902,8.7698975c0,14.5044556,6.3606262,21.026123,10.879425,21.026123
				c4.5806274,0,6.0897217-5.0776062,7.9966431-11.5032959c0.4447327-1.4920654,0.933197-3.1408691,1.4909668-4.8419495
				c1.3267517,11.1023254,6.6134033,19.943634,12.5335693,19.943634c1.3779297,0,2.7387695-0.6836243,4.0431519-2.0370178
				c1.6829224-1.7463989,3.3248291-4.6517029,4.914978-8.6686707c2.2890015,6.6928406,6.8336182,7.9370422,9.8838501,7.9370422
				c8.5981445,0,11.9703979-14.6974792,13.9903564-23.4790955c0.182373-0.8105469,0.3572998-1.5656433,0.5183716-2.2279358
				c0.942749,7.8078918,1.4642944,15.6616211,1.562439,23.5249634
				c-18.4963989,16.611908-38.5232544,25.7422485-38.5232544,48.9845886c0,10.5168152,5.8796387,17.7103882,14.8745117,17.7103882
				c16.8828125,0,34.3841553-21.9977417,34.3841553-65.7905579c0-2.1906128-0.02771-4.3086853-0.0831909-6.3563843
				c3.8876953-4.395874,7.2722168-9.1914063,10.144043-14.2799683c2.5641479,3.0071411,6.1662598,5.1074829,9.5286865,7.0597229
				c1.203064,0.6985779,2.3900757,1.3875427,3.5109863,2.1074219c-5.0648804,4.4537354-8.7720337,9.3521729-8.7720337,14.8969421
				c0,4.8856506,4.0825806,8.2974243,9.932373,8.2974243c3.503479-0.0863953,6.8735962-1.3630066,9.553772-3.6207886
				c3.0576172-2.556427,4.7416382-5.9767151,4.7416382-9.6369629c0-5.7313843-3.6815796-9.0556946-7.8995972-11.9000549
				c2.1372681-1.6136169,4.4057617-3.1973877,6.6517944-4.7683411c6.8096313-4.7544861,13.2438965-9.2476501,16.2802124-14.434082
				C611.2962036,363.5662842,611.3527222,362.8666687,611.0647583,362.2774048z M402.4296875,334.4506836h0.0021362
				c3.886322-12.6503296,7.6159058-18.9240417,8.6504211-19.6172791c0.3178101,0.1530457,1.3000488,1.3000793,1.3000488,5.3090515
				c0,14.0768127-12.0578918,36.0281372-15.4205933,39.3695068
				C398.1071472,351.0247192,399.9361877,342.6435852,402.4296875,334.4506836z M363.4339905,364.8338318
				c-0.7593384,3.8735352-2.3036499,10.5701294-3.9439392,16.336731
				c-2.7046509,9.4876099-4.1742859,11.2548218-4.5934448,11.5822449c-0.5321655-0.6463013-1.6701355-3.90448-1.6701355-10.9317017
				c0-17.4320068,6.0982666-21.9774475,7.2106323-22.0867615c0.933197,0,2.6822815,1.710144,3.1408691,2.5478821
				c0.0170593,0.026123,0.0351868,0.0431824,0.0522461,0.0698547
				C363.5555725,363.128479,363.490509,363.9555664,363.4339905,364.8338318z M462.2254333,351.4374695
				c0-1.8103943,0.5588379-3.7391663,0.9768982-4.2708435c0.7284241,0.6148376,2.7046814,4.0527344,2.8881226,13.6320801
				C463.8262634,358.9264526,462.2254333,355.995697,462.2254333,351.4374695z M499.1243591,364.8338318
				c-0.7593384,3.8735352-2.3036499,10.5701294-3.9439392,16.336731
				c-2.7046509,9.4876099-4.1742859,11.2548218-4.5934143,11.5822449c-0.532196-0.6463013-1.670166-3.90448-1.670166-10.9317017
				c0-17.4320068,6.0982971-21.9774475,7.2106628-22.0867615c0.9331665,0,2.682251,1.710144,3.1408386,2.5478821
				c0.0170593,0.026123,0.0351868,0.0431824,0.0522766,0.0698547
				C499.2470093,363.128479,499.1809082,363.9555664,499.1243591,364.8338318z M522.7346802,458.342865
				c-5.0467529,0-9.0599976-6.2379761-9.0599976-15.3470154c0-20.4886169,16.3708496-28.0800171,32.8995361-42.2272034
				C545.8895264,442.5393982,531.2741699,458.342865,522.7346802,458.342865z M578.8925781,404.4342346
				c-1.8365479,0-2.9307861-1.7714844-2.9307861-4.7331543c0-4.5497131,2.9787598-8.6322937,7.2149048-12.4663696
				c2.477478,2.0412903,4.1838989,4.4750366,4.1838989,7.8995972
				C587.3605957,400.1767273,582.1603394,404.4342346,578.8925781,404.4342346z"/>
		</g>
		<g>
			<path class="st0" d="M321.1339111,470.2827454c-7.827179,28.4920654-14.0417786,36.6379395-15.5343018,36.6379395
				c-0.9145508,0-2.5136719-6.1405334-2.5136719-15.7789307c0-6.8755798,1.0492554-13.5210876,1.0492554-18.173645
				c0-6.4367981-1.4420166-9.9436035-2.4822693-11.6111755c-2.2454834-3.6178894-6.8385315-4.3024292-8.9033508-3.2397156
				c-7.1482544,3.6829834-14.0889282,31.6139526-15.0450134,34.9513245
				c-0.0044861-0.9931335-0.0145874-2.0109558-0.0145874-3.0500793c0-15.6869202,1.4509583-28.615509,3.5123901-38.9978943
				c3.9916077-1.5990906,18.6214294-13.2528992,18.6214294-30.2841797c0-4.3248596-1.6866455-7.7351685-6.8531494-7.7351685
				c-10.2017212,0-18.8334961,17.7427368-23.0932617,38.716217c-6.3066406,0.6643372-12.67276,0.5117188-18.9412384-0.4533386
				c0.7765503-8.0527649,1.5946198-14.0182495,2.0704193-17.4981079c0.2266846-1.6495972,0.3647156-2.6472168,0.3972473-3.1466064
				c0.1066132-1.5160522-1.2108307-2.8828735-3.5157776-3.6549072c-2.6618042-0.896637-6.1551361-0.8270569-7.3839264,1.058197
				c-0.8135681,1.2422485-2.2825012,9.4633179-3.4192657,20.8343506c-1.2848969-0.3131104-2.5596924-0.6329041-3.8266296-0.947113
				c-7.2167206-1.8067322-14.0328217-3.5112915-21.0744781-3.5112915c-8.3795776,0-14.8141327,2.7357178-19.0489502,5.6776428
				c-0.2524872-0.0423584-0.5075073-0.0723877-0.7675629-0.0723877c-4.7086639,0-6.3863068,5.132843-6.3863068,9.9391174
				c0,5.0913086,2.2409821,9.4027405,6.4783173,12.4752502c1.0626984,0.7630615,2.1972198,1.4206848,3.386734,1.9638062
				c-0.91008,20.331604-9.8414917,38.5501404-14.0788269,38.7263489c-1.0997314-0.4533691-7.5410309-7.6981506-7.5410309-29.5592957
				c0-2.7818604,0.2132111-5.5951538,0.3837891-7.8597107c0.1335297-1.7461243,0.2401428-3.1331177,0.2120819-4.0151672
				c-0.0549774-1.824646-2.2825012-2.9894714-4.1722565-3.4327393c-2.1119232-0.494873-4.9577637-0.3646851-6.0294495,1.6305237
				c-1.5295258,2.855957-1.9783936,10.2814026-2.1074524,14.8924255
				c-5.1103821,16.1357727-8.0033569,18.1691589-8.4971161,18.4036865
				c-0.5319214-0.4241638-2.0704193-3.2520752-2.0704193-11.9017944c0-8.6407776,1.6956024-20.9274902,2.4216614-26.1714172
				c0.1526184-1.1322632,0.2670746-1.9458618,0.3097229-2.3520813c0.1425171-1.3129578-1.012207-2.6483459-3.0915985-3.5808716
				c-2.5596924-1.1513367-5.9654999-1.410553-7.7957611,0.6093445c-1.4689331,1.6271667-4.2923279,11.9769897-4.2923279,21.8746033
				c0,7.7766724,1.3858795,14.4581299,4.0061646,19.319397c2.5181732,4.6671143,5.974472,7.2402649,9.7315216,7.2402649
				c4.6525421,0,6.884552-4.9398193,9.2501068-10.1702881c0.2771759-0.609314,0.5644531-1.2332458,0.8506012-1.8526917
				c2.6618042,12.120636,10.932251,21.3662415,17.9279022,21.3662415c5.9149933,0,10.9333649-5.6333313,14.5041351-16.2883911
				c2.3431091-6.976593,3.9276123-15.8855591,4.5706177-25.3353882c2.2174225,0.525177,4.4898376,0.7877502,6.7689819,0.7810364
				c1.610321,0.0270691,3.2080231-0.165802,4.7684021-0.5263062c-0.0967865,2.1286316-0.1495209,4.3837891-0.1495209,6.6859131
				c0,16.755249,6.6679688,26.8694153,13.7747192,26.8694153c4.1256714,0,7.6953278-5.1833496,10.5624847-11.7618103
				c0.7047272,10.8051453,2.0866852,19.29245,4.140274,25.309845c2.5282593,7.4030151,6.0619965,11.1544189,10.5035706,11.1544189
				c4.1531677,0,7.9147034-5.6276855,11.5045471-17.2119141c1.502594-4.8377075,2.9625549-10.7066956,4.3809814-17.5542297
				c1.034668,6.838562,2.2735291,11.5337524,2.6887512,12.6233826c1.7932434,4.7277222,6.9215698,2.0154419,7.0326843-0.1425171
				c0.0044861-0.0740967,0-0.268219-0.0134888-0.5633545c4.3428345-28.8331909,12.887085-44.7613831,13.9733582-44.7613831
				c1.4689331,0-6.5479126,44.5526733,12.507782,44.5526733c11.2374878,0,19.3092957-38.4760742,19.4809875-40.2176819
				C324.5004578,468.7127991,321.5502319,468.7633057,321.1339111,470.2827454z M294.8379517,417.3619995
				c0.8079529,0,1.0997314,2.1949768,1.0997314,4.2507935c0,11.4507141-10.8166504,23.2975159-13.7926636,25.0032349
				C286.7885742,426.4976501,293.5575562,417.3619995,294.8379517,417.3619995z M194.0221405,462.2186279
				c0.0272217,0.0011292,0.0530243,0.0108032,0.080246,0.0113831c0.7226715,0.0100708,1.4172974-0.2805481,1.9177856-0.8034973
				l0.2771912-0.3007507c0.2348022-0.2488403,0.4735565-0.4828186,0.7106171-0.7235107
				c0.4598083,2.1846008,0.8231049,5.1346741,0.8985748,9.0769958
				C195.9839935,467.8895569,194.5299225,465.5602112,194.0221405,462.2186279z M228.2345123,505.9230652
				c-0.9516144,0-3.7144012-6.7420349-3.7144012-16.5094604c0-10.3094482,1.719162-20.8074036,1.3219147-24.6239319
				c-0.4668274-4.4449463-8.5487366-4.5189819-9.9671783-2.1994629c-0.7515717,1.2301941-1.3639984,4.7930908-1.7404938,9.4529419
				c-1.5814209,0.4606628-3.2200775,0.7225342-4.8792267,0.7633667c-2.2679138,0.0246887-4.5268555-0.283905-6.7050018-0.9157104
				c0.0695801-1.7685547,0.1021118-3.5527954,0.1021118-5.3415527c0-3.7421875-0.5672455-7.1072998-1.5382233-9.8193359
				c4.7611237-3.7127075,9.9228516-5.9357605,15.4288177-6.6390686c-0.2263947,0.6303711-0.359375,1.3132324-0.359375,2.0328064
				c0,3.0478516,2.2308807,5.5188904,4.9835815,5.5188904c2.7515869,0,4.9835815-2.4710388,4.9835815-5.5188904
				c0-0.6295166-0.1152954-1.2242737-0.2906342-1.7879028c2.9485168,0.4354248,6.3189697,1.1017151,9.8145599,1.7980042
				c0.9976044,0.1986389,2.0187988,0.4017639,3.0500793,0.6015015c-0.7069855,8.0762939-1.2108307,17.3780212-1.2108307,26.7481995
				c0,3.168457,0.0443268,6.1900635,0.1239929,9.0939941C234.068985,498.3161316,230.1828918,505.9230652,228.2345123,505.9230652z
				 M267.0303955,479.2842712c0,2.75354,0.092041,5.4241943,0.2446594,7.979248
				c-2.9805298,14.6197205-7.7666016,34.4519348-13.09021,42.3633118c-0.0897675,0.1380005-0.1896515,0.2692871-0.3007355,0.3927612
				c-0.105484-0.1862793-0.1986237-0.3793335-0.2771759-0.5779419c-3.8580475-9.2041016-4.6660156-24.5453796-4.6660156-35.7918396
				c0-15.4523621,0.7709351-28.6300964,1.6765289-38.9114685c3.2588043,0.4454956,6.5456696,0.6441345,9.8336334,0.5914001
				c3.8670349-0.1054993,7.0001526-0.2715759,8.8203125-0.4668274
				C267.8148193,462.9220886,267.0640564,471.0937805,267.0303955,479.2842712z"/>
			<path class="st0" d="M496.5604553,470.6351013c-0.3882751-0.2794189-0.8999939-0.3186951-1.326416-0.1021118
				c-0.2681885,0.1346436-0.901123,0.5734253-0.942627,1.7977295c-0.8472595,6.2965393-2.0726624,12.5358276-3.668396,18.6864929
				c-2.8379822,10.7975769-6.1371765,17.0121765-9.0526123,17.0593262
				c-1.2568359-0.3097229-6.1450195-5.4111328-6.1450195-23.7923889c0.038147-5.5615234,0.3848877-11.1163025,1.0391235-16.6385193
				c0.0785522-0.7350464,0.1436462-1.3174438,0.176178-1.7236633c0.1615906-1.8022156-2.2780151-3.2251587-4.607666-3.7806091
				c-2.9333496-0.6968994-5.2158508,0.0235596-5.9643555,1.8908691c-0.6104736,1.5238953-0.9201965,4.7209778-1.0627136,8.3905029
				c-0.3512268,1.9963379-2.0984497,10.0176697-4.3304749,17.5216675
				c-4.0847168,13.7421875-6.4917908,14.7027588-6.9170837,14.7588806c-0.4152222-0.3097229-1.3903809-2.6113281-1.3903809-9.989624
				c-0.0101013-8.2749329,0.5442505-16.5408936,1.6585693-24.739502c0.1447754-0.8831787,0.2390137-1.7730408,0.2816772-2.6662903
				c-0.0695801-1.7887573-1.9447327-3.2071838-4.7872009-3.6134338c-2.2499695-0.3231812-4.772644,0.1010132-5.3314819,1.778656
				c-0.5139465,1.5437012-1.3353882,8.7485046-1.8226929,15.0220337c-1.7233887,2.1960754-3.7573242,4.1225891-5.9966431,5.0088196
				c0.0090027-0.4567261,0.0134888-0.8360291,0.0134888-1.1221619c0-12.0050659-4.6626587-19.4675293-12.1711426-19.4675293
				c-0.3018494,0.0033569-0.6014709,0.0471191-0.8909912,0.1301575c-0.6800537-0.7159424-1.8852844-1.0817566-3.5999451-1.0817566
				c-4.047699,0-7.5084839,3.2767334-10.0131836,9.467804c-1.4153442,3.6594238-2.3464966,7.4787292-2.795929,11.3625793
				c-2.2510681,3.667572-4.7667236,7.1741028-7.5572815,10.4693604c-0.8001099-16.2277832-3.0500793-27.1005554-4.653656-29.4100037
				c-4.1442261-5.9890747-10.8817749-4.0342407-10.6225281-1.1367798c0.0325317,0.3557434,0.2996216,1.7831421,0.6878967,4.0656433
				c-2.2589722,22.0867004-8.8988647,35.630249-12.7064209,35.630249c-0.628418,0-2.4485779-2.2218933-2.4485779-9.0380249
				c0-8.0213013,1.8067017-16.3848877,2.771759-20.8758545c0.4488831-2.0748901,0.628418-2.9344788,0.6149597-3.3912048
				c-0.0830383-2.1994629-2.7774048-3.5393372-5.0554199-4.020752c-2.1759033-0.4612122-5.0363159-0.3422852-5.9329529,1.502594
				c-1.0997314,2.2544556-2.7358398,12.0364685-2.7358398,20.9218445c0,16.8708191,7.5095825,19.3889771,11.9814758,19.3889771
				c9.1075745,0,12.6794739-15.5679626,14.819458-24.8696899c0.1941528-0.8584595,0.3781738-1.6585693,0.5498657-2.3599243
				c0.9976196,8.2704468,1.5508423,16.5891418,1.6540833,24.9190674
				c-19.5920715,17.5957336-40.8056946,27.2666321-40.8056946,51.8860779c0,11.1398315,6.229187,18.7594604,15.7564697,18.7594604
				c17.881897,0,36.4202576-23.302002,36.4202576-69.688324c0-2.3195496-0.0291748-4.5639038-0.0875244-6.7330627
				c2.5798645-2.9171143,4.9454346-6.0042114,7.1103821-9.2220459c0.7526855,12.6854858,8.6654358,20.4595337,16.0378723,20.4595337
				c5.1474304,0,9.0840149-3.8389893,11.3855896-11.1028442c1.1064758-3.7200012,1.8011169-7.5511169,2.0704346-11.4226379
				c2.1860046-0.4671021,4.1298828-1.5536499,5.8347473-2.9746094c-0.0227051,0.6550903-0.0353394,1.2495422-0.0353394,1.7637939
				c0,5.9183655,1.0671997,11.0018311,3.0870972,14.6937866c1.9537048,3.5808716,4.6570435,5.5491638,7.6094971,5.5491638
				c6.6309204,0,9.7775269-12.1015625,11.8613892-20.1094055c0.2177124-0.831543,0.4118652-1.575531,0.5914001-2.2365112
				c1.145752,15.4793091,7.2963867,25.9638367,15.5903931,25.9638367c10.0176697,0,13.8252258-19.2218018,16.4500122-39.9876709
				C497.2640686,471.5990601,497.0339966,470.9998169,496.5604553,470.6351013z M363.0090637,572.8014526
				c-5.347168,0-9.5979614-6.6073608-9.5979614-16.2558594c0-21.7028809,17.3421021-29.7421875,34.8491821-44.7277222
				C387.5353699,556.0619507,372.0538025,572.8014526,363.0090637,572.8014526z M425.6680603,506.3528748
				c-0.9841614,0.9291687-1.7831421,1.2332764-2.1759033,1.2141724c-1.7932434-0.1009827-5.9980469-6.8239441-5.9980469-19.4102783
				c-0.0392761-3.384491,0.3400269-6.7599792,1.1278076-10.0502014c2.2959595,5.0733337,6.9260559,10.3453369,12.8634949,11.4540405
				C430.7694702,500.6510925,426.9327393,505.1600037,425.6680603,506.3528748z M424.3191833,472.3857117
				c0-2.8458557,0.5914001-3.7233887,0.7350464-3.7884827c2.6146545,0,6.4637451,5.3640137,6.5467834,16.8696899
				C428.1682739,483.8397522,424.3191833,478.7574158,424.3191833,472.3857117z"/>
		</g>
		<g>
			<path class="st1" d="M606.9489136,292.6481323H101.0937424c-2.3733368,0-4.2973099,1.9239807-4.2973099,4.2973022v0.0000305
				c0,2.3733215,1.9239731,4.2973022,4.2973099,4.2973022h505.8551636c2.3733521,0,4.2973633-1.9239807,4.2973633-4.2973022
				v-0.0000305C611.2462769,294.572113,609.3222656,292.6481323,606.9489136,292.6481323z"/>
		</g>
	</g>
</g>
<g id="Rest_In_Peace">
</g>
<g id="In_Loving_Memory">
</g>
<g id="An_Angel_Watches_Over_Me">
</g>
<g id="A_Beautiful_Soul_Is_Never_Forgotten">
</g>
<g id="I_Believe_In_Angels_Because_Of_You">
</g>
<g id="You_Will_Never_Be_Forgotten">
</g>
<g id="Always_With_Us">
</g>
</svg>
