<?xml version="1.0" encoding="iso-8859-1"?>
<!DOCTYPE svg PUBLIC "-//W3C//DTD SVG 1.1//EN" "http://www.w3.org/Graphics/SVG/1.1/DTD/svg11.dtd" [
    <!ENTITY ns_flows "http://ns.adobe.com/Flows/1.0/">
    <!ENTITY ns_extend "http://ns.adobe.com/Extensibility/1.0/">
    <!ENTITY ns_ai "http://ns.adobe.com/AdobeIllustrator/10.0/">
    <!ENTITY ns_graphs "http://ns.adobe.com/Graphs/1.0/">
]>
<!-- Generator: Adobe Illustrator 19.0.0, SVG Export Plug-In . SVG Version: 6.00 Build 0)  -->
<svg version="1.1" id="Layer_1" xmlns:x="&ns_extend;" xmlns:i="&ns_ai;" xmlns:graph="&ns_graphs;"
	 xmlns="http://www.w3.org/2000/svg" xmlns:xlink="http://www.w3.org/1999/xlink" xmlns:a="http://ns.adobe.com/AdobeSVGViewerExtensions/3.0/"
	 x="0px" y="0px" viewBox="0 0 1500 1500" style="enable-background:new 0 0 1500 1500;" xml:space="preserve">
<g id="XMLID_1_">
	<path id="XMLID_5847_" style="fill:#27262E;" d="M363.107,961.796c3.694,24.041,8.354,47.934,12.608,71.889
		c6.772-22.743,11.889-45.292,14.561-68.128c2.142-18.301,11.948-25.673,28.799-28.139c21.961-3.214,43.776-7.424,65.653-11.206
		c-23.587-7.456-46.957-11.946-70.456-15.6c-13.748-2.137-20.839-8.979-22.966-23.012c-4.056-26.748-9.734-53.251-14.462-79.897
		c-4.218,25.526-9.352,50.923-12.971,76.534c-2.32,16.424-10.226,24.894-27.121,27.102c-22.698,2.967-45.145,7.848-67.7,11.908
		c24.036,7.211,47.475,11.595,71.01,15.383C353.694,940.825,360.975,947.923,363.107,961.796z"/>
	<path id="XMLID_6570_" style="fill:#27262E;" d="M538.89,988.31c1.75,11.385,3.956,22.701,5.971,34.046
		c3.207-10.771,5.63-21.45,6.896-32.264c1.014-8.667,5.658-12.158,13.639-13.326c10.4-1.522,20.731-3.516,31.092-5.307
		c-11.171-3.531-22.238-5.657-33.367-7.388c-6.511-1.012-9.869-4.252-10.877-10.898c-1.921-12.668-4.61-25.219-6.849-37.838
		c-1.997,12.089-4.429,24.116-6.143,36.245c-1.099,7.778-4.843,11.789-12.844,12.835c-10.749,1.405-21.38,3.717-32.062,5.639
		c11.383,3.415,22.483,5.491,33.629,7.285C534.432,978.379,537.88,981.74,538.89,988.31z"/>
	<path id="XMLID_10392_" style="fill:#27262E;" d="M466.664,1086.028c1.75,11.385,3.956,22.701,5.971,34.046
		c3.207-10.771,5.63-21.45,6.896-32.264c1.014-8.667,5.658-12.158,13.639-13.326c10.4-1.522,20.731-3.516,31.092-5.307
		c-11.171-3.531-22.238-5.657-33.367-7.388c-6.511-1.012-9.869-4.252-10.876-10.898c-1.921-12.668-4.61-25.219-6.849-37.838
		c-1.997,12.089-4.429,24.116-6.143,36.245c-1.099,7.778-4.843,11.789-12.844,12.835c-10.749,1.405-21.38,3.717-32.062,5.639
		c11.383,3.415,22.483,5.491,33.629,7.285C462.206,1076.096,465.654,1079.458,466.664,1086.028z"/>
	<path id="XMLID_10396_" style="fill:#27262E;" d="M626.694,1070.45c1.75,11.385,3.956,22.701,5.971,34.046
		c3.207-10.771,5.63-21.45,6.896-32.264c1.014-8.667,5.658-12.158,13.639-13.326c10.4-1.522,20.731-3.516,31.092-5.307
		c-11.171-3.531-22.238-5.657-33.367-7.388c-6.511-1.012-9.869-4.252-10.877-10.898c-1.921-12.668-4.61-25.219-6.849-37.838
		c-1.997,12.089-4.429,24.116-6.143,36.245c-1.099,7.778-4.843,11.789-12.844,12.835c-10.749,1.405-21.38,3.717-32.062,5.639
		c11.383,3.415,22.483,5.491,33.629,7.285C622.236,1060.518,625.684,1063.879,626.694,1070.45z"/>
	<path id="XMLID_13052_" style="fill:#27262E;" d="M757.197,1089.667c1.313,8.544,2.969,17.035,4.481,25.549
		c2.407-8.083,4.225-16.096,5.175-24.212c0.761-6.504,4.246-9.124,10.235-10c7.805-1.142,15.557-2.639,23.333-3.983
		c-8.383-2.65-16.688-4.245-25.039-5.544c-4.886-0.76-7.406-3.191-8.162-8.178c-1.441-9.506-3.459-18.925-5.14-28.395
		c-1.499,9.072-3.324,18.097-4.61,27.199c-0.824,5.837-3.634,8.847-9.638,9.632c-8.067,1.055-16.044,2.789-24.06,4.232
		c8.542,2.563,16.872,4.121,25.236,5.467C753.852,1082.214,756.439,1084.737,757.197,1089.667z"/>
	<path id="XMLID_13503_" style="fill:#27262E;" d="M1041.852,691.716c1.313,8.544,2.969,17.035,4.481,25.549
		c2.407-8.083,4.225-16.096,5.175-24.212c0.761-6.504,4.246-9.124,10.235-10c7.805-1.142,15.557-2.639,23.333-3.982
		c-8.383-2.65-16.688-4.246-25.039-5.544c-4.886-0.76-7.406-3.191-8.162-8.178c-1.441-9.506-3.459-18.925-5.14-28.395
		c-1.499,9.072-3.324,18.097-4.61,27.199c-0.824,5.837-3.634,8.847-9.638,9.632c-8.067,1.055-16.044,2.789-24.06,4.232
		c8.542,2.563,16.872,4.121,25.236,5.467C1038.507,684.263,1041.094,686.786,1041.852,691.716z"/>
	<path id="XMLID_13563_" style="fill:#27262E;" d="M1213.684,581.253c1.313,8.544,2.969,17.035,4.481,25.549
		c2.407-8.083,4.225-16.096,5.175-24.212c0.761-6.504,4.246-9.124,10.235-10c7.805-1.142,15.557-2.639,23.333-3.982
		c-8.383-2.65-16.688-4.246-25.039-5.544c-4.886-0.76-7.406-3.191-8.162-8.178c-1.441-9.506-3.459-18.925-5.14-28.395
		c-1.499,9.072-3.324,18.097-4.61,27.199c-0.824,5.837-3.634,8.847-9.638,9.632c-8.067,1.055-16.044,2.789-24.06,4.232
		c8.542,2.563,16.872,4.121,25.236,5.467C1210.338,573.8,1212.926,576.323,1213.684,581.253z"/>
	<path id="XMLID_13565_" style="fill:#27262E;" d="M294.732,821.797c1.313,8.544,2.969,17.035,4.481,25.549
		c2.407-8.083,4.225-16.096,5.175-24.212c0.761-6.504,4.246-9.124,10.235-10c7.805-1.142,15.557-2.638,23.333-3.982
		c-8.383-2.65-16.688-4.245-25.039-5.544c-4.886-0.76-7.406-3.191-8.162-8.178c-1.441-9.506-3.459-18.925-5.14-28.395
		c-1.499,9.072-3.324,18.097-4.61,27.199c-0.824,5.837-3.634,8.847-9.638,9.632c-8.067,1.055-16.044,2.789-24.06,4.232
		c8.542,2.563,16.872,4.121,25.236,5.467C291.386,814.344,293.974,816.866,294.732,821.797z"/>
	<path id="XMLID_13564_" style="fill:#27262E;" d="M1125.408,497.698c1.313,8.544,2.969,17.035,4.481,25.549
		c2.407-8.083,4.225-16.096,5.175-24.212c0.761-6.504,4.246-9.124,10.235-10c7.805-1.142,15.557-2.639,23.333-3.982
		c-8.383-2.65-16.688-4.246-25.039-5.544c-4.886-0.76-7.406-3.191-8.162-8.178c-1.441-9.506-3.459-18.925-5.14-28.395
		c-1.499,9.072-3.324,18.097-4.61,27.199c-0.824,5.837-3.634,8.847-9.638,9.632c-8.067,1.055-16.044,2.789-24.06,4.232
		c8.542,2.563,16.872,4.121,25.236,5.467C1122.062,490.245,1124.65,492.767,1125.408,497.698z"/>
	<path id="XMLID_13504_" style="fill:#27262E;" d="M1071.747,605.385c3.188,20.746,7.209,41.365,10.88,62.037
		c5.844-19.626,10.259-39.085,12.565-58.791c1.848-15.793,10.31-22.154,24.852-24.283c18.951-2.774,37.776-6.407,56.656-9.67
		c-20.355-6.435-40.522-10.309-60.801-13.462c-11.864-1.845-17.983-7.748-19.819-19.858c-3.5-23.083-8.4-45.953-12.48-68.948
		c-3.64,22.028-8.071,43.944-11.193,66.045c-2.002,14.173-8.825,21.482-23.404,23.388c-19.587,2.561-38.958,6.773-58.422,10.276
		c20.742,6.223,40.969,10.006,61.278,13.275C1063.624,587.287,1069.907,593.412,1071.747,605.385z"/>
	<g id="XMLID_5512_">
		<path id="XMLID_10452_" style="fill:#27262E;" d="M327.914,582.133c-78.577,0-81.221,152.175,13.487,152.175
			c47.498,0,82.383-37.529,82.383-92.362c0-99.089-126.063-131.352-126.063-201.122c0-23.168,13.188-61.284,61.273-61.284
			c33.424,0,58.352,17.005,58.352,48.958c0,30.791-20.236,47.797-44.566,47.797c-24.053,0-37.529-20.524-37.529-35.184
			c0-14.361,7.911-23.456,14.073-20.225c-2.346,2.346-4.691,22.571,17.293,22.571c30.492,0,34.31-56.006-8.21-56.006
			c-22.582,0-43.979,13.786-43.979,43.105c0,72.126,152.175,100.86,152.175,207.871c0,78.875-69.493,114.933-123.143,114.933
			c-132.237,0-134.87-182.357-16.131-182.357c89.132,0,81.509,123.43,10.267,123.43c-53.074,0-46.037-54.535-35.184-54.535
			c0,10.256,7.612,19.063,23.157,19.063C371.893,658.961,376.297,582.133,327.914,582.133z"/>
		<path id="XMLID_10454_" style="fill:#27262E;" d="M518.448,550.468v112.3c0,4.403,2.943,9.67,8.508,10.555
			c1.471,0.288,2.346,1.759,2.346,2.932v0.586c0,1.759-1.472,2.932-2.932,2.932h-49.545c-1.77,0-2.943-1.173-2.943-2.932v-0.586
			c0-1.173,0.885-2.644,2.346-2.932c5.289-0.885,8.21-6.152,8.21-10.555v-112.3c0-4.392-2.921-9.67-8.21-10.555
			c-1.46-0.288-2.346-1.748-2.346-2.921v-0.597c0-1.748,1.173-2.921,2.943-2.921h49.545c1.46,0,2.932,1.173,2.932,2.921v0.597
			c0,1.173-0.874,2.633-2.346,2.921C521.391,540.798,518.448,546.075,518.448,550.468z M484.437,504.441
			c0-9.382,7.634-17.005,17.016-17.005s16.994,7.623,16.994,17.005c0,9.382-7.612,17.005-16.994,17.005
			S484.437,513.824,484.437,504.441z"/>
		<path id="XMLID_10561_" style="fill:#27262E;" d="M584.124,674.495v49.843c0,4.105,2.932,9.382,8.497,10.555
			c1.471,0.299,2.346,1.471,2.346,2.932v0.586c0,1.471-1.46,2.932-2.921,2.932H542.49c-1.759,0-2.932-1.46-2.932-2.932v-0.586
			c0-1.46,0.885-2.633,2.346-2.932c5.278-1.173,8.21-6.45,8.21-10.555V550.18c0-4.105-2.932-9.382-8.21-10.555
			c-1.46-0.288-2.346-1.46-2.346-2.932v-0.586c0-1.46,1.173-2.932,2.932-2.932h41.634v4.99c6.152-3.231,12.901-4.99,19.65-4.99
			c29.607,0,53.649,32.838,53.649,73.299s-24.042,73-53.649,73C597.024,679.474,590.275,677.726,584.124,674.495z M584.124,560.447
			v93.524c3.806,9.084,9.095,14.66,16.131,14.66c10.843,0,23.157-27.859,23.157-62.158c0-34.597-12.314-62.445-23.157-62.445
			C593.793,544.028,588.228,550.18,584.124,560.447z"/>
		<path id="XMLID_10650_" style="fill:#27262E;" d="M705.784,674.495v49.843c0,4.105,2.932,9.382,8.497,10.555
			c1.471,0.299,2.346,1.471,2.346,2.932v0.586c0,1.471-1.46,2.932-2.921,2.932H664.15c-1.759,0-2.932-1.46-2.932-2.932v-0.586
			c0-1.46,0.885-2.633,2.346-2.932c5.278-1.173,8.209-6.45,8.209-10.555V550.18c0-4.105-2.932-9.382-8.209-10.555
			c-1.46-0.288-2.346-1.46-2.346-2.932v-0.586c0-1.46,1.173-2.932,2.932-2.932h41.634v4.99c6.152-3.231,12.901-4.99,19.65-4.99
			c29.607,0,53.649,32.838,53.649,73.299s-24.042,73-53.649,73C718.684,679.474,711.935,677.726,705.784,674.495z M705.784,560.447
			v93.524c3.806,9.084,9.095,14.66,16.131,14.66c10.843,0,23.157-27.859,23.157-62.158c0-34.597-12.314-62.445-23.157-62.445
			C715.453,544.028,709.888,550.18,705.784,560.447z"/>
		<path id="XMLID_11465_" style="fill:#27262E;" d="M830.364,550.468v112.3c0,4.403,2.943,9.67,8.508,10.555
			c1.472,0.288,2.346,1.759,2.346,2.932v0.586c0,1.759-1.471,2.932-2.932,2.932h-49.545c-1.77,0-2.943-1.173-2.943-2.932v-0.586
			c0-1.173,0.885-2.644,2.346-2.932c5.289-0.885,8.209-6.152,8.209-10.555v-112.3c0-4.392-2.921-9.67-8.209-10.555
			c-1.46-0.288-2.346-1.748-2.346-2.921v-0.597c0-1.748,1.173-2.921,2.943-2.921h49.545c1.46,0,2.932,1.173,2.932,2.921v0.597
			c0,1.173-0.874,2.633-2.346,2.921C833.307,540.798,830.364,546.075,830.364,550.468z M796.354,504.441
			c0-9.382,7.634-17.005,17.016-17.005c9.382,0,16.994,7.623,16.994,17.005c0,9.382-7.612,17.005-16.994,17.005
			C803.988,521.447,796.354,513.824,796.354,504.441z"/>
		<path id="XMLID_11608_" style="fill:#27262E;" d="M933.846,662.767v-87.074c0-14.073-4.105-24.927-14.948-24.927
			c-15.545,0-20.236,14.66-20.236,24.927v87.074c0,4.105,2.932,9.382,8.508,10.555c1.46,0.288,2.346,1.46,2.346,2.932v0.586
			c0,1.46-1.471,2.932-2.943,2.932h-49.545c-1.759,0-2.932-1.471-2.932-2.932v-0.586c0-1.472,0.874-2.644,2.346-2.932
			c5.278-1.173,8.209-6.45,8.209-10.555V550.18c0-4.105-2.932-9.382-8.209-10.555c-1.472-0.288-2.346-1.46-2.346-2.932v-0.586
			c0-1.46,1.173-2.932,2.932-2.932h41.634v17.293c5.864-8.497,15.545-17.293,31.079-17.293c33.424,0,38.116,24.33,38.116,42.519
			v87.074c0,4.105,2.932,9.382,8.508,10.555c1.46,0.288,2.346,1.46,2.346,2.932v0.586c0,1.46-1.471,2.932-2.943,2.932h-49.545
			c-1.46,0-2.932-1.471-2.932-2.932v-0.586c0-1.472,0.874-2.644,2.346-2.932C930.914,672.15,933.846,666.872,933.846,662.767z"/>
		<path id="XMLID_11867_" style="fill:#27262E;" d="M1000.684,483.619c-0.299-7.037,4.094-12.602,9.958-12.602h7.037
			c5.576,0,9.98,5.565,9.98,12.602l-3.817,21.409c0,6.45-4.392,11.728-9.681,11.728c-5.266,0-9.67-5.278-9.958-11.728
			L1000.684,483.619z"/>
	</g>
	<g id="XMLID_5514_">
		<path id="XMLID_13050_" style="fill:#27262E;" d="M502.042,759.091c-6.627,0-18.042,1.66-18.042,4.702v-46.657
			c0-4.149,3.287-9.117,8.543-9.947c1.095-0.277,2.457-1.66,2.457-2.755v-0.553c0-1.66-3.084,3.119-4.733,3.119H443.61
			c-1.383,0-4.61-4.778-4.61-3.119v0.553c0,1.095,1.224,2.478,2.607,2.755c5.244,0.83,8.393,5.798,8.393,9.947v163.991
			c0,3.861-3.149,8.829-8.393,9.936c-1.383,0.277-2.607,1.383-2.607,2.489v0.542c0,1.66,3.227,4.906,4.61,4.906h7.446H484v-6.831
			c0,3.032,11.415,4.691,18.042,4.691c27.881,0,50.242-30.647,50.242-68.741C552.284,790.015,529.924,759.091,502.042,759.091z
			 M498.723,886.648c-6.627,0-14.723-5.244-14.723-13.808v-88.07c0-9.659,8.373-15.456,14.723-15.456
			c10.223,0,21.542,26.498,21.542,58.805C520.265,860.415,508.946,886.648,498.723,886.648z"/>
		<path id="XMLID_14028_" style="fill:#27262E;" d="M617.26,757.356c-32.03,0-53.284,31.791-53.284,69.896
			c0,38.093,22.36,69.174,56.869,69.174c29.818,0,43.902-22.973,43.902-40.643c0-10.765-8.287-14.806-14.361-14.806
			c-7.723,0-14.35,6.405-14.35,14.415c0,14.914,15.18,14.388,15.456,14.388c0,0-4.415,9.597-22.084,9.597
			c-19.329,0-31.754-14.378-33.126-48.378h70.677C668.885,820,667.502,757.356,617.26,757.356z M596.006,820
			c0.819-23,9.659-54.933,21.254-54.933c14.085,0,17.669,31.933,17.669,54.933H596.006z"/>
		<path id="XMLID_14964_" style="fill:#27262E;" d="M756,891.616V899h34.368c1.648,0-0.368-3.246-0.368-4.906v-0.542
			c0-1.106-1.362-2.213-2.734-2.489c-4.968-1.106-8.266-6.074-8.266-9.936c0-6.627,0-44.455,0-79.794
			c0-35.062-26.617-42.242-48.425-42.242c-43.072,0-40.366,25.68-40.366,26.233c0,7.734,6.874,14.361,14.873,14.361
			c8.01,0,14.623-6.627,14.623-14.361c0-6.351-3.742-11.595-9.539-13.531c2.489-3.308,11.327-6.351,21.539-6.351
			c20.988,0,24.294,21.818,24.294,21.818v21.807c-11-3.319-17.325-5.244-25.888-5.244c-27.881,0-51.729,20.701-51.729,46.657
			c0,25.68,24.453,46.38,52.334,46.38C739.281,896.86,745,894.924,756,891.616z M709.202,850.48
			c0-22.084,10.697-39.753,20.909-39.753c5.521,0,14.888,0,25.888,21.807v35.615c-11,21.807-20.367,21.807-25.888,21.807
			C719.9,889.956,709.202,872.287,709.202,850.48z"/>
		<path id="XMLID_15008_" style="fill:#27262E;" d="M1201.452,634.587c-68.475,0-101.324,86.687-113.196,124.503l-26.509,85.591
			l-25.115-73.72c-0.277-2.755-1.161-4.968,2.147-5.798c1.383-0.277,0.222-1.372,0.222-2.755v-0.553
			c0-1.383,2.599,1.143,1.216,1.143h-44.444c-0.719,0-1.772-3.522-1.772-2.969V763h-23v-30.131c0-3.861,3.66-8.84,8.904-9.935
			c1.372-0.277,3.096-1.383,3.096-2.766v-0.553c0-1.383-6.281-1.614-7.664-1.614h-46.657c-1.66,0-2.679,0.231-2.679,1.614v0.553
			c0,1.383,1.357,2.489,2.463,2.766c5.244,1.095,8.537,6.074,8.537,9.935V763h-11v12h11v63.885c0,32.573,7.706,57.976,40.566,57.976
			c20.977,0,30.904-16.286,30.904-33.126c0-8.564-6.493-15.191-14.493-15.191c-7.734,0-14.432,6.351-14.432,14.361
			c0,7.999,6.592,14.35,14.326,14.35c1.372,0,2.461-0.277,3.844-0.553c-3.032,3.319-5.629,6.074-11.98,6.074
			c-11.595,0-14.735-11.595-14.735-30.913V775h23v-11.022c0,0.669,1.32,1.187,2.13,1.187c5.798,0,8.511,6.074,9.618,9.947
			l-1.68-5.521l41.402,127.823c-2.755,6.904-8.558,24.02-17.951,31.477c1.106-2.213,1.934-4.702,1.934-7.181
			c0-8.01-6.352-14.361-14.362-14.361c-7.958,0-14.259,6.291-14.327,14.242c-5.081-1.061-10.483-1.817-16.587-1.817
			c-17.116,0-43.487,6.074-70.815,14.361C907.829,922.263,903,909.285,903,896.86V775.112c0-4.149,3.649-8.84,8.904-9.947
			c1.372-0.277,3.096-1.649,3.096-2.755v-0.553c0-1.66,0.425,1.143-0.947,1.143h-46.657c-1.66,0,1.604-2.803,1.604-1.143v0.553
			c0,1.106-4.138,2.478-3.032,2.755c5.244,1.106,3.032,5.798,3.032,9.947v89.176c0,7.999-1.745,16.01-12.798,16.01
			c-10.212,0-9.202-10.212-9.202-23.467v-81.719c0-4.149-2.213-8.84,3.043-9.947c1.095-0.277-3.043-1.649-3.043-2.755v-0.553
			c0-1.66,4.098,1.143,2.45,1.143h-46.657c-1.383,0-1.793-2.803-1.793-1.143v0.553c0,1.106,1.724,2.478,3.107,2.755
			c5.244,1.106,8.893,5.798,8.893,9.947v81.719c0,17.116,0.263,40.03,32.005,40.03c13.808,0,23.995-7.457,23.995-14.903v16.563
			c0,14.627,7.208,30.371,15.484,44.444c-6.351,2.213-11.587,4.138-17.926,6.351c-25.956-17.946-59.493-30.647-97.044-30.647
			c-88.07,0-86.615,82.825-2.684,82.825c27.328,0,60.351-9.659,93.488-21.531c19.052,16.839,31.276,36.721,31.276,55.22
			c0,21.254-11.817,33.402-27.008,33.402c-24.573,0-22.339-36.722-6.052-36.722c11.042,0,10.5,11.872,8.298,15.457
			c3.032,3.319,16.845,1.66,16.845-15.18c0-10.489-6.348-23.19-22.634-23.19c-49.423,0-47.485,67.634,1.926,67.634
			c28.711,0,53.562-17.935,53.562-54.103c0-17.393-9.659-36.721-25.945-53.838c4.415-1.383,8.553-3.043,12.967-4.691
			c19.882,19.871,49.146,33.679,86.145,33.679c48.003,0,60.484-39.446,38.223-62.171c9.557-3.228,20.587-12.403,29.134-38.046
			l43.072-138.322c12.702-36.157,42.243-114.291,104.079-114.291c44.455,0,44.455,72.337,8.84,72.337
			c-29.264,0-24.297-37.828-6.351-37.828c0-2.766-3.043-7.181-10.489-7.181c-33.69,0-43.902,69.294,16.563,69.294
			C1276.82,741.422,1277.926,634.587,1201.452,634.587z M749.509,979.685c-45.008,0-41.689-41.413,2.755-41.413
			c28.158,0,56.88,8.829,80.889,22.36C800.027,971.122,769.656,979.685,749.509,979.685z M994,984.653
			c-34,0-49.965-12.425-64.603-30.094C955.353,945.177,971,937.996,994,937.996C1039,937.996,1039,984.653,994,984.653z"/>
	</g>
</g>
<g id="XMLID_2_">
</g>
<g id="XMLID_3_">
</g>
<g id="XMLID_4_">
</g>
<g id="XMLID_5_">
</g>
<g id="XMLID_6_">
</g>
<g id="XMLID_7_">
</g>
</svg>
