<?xml version="1.0" encoding="iso-8859-1"?>
<!-- Generator: Adobe Illustrator 22.0.0, SVG Export Plug-In . SVG Version: 6.00 Build 0)  -->
<svg version="1.1" id="Layer_1" xmlns="http://www.w3.org/2000/svg" xmlns:xlink="http://www.w3.org/1999/xlink" x="0px" y="0px"
	 viewBox="0 0 1366 768" style="enable-background:new 0 0 1366 768;" xml:space="preserve">
<path d="M406.809,604.118H392.6c-1.36,0-2.033,0.674-2.033,2.021l-0.159,83.396c0,3.965-0.807,6.825-2.415,8.591
	c-1.62,1.767-4.556,2.656-8.826,2.656c-1.252,0-2.37-0.051-3.355-0.152c-0.991-0.102-1.849-0.369-2.58-0.788
	c-1.144-0.521-2.059-1.563-2.732-3.126c-0.68-1.551-1.226-3.533-1.639-5.935c-0.419-2.288-0.655-4.499-0.705-6.634
	c-0.051-2.135-0.076-3.876-0.076-5.223v-0.94c0-0.623-0.311-0.94-0.934-0.94h-15.619c-1.354,0-2.027,0.674-2.027,2.033v14.526
	c0,3.114,0.489,6.189,1.481,9.214c0.991,3.012,2.446,5.694,4.372,8.032c1.925,2.351,4.372,4.245,7.339,5.706
	s6.431,2.186,10.39,2.186h12.334c3.959,0,7.416-0.724,10.383-2.186c2.968-1.462,5.414-3.355,7.339-5.706
	c1.925-2.339,3.361-5.02,4.296-8.032c0.941-3.025,1.404-6.1,1.404-9.214v-87.463C408.836,604.791,408.163,604.118,406.809,604.118z"
	/>
<path d="M476.772,604.118h-14.526c-1.353,0-2.027,0.674-2.027,2.021v83.396c0,2.402-0.133,4.321-0.394,5.783
	c-0.261,1.461-0.775,2.58-1.557,3.355c-0.782,0.775-1.9,1.322-3.362,1.639c-1.455,0.318-3.431,0.47-5.935,0.47
	c-4.162,0-7.053-0.915-8.668-2.732c-1.614-1.817-2.415-4.664-2.415-8.515l0.153-83.396c0-1.347-0.68-2.021-2.027-2.021h-14.526
	c-1.353,0-2.027,0.674-2.027,2.021l-0.159,87.463c0,3.114,0.47,6.164,1.404,9.125c0.94,2.974,2.396,5.656,4.372,8.045
	c1.976,2.402,4.429,4.321,7.339,5.783c2.917,1.462,6.354,2.186,10.307,2.186h12.493c3.959,0,7.397-0.724,10.307-2.186
	c2.917-1.462,5.363-3.38,7.346-5.783c1.976-2.389,3.431-5.071,4.372-8.045c0.934-2.961,1.404-6.011,1.404-9.125l0.153-87.463
	C478.799,604.791,478.126,604.118,476.772,604.118z"/>
<path d="M542.363,611.057c-2.288-2.338-5.026-4.181-8.197-5.541c-3.177-1.347-6.64-2.033-10.383-2.033h-10.154
	c-3.438,0-6.583,0.635-9.449,1.881c-2.866,1.245-5.363,2.91-7.492,4.995c-2.135,2.084-3.775,4.512-4.925,7.27
	c-1.144,2.758-1.716,5.643-1.716,8.668v12.175c0,2.402,0.572,4.741,1.716,7.028c1.15,2.288,2.396,4.321,3.749,6.088l0.782,0.94
	c0,0.102,0.102,0.254,0.311,0.47l0.629,0.47l32.478,23.575l0.629,1.411c0.203,0.521,0.362,0.991,0.464,1.398
	c0.108,0.419,0.159,0.788,0.159,1.093v0.318c0.21,1.462,0.286,2.91,0.235,4.372c-0.057,1.462-0.076,2.91-0.076,4.372
	c0,1.144,0,2.211,0,3.203c0,0.991-0.057,1.894-0.159,2.732c-0.311,1.462-0.68,2.453-1.093,2.961
	c-0.521,0.534-1.379,0.966-2.574,1.334c-1.201,0.369-3.311,0.546-6.329,0.546h-1.245c-2.504,0-4.48-0.152-5.935-0.47
	c-1.461-0.318-2.58-0.864-3.361-1.639c-0.782-0.775-1.303-1.894-1.557-3.355c-0.267-1.461-0.394-3.381-0.394-5.783v-10.307
	c0-1.347-0.68-2.033-2.027-2.033H492.08c-1.353,0-2.033,0.686-2.033,2.033v14.374c0,3.33,0.623,6.507,1.875,9.519
	c1.252,3.025,3.018,5.706,5.312,8.045c2.288,2.339,5.02,4.219,8.197,5.617c3.171,1.411,6.634,2.11,10.383,2.11h10.155
	c3.533,0,6.736-0.648,9.602-1.945c2.859-1.309,5.331-2.999,7.416-5.084c2.084-2.071,3.698-4.499,4.842-7.257
	c1.144-2.758,1.722-5.643,1.722-8.667v-16.242c0-2.504-0.578-4.868-1.722-7.104c-1.144-2.237-2.396-4.245-3.749-6.011l-0.775-1.093
	l-0.159-0.153l-0.623-0.635l-0.311-0.305l-32.173-23.423l-0.782-1.411c-0.21-0.521-0.369-0.94-0.47-1.246
	c-0.102-0.318-0.152-0.623-0.152-0.94v-0.318c-0.21-1.144-0.292-2.211-0.235-3.203c0.051-0.979,0.076-2.046,0.076-3.19
	c0-2.186,0.127-3.889,0.394-5.084c0.254-1.195,0.775-2.11,1.557-2.732c0.782-0.623,1.925-1.017,3.438-1.169
	c1.506-0.152,3.514-0.229,6.011-0.229c1.353,0,2.548,0.051,3.59,0.153c1.042,0.102,1.976,0.419,2.815,0.94
	c1.036,0.623,1.9,1.741,2.574,3.355c0.68,1.614,1.176,3.558,1.487,5.859c0.413,2.186,0.648,4.321,0.699,6.393
	c0.051,2.084,0.083,3.813,0.083,5.16v0.775c0,0.623,0.311,0.94,0.934,0.94h15.46c1.354,0,2.033-0.674,2.033-2.033v-14.361
	c0-3.33-0.629-6.507-1.875-9.532C546.424,616.09,544.651,613.408,542.363,611.057z"/>
<path d="M622.633,604.118h-59.656c-1.353,0-2.033,0.674-2.033,2.021v14.056c0,1.36,0.68,2.033,2.033,2.033l20.614-0.318v94.796
	c0,1.36,0.674,2.033,2.027,2.033h14.526c1.347,0,2.027-0.674,2.027-2.033V621.91h20.461c1.347,0,2.027-0.674,2.027-2.021v-13.751
	C624.66,604.791,623.98,604.118,622.633,604.118z"/>
<path d="M719.221,609.888c-1.716-1.767-3.749-3.177-6.088-4.219c-2.345-1.029-4.976-1.551-7.886-1.551h-34.829
	c-1.353,0-2.027,0.674-2.027,2.021v110.568c0,1.36,0.674,2.033,2.027,2.033h34.829c2.91,0,5.541-0.521,7.886-1.563
	c2.339-1.042,4.372-2.44,6.088-4.219c1.722-1.766,3.044-3.762,3.984-6.011c0.934-2.237,1.404-4.601,1.404-7.104v-28.583
	c0-3.737-0.883-7.028-2.656-9.837c1.773-2.91,2.656-6.189,2.656-9.837v-28.583c0-2.491-0.47-4.855-1.404-7.104
	C722.265,613.662,720.943,611.667,719.221,609.888z M706.182,696.093c0,1.144-0.47,2.211-1.404,3.203
	c-0.94,0.991-1.976,1.487-3.126,1.487h-14.679v-30.451h14.679c1.15,0,2.186,0.47,3.126,1.398c0.934,0.94,1.404,2.084,1.404,3.444
	V696.093z M706.182,647.684c0,1.245-0.47,2.364-1.404,3.355c-0.94,0.991-1.976,1.487-3.126,1.487h-14.679v-30.451h14.679
	c1.15,0,2.186,0.47,3.126,1.398c0.934,0.94,1.404,2.033,1.404,3.279V647.684z"/>
<path d="M780.047,677.665c4.69-1.563,7.968-4.232,9.843-8.045c1.868-3.8,2.809-7.727,2.809-11.781v-34.835
	c0-2.491-0.47-4.855-1.404-7.104c-0.94-2.237-2.269-4.232-3.984-6.011c-1.716-1.767-3.749-3.177-6.088-4.219
	c-2.345-1.029-4.976-1.551-7.886-1.551h-34.829c-1.353,0-2.027,0.674-2.027,2.021l0.153,110.568c0,1.36,0.68,2.033,2.033,2.033
	h14.367c1.347,0,2.027-0.674,2.027-2.033v-37.784h6.558l13.904,38.406c0.311,0.94,0.934,1.411,1.868,1.411h13.745
	c1.976,0,2.605-0.89,1.875-2.656L780.047,677.665z M774.27,656.123c0,1.347-0.445,2.491-1.328,3.431
	c-0.883,0.94-1.951,1.398-3.203,1.398h-14.679v-38.877h14.679c1.144,0,2.186,0.445,3.127,1.322c0.934,0.89,1.404,2.008,1.404,3.355
	V656.123z"/>
<path d="M859.452,611.997c-1.925-2.338-4.372-4.245-7.339-5.694c-2.968-1.462-6.431-2.186-10.383-2.186h-12.34
	c-3.959,0-7.416,0.724-10.383,2.186c-2.968,1.449-5.414,3.355-7.339,5.694c-1.932,2.339-3.387,4.995-4.372,7.969
	c-0.991,2.961-1.487,6.011-1.487,9.138v64.498c0,3.114,0.496,6.189,1.487,9.214c0.985,3.012,2.44,5.694,4.372,8.032
	c1.925,2.351,4.372,4.245,7.339,5.706c2.968,1.462,6.424,2.186,10.383,2.186h12.34c3.953,0,7.416-0.724,10.383-2.186
	c2.968-1.462,5.414-3.355,7.339-5.706c1.925-2.339,3.355-5.02,4.296-8.032c0.934-3.025,1.404-6.1,1.404-9.214v-64.498
	c0-3.126-0.47-6.177-1.404-9.138C862.807,616.992,861.378,614.336,859.452,611.997z M846.724,689.535
	c0,2.402-0.133,4.321-0.388,5.783c-0.261,1.461-0.782,2.58-1.563,3.355c-0.782,0.775-1.9,1.322-3.362,1.639
	c-1.455,0.318-3.431,0.47-5.929,0.47c-4.169,0-7.06-0.915-8.668-2.732c-1.62-1.817-2.421-4.664-2.421-8.515V633.31
	c0-3.952,0.801-6.812,2.421-8.578c1.608-1.779,4.499-2.656,8.668-2.656c2.497,0,4.474,0.152,5.929,0.47
	c1.461,0.305,2.58,0.852,3.362,1.64c0.781,0.775,1.303,1.919,1.563,3.431c0.254,1.512,0.388,3.406,0.388,5.694V689.535z"/>
<path d="M934.181,604.118H919.35c-0.731,0-1.36,0.356-1.875,1.093l-23.118,43.249l-0.153-42.321c0-1.347-0.68-2.021-2.033-2.021
	h-14.52c-1.353,0-2.033,0.674-2.033,2.021v110.568c0,1.36,0.68,2.033,2.033,2.033h14.52c1.354,0,2.033-0.674,2.033-2.033
	l0.153-20.919c0-1.144-0.025-2.135-0.076-2.974c-0.051-0.826-0.133-1.665-0.235-2.491c0-1.462,0.159-3.126,0.47-5.007l0.782-1.563
	l2.809-4.995c0.419-0.724,0.807-1.423,1.175-2.11c0.362-0.674,0.648-1.322,0.858-1.945l16.706,42.791
	c0.318,0.826,0.941,1.245,1.875,1.245h16.401c0.934,0,1.245-0.419,0.934-1.245l-0.623-1.258
	c-4.169-10.409-8.229-20.766-12.182-31.073c-3.959-10.307-8.07-20.665-12.34-31.073l25.145-47.011
	C937.098,605.109,936.469,604.118,934.181,604.118z"/>
<path d="M997.898,604.118h-48.726c-1.353,0-2.027,0.674-2.027,2.021l0.159,110.568c0,1.36,0.674,2.033,2.027,2.033h48.568
	c1.353,0,2.033-0.674,2.033-2.033v-13.738c0-1.347-0.68-2.033-2.033-2.033l-32.167-0.153v-30.451h23.111
	c1.353,0,2.027-0.674,2.027-2.033V654.56c0-1.36-0.674-2.034-2.027-2.034h-23.111V621.91h32.167c1.353,0,2.033-0.674,2.033-2.021
	v-13.751C999.931,604.791,999.251,604.118,997.898,604.118z"/>
<path d="M297.449,425.998c0.443-4.955,0.454-9.529,0.052-13.739c13.949,2.687,31.862-5.397,37.218-25.97
	c5.852-22.468-12.933-41.466-15.565-43.627c-2.637-2.162-2.441,1.018-2.441,1.018s-2.895,17.133-11.141,25.983
	c-7.846,8.421-19.206,9.464-23.571,14.616c-6.961-4.046-15.221-4.071-24.796-0.037c-10.214,4.34-18.675,11.245-25.383,20.714
	c-3.726,5.348-7.233,11.245-10.521,17.689c-1.666-18.281-4.932-35.29-9.798-51.028c-2.806-9.075-6.401-16.352-10.784-21.832
	c-5.568-6.927-12.363-10.872-20.385-11.836c-7.277-0.921-14.62,0.219-22.029,3.419c-1.94,0.828-3.782,1.765-5.543,2.794
	c-0.416-1.819-1.169-3.608-2.266-5.307c-3.807-5.888-15.953-6.578-24.199-15.429c-8.246-8.85-11.141-25.983-11.141-25.983
	s0.196-3.179-2.441-1.018c-2.631,2.162-21.417,21.159-15.565,43.627c5.194,19.949,22.193,28.153,35.937,26.184
	c-5.945,11.918-9.25,26.988-9.896,45.23c-0.351,9.513,0.022,20.078,1.118,31.696c0.789,8.022,2.039,17.601,3.748,28.736
	c3.682,24.199,9.666,46.403,17.952,66.613c3.551,8.724,7.014,15.782,10.39,21.174c4.822,7.672,10.149,13.371,15.979,17.097
	c1.052,0.658,2.674,0.833,4.866,0.526c1.885-0.263,3.88-0.833,5.984-1.71c2.017-0.877,3.529-1.775,4.537-2.696
	c1.052-1.008,1.162-1.776,0.329-2.302c-11.179-7.058-20.341-20.012-27.487-38.863c-2.674-7.014-5.173-15.168-7.496-24.462
	c-0.877-3.507-1.797-7.431-2.762-11.771c-0.351-1.622-0.767-3.485-1.249-5.59l-0.526-2.63l-0.592-2.63
	c-10.302-48.135-10.192-86.867,0.329-116.195c2.455-6.839,5.458-12.253,9.009-16.242c4.91-5.48,10.302-7.343,16.177-5.59
	c6.62,1.973,12.1,7.518,16.44,16.637c1.666,3.376,3.2,7.343,4.603,11.902c0.526,1.798,1.074,3.748,1.644,5.853
	c0.351,1.359,0.789,3.112,1.315,5.261c7.409,29.942,9.754,59.029,7.036,87.261c-0.745,4.252-1.293,8.307-1.644,12.165
	c-0.088,1.315,0.679,2.17,2.301,2.565c1.491,0.394,3.354,0.394,5.589,0c2.192-0.439,4.121-1.096,5.787-1.973
	c1.841-1.008,2.85-2.061,3.025-3.156c0.526-3.156,1.008-6.729,1.447-10.719c2.806-16.396,8.79-34.194,17.952-53.396
	c3.069-6.444,5.984-11.683,8.746-15.716c3.946-5.699,8.132-9.908,12.56-12.626c3.77-2.323,7.759-0.833,11.968,4.472
	c1.534,1.973,2.959,4.274,4.274,6.905c1.096,2.236,1.863,4.165,2.301,5.787c2.762,10.127,2.63,22.38-0.395,36.759
	c-1.184,5.524-2.849,11.661-4.998,18.412c-0.833,2.674-1.797,5.611-2.893,8.812l-1.512,4.209l-1.447,4.143
	c-9.425,26.522-19.201,46.053-29.328,58.59c-0.921,1.184-0.811,2.039,0.329,2.565c0.964,0.438,2.565,0.57,4.8,0.395
	c5.305-0.395,8.746-1.556,10.324-3.485c12.582-15.607,24.133-39.893,34.655-72.86c1.096-3.332,1.995-6.225,2.696-8.68
	c1.052-3.463,1.951-6.707,2.696-9.732C295.696,439.26,296.923,432.267,297.449,425.998z"/>
<path d="M569.03,536.998l3.485-5.655l3.485-5.655c5.568-8.987,10.631-16.242,15.19-21.766c0.877-1.052,0.723-1.754-0.46-2.104
	c-1.052-0.351-2.652-0.417-4.8-0.197c-5.261,0.526-8.592,1.644-9.995,3.354c-3.2,3.902-6.554,8.592-10.061,14.072
	c-1.359,2.104-2.871,4.559-4.537,7.365l-4.471,7.497c-7.672,12.976-14.204,22.467-19.596,28.473l-0.131-0.066
	c-0.833-0.701-1.622-1.71-2.367-3.025c-0.307-0.526-0.614-1.118-0.921-1.775l-0.395-0.921l-0.394-0.855
	c-0.789-1.754-1.49-3.858-2.104-6.313l-0.723-3.288l-0.657-3.222c-1.49-7.891-1.951-17.273-1.381-28.144
	c0.877-16.659,3.463-34.282,7.759-52.87c3.025-8.768,6.598-20.429,10.719-34.983c2.937-10.302,7.935-23.804,14.993-40.507
	l4.209-9.995l4.143-9.995c3.113-7.584,5.677-14.292,7.694-20.122c0.307-0.921-0.285-1.491-1.775-1.71
	c-1.359-0.219-3.134-0.153-5.326,0.197c-5.436,0.921-8.592,2.367-9.469,4.34c-5.918,12.933-12.582,29.679-19.99,50.239l-0.855,2.038
	c-2.849,7.014-5.853,15.519-9.009,25.514l-4.997,13.678c-2.499,6.795-4.757,13.875-6.773,21.24
	c-1.096-4.033-3.178-7.562-6.247-10.587c-3.945-3.858-9.447-5.195-16.505-4.011c-5.436,0.877-10.938,3.003-16.505,6.379
	c-5.305,3.2-10.258,8.286-14.861,15.256c-4.255,6.507-7.526,13.629-9.876,21.327c-4.242,0.988-8.449,1.66-12.614,1.952
	c0.438-19.508-6.072-34.589-19.53-45.242c-5.568-4.428-12.516-6.685-20.845-6.773c-8.636-0.044-15.497,2.389-20.582,7.299
	c-4.691,4.603-6.905,9.754-6.642,15.453c0.219,4.954,2.236,10.039,6.05,15.256c-2.019,3.31-3.711,7.312-5.081,11.997
	c-4.33,1.022-8.622,1.712-12.871,2.009c0.438-19.508-6.072-34.589-19.53-45.242c-5.567-4.428-12.516-6.685-20.845-6.773
	c-8.636-0.044-15.497,2.389-20.582,7.299c-4.691,4.603-6.905,9.754-6.642,15.453c0.219,4.954,2.236,10.039,6.05,15.256
	c-2.674,4.384-4.779,9.973-6.313,16.768c-1.622,6.927-2.367,13.919-2.236,20.977c0.132,7.628,1.293,14.248,3.485,19.859
	c2.411,6.357,5.94,10.938,10.587,13.743c4.691,2.806,10.806,3.354,18.347,1.644c6.137-1.403,11.924-3.902,17.36-7.496
	c6.313-4.165,11.179-10.828,14.598-19.99c2.455-6.664,4.208-14.883,5.261-24.659v-0.131c3.934-0.562,7.852-1.327,11.758-2.257
	c-1.36,6.375-2.016,12.802-1.895,19.288c0.131,7.628,1.293,14.248,3.485,19.859c2.411,6.357,5.94,10.938,10.587,13.743
	c4.691,2.806,10.806,3.354,18.346,1.644c6.138-1.403,11.924-3.902,17.36-7.496c6.313-4.165,11.179-10.828,14.598-19.99
	c2.455-6.664,4.209-14.883,5.261-24.659v-0.131c3.803-0.543,7.593-1.273,11.371-2.16c-1.407,6.589-1.833,12.815-1.244,18.665
	c0.833,8.154,3.551,14.708,8.154,19.662c3.288,3.507,8.286,4.822,14.993,3.946c5.173-0.658,10.258-2.367,15.256-5.129
	c7.146-3.946,13.897-10.697,20.254-20.254c-0.351,7.935-0.285,15.585,0.197,22.95c0.833,11.793,3.025,20.539,6.576,26.237
	c4.954,7.935,12.538,10.039,22.752,6.313c4.515-1.71,8.614-4.559,12.297-8.549c2.148-2.367,5.107-6.444,8.877-12.231
	C563.857,545.371,566.225,541.601,569.03,536.998z M343.217,519.572c-0.614,2.323-1.425,4.8-2.433,7.431
	c-1.359,3.463-2.806,6.466-4.34,9.009c-4.296,7.058-8.724,9.601-13.283,7.628c-3.332-1.447-5.962-4.428-7.891-8.943
	c-0.745-1.71-1.403-3.704-1.973-5.984c-0.395-1.622-0.811-3.551-1.249-5.787c-2.06-11.661-1.775-22.884,0.855-33.668
	c2.148,1.622,4.296,3.069,6.444,4.34c7.102,4.165,16.089,6.313,26.961,6.444C345.913,506.618,344.883,513.128,343.217,519.572z
	 M329.211,483.997c-6.006-4.165-10.938-9.908-14.796-17.229c-1.227-2.28-1.929-4.712-2.104-7.299
	c-0.175-2.543,0.175-4.735,1.052-6.576c0.921-1.929,2.323-3.134,4.208-3.617c2.104-0.526,4.603-0.022,7.497,1.512
	c13.546,7.058,20.67,20.517,21.371,40.375C339.951,489.85,334.208,487.46,329.211,483.997z M422.719,519.572
	c-0.614,2.323-1.425,4.8-2.433,7.431c-1.359,3.463-2.806,6.466-4.34,9.009c-4.296,7.058-8.724,9.601-13.283,7.628
	c-3.332-1.447-5.962-4.428-7.891-8.943c-0.745-1.71-1.403-3.704-1.973-5.984c-0.395-1.622-0.811-3.551-1.249-5.787
	c-2.06-11.661-1.775-22.884,0.855-33.668c2.148,1.622,4.296,3.069,6.444,4.34c7.102,4.165,16.089,6.313,26.961,6.444
	C425.415,506.618,424.384,513.128,422.719,519.572z M408.712,483.997c-6.006-4.165-10.938-9.908-14.796-17.229
	c-1.227-2.28-1.929-4.712-2.104-7.299c-0.175-2.543,0.175-4.735,1.052-6.576c0.921-1.929,2.324-3.134,4.209-3.617
	c2.104-0.526,4.603-0.022,7.497,1.512c13.546,7.058,20.67,20.517,21.371,40.375C419.453,489.85,413.71,487.46,408.712,483.997z
	 M496.105,503.462c2.762,0,5.458-0.373,8.088-1.118c-6.795,12.801-14.423,22.38-22.884,28.736c-0.394,0.175-0.723,0.351-0.986,0.526
	c-1.271-0.395-2.543-1.227-3.814-2.499c-0.964-0.964-1.885-2.126-2.762-3.485c-1.359-2.104-2.323-4.866-2.893-8.286
	c-0.175-1.315-0.329-2.806-0.46-4.472l-0.131-2.236l-0.066-2.104c-0.351-11.047,1.754-21.591,6.313-31.63
	c2.587-5.743,6.159-11.376,10.719-16.9c2.499-3.025,4.406-4.647,5.721-4.866c1.447-0.219,3.463,0.942,6.05,3.485
	c5.217,5.085,6.51,12.472,3.88,22.16c-1.008,3.639-2.543,7.562-4.603,11.771c-1.534,3.113-3.376,6.335-5.524,9.666
	C492.269,503.001,493.387,503.418,496.105,503.462z"/>
<path d="M741.054,494.584c-2.762-8.987-7.913-18.193-15.453-27.618c-4.998-6.181-12.319-13.875-21.963-23.081
	c-1.929-1.841-5.085-4.581-9.469-8.22l-2.565-2.17l-2.565-2.17c-1.929-1.622-3.617-3.113-5.063-4.472
	c-7.979-7.365-13.042-14.204-15.19-20.516c-3.902-11.31-2.608-22.577,3.88-33.8c5.655-9.82,13.984-17.755,24.988-23.805
	c5.173-2.849,10.412-3.376,15.716-1.578c5.217,1.798,9.119,5.348,11.705,10.653c3.112,6.357,1.885,13.02-3.682,19.99
	c-2.104,2.674-4.8,5.348-8.088,8.022c-2.499,1.973-5.283,3.946-8.351,5.918c-1.666,1.052-2.148,1.819-1.447,2.302
	c0.57,0.438,1.907,0.614,4.011,0.526c1.929-0.044,3.924-0.263,5.984-0.658c2.148-0.438,3.595-0.899,4.34-1.381
	c9.907-6.269,16.987-12.801,21.24-19.596c5.787-9.25,5.326-17.908-1.381-25.974c-5.085-6.094-12.691-8.965-22.818-8.614
	c-8.242,0.307-16.374,2.433-24.396,6.379c-7.453,3.726-14.291,8.527-20.516,14.401c-6.576,6.181-11.573,12.779-14.993,19.793
	c-3.77,7.715-5.283,15.278-4.537,22.686c0.789,8.242,4.34,15.87,10.653,22.884c2.893,3.156,6.378,6.685,10.455,10.587l5.59,5.261
	l5.655,5.261c10.083,9.294,17.448,16.571,22.095,21.832c7.584,8.505,13.151,16.746,16.703,24.725
	c4.296,9.601,6.115,19.574,5.458,29.92c-0.745,12.1-6.269,22.752-16.571,31.958c-6.927,6.181-14.489,8.373-22.687,6.576
	c-7.058-1.534-14.006-5.809-20.845-12.823c-2.893-2.981-5.239-7.19-7.036-12.626c-1.841-5.436-2.718-10.916-2.63-16.44
	c0.131-6.006,1.425-10.938,3.88-14.796c2.806-4.428,6.883-7.014,12.231-7.759c3.902-0.526,6.773-1.951,8.614-4.274
	c0.745-0.965,0.723-1.666-0.066-2.104c-0.921-0.526-2.762-0.592-5.524-0.197c-10.214,1.403-18.478,5.261-24.791,11.573
	c-5.787,5.831-9.14,12.889-10.061,21.174c-0.921,8.198,0.702,16.045,4.866,23.541c4.428,8.023,11.113,14.291,20.056,18.807
	c9.688,4.866,20.034,5.918,31.038,3.156c9.338-2.367,18.741-7.321,28.21-14.861c8.505-6.795,14.05-15.694,16.637-26.698
	C744.824,515.934,744.385,505.368,741.054,494.584z"/>
<path d="M886.05,513.917c-0.132-2.718-0.351-5.655-0.658-8.812c-0.175-2.06-0.416-4.691-0.723-7.891
	c-0.701-6.62-1.381-12.209-2.038-16.768c-0.921-6.488-1.973-12.384-3.156-17.689c-2.981-13.546-7.146-24.309-12.494-32.287
	c-0.658-1.008-1.995-1.49-4.011-1.447c-1.753,0.044-3.77,0.438-6.05,1.184c-2.06,0.745-3.77,1.578-5.129,2.499
	c-1.447,0.965-1.973,1.71-1.578,2.236c3.858,5.83,7.058,13.502,9.601,23.015c0.965,3.551,1.929,7.716,2.893,12.494
	c0.307,1.666,0.701,3.726,1.184,6.181l0.526,2.959l0.592,2.959c5.261,27.662,5.524,49.932,0.789,66.81
	c-0.526,1.929-1.118,3.748-1.775,5.458c-0.877,2.148-1.841,4.011-2.893,5.589c-2.718,4.121-5.83,6.115-9.338,5.984
	c-5.436-0.219-10.236-3.222-14.401-9.009c-1.578-2.192-3.113-4.866-4.603-8.022c-1.008-2.192-2.083-4.844-3.222-7.957
	c-7.935-21.393-10.828-46.776-8.68-76.148c0.088-0.745-0.701-1.162-2.367-1.249c-1.49-0.088-3.31,0.088-5.458,0.526
	c-5.392,1.096-8.351,2.565-8.877,4.406c-0.658,2.323-1.425,5.173-2.302,8.548l-2.302,8.746c-1.885,7.146-3.573,12.976-5.063,17.492
	c-4.384,13.371-9.842,23.98-16.374,31.827c-5.173,6.269-9.601,4.318-13.283-5.853c-1.271-3.551-2.323-7.737-3.156-12.56
	c-0.658-4.121-0.943-7.168-0.855-9.14c0.789-19.947,8.11-39.959,21.963-60.037c0.351-0.482-0.175-0.811-1.578-0.986
	c-1.359-0.175-3.069-0.153-5.129,0.066c-5.305,0.614-8.614,1.863-9.929,3.748c-7.365,10.784-12.998,22.139-16.9,34.063
	c-4.165,12.976-5.874,25.514-5.129,37.614c0.482,8.549,3.682,15.08,9.601,19.596c6.05,4.647,13.174,5.787,21.372,3.419
	c12.713-3.682,22.774-13.349,30.183-28.999c2.323,16.615,6.729,30.665,13.217,42.151c5.348,9.425,13.634,14.401,24.857,14.927
	c10.434,0.526,19.969-2.652,28.605-9.535c7.76-6.138,12.341-16.593,13.743-31.367C886.247,527.134,886.357,520.887,886.05,513.917z"
	/>
<path d="M911.038,447.238c1.184,0,2.477-0.153,3.88-0.46c1.14-0.263,2.039-0.526,2.696-0.789c4.34-1.929,7.606-4.91,9.798-8.943
	c2.236-4.165,2.806-8.505,1.71-13.02c-0.263-1.096-1.008-1.907-2.236-2.433c-0.088-0.964-0.658-1.753-1.71-2.367
	c-0.964-0.526-2.104-0.811-3.419-0.855c-2.06-0.088-4.121,0.241-6.181,0.986c-2.367,0.877-3.989,2.104-4.866,3.683
	c-3.858,7.058-5.502,14.204-4.932,21.437C905.953,446.449,907.706,447.37,911.038,447.238z"/>
<path d="M1292.747,442.512c-2.085,0.064-0.713-0.899-0.713-0.899c23.224-32.211-8.253-70.772-49.221-82.291
	c-40.969-11.515-77.712-0.371-95.499,21.874c-17.785,22.242-1.059,50.195,7.453,67.441c8.514,17.245,29.447,39.245,11.365,74.284
	c-15.832,30.675-47.578,25.569-60.456,22.257c0.865-5.654,1.743-11.638,2.636-17.976l2.17-15.585l2.302-15.519
	c1.797-11.661,3.595-21.985,5.392-30.972c0.219-1.052-0.46-1.71-2.039-1.973c-1.359-0.219-3.156-0.131-5.392,0.263
	c-2.192,0.395-4.143,0.986-5.852,1.775c-1.885,0.877-2.981,1.797-3.288,2.762l-0.658,1.776l-0.658,1.775
	c0.964-7.803-1.096-13.831-6.181-18.084c-5.305-4.384-12.407-5.37-21.306-2.959c-10.346,2.762-18.785,9.623-25.317,20.582
	c-4.734,7.979-8.658,18.653-11.771,32.024c-0.086,0.388-0.154,0.747-0.236,1.128c-0.071,0.085-0.165,0.165-0.225,0.253
	c-3.113,4.515-6.291,9.951-9.535,16.308c-1.184,2.28-2.587,5.107-4.208,8.483l-4.143,8.483c-1.403,2.849-2.806,5.37-4.208,7.562
	c-0.526-1.052-1.03-2.302-1.512-3.748l-0.526-1.973l-0.592-1.907c-5.48-19.508-4.713-42.458,2.301-68.849
	c0.482-1.929-1.403-2.565-5.655-1.907c-1.447,0.219-3.025,0.57-4.735,1.052c-1.447,0.439-2.389,0.767-2.828,0.986
	c-12.143,6.707-22.467,16.834-30.972,30.38c0.438-17.711,2.104-35.071,4.997-52.08c0.175-1.008-0.548-1.666-2.17-1.973
	c-1.447-0.263-3.31-0.197-5.589,0.197c-2.236,0.394-4.187,0.986-5.852,1.775c-1.797,0.877-2.784,1.819-2.959,2.828
	c-1.745,10.164-3.035,20.381-3.925,30.646c-8.121,7.302-15.889,16.847-23.299,28.668c-3.244,5.129-6.094,10.193-8.549,15.19
	c-0.921,1.885-1.885,3.77-2.893,5.655l-1.578,2.762l-0.066,0.066c-3.244-4.033-4.998-10.192-5.261-18.478
	c-0.088-2.981,0-6.422,0.263-10.324c0.088-1.359,0.219-2.959,0.395-4.8l0.263-2.17l0.197-2.104
	c1.227-13.064,3.682-24.265,7.365-33.602c0.745-1.929,0.482-3.419-0.789-4.472c-1.14-0.92-2.828-1.381-5.063-1.381
	c-2.148,0-4.187,0.438-6.116,1.315c-2.06,0.921-3.354,2.082-3.88,3.485c-2.367,5.962-4.45,12.56-6.247,19.793
	c-2.192,8.855-3.551,17.141-4.077,24.857c-1.447,20.56,3.069,33.997,13.546,40.31c4.34,2.63,9.162,2.367,14.467-0.789
	c4.165-2.455,7.781-6.006,10.85-10.653c2.236-3.376,4.91-7.781,8.023-13.217l3.748-6.51c1.447-2.499,2.718-4.669,3.814-6.51
	c1.208-1.967,2.428-3.83,3.657-5.637c-0.347,12.091-0.14,24.248,0.683,36.478c0.044,0.877,0.921,1.359,2.63,1.447
	c1.49,0.088,3.332-0.11,5.524-0.592c5.261-1.227,8.11-2.74,8.548-4.537c5.085-20.692,13.02-37.285,23.804-49.779
	c-2.849,14.248-3.945,27.005-3.288,38.271c0.833,14.554,4.537,25.624,11.113,33.208c2.367,2.718,6.883,2.411,13.546-0.921
	c2.455-1.228,4.91-2.74,7.365-4.537c2.148-1.578,3.704-2.915,4.669-4.011c3.021-3.471,6.197-8.406,9.525-14.776
	c0.486,0.943,1.029,1.822,1.654,2.611c3.025,3.814,7.299,5.502,12.823,5.063c3.814-0.307,8.549-1.732,14.204-4.274
	c10.39-4.691,20.341-13.305,29.854-25.843l-2.565,18.083l-2.63,18.018c-15.3,3.507-29.262,9.272-41.888,17.294
	c-13.458,8.549-24.221,19.004-32.287,31.367c-4.998,7.628-8.417,16.396-10.258,26.303c-1.797,9.557-1.929,18.982-0.395,28.276
	c1.49,8.856,6.422,14.686,14.796,17.492c6.488,2.192,14.62,2.477,24.396,0.855c15.913-2.674,28.583-12.757,38.008-30.249
	c3.639-6.795,6.883-14.861,9.732-24.199c1.973-6.313,4.055-14.313,6.247-24.002c1.823-8.07,3.721-18.029,5.692-29.86
	c37.092,8.9,66.416-7.717,77.556-31.98c10.421-22.69,4.777-45.815-11.951-70.42c-16.73-24.608-21.077-42.232-21.077-42.232
	c-4.613-13.241,2.62-38.905,33.881-50.491c31.266-11.588,70.283-3.148,95.619,20.603c25.336,23.75,11.028,52.793,9.427,54.714
	c-1.606,1.927-3.037,0.639-3.037,0.639l-8.689-5.184l2.849,26.97L1303,442.494C1303,442.494,1294.824,442.45,1292.747,442.512z
	 M1088.125,554.358l-0.855,5.458l-0.921,5.458c-0.657,4.165-1.271,7.847-1.841,11.047c-1.447,8.286-2.937,15.65-4.471,22.095
	c-3.858,16.483-8.833,30.49-14.927,42.019c-2.06,3.989-4.866,7.716-8.417,11.179c-3.77,3.639-7.628,6.291-11.573,7.957
	c-4.472,1.841-8.505,2.17-12.1,0.986c-4.077-1.403-7.387-4.713-9.929-9.929c-2.893-6.05-3.88-13.722-2.959-23.015
	c0.702-7.277,2.455-14.883,5.261-22.818c4.559-12.845,12.867-24.111,24.922-33.8c11.354-9.118,24.068-15.344,38.14-18.675
	L1088.125,554.358z M1073.329,516.81c-0.438,0.482-0.921,1.03-1.447,1.644c-0.701,0.745-1.403,1.512-2.104,2.302
	c-1.929,2.017-3.704,3.814-5.326,5.392c-4.779,4.472-7.803,6.269-9.075,5.392c-3.069-2.104-4.713-6.532-4.932-13.283
	c-0.044-2.455,0.088-5.173,0.394-8.154c0.088-1.14,0.219-2.345,0.394-3.617l0.263-1.578c0.044-0.395,0.11-0.833,0.197-1.315
	c2.63-16.966,8.746-31.586,18.347-43.861c2.324-2.981,4.822-3.748,7.497-2.302c2.28,1.271,4.077,3.683,5.392,7.233
	c2.06,5.655,1.315,12.297-2.236,19.925c-0.614,1.227,1.008,1.732,4.866,1.512c3.858-0.175,7.014-0.943,9.469-2.302
	C1089.199,495.768,1081.965,506.771,1073.329,516.81z"/>
<g>
	<path d="M412.107,35.614H351.08c-1.385,0-2.08,0.729-2.08,2.18v15.071c0,1.451,0.696,2.173,2.08,2.173l21.088-0.334v101.637
		c0,1.451,0.689,2.173,2.074,2.173h14.86c1.378,0,2.074-0.722,2.074-2.173V54.704h20.932c1.378,0,2.074-0.722,2.074-2.18v-14.73
		C414.181,36.343,413.485,35.614,412.107,35.614z"/>
	<path d="M486.551,35.614h-15.016c-1.385,0-2.074,0.729-2.074,2.18l0.319,49.729h-27.322l0.163-49.729c0-1.451-0.696-2.18-2.08-2.18
		h-15.016c-1.385,0-2.074,0.729-2.074,2.18v118.548c0,1.451,0.689,2.173,2.074,2.173h15.179c1.385,0,2.074-0.722,2.074-2.173
		l-0.319-49.735h27.322v49.735c0,1.451,0.689,2.173,2.074,2.173h14.86c1.385,0,2.074-0.722,2.074-2.173l-0.156-118.548
		C488.631,36.343,487.935,35.614,486.551,35.614z"/>
	<path d="M553.487,35.614h-49.846c-1.385,0-2.074,0.729-2.074,2.18l0.163,118.548c0,1.451,0.689,2.173,2.074,2.173h49.683
		c1.385,0,2.08-0.722,2.08-2.173v-14.737c0-1.451-0.696-2.18-2.08-2.18l-32.906-0.164v-32.655h23.642
		c1.385,0,2.074-0.722,2.074-2.173V89.696c0-1.444-0.689-2.173-2.074-2.173h-23.642V54.704h32.906c1.385,0,2.08-0.722,2.08-2.18
		v-14.73C555.567,36.343,554.871,35.614,553.487,35.614z"/>
	<path d="M656.929,44.069c-1.97-2.507-4.472-4.544-7.508-6.111c-3.036-1.56-6.578-2.344-10.622-2.344h-12.624
		c-4.05,0-7.586,0.784-10.622,2.344c-3.036,1.567-5.538,3.604-7.508,6.111c-1.976,2.514-3.465,5.362-4.472,8.544
		c-1.014,3.182-1.521,6.445-1.521,9.79v69.153c0,3.352,0.507,6.643,1.521,9.879c1.008,3.243,2.496,6.111,4.472,8.625
		c1.97,2.514,4.472,4.551,7.508,6.111c3.036,1.567,6.572,2.344,10.622,2.344h12.624c4.043,0,7.586-0.777,10.622-2.344
		c3.036-1.56,5.538-3.597,7.508-6.111s3.432-5.382,4.394-8.625c0.956-3.236,1.437-6.527,1.437-9.879v-15.404
		c0-1.444-0.696-2.173-2.074-2.173h-15.497c-0.644,0-0.962,0.334-0.962,1.002v1.008c-0.104,1.451-0.188,3.318-0.24,5.607
		c-0.052,2.289-0.293,4.66-0.715,7.113c-0.858,5.137-2.347,8.319-4.472,9.545h-0.325c-0.741,0.45-1.625,0.729-2.633,0.838
		c-1.014,0.116-2.158,0.17-3.432,0.17c-4.264,0-7.222-0.974-8.867-2.93c-1.658-1.955-2.477-4.994-2.477-9.13V66.927
		c0-4.245,0.819-7.31,2.477-9.211c1.645-1.894,4.602-2.848,8.867-2.848c1.274,0,2.418,0.061,3.432,0.17
		c1.008,0.116,1.892,0.395,2.633,0.838h0.325c1.06,0.559,1.937,1.703,2.633,3.434c0.696,1.731,1.255,3.877,1.677,6.445
		c0.422,2.453,0.663,4.858,0.722,7.201c0.052,2.344,0.078,4.183,0.078,5.525v1.002c0,0.668,0.318,1.008,0.962,1.008l15.816-0.341
		c1.378,0,2.074-0.722,2.074-2.173V62.403c0-3.345-0.481-6.609-1.437-9.79C660.361,49.431,658.899,46.583,656.929,44.069z"/>
	<path d="M736.404,35.614h-15.016c-1.385,0-2.074,0.729-2.074,2.18l0.319,49.729h-27.322l0.163-49.729c0-1.451-0.696-2.18-2.08-2.18
		h-15.016c-1.385,0-2.074,0.729-2.074,2.18v118.548c0,1.451,0.689,2.173,2.074,2.173h15.179c1.385,0,2.074-0.722,2.074-2.173
		l-0.319-49.735h27.322v49.735c0,1.451,0.689,2.173,2.074,2.173h14.86c1.385,0,2.074-0.722,2.074-2.173l-0.156-118.548
		C738.484,36.343,737.789,35.614,736.404,35.614z"/>
	<path d="M793.433,35.45h-14.535c-1.066,0-1.703,0.559-1.918,1.669l-24.923,118.548c-0.318,1.785,0.377,2.678,2.08,2.678h15.335
		c1.17,0,1.866-0.552,2.08-1.669l4.791-24.949h19.489l4.791,24.949c0.215,1.117,0.904,1.669,2.08,1.669h15.335
		c1.703,0,2.399-0.893,2.08-2.678L795.351,37.12C795.136,36.009,794.499,35.45,793.433,35.45z M780.335,112.472l5.753-27.464
		l5.434,27.464H780.335z"/>
	<path d="M846.159,35.614H830.98c-1.385,0-2.074,0.729-2.074,2.18v118.548c0,1.451,0.689,2.173,2.074,2.173h15.179
		c1.385,0,2.074-0.722,2.074-2.173V37.794C848.233,36.343,847.544,35.614,846.159,35.614z"/>
	<path d="M924.113,35.614h-14.86c-1.385,0-2.074,0.729-2.074,2.18l0.156,69.153l-28.115-69.991
		c-0.318-0.893-0.956-1.342-1.918-1.342h-14.535c-1.385,0-2.08,0.729-2.08,2.18l0.163,118.548c0,1.451,0.689,2.173,2.074,2.173
		h15.179c1.385,0,2.074-0.722,2.074-2.173l-0.318-69.153l28.121,69.984c0.318,0.899,0.956,1.342,1.918,1.342h14.217
		c1.385,0,2.074-0.722,2.074-2.173V37.794C926.187,36.343,925.498,35.614,924.113,35.614z"/>
	<path d="M992.648,43.067c-2.34-2.514-5.142-4.49-8.386-5.948c-3.25-1.444-6.793-2.173-10.622-2.173h-10.388
		c-3.517,0-6.735,0.668-9.666,2.01c-2.932,1.335-5.486,3.127-7.664,5.355c-2.184,2.235-3.861,4.83-5.038,7.787
		c-1.17,2.957-1.755,6.057-1.755,9.293v13.061c0,2.569,0.585,5.083,1.755,7.535c1.177,2.453,2.451,4.633,3.835,6.527l0.8,1.008
		c0,0.109,0.104,0.279,0.319,0.504l0.644,0.497l33.224,25.283l0.644,1.506c0.208,0.565,0.371,1.063,0.475,1.513
		c0.111,0.443,0.163,0.831,0.163,1.172v0.334c0.214,1.56,0.292,3.127,0.24,4.687c-0.058,1.567-0.078,3.127-0.078,4.687
		c0,1.226,0,2.371,0,3.434c0,1.063-0.058,2.037-0.162,2.93c-0.319,1.567-0.696,2.623-1.118,3.182
		c-0.533,0.559-1.411,1.036-2.633,1.424c-1.229,0.388-3.387,0.586-6.475,0.586h-1.274c-2.561,0-4.583-0.17-6.071-0.504
		c-1.495-0.334-2.639-0.92-3.439-1.758s-1.333-2.037-1.593-3.597c-0.273-1.567-0.403-3.631-0.403-6.2v-11.051
		c0-1.444-0.696-2.173-2.074-2.173h-14.698c-1.385,0-2.08,0.729-2.08,2.173v15.404c0,3.577,0.637,6.977,1.918,10.213
		c1.281,3.243,3.088,6.111,5.434,8.625c2.34,2.514,5.135,4.524,8.386,6.03c3.244,1.506,6.787,2.262,10.622,2.262h10.388
		c3.614,0,6.891-0.702,9.822-2.098c2.925-1.39,5.454-3.202,7.586-5.437c2.132-2.235,3.783-4.83,4.953-7.787
		c1.17-2.957,1.762-6.057,1.762-9.293v-17.414c0-2.678-0.592-5.219-1.762-7.617c-1.17-2.398-2.451-4.551-3.835-6.445l-0.793-1.172
		l-0.162-0.17l-0.637-0.668l-0.319-0.334L959.58,75.13l-0.8-1.506c-0.215-0.559-0.377-1.002-0.481-1.342
		c-0.104-0.334-0.156-0.668-0.156-1.002v-0.334c-0.215-1.226-0.299-2.371-0.241-3.434c0.052-1.063,0.078-2.201,0.078-3.434
		c0-2.344,0.13-4.156,0.403-5.444c0.26-1.281,0.793-2.255,1.593-2.93c0.8-0.668,1.97-1.083,3.517-1.254
		c1.541-0.17,3.595-0.252,6.149-0.252c1.385,0,2.607,0.061,3.673,0.17c1.066,0.109,2.022,0.443,2.88,1.002
		c1.06,0.668,1.944,1.874,2.633,3.604c0.696,1.731,1.203,3.822,1.521,6.275c0.423,2.344,0.663,4.633,0.715,6.868
		s0.084,4.074,0.084,5.525v0.838c0,0.668,0.319,1.002,0.956,1.002h15.816c1.385,0,2.08-0.722,2.08-2.173V61.906
		c0-3.577-0.644-6.977-1.918-10.213C996.802,48.457,994.988,45.575,992.648,43.067z"/>
</g>
<g>
	<path d="M551.771,195.554c-2.064-2.507-4.687-4.544-7.869-6.111c-3.182-1.56-6.895-2.344-11.133-2.344h-13.231
		c-4.245,0-7.951,0.783-11.133,2.344c-3.182,1.567-5.805,3.604-7.869,6.111c-2.071,2.514-3.631,5.362-4.687,8.544
		c-1.063,3.182-1.594,6.445-1.594,9.79v69.153c0,3.352,0.531,6.643,1.594,9.879c1.056,3.243,2.616,6.111,4.687,8.625
		c2.064,2.514,4.687,4.551,7.869,6.111c3.182,1.567,6.888,2.344,11.133,2.344h13.231c4.238,0,7.951-0.777,11.133-2.344
		c3.182-1.56,5.805-3.597,7.869-6.111c2.064-2.514,3.597-5.382,4.606-8.625c1.002-3.236,1.506-6.527,1.506-9.879v-69.153
		c0-3.345-0.504-6.609-1.506-9.79C555.368,200.916,553.835,198.068,551.771,195.554z M538.124,278.687
		c0,2.569-0.143,4.633-0.416,6.2c-0.279,1.56-0.838,2.759-1.676,3.597s-2.037,1.424-3.604,1.758
		c-1.56,0.334-3.679,0.504-6.357,0.504c-4.469,0-7.569-0.974-9.293-2.93c-1.737-1.955-2.596-4.994-2.596-9.13v-60.275
		c0-4.245,0.858-7.31,2.596-9.211c1.724-1.894,4.824-2.848,9.293-2.848c2.677,0,4.796,0.17,6.357,0.504
		c1.567,0.334,2.766,0.92,3.604,1.758s1.397,2.071,1.676,3.686c0.273,1.622,0.416,3.659,0.416,6.111V278.687z"/>
	<path d="M633.562,187.099h-15.575c-1.451,0-2.173,0.729-2.173,2.18l0.164,69.153l-29.467-69.991
		c-0.334-0.893-1.002-1.342-2.01-1.342h-15.234c-1.451,0-2.18,0.729-2.18,2.18l0.17,118.548c0,1.451,0.722,2.173,2.173,2.173h15.909
		c1.451,0,2.173-0.722,2.173-2.173l-0.334-69.153l29.473,69.984c0.334,0.899,1.002,1.342,2.01,1.342h14.9
		c1.451,0,2.173-0.722,2.173-2.173V189.279C635.735,187.828,635.013,187.099,633.562,187.099z"/>
	<path d="M765.667,187.099h-15.07c-1.008,0-1.676,0.45-2.01,1.342l-21.434,57.427l-21.264-57.427
		c-0.334-0.893-1.002-1.342-2.01-1.342h-15.234c-1.451,0-2.18,0.729-2.18,2.18v118.548c0,1.451,0.729,2.173,2.18,2.173h15.902
		c1.451,0,2.18-0.722,2.18-2.173v-62.96l11.385,30.475c0.334,0.893,1.002,1.335,2.01,1.335h14.233c1.002,0,1.676-0.443,2.01-1.335
		l11.385-30.475l0.17,62.96c0,1.451,0.722,2.173,2.173,2.173h15.575c1.444,0,2.173-0.722,2.173-2.173V189.279
		C767.841,187.828,767.112,187.099,765.667,187.099z"/>
	<path d="M849.55,187.099h-15.909c-0.893,0-1.56,0.504-2.01,1.506l-14.396,43.031l-14.403-43.031
		c-0.443-1.002-1.117-1.506-2.01-1.506h-16.236c-2.126,0-2.793,0.954-2.01,2.848l16.406,46.881c0.777,2.344,1.56,4.442,2.344,6.282
		c0.784,1.84,1.56,3.713,2.344,5.607c0.668,1.676,1.281,3.434,1.846,5.273c0.552,1.846,1.111,3.883,1.669,6.111
		c0.334,1.567,0.531,2.93,0.586,4.101s0.027,2.378-0.082,3.604c-0.116,1.226-0.225,2.487-0.334,3.768
		c-0.116,1.281-0.17,2.705-0.17,4.265v31.987c0,1.451,0.729,2.173,2.18,2.173h15.568c1.451,0,2.18-0.722,2.18-2.173v-31.987
		c0-1.56-0.061-2.984-0.17-4.265s-0.225-2.541-0.334-3.768c-0.109-1.226-0.143-2.432-0.082-3.604
		c0.055-1.172,0.252-2.534,0.586-4.101c1.002-4.463,2.119-8.257,3.345-11.385c0.784-1.894,1.567-3.768,2.344-5.607
		c0.784-1.84,1.567-3.938,2.344-6.282l16.413-46.881C852.336,188.053,851.669,187.099,849.55,187.099z"/>
</g>
</svg>
