<?xml version="1.0" encoding="UTF-8"?>
<svg id="Layer_1" data-name="Layer 1" xmlns="http://www.w3.org/2000/svg" viewBox="0 0 800 800">
  <defs>
    <style>
      .cls-1 {
        stroke-width: 0px;
      }
    </style>
  </defs>
  <g id="JCX7Ni.tif">
    <g>
      <path class="cls-1" d="M60.1,253.01c2.7-1.98,5.44-1.84,8.57.28,3.8,2.56,7.61,5.11,11.51,7.51,2.31,1.42,4.77,2.58,7.2,3.79,2.09,1.04,3.65,2.62,4.56,4.72,1.61,3.72,3.69,7.17,5.85,10.58.9,1.42,1.68,2.89,1.79,4.67-1.76.84-3.48.72-5.16.18-4.07-1.32-8.09-2.82-12.18-4.06-3.17-.97-5.06-3.08-6.27-6.01-.32-.78-.66-1.56-1.11-2.26-.27-.43-.71-.87-1.16-1.04-1.15-.42-1.65-1.31-2.08-2.33-.82-1.94-1.67-3.86-2.56-5.77-.84-1.8-2.23-3.18-3.81-4.29-2.01-1.41-3.86-2.87-4.75-5.27-.05-.14-.27-.23-.42-.34,0-.12,0-.24,0-.36Z"/>
      <path class="cls-1" d="M695.45,277.83c.46-.22.88-.31,1.14-.56,1.73-1.65,2.99-3.6,3.77-5.88.92-2.67,1.9-5.33,2.91-7.97.89-2.32,2.71-3.8,4.79-4.99,2.77-1.59,5.64-3.04,8.33-4.75,4.07-2.59,8.12-5.2,11.74-8.43,2.14-1.91,4.65-3.22,7.42-4.02,1.55-.45,2.48-.16,3.44,1.16,1.14,1.55,1.22,2.23.08,3.72-1.43,1.87-2.88,3.72-4.47,5.45-5.81,6.34-10.6,13.44-15.16,20.68-1.91,3.03-4.33,4.98-7.78,5.97-2.94.84-5.78,2.09-8.62,3.24-3.13,1.27-6.22,2.63-9.32,3.97-.59.26-1.13.62-1.69.94.19,1.11.94,1.35,1.71,1.48,2.61.41,5.22.9,7.84,1.14,3.84.36,7.69.45,11.53.8,2.5.23,5.07.12,7.42,1.3,5.17,2.58,8.33,6.75,9.31,12.36.59,3.36.62,6.83.8,10.25.08,1.53-.4,2.98-1.23,4.27-.25.4-.56.86-.95,1.05-1.43.67-2.1,1.97-2.8,3.22-.73,1.31-1.33,2.7-1.96,4.07-.83,1.83-.99,1.97-3.11,1.8-4.62-.37-9.24-.71-13.85-1.21-3.23-.35-5.3-2.25-6.48-5.29-1.12-2.9-1.85-5.9-2.02-8.95-.26-4.76,1.07-9.08,4.9-12.27,1.76-1.46,3.83-1.92,6.1-1.55,2.04.33,4.04.79,5.84,1.83.78.44,1.57.96,2.15,1.62,1.35,1.53,1.95,3.25,1.12,5.32-1.14,2.82-2.96,4.76-6.05,5.39-2.41.5-4.8,1.11-7.18,1.67-.4.99-.11,1.77.31,2.5,1.25,2.13,3.78,3.31,6.2,2.7,1.86-.47,3.67-1.16,5.47-1.84,4.84-1.81,6.96-7.99,6.34-11.94-.41-2.65-2.05-4.72-4.12-6.41-2.84-2.31-6.07-3.64-9.73-3.97-1.62-.15-3.22-.58-4.83-.59-2.28-.01-4.56.24-6.84.39-.78.05-1.55.15-2.33.23-1.54.15-1.99.61-2.1,2.15-.03.42-.03.85-.03,1.27,0,4.71-.07,9.43.05,14.14.13,5.17.51,10.34.67,15.52.17,5.61.24,11.22.28,16.83.02,2.47-.26,4.94-.2,7.4.1,4.03.42,8.06.53,12.09.07,2.7-.09,5.41-.15,8.12-.01.42-.12.84-.12,1.26,0,6.71-.07,13.41,0,20.12.07,6.03.39,12.06.42,18.08.03,7.06-.11,14.13-.2,21.19-.07,5.37-.07,10.74-.29,16.11-.16,4.02-.61,8.03-.92,12.05-.05.66-.06,1.33-.06,1.99,0,4.71-.14,9.43.07,14.13.21,4.8.76,9.58,1.15,14.37.03.42.04.84.08,1.26.19,1.85,1.01,2.71,2.89,2.86,1.92.15,3.85.25,5.77.29,2.72.05,5.44.04,8.16,0,.81-.01,1.62-.22,2.3-.33.39-.99-.04-1.43-.65-1.64-1.3-.45-2.6-1.02-3.95-1.2-4.88-.66-7.49-2.76-8.69-7.61-.55-2.2-.72-4.5-1-6.76-.14-1.14.27-2.11,1.15-2.9,1.84-1.65,3.52-3.5,5.48-4.98,4.92-3.7,10.4-4.12,16.14-2.3,3.25,1.03,5.97,2.84,7.94,5.69.72,1.04,1.56,1.99,2.35,2.97,2.85,3.59,3.31,7.58,2.22,11.93-.57,2.25-1.68,4.04-3.31,5.68-5.16,5.18-11.49,7.73-18.59,8.85-3.04.48-6.01-.12-9.01-.15-2.11-.02-4.23-.12-6.34-.03-2.34.11-2.96.81-2.89,3.19.09,3.07.52,6.14.41,9.2-.14,4.02-.37,8.06-1.71,11.94-.6,1.76-1.48,3.28-2.91,4.49-2.62,2.22-5.25,4.44-7.81,6.73-1.45,1.3-3.19,2-5.01,2.4-7.04,1.52-17-.91-21.6-8.08-3.81-5.95-2.91-14.37,2.38-18.74,1.92-1.59,4.15-2.71,6.55-3.39,1.96-.56,3.96-1.02,5.98-1.37,3.51-.61,5.73.66,7.69,3.49,1.48,2.15,1.15,9.93-.42,12.09-1.94,2.67-5.89,4.16-9.49,2.41-.98-.47-1.97-.91-2.98-1.31-.36-.14-.79-.13-1.32-.2.02,1.66.9,2.71,1.9,3.62,5.2,4.71,11.8,4,16.26-1.24,3.16-3.71,4.75-8.08,4.63-12.99-.06-2.41-.14-4.83-.45-7.21-.41-3.11-1.43-4.02-4.58-4.3-3.66-.32-7.32-.6-10.99-.74-5-.18-10.01-.32-15.02-.28-5.85.04-11.7.28-17.55.44-2.65.07-5.3.19-7.95.26-7.18.18-14.36.39-21.54.49-8.88.13-17.76.18-26.64.22-3.32.01-6.64-.21-9.96-.2-4.41.01-8.81.14-13.22.24-5.49.12-10.97.33-16.46.38-5.07.05-10.15-.08-15.22-.11-14.14-.1-28.27-.17-42.41-.3-4.77-.05-9.53-.32-14.29-.39-2.1-.03-4.21.26-6.31.31-3.12.07-6.21.62-9.37.18-2.61-.37-5.3-.3-7.95-.32-9.91-.09-19.82-.12-29.73-.22-1.55-.02-3.11-.28-4.66-.43-.3-.03-.59-.09-.89-.13-3.87-.55-5.88,1.33-5.61,5.23.08,1.14.48,1.72,1.33,1.9.95.2,1.49-.3,1.8-1.12.33-.87.91-1.44,1.86-1.48,3.39-.13,6.76-.17,9.94,1.34,4.82,2.29,7.7,6.02,8.66,11.28,1.31,7.14,5.58,11.97,12,15.08,2.93,1.42,6.05,2.27,9.27,1.92,3.54-.39,6.97.11,10.43.56.18.02.36.06.52.13.1.04.17.16.35.33-.04,1.74-.9,3.14-2.55,3.68-2.91.95-5.91,1.68-8.88,2.43-2.69.69-5.39.03-8.09-.08-1.87-.08-3.74-.11-5.59-.39-1.83-.27-3.75-.53-5.41-1.29-4.61-2.09-9.2-4.25-13.39-7.14-.84-.58-1.57-1.31-2.38-1.94-1.52-1.18-3.1-2.3-4.59-3.53-1.11-.91-2.12-1.94-3.17-2.92-.26-.25-.46-.57-.75-.79-.71-.55-1.32-.31-1.32.59.01,1.07.19,2.15.34,3.22.08.6.2,1.19.37,1.77,1.31,4.44,1.27,8.88.12,13.34-.19.74-.15,1.56-.14,2.34.12,5.63-.87,11.15-1.52,16.71-.16,1.4-.57,2.79-2.27,3.11-.56.11-1.17.11-1.72,0-3.08-.61-4.67-2.64-5.49-5.57-.55-1.96-1.45-3.82-2.13-5.75-.16-.46-.31-1.11-.11-1.47,1.21-2.11.85-4.23.08-6.29-.61-1.62-1.53-3.13-2.32-4.68-.14-.27-.34-.5-.5-.76-.83-1.33-1.04-2.6-.51-4.22,1.23-3.78,2.17-7.65,3.2-11.49.12-.46.21-.96.16-1.42-.15-1.27-1.07-1.67-2.03-.85-.77.66-1.44,1.45-2.09,2.24-.72.89-1.36,1.84-2.05,2.76-1.35,1.81-3.03,3.22-4.92,4.47-1.95,1.29-3.84,2.74-5.51,4.37-2.77,2.7-5.81,4.82-9.57,5.95-3.87,1.16-7.63,2.64-11.5,3.81-2.72.82-5.56,1.05-8.4,1.08-1.12.01-2.16-.18-2.97-1.19.48-1.01,1.35-1.64,2.22-2.27,2.32-1.67,4.96-2.7,7.56-3.84,1.87-.82,3.71-1.75,5.42-2.85,2.26-1.45,4.05-3.41,5.4-5.75.66-1.15,1.34-2.29,2.01-3.43,2.15-3.71,3.31-7.74,3.9-11.95.43-3.1,2.13-5.31,4.67-6.97,2.29-1.49,4.72-2.64,7.38-3.36,1.57-.42,2.85-.13,3.99.96.04.04.09.09.13.13.92.87,1.98,1.59,3.23.89,1.17-.66,1.07-1.96.94-3.09-.32-2.85-1.04-3.46-4.02-3.77-2.96-.31-5.89-.06-8.84.25-2.33.24-4.68.34-7.03.5-3.12.21-6.25.41-9.37.61-.78.05-1.56.11-2.35.13-4.95.1-9.9.16-14.85.28-4.4.11-8.79.37-13.19.43-3.56.05-7.13-.21-10.69-.12-3.49.09-6.97.46-10.46.67-1.75.11-3.49.19-5.24.22-5.43.1-10.87.11-16.3.28-4.88.15-9.75.46-14.63.69-.78.04-1.57.03-2.36.02-7.55-.07-15.11.05-22.65-.27-7-.3-13.99-.51-20.99-.45-9.48.09-18.96.27-28.44.22-5.54-.03-11.08-.46-16.62-.67-3.62-.14-7.24-.36-10.85-.24-4.02.13-8.04.63-12.06.93-1.86.14-3.73.21-5.6.26-4.29.1-8.58.1-12.86.24-5.3.18-10.6.45-15.89.73-1.8.1-3.59.33-5.38.56-1.65.22-3.24.15-4.78-.52-.25-.11-.59-.02-.98-.02-.84,2.15-1.6,4.33-1.64,6.62-.04,2.58.06,5.18.31,7.76.24,2.39.72,4.75,1.15,7.12,1.11,6.08,6.72,8.72,10.88,8.93,3.57.18,6.75-1.15,9.96-2.34,1.9-.7,2.78-2.46,2.88-4.29.15-2.63.15-5.33-.29-7.92-.71-4.19-5.23-5.95-8.79-3.64-.38.25-.74.63-.95,1.04-.72,1.36-.43,1.88,1.1,2.22,1.35.3,2.75.49,4,1.02,2.91,1.23,3.5,3.52,2.22,6.36-2.36,5.27-9.02,5.1-12.11,1.75-2.21-2.39-3.5-5.18-4.43-8.19-.48-1.56.1-3,1.03-4.25,2.73-3.68,6.46-5.79,10.96-6.34,3.05-.38,5.74.86,7.92,2.9,3.33,3.13,5,7.06,4.86,11.66-.07,2.26-.86,4.38-1.84,6.39-1.24,2.55-2.6,5.04-3.9,7.56-.42.81-.96,1.39-1.96,1.33-4.57-.28-9.17-.3-13.7-.88-5.55-.72-9.55-3.83-11.7-9.07-.64-1.55-1.13-3.18-1.54-4.81-.78-3.09-1.45-6.21-2.18-9.32-.29-1.25-.41-2.49,0-3.74.15-.45.14-.95.26-1.41.8-3.12-1.41-5.31-4.38-5.49-2.89-.18-5.79-.33-8.68-.27-6.54.14-12.83-1.02-18.97-3.17-1.36-.48-2.73-.96-4.05-1.53-1.03-.44-1.68-1.27-2.15-2.32-1.85-4.16-1.66-8.45-.88-12.78.41-2.27,1.19-4.42,2.25-6.46,2.37-4.52,6.22-6.78,11.17-7.69,4.12-.76,7.21.67,9.72,3.74.91,1.11,1.68,2.36,2.38,3.62,1.46,2.63,1.97,5.43,1.11,8.37-.38,1.32-.78,2.66-1.34,3.92-1.72,3.86-4.92,4.94-8.65,3.92-1.98-.54-3.8-1.5-5.27-3.05-2.14-2.24-2.21-4.94-.07-7.21,1.41-1.5,3.11-2.05,5.09-1.37.85.29,1.64.75,2.48,1.1,1.19.5,1.84.09,1.98-1.2.02-.24.02-.48,0-.72-.3-2.98-4.19-5.63-7.01-4.64-4.82,1.68-7.77,5.76-7.71,10.69.02,1.41.41,2.86.88,4.21.6,1.73,1.85,2.93,3.67,3.48,4.56,1.39,9.15,2.58,13.99,2.49,2.41-.05,4.82.15,7.23.22.72.02,1.45.04,2.18,0,2.33-.11,3.28-.92,3.71-3.16.11-.59.22-1.19.23-1.79.11-8.27.33-16.53.24-24.8-.05-4.56-.64-9.11-.94-13.67-.2-3.01-.36-6.02-.45-9.03-.14-5.06-.33-10.13-.28-15.19.04-3.97.51-7.93.61-11.9.1-4.04-.03-8.08-.06-12.13-.03-4.22-.11-8.44-.09-12.65,0-2.17.14-4.34.25-6.51.15-2.94.43-5.88.47-8.83.04-2.89-.1-5.79-.22-8.68-.1-2.46-.42-4.92-.43-7.38-.05-11.24-.07-22.47,0-33.71.02-2.76.46-5.51.61-8.27.09-1.74.11-3.5-.03-5.24-.32-3.95-.85-7.89-1.12-11.85-.1-1.53.27-3.09.45-4.64.05-.42.18-.82.25-1.24.27-1.55-.3-2.62-1.68-3.44-5.31-3.14-10.96-4.23-17.03-3.01-2.85.57-5.69,1.2-7.98,3.14-4.21,3.55-5.99,8.06-5.05,13.51.26,1.52.72,3.06,1.4,4.44,1.35,2.74,3.74,4.16,6.74,4.6,2.16.32,4.31.49,6.46-.02,1.99-.47,3.31-2.05,3.28-4.07-.53.05-1.06.03-1.56.15-1.41.31-2.83.62-4.22,1.04-4.29,1.29-7.28-2-7.57-5.54-.28-3.48,1.61-5.93,4.14-8.01.14-.11.3-.21.44-.31,4.01-2.84,6.18-2.57,10.02.12,3.37,2.37,4.96,5.81,5.48,9.79.07.58-.03,1.22-.22,1.77-1.58,4.61-4.2,8.34-8.69,10.63-2.47,1.26-5,1.28-7.56.78-2.3-.45-4.57-1.1-6.83-1.74-2.03-.58-3.4-1.95-4.36-3.81-2.14-4.14-2.78-8.54-2.58-13.14.16-3.82,1.08-7.42,3.3-10.55,2.72-3.84,6.27-6.68,10.8-8.13,1.01-.32,2.14-.38,3.21-.39,4.89-.04,9.77-.02,14.66-.03,3.23,0,3.56-.3,3.51-3.48-.04-2.29-.32-4.58-.24-6.86.11-3.26.66-6.46,1.91-9.51,1.68-4.11,4.06-7.81,6.79-11.28,1.9-2.41,4.37-3.9,7.5-4.25,2.21-.24,4.4-.92,6.6-.91,4.32.03,8.54.59,11.66,4.2,2.86,3.31,3.01,7.4.86,11.06-1.77,3.01-3.88,5.81-5.86,8.69-.48.69-1.03,1.34-1.55,2.01-1.08,1.39-2.5,2.18-4.25,1.94-1.72-.24-3.47-.53-5.09-1.13-2.88-1.07-4.25-3.63-5.44-6.23-.2-.43-.1-1.09.06-1.58.66-2.06,1.3-4.14,2.11-6.15.85-2.1,2.2-2.61,4.4-1.83,2.35.83,4.12,2.42,5.66,4.41-.65,1.51-1.13,3.02-.77,4.68.27,1.27.74,1.56,1.83.93,1.78-1.03,3.1-2.48,3.77-4.46.54-1.59.27-3.13-.5-4.54-.93-1.69-2.02-3.28-3.01-4.93-.5-.84-1.24-1.28-2.17-1.47-1.53-.32-3.05-.83-4.6-.92-1.02-.06-2.16.29-3.09.77-2.54,1.29-4.44,3.32-5.92,5.72-2.21,3.57-3.71,7.42-4.34,11.6-.36,2.43-1.04,4.84-.69,7.32.23,1.6.59,3.19.97,4.76.31,1.28,1.11,1.94,2.46,1.93,1.8-.02,3.63-.02,5.4-.32,1.82-.3,3.46.05,5.12.64.79.28,1.59.58,2.34.95.98.49,1.93.51,2.98.24,3.75-.99,7.62-1.12,11.47-1.22,1.49-.04,3,.25,4.48.49,5.01.83,9.97.34,14.92-.54.71-.13,1.44-.21,2.15-.21,4.78-.02,9.55-.1,14.33.02,3.49.09,6.96.55,10.45.66,2.83.09,5.66-.1,8.49-.17.24,0,.48-.05.72-.06,3.38-.07,6.76-.23,10.14-.18,2.89.04,5.77.31,8.65.51,3.12.22,6.24.64,9.38.21.18-.02.36-.01.54-.02,4.59-.08,9.18-.22,13.76-.25,18.19-.11,36.37-.21,54.56-.27,4.71-.02,9.39-.3,14.08-.68,2.74-.22,5.54.1,8.3.27,4.15.26,8.28.64,12.45.03,2.31-.34,4.71-.11,7.06-.09,5.8.07,11.6.16,17.39.25,3.38.05,6.76.24,10.14.15,4.52-.12,9.02-.46,13.54-.68,3.62-.18,7.23-.29,10.85-.47,1.37-.07,2.74-.24,4.09-.36.05-.2.12-.33.1-.43-.46-1.61-2.76-3.47-4.38-3.4-1.07.05-2.17.19-3.19.51-2.97.92-5.71.51-8.29-1.17-3.97-2.57-7.74-5.39-10.48-9.32-.7-1.01-1.26-2.19-1.61-3.38-.72-2.42-1.27-4.89-2.45-7.16-1.79-3.45-4.74-5.57-8.14-7.13-1.64-.75-3.39-1.25-5.08-1.9-.95-.36-1.66-.98-1.82-2.06-.17-1.09.17-1.81,1.19-2.14,1.73-.56,3.5-.82,5.34-.64,6.83.67,12.91,3.33,18.64,6.93,4.67,2.93,9.03,6.26,12.82,10.28,1.69,1.79,3.19,3.77,4.81,5.63.48.56,1.07,1.02,1.61,1.53.14-.06.27-.13.41-.19,0-.61.15-1.27-.03-1.82-.77-2.4-1.57-4.8-2.47-7.16-.91-2.38-1.83-4.8-1.49-7.36.27-2.06.7-4.22,1.61-6.07,2.43-4.97,3.27-10.3,4.22-15.64.19-1.06.23-2.19.63-3.16.4-.97,1.03-1.93,1.78-2.65,1.36-1.29,4.49-.69,5.12,1.04.97,2.64,1.79,5.35,2.48,8.08.35,1.38.32,2.87.33,4.3.01,2.24.71,4.29,1.74,6.21,2.2,4.14,1.58,8.23.13,12.41-1.2,3.47-2.21,7-3.27,10.51-.18.59-.69,1.35.11,1.79.87.48,1.45-.16,1.94-.82,1.86-2.51,3.85-4.94,5.55-7.56,1.41-2.19,3.05-4.02,5.35-5.25,4.15-2.21,8.21-4.61,12.44-6.65,4.56-2.2,9.53-2.94,14.56-3.13,5.06-.19,10.12-.38,15.18-.54.69-.02,1.39.16,1.98.23.39,1.09-.19,1.52-.76,2.01-2.5,2.19-5.53,3.16-8.7,3.71-7.19,1.25-12.93,4.76-17.19,10.7-2.46,3.43-4.93,6.85-7.49,10.21-1.09,1.43-2.37,2.73-3.61,4.04-1.19,1.25-2.65,2.06-4.4,2.3-2.64.36-5.24.6-7.86-.25-2.1-.68-3.93.04-5.38,1.65-1.41,1.57-.54,3.41,1.16,3.48,1.02.04,2.04.24,3.06.24,5.5-.05,10.99-.17,16.49-.21,4.41-.04,8.83-.03,13.24.01,5.13.05,10.27.25,15.4.19,3.18-.04,6.36-.53,9.55-.63,2.15-.06,4.32.19,6.48.36.89.07,1.77.37,2.66.48,1.32.16,2.64.28,3.91-.33,1.47-.72,3.07-.7,4.62-.54,1.85.19,3.67.61,5.51.88.52.08,1.19.18,1.58-.06,1.37-.85,2.85-.84,4.34-.85,5.2-.02,10.4-.04,15.6,0,9.72.07,19.45.21,29.17.24,3.8.01,7.61-.03,11.39-.29,6.02-.41,12.03-.76,18.07-.74,3.12.01,6.24-.22,9.36-.2,9.67.05,19.33.12,29,.26,5.84.08,11.68.25,17.52.47,3.43.13,6.84.47,10.27.68.66.04,1.4.13,1.97-.11,2.59-1.09,5.17-.62,7.83-.35,3.47.35,6.97.39,10.46.41,2.4.01,4.81-.25,7.21-.38,1.74-.1,3.49-.22,5.23-.25,2.23-.04,4.44,0,6.65.53,2.69.65,5.4.08,8.06-.44,1.41-.28,2.8-.72,4.18-1.14,1.14-.35,1.82-1.15,2-2.34.16-1.01.41-2.01.44-3.03.21-6.08.68-12.19-1.37-18.1-.79-2.28-1.71-4.5-3.09-6.51-1.96-2.87-4.73-4.38-8.06-5.01-3.1-.59-6.18-.61-8.9,1.2-1.54,1.02-2.91,2.33-4.24,3.63-.87.86-1.06,2.11-.63,3.22.52,1.33,1.22,2.61,2.01,3.8.59.88,1.3.72,1.74-.24.17-.38.31-.79.42-1.19.94-3.61,3.6-5.09,7-5.57.89-.13,1.82-.12,2.72,0,2.37.31,4.51,1.15,5.65,3.4,1.16,2.31,2.15,4.7,3.19,7.07.4.91.31,1.82-.35,2.54-1.94,2.14-3.84,4.33-5.94,6.31-.72.67-1.96,1.02-2.99,1.08-4.06.27-8.06-.02-11.96-1.39-5.98-2.09-9.12-6.68-9.74-13.09-.29-2.97-.13-5.86,1.09-8.65.88-2.01,2.18-3.57,4.22-4.49,3.46-1.56,6.89-3.2,10.36-4.74.69-.3,1.55-.44,2.29-.34,4.38.61,8.62,1.71,12.5,3.96,2.7,1.57,4.64,3.81,6.14,6.49,1.32,2.37,2.61,4.76,3.97,7.1,1.76,3.02,2.53,6.36,3.23,9.72.27,1.29.41,2.61.67,4.26ZM665.66,322.41c-.88-.06-1.59-.17-2.3-.15-2.72.08-5.43.23-8.15.3-6.22.16-12.44.31-18.67.4-2.66.04-5.29-.3-7.88-1.03-2.85-.8-5.72-1.26-8.75-.96-2.62.26-5.32.13-7.94-.21-2.23-.28-4.43-.51-6.67-.35-2.65.19-5.3.51-7.95.61-5.62.21-11.23.41-16.85.45-11.73.09-23.45.11-35.18.09-7.19-.01-14.38-.16-21.57-.21-7.37-.06-14.74-.15-22.12-.1-3.32.02-6.63.49-9.95.5-5.56.02-11.11-.16-16.67-.26-.24,0-.48-.04-.72-.05-8.4-.52-16.8-.06-25.19.21-5.14.17-10.25.11-15.38-.29-3.55-.28-7.11-.42-10.67-.42-3.44,0-6.89.44-10.32.34-6.65-.18-13.28-.11-19.93.16-9.36.38-18.73.48-28.09.49-9,.02-18-.24-27-.35-14.56-.17-29.13-.35-43.7-.44-10.21-.06-20.43.09-30.64.05-11.97-.05-23.93-.28-35.9-.3-12.39-.02-24.78.11-37.17.19-1.39,0-2.79.03-4.16.2-5.77.73-11.56.95-17.36.94-8.22,0-16.44.02-24.66-.02-1.68,0-3.36-.27-5.04-.36-1.14-.06-2.29-.05-3.44-.06-.82,0-1.24.43-1.24,1.22,0,.9-.06,1.82.07,2.71.46,3.07.27,6.13.18,9.21-.11,3.92-.1,7.85.15,11.76.33,5.06.97,10.09,1.41,15.14.15,1.79.33,3.63.09,5.39-.98,7.28-.97,14.56-.67,21.87.36,8.68.63,17.37.88,26.06.18,5.91.2,11.83.42,17.75.18,5.13.53,10.25.8,15.37.38,7.27-.36,14.48-1.05,21.69-.19,1.98-.36,3.97-.4,5.95-.03,1.6.58,2.15,2.19,2.22.84.04,1.69,0,2.54-.03,6.34-.2,12.67-.51,19.01-.56,4.52-.04,9.05.41,13.57.39,6.7-.03,13.4-.34,20.1-.42,10.39-.13,20.79-.22,31.18-.23,3.68,0,7.36.29,11.04.5,2.35.14,4.69.43,7.04.57,4.04.23,8.07.33,12.12-.06,3.96-.38,7.94-.65,11.92-.82,6.22-.25,12.45-.26,18.66-.58,5.93-.3,11.83-.09,17.74.23,4.7.26,9.41.42,14.12.52,2.41.05,4.83-.14,7.24-.21,8.88-.26,17.75-.61,26.63-.73,9.97-.13,19.94-.05,29.91-.03,4.29.01,8.56-.01,12.85-.32,3.96-.28,7.96.13,11.95.14,7.25.02,14.5.08,21.75-.08,7.18-.16,14.36-.59,21.54-.88,6.59-.27,13.16.25,19.73.68,1.33.09,2.67.16,3.91-.47,1.03-.52,2.05-.45,3.17-.32,2.21.26,4.47.57,6.66.37,3.49-.31,6.97-.56,10.48-.54,2.47.01,4.95-.12,7.43-.22,1.44-.06,2.89-.27,4.33-.25,3.68.05,7.37.26,11.05.28,2.6.02,5.19-.23,7.79-.25,5.92-.04,11.85,0,17.77,0,3.92,0,7.85-.04,11.77,0,3.26.03,6.52.1,9.78.26,4.77.22,9.54.32,14.3-.2,2.02-.22,4.08-.2,6.12-.15,3.56.1,7.12.5,10.67.45,7.79-.12,15.58-.43,23.36-.68,4.65-.15,9.3-.32,13.95-.52,6.7-.29,13.39-.61,20.09-.91,3.44-.16,6.88-.27,10.32-.48,1.46-.09,1.74-.39,1.87-1.71.27-2.64.52-5.29.69-7.94.04-.69-.02-1.64-.44-2.05-1.12-1.09-1.06-2.38-.99-3.7.27-5.73.55-11.46.84-17.18.17-3.32.32-6.63.53-9.95.48-7.3.82-14.58.26-21.9-.59-7.58-1.3-15.16-1.1-22.78.04-1.45.17-2.89.18-4.34.05-10.45.07-20.89.11-31.34.03-8.81-.15-17.63,1.63-26.33.05-.22,0-.47,0-.99ZM684.6,485.1c1.38-1.31,1.8-2.86,1.8-4.61-.01-6.89-.03-13.77,0-20.66.04-6.64.12-13.29.22-19.93.29-18.54.69-37.08.44-55.62-.14-10.2-.2-20.41-.14-30.62.07-11.17.36-22.34.47-33.52.05-4.71.02-9.42-.24-14.12-.13-2.38-.71-4.77-1.34-7.09-.5-1.85-1.42-2.23-3.3-2-1.13.14-2.28.28-3.41.25-7.67-.22-15.34-.49-23.01-.75-3.32-.11-6.64-.21-9.97-.31-7.49-.22-14.98-.47-22.47-.63-2.35-.05-4.71.22-7.06.21-6.4-.03-12.81-.14-19.21-.21-2.84-.03-5.68-.05-8.52-.08-11.24-.1-22.48-.33-33.72-.28-12.57.06-25.14.4-37.7.58-6.59.1-13.18.07-19.76.21-3.86.08-7.72.47-11.58.55-3.87.08-7.74.06-11.6-.09-6.27-.24-12.54-.82-18.82-.9-13.3-.17-26.6-.12-39.9-.13-21.76-.02-43.52-.02-65.28,0-3.08,0-6.17.07-9.25.18-5.01.18-10.01.59-15.02.61-7.19.03-14.38-.29-21.57-.32-9.67-.03-19.34.08-29.01.14-7.37.04-14.74.12-22.12.14-9.37.02-18.74-.15-28.1.04-6.76.14-13.52.73-20.29.33-2.89-.17-5.79-.45-8.68-.45-13.12.02-26.23.11-39.35.2-.4,0-.97.02-1.18.27-.87,1.07-1.85.84-2.92.45-.38-.14-.82-.19-1.22-.18-2.23.03-4.47.04-6.7.16-4.64.25-9.29.51-13.92.88-2.91.23-5.78.33-8.62-.52-1.56-.47-3.12-.94-4.71-1.33-2.47-.61-4.55.48-5.22,2.92-.4,1.43-.54,2.97-.56,4.47-.13,12.2-.33,24.4-.26,36.6.08,14.13.36,28.27.63,42.4.11,5.55.45,11.1.66,16.65.09,2.29.17,4.58.18,6.86,0,1.2-.24,2.41-.23,3.61.06,7.31.15,14.61.25,21.92.06,4.53.15,9.06.24,13.59.09,4.47.26,8.93.26,13.4,0,11.78-.1,23.56-.12,35.33,0,2.42.43,4.8,1.28,7.09.5,1.36,1.38,2.03,2.85,2.03,5.32,0,10.64.17,15.95.05,8.88-.2,17.77-.39,26.63-.92,9.91-.58,19.81-.58,29.72-.3,10.82.3,21.63.52,32.45.25,10.03-.25,20.06-.45,30.09-.55,6.28-.06,12.57.16,18.85.13,6.59-.04,13.17-.14,19.76-.38,8.57-.31,17.14-.82,25.71-1.17,4.89-.2,9.79-.47,14.67-.29,4.17.15,8.32.07,12.49,0,11.24-.2,22.48-.2,33.72-.24,6.28-.02,12.56.04,18.84.03,5.07-.01,10.15-.12,15.22-.13,2.28,0,4.57.2,6.85.13,3.5-.11,6.99-.5,10.49-.54,8.16-.1,16.32.01,24.48-.1,11.36-.15,22.72-.49,34.08-.65,10.09-.14,20.19-.14,30.28-.22.81,0,1.62-.14,2.46-.21-.38-1.54-.68-1.88-1.77-2.59-1.85-1.21-3.9-1.48-6.05-1.48-9.67,0-19.34-.1-29.02-.09-25.45.01-50.89-.04-76.33.73-2.23.07-4.45,0-6.67-.44-2-.4-4.08-.67-6.11-.62-4.89.12-9.77.55-14.66.68-9.18.24-18.37.38-27.55.53-8.04.13-16.08.24-24.11.31-3.93.04-7.87.19-11.78-.09-6.83-.5-13.65-.4-20.48-.09-8.57.39-17.14.86-25.7,1.3-7.79.4-15.57.75-23.35,1.22-1.85.11-3.7.51-5.52.93-1.17.27-2.23.22-3.37-.16-1.13-.38-2.32-.7-3.51-.79-4.7-.36-9.4-.83-14.11-.89-10.88-.15-21.76-.15-32.64-.07-3.31.03-6.61.57-9.93.79-2.95.19-5.91.37-8.86.32-3.86-.06-7.72-.49-11.59-.49-9.55.01-19.1.2-28.64.29-2.84.03-5.68.04-8.52-.06-2.47-.09-3.47-1.18-3.55-3.63-.02-.6,0-1.21.01-1.81.09-4.17.23-8.33.28-12.5.07-6.52.07-13.04.13-19.57.05-5.91.15-11.83.19-17.74.02-3.32.04-6.64-.07-9.96-.13-3.98-.48-7.95-.57-11.93-.18-8.45.35-16.9,0-25.36-.17-4.09.08-8.21.15-12.31.08-5.01.25-10.02.24-15.02-.01-5.07-.44-10.15-.26-15.21.21-6.04.46-12.06-.04-18.09-.15-1.8-.3-3.68.08-5.41.7-3.18.43-6.23-.35-9.3-.12-.47-.19-.95-.31-1.41-.35-1.3-.2-2.51.61-3.62.61-.84.62-1.72.35-2.74-.37-1.39-.62-2.83-.68-4.26-.1-2.44.89-3.73,3.32-4.21,1.46-.29,3-.35,4.49-.32,2.41.05,4.83.53,7.22.35,4.95-.36,9.89-.57,14.85-.41,5.5.17,10.99.43,16.49.44,9.19.02,18.37-.02,27.56-.22,6.58-.14,13.16-.63,19.74-.86,3.62-.13,7.24-.08,10.86-.01,4.71.09,9.42.29,14.12.41,2.05.05,4.09.02,6.14,0,7.19-.08,14.38-.03,21.57-.28,13.77-.48,27.54-.62,41.33-.46,9.18.11,18.34.93,27.53.56,10.45-.42,20.9-.78,31.35-1.06,5.37-.15,10.77-.3,16.13-.03,5.74.29,11.47.46,17.21.17,5.08-.25,10.14-.26,15.22.03,4.34.25,8.7.33,13.04.23,6.22-.15,12.43-.62,18.65-.81,4.88-.15,9.77.19,14.66-.33,2.82-.3,5.67-.42,8.5-.42,5.62,0,11.23.19,16.85.23,2.78.02,5.55-.23,8.33-.22,7.25.05,14.5.17,21.75.27.36,0,.76,0,1.07.15,1.73.89,3.54.65,5.32.36,3.36-.54,6.73-.61,10.12-.47,5.37.22,10.75.57,16.12.59,8.82.04,17.65-.16,26.47-.18,2.23,0,4.47.17,6.68.44,4.68.58,9.35,1.03,14.09.6,2.46-.23,4.97-.23,7.42.03,2.37.25,4.7.26,7.05.04,1.44-.13,2.88-.34,4.33-.4,7.06-.33,14.12-.73,21.19-.91,5.8-.15,11.6.05,17.4-.06,9.86-.19,19.69.46,29.53.88,2.33.1,2.95.7,3.13,3.09.21,2.83.34,5.67.31,8.51-.16,12.26-.47,24.52-.57,36.78-.16,19.27-.25,38.54-.28,57.81-.02,14.31.09,28.63.17,42.94.02,3.44.2,6.87.28,10.31.03,1.21.17,2.45-.06,3.61-1.08,5.4-1,10.8-.23,16.21.23,1.57.35,3.24,1.64,4.63ZM684.11,486.6c-.41,1.03-.79,1.9-1.11,2.8-.45,1.28-1.04,2.5-2.14,3.29-1.91,1.36-4.04,2.53-6.36,1.29-2.01-1.07-4.02-1.47-6.25-1.39-2.41.09-4.83.02-7.25.03-5.62.01-11.24-.03-16.86.06-11.12.17-22.23.5-33.35.59-8.1.07-16.19-.15-24.29-.23-6.28-.06-12.56.07-18.83.44-2.81.17-5.66-.38-8.49-.39-3.86-.02-7.72.17-11.59.28-5.01.15-10.02.3-15.03.47-1.14.04-2.29.06-3.42.2-.88.11-1.11.86-1.17,1.61-.07.81.57.97,1.17,1.12.58.15,1.18.26,1.77.39,5.14,1.18,10.3,2.02,15.61,1.71,2.71-.16,5.43,0,8.15.04,1.33.02,2.66.25,3.97.16,9.52-.7,19.05-1.03,28.6-.98,7.43.03,14.87,0,22.3-.11,8.46-.12,16.91-.38,25.37-.54,7.73-.15,15.47-.28,23.2-.33,5.31-.03,10.62.08,15.93.14,1.93.02,3.87.18,5.8.12,2.1-.07,3.92-.93,4.95-2.84.65-1.21,1.09-2.56,1.45-3.89.4-1.45-.43-3-2.12-4.02ZM719.89,493.68c1.77.18,2.94-.37,3.42-1.65.76-2.02,1.31-4.13,1.85-6.22.14-.55.07-1.23-.1-1.78-.47-1.49-1.01-2.96-1.59-4.41-.12-.3-.54-.49-.95-.85-.89,5.07-1.74,9.9-2.62,14.91Z"/>
      <path class="cls-1" d="M734.06,546.97c-2.22.15-3.64-1.06-4.73-2.77-.99-1.58-1.95-3.15-3.38-4.42-1.99-1.76-4.43-2.66-6.79-3.7-3.64-1.61-7.34-3.09-10.97-4.72-1.99-.9-3.47-2.43-4.24-4.49-2.1-5.64-4.16-11.3-6.2-16.97-.75-2.07.37-3.58,2.59-3.55.78.01,1.58.08,2.33.28,4.54,1.23,9.06,2.48,13.58,3.77,1.6.45,3,1.31,4.05,2.61.48.59.93,1.27,1.16,1.99,1.01,3.21,2.69,6.03,4.65,8.74,2.96,4.1,5.94,8.19,8.71,12.42,1.62,2.47,2.63,5.26,2.89,8.28.15,1.71.05,1.92-1.69,2.27-.65.13-1.3.19-1.96.28Z"/>
      <path class="cls-1" d="M61.36,556.72c.35-1.02.53-1.91.95-2.67,2.86-5.09,5.74-10.18,8.69-15.22,2.46-4.21,5.09-8.33,7.5-12.57,1.59-2.81,3.99-4.66,6.72-6.13,4.46-2.4,8.98-4.68,13.47-7.02.32-.17.62-.37.94-.55,1.94-1.11,2.42-1.03,4.2.33.69.53.78,1.11.35,1.71-2.46,3.46-4.12,7.36-5.98,11.14-1.04,2.1-1.89,4.3-2.72,6.49-1.14,3.02-3.1,5.26-6,6.69-.98.48-1.92,1.01-2.91,1.46-3.65,1.64-6.91,3.91-10.15,6.23-2.55,1.82-5.17,3.54-7.67,5.41-1.63,1.23-3.12,2.65-4.66,4-.67.58-1.4.9-2.7.7Z"/>
      <path class="cls-1" d="M340.15,251.67c.35.08.96.13,1.51.35.66.27,1.39.58,1.17,1.55-.18.78-1.26,1.65-1.99,1.56-.93-.13-1.7-.54-2.17-1.43-.71-1.37-.3-2.08,1.48-2.03Z"/>
      <path class="cls-1" d="M343.14,463.54c-1.16.09-2.11.18-3.07.23-4.71.22-9.41.43-14.12.65-.06,0-.12.01-.18.02-2.69.22-3.26-.23-3.17-2.97.11-3.56.38-7.11.6-10.67.33-5.3.63-10.59,0-15.92-.32-2.74-.17-5.55-.05-8.32.33-7.66.75-15.32,1.15-22.97.12-2.29.34-4.57.46-6.86.1-1.99.22-3.98.16-5.97-.09-2.73.03-5.42.48-8.12.4-2.41.26-4.82-.38-7.18-.12-.44-.34-.86-.55-1.37-1.41.58-1.98,1.71-2.63,2.77-2.48,4.04-4.05,8.49-5.75,12.88-3.94,10.19-7.8,20.41-12,30.5-5.41,12.98-11.12,25.84-16.72,38.74-.62,1.44-1.43,2.79-2.12,4.2-.39.79-.99,1.11-1.87,1.16-3.31.21-6.63.48-9.94.74-2.83.22-5.65.47-8.48.69-.46.04-.94-.05-1.63-.09,0-.79,0-1.5,0-2.21.02-12.5.01-25.01.06-37.51.04-10.27.15-20.54.22-30.8.08-10.69.25-21.38.22-32.07-.02-6.94-.36-13.88-.51-20.82-.05-2.11-.04-4.23.11-6.34.18-2.37,1.41-3.31,3.65-2.7,3.9,1.07,7.77.84,11.66.1.77-.15,1.56-.24,2.34-.25,1.58-.02,2.06.37,2.29,1.93.86,5.75,1.2,11.53.62,17.34-.17,1.74-.65,3.52-.4,5.2.62,4.3.27,8.54,0,12.82-.39,5.96-.52,11.94-.76,17.91-.2,4.83-.42,9.65-.6,14.48-.15,3.98-.26,7.97-.39,11.95-.05,1.69-.11,3.38-.12,5.07,0,.72-.02,1.49.25,2.13.19.46.8.93,1.28,1.02.38.07,1.04-.33,1.28-.7.48-.76.79-1.62,1.1-2.47,1.79-5,3.34-10.1,5.38-15,3.18-7.63,6.61-15.16,10.06-22.67,4.36-9.49,8.82-18.94,11.94-28.94,1.37-4.37,2.86-8.71,4.31-13.06.19-.57.51-1.09.72-1.66.96-2.54,2.91-3.72,5.49-4.12,5.4-.85,10.83-.95,16.27-.77,1.8.06,2.37.65,2.45,2.47.06,1.5-.16,3.01-.15,4.52,0,3.8.09,7.6.11,11.4.05,6.52.08,13.05.11,19.57.05,10.33.05,20.66.17,30.99.18,15.82.44,31.65.67,47.47.05,3.62.17,7.24.22,10.87.01.88-.16,1.76-.26,2.74Z"/>
      <path class="cls-1" d="M592.57,462.12c-4.17,0-8.34.02-12.5-.01-.78,0-1.55-.19-2.33-.3-.9-.13-1.6-.58-1.93-1.45-.69-1.79-2.06-2.63-3.82-3.27-1.32-.48-2.55-1.37-3.65-2.28-4.42-3.69-7.79-8.22-10.28-13.41-.81-1.69-1.64-3.36-2.35-5.09-1.42-3.46-1.84-7.11-1.89-10.82-.04-3.02-.03-6.04-.02-9.06,0-1.38-.11-2.76.57-4.07.22-.43.13-1.07.09-1.6-.31-3.91-.55-7.83-.98-11.72-.88-7.95-.15-15.78,1.54-23.56,1.04-4.78,2.06-9.55,3.67-14.18,2.17-6.19,5.35-11.74,10.23-16.21,3.07-2.81,6.15-5.62,9.22-8.44,1.96-1.79,4.26-2.72,6.91-2.72,4.72,0,9.38-.68,14.06-1.22,1.35-.16,2.81-.12,4.1.24,6.07,1.71,11.47,4.75,16.38,8.67,2.59,2.07,4.4,4.8,5.86,7.75,1.79,3.62,3.46,7.31,5.28,10.92,2.28,4.52,3.77,9.29,4.55,14.26.91,5.78,1.72,11.57,2.46,17.38.2,1.54.04,3.13-.03,4.7-.29,5.97-.54,11.94-.93,17.9-.33,4.94-.75,9.88-2.06,14.68-.72,2.61-1.61,5.18-2.51,7.74-1.08,3.07-2.23,6.12-3.39,9.17-.49,1.3-1.02,2.58-1.61,3.84-1.01,2.19-2.57,3.94-4.62,5.21-3.6,2.22-7.23,4.38-11.18,5.94-2.38.94-4.83,1.55-7.41,1.5-3.8-.08-7.61-.17-11.41-.25,0-.07,0-.15,0-.22ZM617.77,400.35c.19-3.59-.14-7.68-.76-11.74-.75-4.89-1.59-9.77-2.41-14.65-.55-3.26-1.67-6.31-3.49-9.07-2.57-3.9-6.1-6.66-10.45-8.33-5.52-2.12-14.38,1.21-17.49,5.88-.63.96-1.27,1.91-1.86,2.89-4.76,7.89-7.33,16.37-6.95,25.65.08,1.86.04,3.74-.15,5.6-.24,2.4-.72,4.77-1.03,7.16-.23,1.78-.63,3.55-.18,5.39.76,3.1,1.4,6.24,2.1,9.36,1.09,4.83,2.08,9.68,3.3,14.47.88,3.44,2.94,5.97,6.34,7.42,4.36,1.86,8.87,2.88,13.59,2.47,5.32-.46,9.59-2.72,12.03-7.75,1.96-4.03,3.49-8.23,4.63-12.56,1.87-7.1,2.66-14.35,2.77-22.2Z"/>
      <path class="cls-1" d="M366.94,413.06c.23-.63.67-1.26.65-1.88-.12-3.13-.39-6.26-.56-9.39-.28-5.18-.64-10.36-.78-15.55-.22-8.37,1.5-16.44,4.11-24.34,1.36-4.13,2.98-8.17,5.21-11.92.64-1.07,1.52-2.01,2.4-2.9,1.82-1.85,3.85-3.5,5.56-5.45,3.84-4.4,8.73-6.58,14.41-7.1,6.19-.57,12.39-1.17,18.59-1.4,4.76-.17,9.25,1.3,13.01,4.28,2.88,2.28,5.58,4.82,8.11,7.49,4.24,4.49,6.72,10.01,8.3,15.9.9,3.37,1.42,6.84,2.11,10.27.06.29.06.6.07.9.11,4.09-1.21,5.95-5.18,6.81-2.94.64-5.95,1.02-8.93,1.48-1.79.28-3.58.55-5.38.71-1.76.15-1.99-.01-2.36-1.71-.36-1.65-.53-3.34-.86-4.99-.74-3.73-1.52-7.45-2.28-11.17-.26-1.29-.87-2.34-1.82-3.27-2.77-2.71-5.95-4.71-9.66-5.87-2.03-.63-4.05-.52-6.08-.04-.12.03-.23.08-.35.1-8.45,1.45-12.33,7.58-14.66,14.87-2.41,7.55-3.67,15.37-3.7,23.35-.01,2.71-.24,5.43-.47,8.13-.58,6.87.02,13.62,1.72,20.29.55,2.16.9,4.37,1.33,6.56,1.43,7.28,6.91,12.8,13.91,14.01,1.75.3,3.48.26,5.2-.26,9.51-2.88,15.57-9.08,18.11-18.7.29-1.11.54-2.23.93-3.31.68-1.86,1.58-2.51,3.57-2.38,2.65.17,5.29.5,7.93.77,1.5.15,3,.32,4.5.5,2.41.28,3.26,1.18,3.56,3.54.69,5.47-.4,10.7-2.23,15.8-1.65,4.62-3.93,8.95-6.46,13.15-.37.62-.77,1.24-1.27,1.75-3.83,3.93-8.11,7.38-13.25,9.3-5.92,2.21-12.12,3.31-18.48,1.75-1.63-.4-3.22-.32-4.85-.08-2.63.39-5.23.74-7.88-.08-2.9-.9-5.45-2.33-7.57-4.46-3.29-3.29-6.5-6.65-9.69-10.03-2.32-2.45-3.42-5.58-4.11-8.76-1.16-5.36-2.04-10.78-2.98-16.19-.6-3.45-1.1-6.91-1.64-10.37.07-.04.14-.07.2-.11Z"/>
      <path class="cls-1" d="M516.63,381.34c.24-2.44.46-4.53.63-6.62.2-2.4.48-4.81.52-7.21.05-3.36-1.23-6.23-3.64-8.59-2.14-2.09-4.53-3.85-7.32-4.94-4.55-1.78-8.67-.64-12.39,2.23-1.8,1.39-2.91,3.36-4.09,5.26-2.95,4.74-4.59,9.94-5.63,15.38-.89,4.68-2.22,9.3-2.15,14.11.08,5.74.2,11.47.43,17.2.15,3.67.42,7.35.83,11,.66,5.85,2.42,11.34,6.15,16.02,3.38,4.23,7.76,6.72,13.28,6.66,4.18-.05,7.53-1.81,9.99-5.29,1.91-2.7,3.22-5.68,4.2-8.79.4-1.27.39-2.74.25-4.09-.26-2.59.51-3.9,3.1-4.35,1.54-.27,3.12-.31,4.68-.44,4.75-.41,9.5-.83,14.48-1.26.08,1.67.29,3.28.21,4.87-.3,5.98-1.1,11.89-2.21,17.78-.67,3.54-2.28,6.59-4.52,9.35-.99,1.22-1.97,2.45-2.93,3.69-.33.43-.7.87-.86,1.37-.54,1.65-1.68,2.79-3.05,3.71-1.95,1.31-3.95,2.56-5.95,3.81-1.34.83-2.88.86-4.39.92-5.86.21-11.72.37-17.57.55-1.87.06-3.75.05-5.62.19-2.31.18-4.43-.32-6.44-1.44-7.79-4.35-14.08-10.15-17.94-18.34-2.14-4.54-3.14-9.37-3.71-14.3-.51-4.44-1.02-8.87-1.37-13.33-.23-3.01-.14-6.04-.25-9.05-.23-5.85-.43-11.71-.79-17.55-.26-4.18-.22-8.32.52-12.45,1-5.58,1.69-11.24,3.02-16.74,2.26-9.33,7.22-16.93,15.53-22.09,4.35-2.7,9.15-4.08,14.19-4.59,7.93-.81,15.81-.35,23.6,1.36,1.75.38,3.47,1.05,5.1,1.79,1.6.72,3.08,1.79,3.99,3.32,2.47,4.14,5.42,8,7.36,12.46,1.48,3.42,2.32,6.97,2.69,10.66.36,3.6.79,7.19,1.2,10.79.05.48.14.96.18,1.44.25,3.19-1.16,4.93-4.31,5.26-1.32.14-2.65.2-3.98.22-3.81.05-7.62.07-11.42.09-1.08,0-2.15,0-3.6,0Z"/>
      <path class="cls-1" d="M211.93,466.22c-1.63.2-3.05.45-4.48.55-4.64.31-9.29.54-13.93.85-1.93.13-3.42-.63-4.53-2.12-.83-1.12-1.17-2.33-.45-3.72.34-.66.52-1.5.51-2.25-.06-4.95-.21-9.9-.3-14.85-.21-11.53-.38-23.07-.63-34.6-.11-5.07-.56-10.13-.57-15.19-.01-4.88.35-9.77.51-14.65.1-3.14.22-6.28.13-9.42-.05-1.73-.42-3.47-.82-5.16-.49-2.08-.97-4.12-.03-6.2.06-.14,0-.34-.03-.74-.64-.04-1.27-.12-1.9-.12-10.52.09-21.03.19-31.55.29-.79,0-1.57.05-2.36.02-1.29-.04-1.85-.47-2.15-1.75-.19-.82-.36-1.67-.34-2.5.1-5.07.25-10.14.39-15.21,0-.24.03-.48.06-.72.35-2.41,1.21-3.28,3.64-3.45,2.17-.15,4.34-.25,6.52-.27,6.29-.05,12.57-.01,18.86-.08,12.03-.14,24.05-.27,36.07-.54,6.52-.15,13.04-.57,19.55-.91,1.87-.1,3.73-.36,5.59-.54,1.98-.19,2.65.27,2.91,2.26.45,3.53.78,7.07,1.2,10.61.31,2.67.07,5.29-.42,7.92-.27,1.41-1.05,2.21-2.34,2.71-2.44.94-5.01.84-7.52.78-4.4-.12-8.8-.45-13.2-.74-3.45-.22-6.87-.12-10.26.66-1.03.24-1.22.46-1.05,1.68.3,2.15.6,4.3.99,6.44,1.12,6.18,1.08,12.36.31,18.57-.58,4.65.1,9.28.32,13.92.18,3.91.34,7.86.09,11.76-.39,5.92-.16,11.82-.02,17.73.1,4.35.28,8.69.43,13.04.28,7.96.57,15.93.84,23.89.02.59,0,1.19,0,2.07Z"/>
    </g>
  </g>
</svg>