<?xml version="1.0" encoding="UTF-8"?>
<svg id="Layer_1" data-name="Layer 1" xmlns="http://www.w3.org/2000/svg" viewBox="0 0 800 800">
  <defs>
    <style>
      .cls-1 {
        stroke-width: 0px;
      }
    </style>
  </defs>
  <g id="viXF3K.tif">
    <g>
      <path class="cls-1" d="M768.77,343.8c-3.11,0-6.22.03-9.33,0-5.7-.06-11.41-.16-17.11-.25-5.16-.08-10.32-.18-15.48-.25-8.52-.11-17.05-.18-25.57-.29-5.03-.06-10.06-.17-15.09-.25-5.61-.09-11.22-.17-16.82-.26-4.12-.07-8.23-.17-12.35-.25-5.97-.11-11.94-.21-17.9-.3-5.78-.09-11.55-.16-17.33-.25-4.89-.08-9.79-.16-14.68-.25-5.22-.09-10.44-.19-15.66-.28-4.83-.09-9.66-.18-14.48-.26-6.31-.09-12.63-.16-18.94-.26-5.49-.08-10.98-.18-16.47-.29-4.15-.08-8.3-.17-12.46-.25-5.06-.09-10.13-.19-15.19-.26-6.61-.09-13.22-.15-19.83-.25-5.22-.08-10.44-.2-15.66-.3-3.98-.08-7.96-.15-11.94-.24-3.58-.08-7.15-.18-10.73-.26-3.84-.09-7.68-.19-11.52-.26-5.46-.1-10.93-.19-16.39-.28-5.7-.09-11.4-.16-17.1-.25-5.92-.09-11.85-.19-17.77-.29-4.12-.07-8.23-.17-12.35-.24-5.54-.1-11.08-.18-16.62-.26-5.71-.09-11.42-.18-17.13-.27-5.61-.09-11.23-.17-16.84-.27-3.57-.07-7.14-.18-10.72-.25-4.96-.1-9.92-.17-14.88-.27-4.11-.08-8.21-.19-12.32-.26-5.43-.1-10.87-.19-16.3-.28-5.47-.09-10.93-.16-16.4-.26-3.7-.07-7.39-.18-11.09-.28-2.86-.08-5.73-.17-8.59-.25-2.83-.08-5.66-.12-8.48-.25-1.1-.05-1.76.35-2.26,1.29-1.72,3.19-3.5,6.35-5.25,9.53-2.9,5.26-5.78,10.53-8.7,15.78-3.24,5.83-6.54,11.63-9.77,17.47-2.81,5.08-5.53,10.21-8.35,15.29-2.68,4.84-5.44,9.63-8.13,14.47-2.2,3.96-4.33,7.96-6.53,11.93-3.33,6.02-6.7,12.01-10.03,18.03-2.21,4-4.37,8.02-6.59,12.02-2.36,4.25-4.76,8.48-7.13,12.72-1.08,1.93-2.13,3.88-3.2,5.81-2.01,3.6-4.04,7.19-6.03,10.79-1.35,2.44-2.64,4.92-3.98,7.36-1.61,2.93-3.17,5.9-4.91,8.76-1.19,1.96-2.82,3.63-4.91,4.64-1.02.49-2.26.66-3.42.7-4.48.16-8.97.27-13.46.28-14.9.02-29.8,0-44.71-.02-.77,0-1.54-.09-2.29-.24-1.44-.29-2.48-2.15-2.26-3.55.57-3.64,2.57-6.65,4.25-9.79,2.35-4.38,4.78-8.72,7.18-13.07,2.28-4.13,4.58-8.26,6.87-12.4,2.68-4.84,5.36-9.69,8.04-14.53,3.14-5.66,6.27-11.31,9.42-16.96,2.76-4.94,5.58-9.85,8.33-14.8,2.96-5.33,5.86-10.69,8.8-16.03,2.69-4.87,5.4-9.73,8.09-14.6,2.76-4.98,5.52-9.97,8.28-14.95,2.87-5.19,5.76-10.38,8.62-15.58,2.58-4.7,5.12-9.42,7.71-14.12,1.23-2.23,2.56-4.41,3.82-6.62.73-1.28.5-1.67-.98-1.68-2.86-.03-5.72-.03-8.58-.08-4.11-.07-8.22-.18-12.33-.25-5-.09-9.99-.18-14.99-.25-6.32-.09-12.64-.15-18.95-.26-3.42-.06-6.84-.21-10.26-.29-4.56-.1-9.11-.16-13.67-.26-3.64-.07-7.28-.18-10.92-.25-5.59-.1-11.17-.17-16.76-.28-2.89-.06-5.79-.17-8.68-.26-2.53-.08-5.05-.16-7.58-.25-2.25-.08-4.52-.05-6.75-.3-2.78-.3-5.57-.7-8.28-1.34-1.21-.28-2.29-1.2-3.35-1.94-.73-.5-.45-1.04.27-1.31.9-.34,1.81-.72,2.75-.9,1.08-.21,2.2-.25,3.3-.3,2.32-.11,4.64-.18,6.96-.28,2.11-.09,4.23-.18,6.34-.27,4.17-.18,8.35-.34,12.52-.54,3.05-.15,6.1-.35,9.15-.51,2.08-.11,4.17-.18,6.25-.27,2.25-.09,4.5-.19,6.75-.28,2.25-.09,4.5-.19,6.75-.28,4.1-.16,8.21-.32,12.31-.49,3.83-.17,7.66-.36,11.48-.54,1.95-.09,3.9-.18,5.85-.27,3.86-.18,7.72-.37,11.58-.54,4.2-.19,8.4-.36,12.61-.53,2.32-.09,4.64-.16,6.96-.25,3.93-.16,7.86-.33,11.79-.5,2.19-.09,4.37-.2,6.56-.3,3.8-.17,7.6-.33,11.4-.52,3.53-.17,7.05-.36,10.58-.54,1.68-.08,3.36-.16,5.04-.22,2.82-.1,5.65-.18,8.47-.28,2.11-.08,4.22-.18,6.34-.27,4.1-.17,8.2-.34,12.31-.52,2.08-.09,4.16-.19,6.24-.29,3.5-.17,6.99-.35,10.49-.52,1.78-.09,3.56-.17,5.34-.24,2.42-.1,4.84-.2,7.27-.3,2.29-.09,4.58-.17,6.86-.26,2.28-.09,4.57-.16,6.85-.26,3.76-.16,7.53-.34,11.29-.51,2.02-.09,4.03-.16,6.05-.25,3.62-.17,7.24-.36,10.86-.54,3.53-.18,7.05-.37,10.58-.54,2.19-.11,4.37-.19,6.56-.27,2.59-.09,5.18-.15,7.78-.25,2.02-.07,4.03-.18,6.05-.27,3.8-.18,7.59-.36,11.39-.53,2.05-.09,4.11-.15,6.16-.24,3.69-.17,7.38-.37,11.08-.54,3.9-.18,7.8-.36,11.7-.53,2.41-.1,4.83-.17,7.25-.27,4.1-.17,8.2-.33,12.3-.52,3.76-.17,7.52-.36,11.28-.54,3.62-.17,7.25-.35,10.87-.52,1.78-.08,3.56-.18,5.34-.25,4.91-.19,9.82-.38,14.74-.57,2.02-.08,4.04-.16,6.05-.25,4.07-.18,8.14-.35,12.21-.54,1.54-.07,3.08-.18,4.63-.25,3.97-.18,7.93-.35,11.9-.52,2.24-.1,4.48-.19,6.73-.28,4.61-.18,9.22-.36,13.83-.54,2.22-.09,4.44-.18,6.66-.27,4.04-.17,8.07-.34,12.11-.51,1.85-.08,3.69-.17,5.54-.26,3.76-.17,7.52-.35,11.27-.53,1.78-.08,3.56-.18,5.34-.25,4.3-.19,8.6-.36,12.89-.55,1.75-.07,3.5-.15,5.24-.22,2.45-.1,4.91-.18,7.36-.29,3.66-.17,7.32-.36,10.98-.54,3.63-.18,7.25-.36,10.88-.53,3.9-.18,7.8-.35,11.71-.51,4.57-.19,9.14-.37,13.71-.55,2.29-.09,4.57-.15,6.86-.26,3.49-.16,6.97-.36,10.46-.53,3.56-.17,7.13-.34,10.7-.5,4.1-.19,8.2-.37,12.29-.55,2.12-.09,4.24-.18,6.36-.26,4.74-.18,9.49-.36,14.23-.55,1.88-.07,3.77-.15,5.65-.24,3.76-.17,7.52-.36,11.27-.54,3.66-.18,7.33-.36,10.99-.53,4.03-.19,8.06-.36,12.1-.53,2.05-.09,4.11-.18,6.16-.25,5.01-.18,10.03-.42,15.04-.49,3.06-.05,5.84,1.06,8.44,2.62,2.01,1.21,4.04,2.38,6.05,3.59,3.51,2.1,7.01,4.22,10.51,6.33,4.97,2.99,9.93,5.99,14.9,8.98,5.32,3.2,10.65,6.36,15.95,9.58,3.2,1.95,6.36,3.98,9.53,5.97,3.12,1.95,6.29,3.83,9.35,5.89.96.65,1.71,1.68,2.4,2.66.52.75.2,1.57-.46,2.16-1.35,1.23-3,1.75-4.79,1.78-3.18.05-6.36.01-9.55.01v-.03Z"/>
      <path class="cls-1" d="M698.37,383.15c1.83-.16,3.29-.25,4.75-.41.86-.09,1.71-.38,2.56-.42,2.93-.13,5.86-.28,8.79-.24,1.61.02,3.15.44,4.33,1.76,3.2,3.59,6.52,7.07,9.66,10.72,3.3,3.83,6.47,7.77,9.63,11.72,1.15,1.43,2.17,2.97,3.13,4.54.66,1.07.19,1.81-1.1,1.8-1.48-.01-2.95-.13-4.42-.28-1.96-.21-3.91-.53-5.87-.75-3.33-.36-6.66-.7-9.99-1.02-1.3-.13-2.61-.18-3.92-.27-2.74-.19-5.49-.37-8.23-.57-3.58-.26-7.16-.58-10.74-.79-3.93-.23-7.86-.35-11.8-.54-.81-.04-1.26.3-1.65,1.02-2.02,3.67-4.12,7.29-6.15,10.95-1.29,2.32-2.49,4.68-3.77,7-2.7,4.9-5.43,9.79-8.14,14.68-2.31,4.17-4.6,8.34-6.9,12.51-2.94,5.35-5.88,10.7-8.83,16.04-2.39,4.35-4.77,8.71-7.2,13.04-2.36,4.2-4.71,8.4-7.19,12.52-1.26,2.09-2.94,3.92-5.37,4.65-1.45.43-3.04.6-4.56.61-14.84.04-29.69.03-44.53.03-2.14,0-3.72-1.34-3.84-3.44-.05-.83.18-1.76.55-2.51,1.39-2.83,2.87-5.6,4.34-8.39.92-1.75,1.87-3.49,2.84-5.22,2.82-5.07,5.67-10.13,8.49-15.21,1.66-2.99,3.26-6.01,4.92-9,3.01-5.43,6.04-10.84,9.05-16.26,2.57-4.64,5.12-9.29,7.69-13.93,1.48-2.66,2.99-5.31,4.47-7.97.24-.44.42-.9.73-1.56-.6,0-1.07-.1-1.47.02-2.5.74-4.98,1.52-7.46,2.32-4.89,1.59-9.78,3.2-14.66,4.82-.89.3-1.83.56-2.6,1.06-.41.27-.67.98-.75,1.52-.66,4.64-1.06,9.32-1.95,13.91-1.06,5.52-2.71,10.89-4.78,16.14-2.32,5.9-5.26,11.45-8.89,16.61-2.02,2.88-4.35,5.56-6.74,8.15-2.28,2.47-4.69,4.84-7.27,6.99-2.52,2.09-5.26,3.93-8.02,5.7-2.23,1.43-4.59,2.68-6.96,3.88-3.5,1.77-7.23,2.99-11.02,4.01-2.42.65-4.84,1.31-7.3,1.77-3.87.72-7.79.95-11.74.89-5.71-.08-11.03-1.55-16.16-3.96-3.55-1.66-6.74-3.8-9.71-6.36-4.38-3.78-7.96-8.14-10.72-13.25-2.08-3.85-3.62-7.88-4.6-12.12-.46-1.98-.67-4.03-.82-6.06-.19-2.38-.4-4.78-.23-7.15.25-3.29.68-6.58,1.35-9.81.62-2.96,1.56-5.87,2.54-8.73,1.66-4.85,3.75-9.53,6.46-13.9,1.81-2.93,3.54-5.92,5.47-8.76,1.33-1.97,2.91-3.78,4.46-5.58,1.73-2.01,3.47-4.04,5.38-5.87,3.47-3.31,7.08-6.5,11.15-9.07,5.04-3.2,10.21-6.17,15.99-7.88,3.39-1,6.79-1.97,10.22-2.81,1.51-.37,3.12-.34,4.67-.6,4.24-.7,8.52-.67,12.78-.47,5.41.26,10.7,1.15,15.53,3.88,3.77,2.13,6.98,4.94,9.84,8.13,2.69,3,4.92,6.35,6.73,9.96.81,1.61,1.51,3.29,2.21,4.95.3.7.73.88,1.42.64,3.18-1.12,6.36-2.23,9.55-3.34,2.35-.82,4.71-1.64,7.06-2.45,5.21-1.78,10.41-3.56,15.63-5.31,1.89-.64,3.86-1.08,5.7-1.84.75-.31,1.4-1.15,1.84-1.9,1.94-3.29,3.8-6.63,5.66-9.97,2.87-5.15,5.72-10.32,8.56-15.49,2.12-3.85,4.16-7.74,6.36-11.54.85-1.47,2.01-2.76,3.04-4.12.53-.7,1.26-.91,2.13-.92,13.75-.06,27.5-.14,41.26-.21,2.57-.01,5.13-.02,7.7.02,1.21.02,2.42.11,3.62.23,1.32.13,2.04,1.66,1.38,3.18-.88,2.03-1.85,4.03-2.86,6-1.01,1.97-2.1,3.9-3.16,5.84-1.95,3.55-3.93,7.09-5.87,10.64-.55,1.01-1.02,2.08-1.66,3.39ZM515.06,471.17c0,.6-.03,1.21,0,1.81.25,4.61,1,9.08,3.91,12.86,2.23,2.88,5.01,4.9,8.85,5,7.1.17,13.71-1.66,19.81-5.17,7.81-4.5,13.55-11.02,17.81-18.89,3.27-6.04,5.83-12.37,7.65-19,.82-2.99,1.19-6.01.64-9.1-.54-3.03-2.67-5.19-5.67-5.74-.43-.08-.87-.12-1.3-.2-2.55-.45-5-1.11-7.04-2.85-2.5-2.13-3.83-4.97-4.72-7.99-1.26-4.28-1.44-8.7-1.2-13.14.06-1.19-.34-1.6-1.52-1.47-2.22.25-4.18,1.21-5.83,2.62-2.99,2.55-5.61,5.47-7.9,8.67-3.69,5.17-7.14,10.48-10.14,16.09-2.68,5.02-5.52,9.96-8.15,15.01-3.5,6.73-5.25,13.92-5.22,21.52Z"/>
      <path class="cls-1" d="M403.6,503.5c-2.98-.24-5.98-.31-8.93-.75-5.68-.84-11.23-2.24-16.3-5.03-4.84-2.66-8.98-6.13-11.73-11.04-1.93-3.45-3.36-7.07-3.64-11.05-.14-2.08-.34-4.18-.2-6.25.27-3.92,1.22-7.72,2.91-11.28,1.18-2.49,2.65-4.84,4.62-6.79,2.6-2.57,5.62-4.53,9.08-5.81,3.52-1.31,7.13-2.02,10.88-2.06,3.74-.04,6.99,1.38,10.07,3.34,2.7,1.72,4.73,4.04,6.1,6.93,1.68,3.56,2.08,7.28,1.5,11.17-.45,3.02-1.28,5.88-2.94,8.47-1.46,2.28-3.21,4.27-5.33,5.99-2.36,1.92-4.83,3.61-7.59,4.87-1.59.72-3.22,1.36-4.81,2.08-.39.18-.98.56-.97.83.01.39.42.86.78,1.12,2.68,1.91,5.72,2.83,8.95,2.32,2.96-.46,5.91-1.19,8.73-2.17,1.76-.61,3.39-1.77,4.88-2.94,3.54-2.79,5.33-6.77,6.55-10.94.98-3.36,1.54-6.84,2.19-10.29.51-2.72.84-5.48,1.31-8.21.59-3.42,1.05-6.88,1.93-10.23.84-3.22,2.07-6.34,3.26-9.46,1.27-3.36,3.01-6.5,4.86-9.57,1.05-1.75,2.01-3.57,3.17-5.25,1.44-2.08-.32-4.51-2.76-4.59-2.02-.06-4.06.24-6.09.45-2.22.23-4.44.56-6.66.83-2.82.34-5.64.68-8.46,1.01-.97.11-1.93.22-2.9.28-2.08.13-4.17.3-6.25.32-1.48.01-2.99-.03-4.42-.35-.95-.21-1.91-.83-2.64-1.51-.94-.86-.7-2.34.37-3.11,1.25-.9,2.66-1.39,4.2-1.41,1.59-.02,3.18.08,4.76-.03,2.19-.16,4.37-.48,6.56-.73,1.46-.17,2.92-.32,4.37-.53,1.87-.27,3.76-.5,5.6-.91,3.5-.78,7-1.58,10.45-2.57,3.14-.9,6.23-1.98,9.29-3.13,3.89-1.45,7.76-2.95,11.57-4.6,3.16-1.37,6.25-2.92,9.32-4.5,3.57-1.84,7.14-3.72,10.61-5.75,3.55-2.08,6.96-4.38,10.46-6.54,2.48-1.53,4.97-3.03,7.51-4.46,1.22-.68,2.97-.27,3.59.89.29.56.19,1.49-.06,2.13-.74,1.9-1.63,3.75-2.48,5.61-1.29,2.8-2.8,5.5-3.84,8.39-1.65,4.58-3.11,9.23-4.42,13.92-1.26,4.56-2.22,9.2-3.32,13.8-.75,3.15-1.56,6.29-2.27,9.44-.61,2.7-1.09,5.42-1.7,8.12-.55,2.4-1.15,4.8-1.83,7.17-1.26,4.43-2.51,8.86-3.92,13.24-1.35,4.21-3.48,8.04-6.09,11.63-2.25,3.08-4.61,6.05-7.39,8.67-4.34,4.08-9.06,7.67-14.21,10.69-5.26,3.08-10.8,5.53-16.66,7.18-2.56.72-5.19,1.22-7.8,1.75-3.89.78-7.82,1.19-11.81,1.24Z"/>
      <path class="cls-1" d="M292.19,413.5c2.88-.21,5.78-.26,8.63-.67,4.4-.64,8.8-1.37,13.13-2.35,4.28-.97,8.57-2.05,12.7-3.52,5.83-2.07,11.62-4.33,17.25-6.9,5.66-2.59,11.19-5.5,16.61-8.56,5.18-2.93,10.14-6.25,15.21-9.37,1.45-.89,2.94-1.71,4.45-2.49,1.24-.63,2.9-.24,3.7.88.23.31.24.88.16,1.3-.55,2.96-2.35,5.36-3.59,8.02-.98,2.1-2.04,4.17-2.83,6.33-1.29,3.52-2.48,7.08-3.55,10.67-.97,3.26-1.73,6.57-2.55,9.87-.78,3.14-1.54,6.28-2.28,9.43-.68,2.93-1.29,5.87-1.98,8.79-.79,3.35-1.61,6.69-2.44,10.03-.74,3-1.49,6-2.28,8.99-1.3,4.91-2.58,9.86-5.06,14.32-1.65,2.97-3.66,5.77-5.71,8.49-1.65,2.19-3.47,4.31-5.47,6.19-4.13,3.9-8.64,7.34-13.6,10.14-5.2,2.94-10.56,5.53-16.33,7.15-2.82.79-5.69,1.43-8.56,2-3.55.71-7.13,1.1-10.77,1.11-3.65.01-7.26-.25-10.87-.78-4.94-.74-9.68-2.07-14.16-4.25-4.09-1.99-7.65-4.68-10.58-8.22-3.57-4.31-5.43-9.26-6.09-14.75-.66-5.47.3-10.66,2.32-15.74,1.36-3.43,3.23-6.48,5.93-9.01,3.69-3.44,7.97-5.69,13-6.42,1.85-.27,3.7-.63,5.56-.75,3.69-.25,6.98,1.05,10.09,2.88,3.79,2.24,6.22,5.58,7.59,9.68.45,1.34.56,2.81.73,4.23.54,4.6-.65,8.85-2.91,12.78-2.1,3.65-5.05,6.58-8.7,8.66-2.98,1.71-6.16,3.09-9.23,4.65-.4.2-.8.54-.99.91-.07.14.42.66.75.87,2.47,1.67,5.18,2.79,8.2,2.45,5.08-.57,10.07-1.56,14.25-4.81,2.36-1.84,3.89-4.33,5.13-7.01,1.57-3.4,2.63-6.94,3.18-10.64.54-3.63,1-7.28,1.62-10.9.7-4.04,1.33-8.12,2.38-12.08.89-3.38,2.23-6.65,3.53-9.9,1.8-4.5,4.42-8.56,7.04-12.62.18-.28.33-.59.47-.89.41-.86,1.19-1.66.52-2.7-.76-1.18-1.81-2.12-3.25-2.12-2.14.01-4.28.25-6.41.44-1.5.14-2.99.36-4.49.56-2.58.34-5.15.69-7.73,1.02-.93.12-1.86.22-2.79.28-3.02.21-6.03.46-9.05.56-1.54.05-3.11-.04-4.62-.33-1.17-.23-2.25-.84-2.63-2.19-.3-1.08.11-2.24,1.09-2.79,1.24-.7,2.57-1.09,4.01-1.06.74.01,1.49,0,2.23,0v.1Z"/>
      <path class="cls-1" d="M191.12,501.45c-7.27,0-14.54.01-21.81-.02-.86,0-1.79-.06-2.55-.4-1.17-.54-1.47-1.76-1.62-2.96-.21-1.76.49-3.34,1.24-4.81,1.72-3.37,3.6-6.66,5.43-9.98,2.53-4.61,5.06-9.23,7.6-13.83,1.81-3.28,3.66-6.55,5.47-9.83,2.73-4.93,5.44-9.86,8.16-14.79,1.53-2.79,3.04-5.58,4.58-8.37,3.57-6.45,7.17-12.87,10.72-19.33,2.36-4.29,4.63-8.63,6.98-12.92,2.3-4.2,4.62-8.4,7.01-12.55,1.28-2.23,2.69-4.39,4.16-6.5.62-.89,1.69-1.27,2.82-1.3.24,0,.47-.02.71-.02,13.27-.08,26.53-.18,39.8-.22,3-.01,6.01.15,9.01.26.56.02,1.15.09,1.67.28.62.23,1,.67,1.06,1.44.13,1.51-.47,2.78-1.13,4.02-2.17,4.09-4.41,8.14-6.61,12.21-1.93,3.57-3.83,7.16-5.8,10.71-2.39,4.32-4.85,8.59-7.24,12.91-1.87,3.38-3.66,6.8-5.53,10.18-2.1,3.82-4.26,7.61-6.37,11.44-2.62,4.76-5.2,9.55-7.8,14.32-2.6,4.76-5.21,9.51-7.82,14.26-1.91,3.47-3.81,6.93-5.74,10.39-1.86,3.34-3.62,6.74-5.66,9.97-2.23,3.51-5.39,5.54-9.78,5.48-7-.09-14-.03-21-.02Z"/>
      <path class="cls-1" d="M268.07,341.5c5.8.08,11.37,1.2,16.65,3.5,2.9,1.26,5.59,2.96,7.75,5.33,2.39,2.63,4.08,5.61,3.84,9.31-.16,2.36-1.12,4.51-2.49,6.38-2.95,4.02-7.09,6.44-11.73,7.99-3.07,1.03-6.22,1.86-9.49,2-2.35.1-4.73.36-7.06.19-4.59-.34-9.09-1.19-13.35-3.06-3.41-1.5-6.41-3.56-8.82-6.38-1.87-2.18-3.12-4.74-3.22-7.64-.09-2.69.9-5.14,2.55-7.26,2.36-3.01,5.33-5.28,8.85-6.79,3.24-1.39,6.62-2.38,10.11-2.88,2.12-.31,4.27-.46,6.4-.69Z"/>
    </g>
  </g>
</svg>